<?xml version="1.0" encoding="UTF-8" standalone="no"?>
<!-- Created with Inkscape (http://www.inkscape.org/) -->

<svg
   xmlns:dc="http://purl.org/dc/elements/1.1/"
   xmlns:cc="http://creativecommons.org/ns#"
   xmlns:rdf="http://www.w3.org/1999/02/22-rdf-syntax-ns#"
   xmlns:svg="http://www.w3.org/2000/svg"
   xmlns="http://www.w3.org/2000/svg"
   xmlns:sodipodi="http://sodipodi.sourceforge.net/DTD/sodipodi-0.dtd"
   xmlns:inkscape="http://www.inkscape.org/namespaces/inkscape"
   width="100.47111mm"
   height="79.58667mm"
   viewBox="0 0 355.99999 282.00001"
   id="svg4332"
   version="1.1"
   inkscape:version="0.91 r13725"
   sodipodi:docname="d_and_r.svg">
  <defs
     id="defs4334" />
  <sodipodi:namedview
     id="base"
     pagecolor="#ffffff"
     bordercolor="#666666"
     borderopacity="1.0"
     inkscape:pageopacity="0.0"
     inkscape:pageshadow="2"
     inkscape:zoom="2.9609928"
     inkscape:cx="177.99999"
     inkscape:cy="141.00001"
     inkscape:document-units="px"
     inkscape:current-layer="layer1"
     showgrid="false"
     fit-margin-top="0"
     fit-margin-left="0"
     fit-margin-right="0"
     fit-margin-bottom="0"
     inkscape:window-width="1920"
     inkscape:window-height="1048"
     inkscape:window-x="0"
     inkscape:window-y="0"
     inkscape:window-maximized="1" />
  <metadata
     id="metadata4337">
    <rdf:RDF>
      <cc:Work
         rdf:about="">
        <dc:format>image/svg+xml</dc:format>
        <dc:type
           rdf:resource="http://purl.org/dc/dcmitype/StillImage" />
        <dc:title></dc:title>
      </cc:Work>
    </rdf:RDF>
  </metadata>
  <g
     inkscape:label="Layer 1"
     inkscape:groupmode="layer"
     id="layer1"
     transform="translate(0,-770.36218)">
    <path
       inkscape:connector-curvature="0"
       id="path4995"
       d="m 143.5,1050.8595 c -51.692453,-4.9859 -91.147751,-20.8392 -107.696595,-43.2729 -2.322541,-3.1484 -4.389008,-5.9494 -4.592149,-6.2244 -0.203141,-0.275 -3.986085,-0.725 -8.406543,-1 l -8.037196,-0.50002 -1.94435,-5.22508 C 10.737431,989.03207 7.2384029,985.55986 2.7765431,984.66749 L 0,984.11218 l 0,-59.875 c 0,-59.17954 0.02319681,-59.875 1.9971192,-59.875 3.6224185,0 9.6104428,-6.51007 11.1810308,-12.15582 l 1.433807,-5.15406 8.944022,-1.80668 C 45.84894,840.74249 58.419366,833.78104 89.913672,808.49704 107.57364,794.31941 113.98102,789.89567 124.5,784.61821 c 32.73877,-16.42531 71.43573,-16.95018 103.96737,-1.41015 12.92151,6.17247 18.83439,10.17549 40.03263,27.10204 29.76621,23.76799 42.12906,30.52901 63.84439,34.91535 l 8.84438,1.78651 1.83299,5.4145 c 1.99655,5.89763 7.54283,11.93572 10.96355,11.93572 1.99715,0 2.01469,0.52119 2.01469,59.875 l 0,59.875 -3.09277,0.61855 c -3.96659,0.79332 -8.37215,5.52234 -10.16112,10.90718 l -1.40341,4.22427 -7.81562,0.50002 c -7.28083,0.4658 -7.95971,0.7039 -9.92135,3.48 -14.49322,20.5107 -41.15672,34.5946 -80.52977,42.5366 -27.91803,5.6314 -68.64545,7.464 -99.57596,4.4807 z m 63,-12.528 c 18.48962,-1.5564 32.76447,-3.8255 47.09253,-7.4859 30.88719,-7.8908 49.57842,-19.1022 59.69903,-35.80874 l 4.34632,-7.17468 7.18106,-0.29381 c 3.94958,-0.16159 7.18106,-0.69844 7.18106,-1.193 0,-0.49455 2.475,-3.57249 5.5,-6.83985 l 5.5,-5.94065 0,-49.5921 0,-49.59209 -3.25676,-2.96358 c -1.79122,-1.62998 -4.59203,-5.17905 -6.22403,-7.88684 -2.93822,-4.87508 -3.06049,-4.94929 -12.49324,-7.58288 -19.34156,-5.40011 -35.19464,-14.80866 -63.52597,-37.70166 -16.3402,-13.20362 -23.45411,-18.03408 -33.79427,-22.94689 -29.18314,-13.86546 -62.22832,-13.86546 -91.41146,0 -10.60967,5.04086 -16.56087,9.13718 -36.447798,25.08772 -27.08088,21.72053 -41.408294,30.0722 -61.069533,35.59838 -8.831196,2.48219 -9.694309,2.95076 -11.182075,6.07064 -0.886714,1.85946 -3.633305,5.54155 -6.103536,8.18243 L 13,875.06959 l 0,49.26264 0,49.26264 5.5,5.94065 c 3.025,3.26736 5.5,6.36501 5.5,6.88366 0,0.51865 3.0375,0.94989 6.75,0.95831 3.7125,0.008 7.221606,0.34592 7.798012,0.75 0.576407,0.40408 2.341751,2.98469 3.922988,5.73469 4.374841,7.60852 8.433761,12.25852 15.029,17.21762 18.901224,14.2124 50.77119,23.8296 90,27.1588 14.38692,1.221 45.02493,1.2692 59,0.093 z m -48.5,-2.9733 c -35.90201,-2.0586 -63.350125,-8.0712 -84.5,-18.5101 -14.798638,-7.3041 -22.937809,-15.086 -30.70349,-29.3557 -1.653585,-3.03852 -1.905015,-3.13022 -8.582635,-3.13022 l -6.879146,0 -3.375475,-4.25 c -1.856512,-2.3375 -4.181826,-4.83802 -5.167365,-5.5567 C 17.111739,973.33026 17,970.20843 17,924.49257 l 0,-48.75621 3.03334,-2.90612 c 1.668337,-1.59837 4.118521,-4.75785 5.444853,-7.02106 2.26921,-3.87212 2.903613,-4.24494 10.750843,-6.31796 10.385324,-2.74351 27.638319,-11.01018 38.594569,-18.49236 4.577983,-3.12637 15.288325,-11.29733 23.80076,-18.1577 8.512435,-6.86037 18.213335,-14.33151 21.557565,-16.60252 8.73246,-5.93011 21.41913,-11.61553 32.61226,-14.61491 8.47789,-2.27179 11.66678,-2.60083 25.20581,-2.60083 13.53903,0 16.72792,0.32904 25.20581,2.60083 11.20003,3.00123 23.88071,8.68542 32.62844,14.62589 3.35313,2.27706 13.08563,9.74613 21.62779,16.59792 8.54216,6.85179 18.79522,14.75959 22.78458,17.5729 10.04322,7.08249 29.16193,16.33332 39.28053,19.00638 8.11457,2.14364 8.57652,2.42182 11.44519,6.89226 1.64413,2.56215 4.12295,5.72345 5.5085,7.0251 l 2.51916,2.36663 0,48.40377 0,48.40377 -5.25,5.89865 -5.25,5.89866 -6.69136,0.0233 -6.69136,0.0233 -3.2216,6.04434 c -10.28359,19.294 -32.70049,32.0712 -69.19847,39.4419 -23.75671,4.7975 -58.12516,7.0333 -84.69721,5.5097 z m 39.5,-3.0002 c 28.91449,-1.6599 48.78443,-5.0201 68.39026,-11.5654 22.95813,-7.6645 35.27632,-16.9372 44.60974,-33.58076 l 3,-5.34966 6.59554,-0.29217 c 6.49355,-0.28765 6.67139,-0.37131 11.5,-5.4097 l 4.90446,-5.11753 0,-46.78476 0,-46.78476 -3.05887,-3.30554 c -1.68238,-1.81805 -4.20999,-4.88054 -5.61691,-6.80554 -2.08663,-2.85501 -3.74278,-3.80756 -8.98697,-5.16892 -9.29943,-2.41409 -23.59996,-8.81982 -33.44288,-14.98028 -4.7021,-2.94294 -17.75031,-12.64967 -28.99601,-21.57051 -11.24571,-8.92085 -23.47336,-18.0046 -27.17255,-20.18613 -31.50185,-18.57757 -70.64738,-18.53696 -102.56925,0.10642 -3.79998,2.21931 -15.06475,10.58475 -25.03281,18.58986 -20.30402,16.30568 -33.973356,25.65311 -44.890012,30.69692 -7.996349,3.69454 -21.652935,8.51264 -24.128511,8.51264 -0.848176,0 -3.287814,2.36303 -5.421418,5.25119 -2.133603,2.88815 -4.622798,5.86825 -5.531544,6.62244 C 20.15878,876.47529 20,881.1256 20,923.62681 l 0,47.01974 4.577323,5.35782 4.577323,5.35781 6.849286,0 6.849287,0 3.235134,5.75 c 9.128071,16.22382 17.909978,23.43822 38.411647,31.55502 22.05376,8.7314 49.54671,13.1317 90.5,14.485 3.025,0.1 13.15,-0.2574 22.5,-0.7942 z m -29.27463,-29.6483 c -1.25105,-0.2712 -2.98683,-1.58 -3.85728,-2.9085 l -1.58264,-2.41541 -2.52758,1.98819 c -2.85393,2.24492 -9.70985,2.59382 -17.25787,0.87832 -2.475,-0.56247 -7.56208,-1.41809 -11.30461,-1.90133 -8.59745,-1.11012 -17.09189,-3.55669 -18.58182,-5.35195 -1.47279,-1.7746 -0.47161,-4.38843 1.97881,-5.16616 2.97672,-0.94477 2.25725,-2.27958 -1.84238,-3.4181 -5.32044,-1.47756 -5.41153,-1.43054 -4.68908,2.42046 0.56784,3.02682 0.33792,3.61593 -1.78952,4.58526 -2.02073,0.9207 -3.80403,0.59255 -10.356236,-1.90573 -4.35334,-1.65987 -10.427017,-3.76105 -13.497059,-4.66927 -7.887456,-2.3334 -13.356265,-5.60783 -13.732687,-8.22241 -0.264043,-1.83402 -0.778456,-2.09228 -3.201985,-1.60758 -3.185126,0.63703 -3.27668,0.45549 -4.49011,-8.90331 -0.602579,-4.6475 -2.014195,-6.16216 -3.101711,-3.32814 -0.30009,0.78202 -0.02974,2.38579 0.600779,3.56392 0.869045,1.62383 0.858052,2.4895 -0.04544,3.57814 -2.477647,2.98539 -9.156237,1.07817 -13.861419,-3.95843 -2.360703,-2.52698 -2.37319,-2.63015 -0.560728,-4.6329 1.359673,-1.50242 2.581492,-1.88852 4.584246,-1.44864 2.524499,0.55447 3.038341,0.0726 6.810728,-6.38659 4.511855,-7.72536 4.765813,-8.6603 2.580224,-9.49899 -2.405968,-0.92325 -1.782409,-4.55257 1,-5.82032 2.734891,-1.2461 3.439848,-1.00014 11.5,4.01232 4.170509,2.59357 4.546841,3.17754 5.139733,7.97551 1.086715,8.79424 1.266002,8.922 6.500785,4.63249 5.128454,-4.20238 3.215887,-4.16395 17.60948,-0.35392 3.07491,0.81394 3.75,1.44494 3.75,3.50512 0,1.90526 -0.81044,2.85111 -3.35334,3.9136 -2.911243,1.21639 -3.702263,2.38398 -5.999997,8.85634 C 93.190997,974.82207 92,978.43446 92,978.74923 c 0,0.31476 1.765273,1.47288 3.922828,2.57358 l 3.922828,2.00128 3.892094,-4.73096 c 7.83302,-9.52127 8.66202,-11.11545 7.2004,-13.84652 -1.15553,-2.15913 -1.06955,-2.69748 0.71603,-4.48306 l 2.02927,-2.02926 6.40827,2.15489 c 3.52456,1.18519 6.89747,2.55823 7.49537,3.05119 0.59789,0.49296 1.65698,4.72688 2.35352,9.40873 0.69655,4.68184 1.80936,10.65008 2.47293,13.26276 1.17816,4.63879 1.30485,4.75754 5.39647,5.05782 2.30449,0.16912 4.19899,-0.0559 4.20998,-0.5 0.011,-0.44413 0.62892,-4.55284 1.37315,-9.13048 1.35074,-8.30805 1.34908,-8.32453 -0.92285,-9.18832 -3.30936,-1.25821 -3.69584,-2.48859 -1.59617,-5.08157 1.80021,-2.22316 2.0837,-2.26061 8.35994,-1.10416 3.57309,0.65836 9.14465,1.19954 12.38124,1.20261 7.2194,0.007 12.88601,1.49573 15.44963,4.05935 2.63857,2.63857 2.56942,8.63094 -0.13279,11.5073 l -2.06786,2.20114 2.56786,2.56786 c 1.41232,1.41232 2.56786,3.64455 2.56786,4.9605 0,3.44566 3.59453,4.83362 7.20334,2.78143 2.71267,-1.54259 2.78418,-1.80804 2.79034,-10.35791 0.006,-8.44218 -0.0884,-8.81078 -2.49368,-9.72525 -2.59543,-0.98678 -3.55597,-5.22934 -1.47512,-6.51538 0.56368,-0.34837 4.95118,-0.79335 9.75,-0.98883 4.79882,-0.19548 9.62512,-0.4995 10.72512,-0.6756 2.93281,-0.46953 3.3972,4.62928 0.55993,6.14774 -1.20359,0.64414 -2.05993,2.10256 -2.05993,3.50824 0,4.82667 1.96658,3.40224 5.45662,-3.95231 2.86741,-6.04249 4.01073,-7.52655 5.80688,-7.53751 1.23008,-0.008 3.18694,-0.26877 4.34859,-0.58057 3.65467,-0.98096 3.89486,2.47596 0.42106,6.06001 -3.59809,3.7123 -3.76955,5.6494 -0.87448,9.87984 4.83568,7.06617 8.04694,9.65437 11.97848,9.65437 2.05965,0 4.02293,-0.45 4.36285,-1 0.33992,-0.55 1.46492,-1 2.5,-1 1.03508,0 2.10452,-0.3601 2.37653,-0.80023 0.46033,-0.74482 -3.21178,-17.15205 -4.06255,-18.15178 -0.21156,-0.2486 -1.94376,-0.347 -3.84932,-0.21867 -3.22812,0.2174 -3.46466,0.0304 -3.46466,-2.73898 0,-1.63477 0.37386,-3.20337 0.83081,-3.48577 0.45694,-0.28241 4.84444,-1.39522 9.75,-2.47292 4.90555,-1.0777 11.16919,-2.93367 13.91919,-4.12439 l 5,-2.16494 3.25,3.74545 c 3.72052,4.2877 3.74014,4.36266 1.82425,6.9711 -1.37327,1.86967 -1.5354,1.87671 -4.40429,0.19113 -4.46278,-2.62204 -6.36655,-2.30403 -5.98638,1 0.32956,2.86422 0.48472,2.90478 7.81642,2.04364 1.92408,-0.226 2.57184,0.21115 2.81185,1.89761 0.23259,1.63429 1.10263,2.26974 3.42299,2.5 3.71646,0.36882 5.34015,3.93026 4.30571,9.44428 -0.57986,3.09093 -1.33025,3.82377 -6.05478,5.91318 -7.11932,3.1485 -20.69065,6.5882 -27.19314,6.89219 -2.86405,0.1339 -5.78905,0.71768 -6.5,1.29731 -4.14258,3.37737 -15.45351,4.17441 -18.93185,1.33399 -2.35259,-1.9211 -2.36783,-1.91904 -4.39178,0.59423 -1.30216,1.61697 -3.63474,2.83139 -6.5,3.38429 -6.48585,1.2513 -16.38328,1.135 -17.72662,-0.2083 -0.87682,-0.8769 -1.51499,-0.8611 -2.63093,0.065 -1.59701,1.3253 -10.70795,2.2373 -14.38608,1.44 z m -5.39071,-11.48218 c -0.39131,-2.76576 -3.14773,-3.19376 -3.65354,-0.5673 -0.44186,2.29438 1.79991,5.12093 3.06116,3.85968 0.50988,-0.50988 0.77645,-1.99145 0.59238,-3.29238 z M 209.5,992.36218 c -0.33992,-0.55 -1.04148,-1 -1.55902,-1 -0.51754,0 -0.94098,0.45 -0.94098,1 0,0.55 0.70156,1 1.55902,1 0.85746,0 1.2809,-0.45 0.94098,-1 z m 52.78981,-10.25 c 0.91963,-0.6875 1.79314,-2.375 1.94113,-3.75 0.23622,-2.19491 -0.0861,-2.47435 -2.64114,-2.2898 -3.94893,0.28522 -4.86239,1.44264 -3.65171,4.62696 1.13196,2.97729 1.91776,3.23241 4.35172,1.41284 z m -99.71472,-4.19316 c 0.76046,-3.02991 -0.41667,-5.41493 -1.68478,-3.4136 -1.17618,1.85625 -1.11427,5.85676 0.0906,5.85676 0.53952,0 1.25688,-1.09942 1.59414,-2.44316 z M 118,975.80316 c 0,-3.00731 -1.54213,-3.16504 -3.06806,-0.31381 -0.88104,1.64624 -0.84327,2.3096 0.16707,2.93402 1.8576,1.14806 2.90099,0.20567 2.90099,-2.62021 z m -42,-4.44098 c 0,-0.55 -0.423442,-1 -0.940983,-1 -0.517541,0 -1.219098,0.45 -1.559017,1 -0.339919,0.55 0.08352,1 0.940983,1 0.857459,0 1.559017,-0.45 1.559017,-1 z m 205.83359,6.53412 c -1.03078,-2.26231 -0.90973,-2.90242 0.88899,-4.70114 l 2.08224,-2.08224 -3.00253,-7.12537 c -1.65138,-3.91895 -3.39683,-7.54224 -3.87878,-8.05174 -1.15422,-1.22024 -4.92351,2.19337 -4.92351,4.45891 0,2.95657 -2.34375,4.11541 -4.81815,2.38228 C 266.50353,961.60146 266,960.23696 266,956.86449 c 0,-2.41157 0.56244,-4.74636 1.25,-5.18899 0.6875,-0.4426 5.20075,-2.47122 10.02945,-4.50805 4.82869,-2.03683 10.81375,-5.07626 13.30013,-6.7543 2.48638,-1.67803 4.97451,-3.05097 5.52919,-3.05097 0.55468,0 2.78212,1.42531 4.94987,3.16736 4.6983,3.77566 5.47858,7.83264 1.50646,7.83264 -1.3392,0 -3.51426,-0.41037 -4.83347,-0.91194 -5.00891,-1.90438 -5.20084,0.20467 -0.79015,8.68257 3.94142,7.5759 4.34249,8.0046 7.36349,7.87084 2.75338,-0.12191 3.23733,0.22374 3.50103,2.50056 0.23098,1.99428 -0.43813,3.1719 -2.7292,4.80328 -3.85826,2.74733 -14.59007,7.60243 -18.81338,8.51123 -2.8428,0.61174 -3.38176,0.37784 -4.42983,-1.92242 z M 169.01768,953.23186 c -3.4522,-2.10448 -6.21191,-5.00878 -5.46713,-5.75357 0.21287,-0.21286 1.49672,0.34007 2.853,1.22873 3.83335,2.51172 9.93081,3.5213 15.25722,2.52622 C 187.73847,950.09781 194,946.04388 194,943.2444 c 0,-1.95169 -0.21973,-1.89648 -3.33377,0.83769 -1.83358,1.6099 -5.43543,3.51551 -8.00413,4.2347 -9.76614,2.73436 -18.11347,-0.89338 -23.15334,-10.0624 -2.59774,-4.72609 -2.96108,-6.38049 -2.94114,-13.39221 0.0229,-8.0553 1.95156,-13.91046 6.16025,-18.70179 1.33842,-1.52371 1.25148,-2.09555 -0.8308,-5.46475 -3.06995,-4.96729 -3.21319,-13.0937 -0.29957,-16.99618 3.94789,-5.28776 6.66243,-6.56619 13.85416,-6.5247 4.4962,0.0259 7.50386,0.58348 9.22257,1.70962 2.27994,1.49388 2.48016,2.11169 1.88758,5.82447 -0.36459,2.28433 -1.35704,5.21394 -2.20545,6.51023 -1.07286,1.63925 -1.2243,2.67516 -0.49733,3.40213 1.08516,1.08516 2.07381,-0.62396 3.90984,-6.75903 0.49379,-1.65 1.3103,-2.775 1.81446,-2.5 1.1051,0.60278 1.10434,6.44354 -10e-4,10.25 l -0.79881,2.75 5.48597,0 c 3.59891,0 5.9043,0.50407 6.70215,1.46541 1.45979,1.75894 0.5538,8.46624 -1.51181,11.19236 -1.81076,2.38977 -1.80784,3.34223 0.0103,3.34223 0.87543,0 1.98743,-1.77542 2.75,-4.39067 1.68478,-5.77797 3.3392,-5.36451 3.0515,0.76261 -0.27568,5.86294 -1.54585,7.62806 -5.48952,7.62806 l -2.97299,0 0.34544,14.34557 c 0.39282,16.31318 0.44133,16.18195 -7.43311,20.10595 -6.71451,3.34598 -15.60637,3.52557 -20.70377,0.41816 z m 25.91802,-39.29783 c 1.2283,-1.4752 1.23315,-1.84946 0.0335,-2.59086 -3.07263,-1.89901 -3.9692,0.93797 -3.9692,12.55967 0,15.44689 1.37921,17.76218 2,3.35741 0.34458,-7.99554 0.94628,-12.13792 1.9357,-13.32622 z m -15.01777,22.02704 c 0.74434,-0.89688 1.05832,-4.58565 0.87245,-10.25 -0.26927,-8.20572 -0.43575,-8.8266 -2.29038,-8.54226 -3.64835,0.55936 -5.5,3.96106 -5.5,10.10415 0,3.12907 -0.50079,6.19001 -1.11287,6.80209 -0.61207,0.61207 -0.81052,1.60207 -0.44098,2.2 0.96803,1.56631 7.09989,1.33905 8.47178,-0.31398 z m -8.92699,-17.59889 c 1.98119,-3.70802 4.18029,-5.08253 7.25906,-4.53714 2.93386,0.51971 3.50246,-0.3104 1.55,-2.26286 -4.62648,-4.62648 -12.8,4.68638 -12.8,14.58423 0,6.31942 1.47133,6.82848 2.06877,0.71577 0.32254,-3.3 1.18751,-7.125 1.92217,-8.5 z M 183,898.38523 c 0,-0.53732 -1.14343,-1.72615 -2.54096,-2.64185 -2.12608,-1.39305 -2.98167,-1.4641 -5.24001,-0.43513 -2.60693,1.18779 -2.63314,1.27796 -0.76791,2.64185 2.18771,1.59969 8.54888,1.92347 8.54888,0.43513 z m -6.31393,-7.9692 c 2.41229,-0.69213 2.55504,-0.91509 1.00016,-1.56207 C 175.30922,887.8649 171,889.86877 171,891.96319 c 0,1.31532 0.28703,1.40567 1.43607,0.45205 0.78983,-0.65551 2.70233,-1.55515 4.25,-1.99921 z m 38.83125,60.58247 c -2.81985,-2.06192 -1.07981,-3.37466 5.48268,-4.13632 6.47421,-0.75141 7.47119,-1.44004 6.5027,-4.49148 -0.57624,-1.81558 -0.81002,-1.85326 -2.92009,-0.47069 -1.36032,0.89131 -5.0993,1.59634 -9.18816,1.73253 -6.43567,0.21436 -6.86404,0.0965 -6.43749,-1.77036 0.56957,-2.4928 0.53323,-80.07582 -0.0391,-83.5 l -0.41786,-2.5 18,-0.25874 c 20.15212,-0.28968 22.42743,0.31118 26.5054,6.9996 2.84178,4.66088 2.70768,13.94209 -0.27758,19.21263 -2.02866,3.58164 -8.80068,9.73746 -11.819,10.74357 -0.81102,0.27034 -0.3649,1.68876 1.36877,4.352 1.41455,2.17302 4.18959,9.13388 6.16675,15.46858 3.6125,11.57423 6.65612,17.98236 8.54096,17.98236 0.55809,0 1.0147,-0.17087 1.0147,-0.37972 0,-0.70295 -9.71987,-29.08747 -11.07235,-32.3341 -1.30948,-3.1434 -1.2471,-3.29848 2.84696,-7.0781 5.06581,-4.67673 8.51156,-12.04033 8.63446,-18.45192 0.10231,-5.33739 1.12319,-6.09516 2.70273,-2.00616 2.28679,5.91985 -0.39653,14.71782 -6.75414,22.14525 l -3.5143,4.10568 5.05059,14.48503 c 5.14097,14.7442 8.27129,21.8801 10.09176,23.00521 1.80344,1.11459 1.07729,4.42145 -1.31513,5.98902 -3.1662,2.07457 -12.5449,4.78202 -14.27084,4.11971 -3.04351,-1.1679 -1.31229,-3.4214 3.51881,-4.58036 2.70521,-0.64897 5.74271,-1.79135 6.75,-2.53862 1.69941,-1.26073 1.71301,-1.47896 0.18859,-3.02694 -1.53317,-1.55689 -1.77477,-1.53635 -3.61878,0.30766 -2.72541,2.72541 -11.77693,4.8662 -13.72813,3.24685 -0.79602,-0.66064 -4.18593,-9.6602 -7.53312,-19.99902 -3.80177,-11.74293 -6.84992,-19.48937 -8.12178,-20.64039 -1.97983,-1.79173 -2.07484,-1.78937 -3.44565,0.0853 -2.08759,2.85496 -2.03728,37.33357 0.0585,40.10447 1.30807,1.72942 1.47166,-0.10381 1.5,-16.80887 0.0307,-18.07273 0.10404,-18.75 2.0318,-18.75 1.9155,0 2.00252,0.68654 2.05961,16.25 0.0328,8.9375 0.50806,18.5 1.05617,21.25 1.85483,9.30622 1.75247,9.84285 -2.11578,11.09198 -6.39632,2.06549 -11.54118,2.464 -13.48268,1.04434 z m 20.7709,-70.85654 c 4.59772,-1.73816 6.24753,-7.10118 3.14035,-10.20835 -1.91984,-1.91984 -13.40015,-2.19985 -15.22857,-0.37143 -1.90552,1.90552 -1.53312,10.5142 0.50415,11.65431 1.88346,1.05404 7.27702,0.55373 11.58407,-1.07453 z m -9.92745,-1.28202 c -1.24893,-3.25464 0.53862,-6.38826 4.0163,-7.04068 4.73069,-0.88748 8.0499,-0.23329 8.40997,1.65756 0.22696,1.19183 -0.74407,1.78278 -3.70822,2.25677 -2.53134,0.40477 -4.41001,1.37891 -5.08244,2.63536 -1.26642,2.36632 -2.83471,2.57812 -3.63561,0.49099 z m -112.78467,65.7226 c -7.04075,-2.41717 -10.9694,-5.16039 -9.49784,-6.63196 0.27914,-0.27913 4.08822,0.63773 8.46463,2.03747 11.02794,3.52716 18.02094,3.59744 23.0593,0.23174 13.94025,-9.3123 19.65913,-44.72031 10.71768,-66.35761 -1.3637,-3.3 -2.74485,-6.675 -3.06923,-7.5 -1.31833,-3.35298 4.07238,2.71323 6.22052,7 6.23324,12.43889 6.71481,33.89113 1.1539,51.40254 -6.65929,20.97023 -17.22692,26.62295 -37.04896,19.81782 z M 118,938.24434 c -1.925,-0.51561 -7.25939,-2.07918 -11.85419,-3.47461 -8.229781,-2.49935 -8.342287,-2.57712 -7.554683,-5.22234 0.806042,-2.70715 1.097003,-66.53831 0.324483,-71.18521 l -0.41561,-2.5 13,-0.28577 c 15.47935,-0.34027 19.68179,0.84367 24.98464,7.03886 7.65533,8.94353 10.49278,18.47868 10.48871,35.24691 -0.004,16.18397 -3.01787,27.83285 -9.21694,35.62342 -4.09541,5.14683 -11.57828,6.94923 -19.75641,4.75874 z m 7.90549,-13.33329 c 1.78865,-0.92494 3.66642,-3.37251 5.17858,-6.75 2.11285,-4.71915 2.37478,-6.77582 2.39417,-18.79887 0.0218,-13.50238 -1.127,-20.48237 -4.01547,-24.39838 -1.09877,-1.48965 -1.70266,-1.64741 -2.80477,-0.73275 -0.77248,0.6411 -2.02404,0.9376 -2.78125,0.65889 -0.75721,-0.27871 -2.05175,-0.0785 -2.87675,0.44493 -1.24741,0.79142 -1.54763,4.78906 -1.78287,23.7395 -0.15559,12.53329 -0.49841,23.40099 -0.76184,24.15043 -0.38326,1.09038 -0.77628,1.11587 -1.96712,0.12756 C 115.24736,922.32258 115,918.1854 115,898.46224 c 0,-27.67205 0.27935,-28.72281 7.38614,-27.78267 3.72967,0.49339 3.93421,0.41178 2.19013,-0.87387 -1.05806,-0.77994 -3.49895,-1.71359 -5.42421,-2.07477 -2.88997,-0.54216 -3.81891,-0.26345 -5.32627,1.59806 -1.65992,2.04991 -1.82579,4.5473 -1.82579,27.48899 0,22.78517 0.16984,25.38218 1.75,26.75872 3.51195,3.05941 7.89019,3.54003 12.15549,1.33435 z M 181,869.07347 c 0,-0.7088 2.5875,-2.80584 5.75,-4.6601 3.1625,-1.85427 7.325,-4.39919 9.25,-5.6554 4.77063,-3.11319 8.79053,-4.54373 9.50764,-3.38343 0.70486,1.14049 -20.29959,14.96472 -22.75764,14.97811 -0.9625,0.005 -1.75,-0.57039 -1.75,-1.27918 z m -12,-0.19929 c 0,-0.53008 14.93677,-10.37205 27.08393,-17.84583 7.40741,-4.55756 13.58758,-6.38515 10.98416,-3.24822 -1.49954,1.80684 -17.57203,11.99063 -29.56809,18.73482 -4.51012,2.53559 -8.5,3.64301 -8.5,2.35923 z m -7.7669,-3.71131 c 0.35917,-1.07751 11.06063,-8.11919 25.57623,-16.82944 8.38568,-5.03192 5.26539,-4.62043 -3.74874,0.49437 -8.21415,4.66088 -10.67285,4.98368 -9.70271,1.27386 0.29266,-1.11914 -0.33409,-3.73268 -1.39277,-5.80787 -1.8509,-3.62806 -2.04094,-3.72926 -4.94499,-2.6331 -1.66107,0.62698 -3.02012,1.67984 -3.02012,2.33969 0,2.48197 3.5865,7.44 5.79355,8.00909 3.08458,0.79535 2.34156,2.40683 -2.32259,5.03732 -4.27462,2.41079 -5.8729,2.15714 -4.93944,-0.78392 0.61233,-1.92927 -2.90494,-8.90069 -4.49063,-8.90069 -0.4378,0 -1.3562,0.675 -2.04089,1.5 -1.77981,2.14453 -2.91207,1.86147 -4,-1 -0.62464,-1.64292 -1.72083,-2.5 -3.19747,-2.5 -2.23603,0 -2.23737,-0.01 -0.27475,-1.96385 1.08472,-1.08012 6.92222,-4.87808 12.97222,-8.43992 6.05,-3.56183 12.8,-7.58519 15,-8.94079 7.82715,-4.82295 18.49071,-9.99806 19.18038,-9.30839 1.0147,1.0147 -1.2675,2.87408 -9.18038,7.47957 -8.53078,4.96511 -11.77737,7.22934 -11.19743,7.80928 0.24165,0.24165 4.17172,-1.82757 8.73349,-4.59827 4.56178,-2.7707 8.78234,-5.03395 9.37904,-5.02944 1.91434,0.0144 10.79565,12.00021 10.14616,13.69275 -0.49848,1.29904 0.001,1.4695 2.91867,0.99603 1.9781,-0.321 3.52007,-0.15088 3.52007,0.38837 0,1.06655 -14.12975,10.41587 -21.05572,13.93207 -2.44435,1.24095 -6.31339,3.53647 -8.59786,5.10113 -4.51157,3.09006 -17.33212,9.86868 -18.67975,9.87658 -0.45834,0.003 -0.65344,-0.53481 -0.43357,-1.19443 z M 183,844.02885 c 0,-1.88088 -0.96233,-2.61836 -2.59777,-1.99078 -2.12706,0.81623 -1.67607,3.32411 0.59777,3.32411 1.1,0 2,-0.6 2,-1.33333 z m 7.99626,-5.41667 c -0.005,-2.17716 -3.62814,-8.25 -4.92254,-8.25 -2.10269,0 -2.08474,2.20808 0.0488,6.00421 2.32222,4.13183 4.88029,5.31057 4.87374,2.24579 z m -11.86595,-0.31974 c 1.59618,-0.85425 1.75971,-1.35785 0.81181,-2.5 -2.25788,-2.72058 -5.40109,-0.97948 -4.18782,2.31974 0.55983,1.52233 0.84034,1.53731 3.37601,0.18026 z M 199,834.36218 c 0,-0.55 -0.45,-1 -1,-1 -0.55,0 -1,0.45 -1,1 0,0.55 0.45,1 1,1 0.55,0 1,-0.45 1,-1 z m -4,-6.5 c 0,-0.825 -0.42344,-1.5 -0.94098,-1.5 -1.26098,0 -2.1641,1.56159 -1.36517,2.36052 1.12619,1.12618 2.30615,0.68589 2.30615,-0.86052 z m -46,8.00123 c 0,-1.34007 5.02796,-4.64055 24.31584,-15.96152 C 183.59397,813.86917 187,812.4395 187,814.15802 c 0,1.31935 -31.31778,21.14811 -35.12705,22.2406 C 149.71405,837.01778 149,836.88476 149,835.86341 Z m 3,-9.45319 c 0,-1.1716 6.32932,-5.52772 15.0961,-10.38982 6.29605,-3.49181 10.69783,-4.75185 9.4292,-2.69916 -0.60424,0.97769 -15.2434,10.80112 -19.20956,12.89035 C 154.6642,827.60832 152,827.70788 152,826.41022 Z"
       style="fill:#959595" />
    <path
       inkscape:connector-curvature="0"
       id="path4993"
       d="m 154.5,1051.7327 c -22.05378,-1.7776 -48.85125,-6.5687 -64.150267,-11.4694 -27.307659,-8.7475 -44.171232,-19.2693 -55.53324,-34.6495 l -3.879581,-5.2516 -7.929912,0 -7.929912,0 -1.134644,-4.21377 C 12.51088,990.83201 6.2943562,984.36218 2.6176471,984.36218 L 0,984.36218 0,924.8308 c 0,-55.83048 0.10879296,-59.56393 1.75,-60.05486 6.2121598,-1.85822 10.370288,-6.43304 12.274431,-13.50449 1.071384,-3.97882 1.654593,-4.33291 8.975569,-5.44951 7.046875,-1.0748 19.82809,-5.35828 27.5,-9.21632 9.756517,-4.90635 19.413084,-11.59438 36.396729,-25.20796 20.518681,-16.44716 25.686441,-20.10124 35.856661,-25.35395 34.87008,-18.00969 74.03033,-18.34392 108.74661,-0.92813 11.66165,5.85018 16.57085,9.25156 36.5,25.2893 16.92842,13.62294 28.50022,21.69977 37.76291,26.35758 7.54731,3.79522 21.89718,8.42477 28.52998,9.20432 6.36507,0.74809 6.8608,1.15935 8.55867,7.10033 1.55964,5.45734 5.4988,10.06957 9.48135,11.10143 l 3.16709,0.82058 0.25787,59.68653 0.25787,59.68653 -2.47308,0 c -3.82943,0 -9.33183,5.48232 -10.89328,10.85353 l -1.35077,4.64647 -8.05239,0.50002 -8.05239,0.5 -4.41285,6.0028 c -20.09486,27.3349 -71.24478,44.0846 -137.28098,44.9545 -13.2,0.1739 -26.25,0.1348 -29,-0.087 z m 40,-12.3732 c 38.96727,-2.0193 67.04302,-7.8775 89,-18.5706 13.67218,-6.6583 21.92304,-13.4591 28.81086,-23.74721 l 5.81087,-8.67951 6.4408,0 6.4408,0 3.56942,-4.96838 c 1.96318,-2.7326 4.77493,-5.8463 6.24834,-6.91933 l 2.67891,-1.95095 0.27725,-49.59438 0.27725,-49.59438 -4.38823,-4.73629 c -2.41352,-2.60496 -5.51451,-6.53629 -6.89108,-8.73629 -2.34382,-3.74582 -3.05734,-4.14163 -11.22859,-6.22881 -10.44263,-2.66736 -24.49859,-9.15677 -35.79427,-16.52564 -4.53878,-2.96093 -16.35499,-11.89066 -26.25824,-19.84385 -25.10103,-20.15835 -36.23394,-26.525 -55.37521,-31.66777 -8.50871,-2.28608 -11.52324,-2.58436 -26.11888,-2.58436 -14.73501,0 -17.56718,0.28615 -26.47652,2.67508 -11.73362,3.14621 -27.38697,10.53351 -36.52348,17.23654 -3.575,2.62281 -13.07147,10.03624 -21.103271,16.47429 -8.031799,6.43805 -18.114897,14.07517 -22.406885,16.97137 -10.674141,7.20284 -26.422233,14.55199 -36.961554,17.24882 -8.613656,2.20408 -8.829209,2.33399 -12.020241,7.24433 -1.787115,2.75 -4.657518,6.32169 -6.378674,7.93709 L 13,873.73636 l 0,50.77773 c 0,49.67619 0.04319,50.80084 1.990817,51.84318 1.094949,0.58599 3.809144,3.52683 6.031544,6.53518 l 4.040727,5.46973 6.836652,0 6.836652,0 3.881804,6.63775 c 14.775707,25.26597 56.366959,41.18717 115.648874,44.27077 8.37811,0.4357 15.68293,0.8555 16.23293,0.9328 0.55,0.077 9.55,-0.3025 20,-0.844 z M 167,1001.072 c -2.02459,-1.0209 -2.59847,-2.20665 -3.01781,-6.23524 -0.58479,-5.61795 -1.45967,-7.47458 -3.52215,-7.47458 -2.22379,0 -2.97356,4.77508 -1.07856,6.86904 2.13453,2.35863 2.04316,3.83333 -0.31574,5.09578 -2.82492,1.5118 -12.99214,1.2644 -18.65681,-0.454 -2.69991,-0.81904 -6.61645,-1.49404 -8.70341,-1.5 -5.00286,-0.0143 -16.3727,-2.90487 -17.69555,-4.49881 -1.42225,-1.7137 -0.31214,-4.19973 2.16456,-4.8474 3.10761,-0.81266 1.68533,-2.87799 -3.07453,-4.46461 -5.16887,-1.72296 -7.39161,-0.49785 -5.26755,2.90332 0.98947,1.58439 1.01288,2.37812 0.10252,3.47504 -1.67603,2.01949 -4.20541,1.77708 -11.37157,-1.08984 -3.452741,-1.38131 -8.704491,-3.2315 -11.670556,-4.11152 C 77.680764,982.59937 70,978.63138 70,977.04533 c 0,-1.81774 2.093053,-3.68315 4.132612,-3.68315 1.629466,0 3.616282,-3.58444 2.567915,-4.63281 -0.265148,-0.26514 -2.962747,1.10478 -5.994666,3.04427 -6.419175,4.1063 -7.100617,3.75556 -8.108861,-4.17364 -1.110565,-8.73389 -2.335846,-10.30117 -4.441084,-5.68067 -0.85691,1.88071 -0.873547,3.10194 -0.06289,4.61666 0.861698,1.6101 0.76298,2.39876 -0.452387,3.61413 -1.406141,1.40614 -1.935471,1.38286 -5.542733,-0.24379 -2.193469,-0.98912 -4.978874,-2.853 -6.189788,-4.14196 -1.853055,-1.97249 -1.994854,-2.59275 -0.895546,-3.91733 0.892471,-1.07537 2.188306,-1.38001 4.091706,-0.96196 2.976035,0.65365 3.807549,-0.29505 9.946237,-11.3479 l 2.40208,-4.32501 -2.476296,-1.9375 c -2.423527,-1.89621 -2.434931,-1.9692 -0.535165,-3.42499 2.634714,-2.019 4.19807,-1.87753 8.426709,0.7625 1.982149,1.2375 4.507947,2.71213 5.612884,3.27697 2.111467,1.07935 3.203486,4.50347 3.400962,10.66401 0.06507,2.03004 0.576604,3.97422 1.136735,4.3204 0.560131,0.34618 3.254922,-1.15131 5.988426,-3.32776 l 4.970006,-3.95717 6.761574,2.02769 c 3.718866,1.11523 7.31461,2.46154 7.99056,2.99178 1.86623,1.46399 -0.32731,4.75408 -3.169596,4.75408 -2.067664,0 -2.765289,1.09176 -5.464817,8.55227 -1.702015,4.70375 -3.08941,8.86625 -3.0831,9.25 0.01953,1.18765 7.78475,4.4899 9.242533,3.9305 0.75784,-0.29081 4.00613,-3.96015 7.21843,-8.15409 5.49631,-7.17592 5.76149,-7.77306 4.49928,-10.13153 -1.15907,-2.16573 -1.11766,-2.72978 0.3048,-4.15224 1.52809,-1.52809 2.06096,-1.51162 7.43477,0.22979 3.18379,1.03172 6.32776,2.34823 6.9866,2.92558 0.65883,0.57734 1.94157,5.77472 2.85052,11.54972 0.90896,5.775 2.2705,11.98896 3.02566,13.80879 1.28726,3.10216 1.63989,3.28951 5.64671,3 l 4.27371,-0.30879 1.20608,-6.5 c 1.92734,-10.38716 1.71249,-12.89246 -1.20057,-14 -2.88021,-1.09505 -3.14426,-2.22042 -0.94855,-4.0427 1.24279,-1.03143 3.08304,-1.05447 9.25,-0.11583 4.2342,0.64446 10.33054,1.16877 13.54742,1.16514 6.85742,-0.008 11.91593,2.08439 13.51257,5.58863 1.71729,3.76903 1.40959,5.28758 -1.70186,8.39903 l -2.84042,2.84042 2.84042,2.49242 c 1.72911,1.51727 2.84042,3.49209 2.84042,5.04748 0,1.53159 0.80113,2.98379 2,3.62541 1.1,0.5887 2,1.74067 2,2.55993 0,3.18919 -11.0063,4.66809 -16,2.14989 z m -4.5,-24.04315 c 0,-2.01667 -0.41762,-3.77917 -0.92805,-3.91667 -1.13572,-0.30594 -2.75301,5.2372 -2.06662,7.08316 0.96748,2.60187 2.99467,0.45836 2.99467,-3.16649 z m -43.68963,-1.41667 c -0.35444,-4.28242 -1.50137,-4.54447 -4.18109,-0.95528 -2.21211,2.96288 -1.47516,4.70528 1.9901,4.70528 2.27896,0 2.47376,-0.33341 2.19099,-3.75 z m 66.7454,24.84022 c -0.96684,-1.56437 0.61492,-4.20462 3.08061,-5.14207 2.22723,-0.84679 2.36362,-1.38583 2.36362,-9.34161 0,-9.70613 -0.49906,-11.60654 -3.04797,-11.60654 -2.42378,0 -3.29348,-1.56761 -2.0761,-3.74208 0.79473,-1.41952 2.39329,-1.76741 8.30413,-1.8072 4.02597,-0.0271 8.72538,-0.38783 10.44315,-0.80161 4.24502,-1.02255 5.29781,1.5633 1.85516,4.55665 -2.47614,2.15297 -3.01538,4.23124 -1.87138,7.21245 1.1041,2.87726 2.3698,1.66178 6.08222,-5.84088 3.29553,-6.66016 4.02716,-7.48914 7.12206,-8.06975 5.22205,-0.97966 6.03916,0.75981 2.33739,4.97588 -3.81726,4.34762 -3.86187,5.17025 -0.54925,10.12699 4.21934,6.31349 8.67826,10.4959 10.8862,10.21109 1.10791,-0.14291 2.5259,0.0588 3.15108,0.4483 0.62518,0.38948 1.69278,0.0381 2.37245,-0.78085 0.67966,-0.81894 1.99065,-1.48899 2.9133,-1.48899 3.3531,0 3.92248,-1.8598 2.39818,-7.83331 -3.60266,-14.11839 -3.02567,-13.01985 -7.01597,-13.35768 -2.00753,-0.16995 -3.79002,-0.75901 -3.96109,-1.30901 -0.71758,-2.30699 1.82898,-3.73599 9.75634,-5.47473 4.62005,-1.01334 10.81298,-2.79686 13.76205,-3.96339 5.90747,-2.33673 7.09712,-1.9755 9.63097,2.92442 2.17393,4.20393 0.50416,5.71473 -3.96969,3.59175 -4.33394,-2.05659 -6.52902,-1.50324 -6.50792,1.64057 0.029,4.31833 1.40581,5.2946 5.63597,3.99633 2.15075,-0.66008 4.17498,-0.78869 4.66715,-0.29652 1.65876,1.65876 0.16275,4.58916 -3.06921,6.01204 -3.25514,1.43307 -4.07455,3.75518 -2.64223,7.48774 1.42191,3.70543 6.45135,0.16852 7.30934,-5.14023 0.48425,-2.99625 1.10171,-3.84781 2.98404,-4.11547 1.3054,-0.18562 2.75495,0.26438 3.22123,1 1.38409,2.18361 0.99457,8.57846 -0.62093,10.19396 -3.53099,3.531 -27.43737,10.24004 -33.17223,9.3094 -2.0868,-0.33864 -3.61563,-0.0248 -4.383,0.89987 -1.48857,1.79361 -7.89551,3.54513 -13.23755,3.61886 -3.33477,0.046 -4.60464,-0.50463 -6.78099,-2.94039 -1.47281,-1.64835 -2.87336,-3.58359 -3.11234,-4.30052 C 209.2527,989.62029 206,990.82115 206,992.71416 c 0,0.77812 0.9706,1.66858 2.15689,1.9788 2.01288,0.52638 2.05499,0.71778 0.63066,2.86663 -0.83943,1.26642 -2.82253,2.58681 -4.40689,2.93431 -4.53799,0.9951 -18.20285,0.965 -18.82489,-0.041 z m 97.18729,-21.6805 c -1.40965,-1.40964 -0.73707,-4.16975 1.35448,-5.55849 2.09204,-1.38906 2.08697,-1.41558 -1.93539,-10.12197 -2.21811,-4.80109 -4.3995,-8.72237 -4.84754,-8.71395 -1.77206,0.0333 -3.30701,1.72226 -4.78924,5.26974 -0.85372,2.04322 -1.90617,3.71495 -2.33879,3.71495 -1.89985,0 -3.18658,-2.72604 -3.18658,-6.75103 0,-4.09222 0.22305,-4.44101 3.75,-5.86392 8.15432,-3.28977 21.35969,-9.81229 22.39751,-11.06279 1.63514,-1.97022 3.59545,-1.6201 7.4683,1.33387 2.38983,1.82281 3.38109,3.31305 3.15954,4.75 -0.1931,1.25241 -0.91609,1.9504 -1.79909,1.73687 -4.73513,-1.1451 -8.79344,-1.24783 -9.4173,-0.23839 -0.38519,0.62324 1.37219,4.93527 3.90529,9.58229 4.47389,8.20746 4.69272,8.43171 7.65071,7.84011 2.88088,-0.57618 3.0273,-0.45312 2.71507,2.28198 -0.28819,2.52451 -1.40761,3.43193 -8.83003,7.15782 -8.69958,4.367 -13.93856,5.9613 -15.25694,4.64291 z M 167.82591,946.10706 c -11.88276,-7.26038 -14.43064,-25.13126 -5.46427,-38.32645 l 2.4683,-3.63244 -2.4956,-4.64299 c -6.09302,-11.33586 1.56145,-22.97284 14.32985,-21.78546 9.0774,0.84415 10.82547,3.07077 8.23798,10.49324 -1.30479,3.74293 -2.02924,3.85448 -5.99428,0.923 -2.79142,-2.06379 -3.208,-2.11621 -5.70951,-0.71846 -3.44744,1.92632 -4.06564,6.07742 -1.31473,8.82833 2.84726,2.84726 8.29685,3.57866 17.55596,2.35621 11.33121,-1.49601 13.39427,0.20101 10.46383,8.60729 -1.02876,2.95109 -1.32903,3.10843 -4.85597,2.54445 -3.34467,-0.53483 -3.82895,-0.34137 -4.38978,1.75362 -1.05191,3.92941 -0.73165,22.34417 0.44742,25.72645 1.3565,3.89126 0.17291,5.63648 -5.60511,8.26485 -5.64363,2.56722 -13.10193,2.40196 -17.67409,-0.39164 z m 12.61739,-9.96739 c 1.17246,-1.67392 1.55292,-4.82102 1.54139,-12.75 -0.008,-5.79012 -0.41556,-11.15969 -0.90475,-11.93238 -1.59801,-2.52412 -7.29966,-1.52956 -10.26822,1.79113 -4.50566,5.04012 -5.89728,12.57989 -3.41735,18.51519 2.6568,6.35862 9.9477,8.80368 13.04893,4.37606 z m 29.17208,4.97251 c 1.10753,-2.93638 1.10753,-79.56362 0,-82.5 l -0.84864,-2.25 18.58183,0 18.58184,0 3.40093,2.98606 c 9.23502,8.10845 5.77293,24.8388 -6.42807,31.06329 -2.1468,1.09521 -3.90327,2.23103 -3.90327,2.52403 0,0.293 1.13648,2.19635 2.52552,4.22967 1.38903,2.03332 4.3276,9.41605 6.53015,16.40605 2.42158,7.68514 5.02102,13.91703 6.5758,15.76477 1.41414,1.68062 2.34651,3.64113 2.07192,4.3567 -0.27459,0.71556 -3.03999,1.91054 -6.14533,2.6555 -4.82868,1.15839 -5.84336,1.14886 -7.00876,-0.0658 -0.74947,-0.78115 -3.49874,-8.39527 -6.10949,-16.92027 -6.97393,-22.77228 -9.52884,-27.33954 -13.22566,-23.64272 -1.15531,1.15531 -1.40167,5.2336 -1.27963,21.18253 0.0875,11.4296 0.58858,20.56909 1.18934,21.69162 0.571,1.06692 0.81237,2.16567 0.53638,2.44166 -0.90479,0.90479 -8.07952,2.2787 -12.02687,2.30305 -3.59807,0.0222 -3.80769,-0.13242 -3.01799,-2.22614 z m 27.40464,-60.26035 c 5.15146,-2.66392 6.52188,-7.94775 2.97998,-11.48965 -1.58613,-1.58613 -3.33333,-2 -8.4433,-2 -5.5247,0 -6.66523,0.31685 -8,2.22251 -1.7818,2.54387 -2.04413,7.9982 -0.52152,10.84323 1.30391,2.43638 9.60647,2.68805 13.98484,0.42391 z m -126.22466,54.60946 c -11.263303,-3.22525 -13.22231,-4.43283 -11.726214,-7.22831 0.663669,-1.24008 0.921625,-14.31989 0.728987,-36.96382 L 99.5,856.22454 l 14.58175,0.31882 c 14.30761,0.31283 14.65269,0.37299 18.35517,3.19993 9.11199,6.95724 13.96998,20.03588 13.97334,37.61889 0.004,18.38007 -3.61937,30.37187 -11.25373,37.25 -3.72607,3.35699 -4.71221,3.74361 -9.40941,3.68902 -2.88592,-0.0335 -9.61421,-1.3115 -14.95176,-2.83991 z m 15.24449,-9.61972 c 6.11733,-3.16339 9.62586,-16.07551 8.66197,-31.87778 -0.82466,-13.51958 -3.44589,-20.13609 -9.85872,-24.8854 -3.08026,-2.28124 -10.52416,-2.85031 -11.73146,-0.89685 -1.29497,2.0953 -2.18841,50.66198 -0.99496,54.08549 1.63183,4.68108 8.41549,6.42267 13.92317,3.57454 z m 57.31978,-58.32429 c 0.91829,-1.01469 4.02553,-3.0602 6.90499,-4.54557 2.87946,-1.48537 6.71908,-3.63397 8.53248,-4.77467 1.81341,-1.14069 3.54093,-1.83017 3.83893,-1.53217 0.72439,0.7244 -17.66864,12.69731 -19.50585,12.69731 -1.17063,0 -1.12768,-0.34528 0.22945,-1.84489 z m -9.32653,-0.87942 c 0.0655,-1.535 29.73301,-19.8429 30.65724,-18.91867 0.87095,0.87095 -1.75016,2.85434 -9.69034,7.33266 -3.575,2.01632 -8.3,4.87273 -10.5,6.34756 -5.4325,3.64184 -10.50715,6.18158 -10.4669,5.23845 z M 167,861.9572 c 0,-0.22274 2.1375,-1.64226 4.75,-3.15449 2.6125,-1.51223 9.025,-5.53547 14.25,-8.94053 13.37038,-8.71328 18.78661,-11.7378 20.18502,-11.27166 1.47063,0.49021 -4.91089,4.9636 -15.68502,10.99506 -4.4,2.46316 -11.02937,6.34556 -14.73193,8.62754 C 169.69525,861.95595 167,863.10686 167,861.9572 Z m -3.49833,-4.59232 c -0.34084,-0.55148 -0.32554,-1.47867 0.034,-2.06042 0.64841,-1.04915 -3.96014,-8.94228 -5.22112,-8.94228 -0.36139,0 -1.48276,0.74724 -2.49194,1.66054 -1.99591,1.80627 -3.08361,1.33355 -3.28711,-1.42861 -0.0716,-0.9719 -0.46936,-2.31589 -0.88391,-2.98665 -0.80489,-1.30234 7.88627,-7.36957 18.84841,-13.15793 3.3,-1.7425 8.925,-4.92556 12.5,-7.07347 3.575,-2.1479 6.86406,-3.92972 7.30902,-3.95958 1.88026,-0.1262 -0.73538,2.01947 -6.56792,5.38782 -3.43261,1.98236 -8.33719,5.05635 -10.89907,6.83108 -2.56189,1.77474 -7.18517,4.75352 -10.27396,6.61951 -3.08879,1.86599 -5.45243,3.55626 -5.25254,3.75616 0.38362,0.38361 6.84956,-2.92141 12.61382,-6.44746 3.91023,-2.39192 5.07065,-2.09474 5.07065,1.29859 0,3.06507 1.20166,3.75403 4.41608,2.5319 3.12666,-1.18875 3.24585,-2.33731 0.50731,-4.88864 l -2.0766,-1.93466 5.3266,-3.52267 c 2.92964,-1.93747 6.56601,-4.0825 8.08084,-4.76674 3.06293,-1.38351 5.2338,-0.33144 2.48744,1.2055 -2.06481,1.15553 -2.34262,4.87531 -0.36411,4.87531 0.75765,0 1.95003,-0.68979 2.64972,-1.53288 1.1132,-1.34131 1.62329,-1.12261 4.08181,1.75 1.54529,1.80559 2.82792,3.77564 2.85027,4.37789 0.067,1.80583 -2.95013,3.91545 -13.30082,9.30003 -5.41281,2.81582 -10.80043,5.79137 -11.97251,6.61232 -2.98099,2.08796 -4.0158,1.86168 -3.33808,-0.72993 0.36879,-1.41026 -0.32361,-3.76655 -1.89449,-6.44705 -2.46417,-4.20479 -2.49064,-4.2182 -5.68155,-2.87652 -1.76322,0.74137 -3.36747,1.83282 -3.56501,2.42544 -0.59461,1.78384 4.00252,9.05239 6.15806,9.73653 1.98123,0.62882 1.98222,0.65755 0.072,2.08416 -3.60876,2.69511 -5.2897,3.34727 -5.93527,2.30271 z m 20.31788,-13.7527 c 0.25858,-1.82071 -0.15945,-2.25 -2.19098,-2.25 -2.84879,0 -4.0796,1.38225 -3.22165,3.61802 0.9041,2.35605 5.0319,1.31276 5.41263,-1.36802 z m 7.97245,-4.8 c 0.36359,-2.52708 -3.76617,-8.82135 -6.08019,-9.26698 -2.92561,-0.56342 -2.99603,2.47585 -0.16915,7.29957 2.83983,4.84579 5.70542,5.74793 6.24934,1.96741 z m 8.01984,-4.71148 c 0.2311,-1.2 -0.30742,-1.73852 -1.73852,-1.73852 -1.43109,0 -2.07332,0.64223 -2.07332,2.07332 0,2.56265 3.30983,2.27193 3.81184,-0.3348 z m -46.84927,-0.85421 c 1.35441,-1.12703 4.50441,-3.20157 7,-4.61008 2.49558,-1.40851 8.29915,-4.7722 12.89681,-7.47486 8.36736,-4.91863 12.72734,-6.10743 5.4851,-1.49559 -2.11446,1.34649 -8.53068,5.42897 -14.25825,9.07219 -5.72758,3.64322 -11.12758,6.60906 -12,6.59076 -1.17604,-0.0247 -0.94943,-0.56317 0.87634,-2.08242 z M 155,824.33553 c 3.09852,-2.45673 19.02013,-11.28655 19.49509,-10.8116 0.69476,0.69477 -18.43337,12.83762 -20.18855,12.81601 -1.51522,-0.0186 -1.40339,-0.34188 0.69346,-2.00441 z"
       style="fill:#3b3b3b" />
    <path
       inkscape:connector-curvature="0"
       id="path4991"
       d="m 166.56047,1000.03 c -1.20395,-0.88029 -1.9896,-3.07851 -2.3166,-6.48163 -0.51881,-5.39931 -2.1861,-7.80607 -4.73114,-6.82945 -1.80022,0.69081 -2.09799,7.658 -0.39986,9.35613 0.61207,0.61207 0.81052,1.60207 0.44098,2.2 -0.96529,1.56188 -14.66243,1.35328 -19.7689,-0.30107 -2.35672,-0.7635 -6.36775,-1.44007 -8.91339,-1.50347 -6.61816,-0.16485 -16.28299,-3.29066 -16.68873,-5.3975 -0.18868,-0.97972 0.29054,-1.71083 1.1214,-1.71083 0.79798,0 2.02691,-0.69407 2.73094,-1.54238 1.70881,-2.05898 0.20488,-3.51836 -5.30113,-5.14409 -3.57402,-1.05528 -4.45724,-1.0189 -5.71138,0.23524 -1.22254,1.22254 -1.26111,1.83976 -0.21923,3.50807 0.69538,1.11348 0.96756,2.50469 0.60485,3.09156 -0.87589,1.41723 -7.567683,0.30978 -12.250046,-2.0273 -2.012029,-1.00425 -5.799959,-2.34987 -8.417623,-2.99027 -8.371029,-2.04792 -15.936991,-5.87036 -15.557731,-7.86 0.185653,-0.97396 1.350419,-1.91528 2.588369,-2.09183 C 75.638589,974.27488 79,970.01306 79,967.91184 c 0,-1.47586 -3.590115,-0.20539 -8.20855,2.90485 -2.821307,1.89998 -5.45163,3.25551 -5.845162,3.01229 -0.393532,-0.24321 -1.009481,-2.58524 -1.368775,-5.2045 -1.160373,-8.45914 -1.710563,-10.2623 -3.131288,-10.2623 -0.767176,0 -2.136774,1.43469 -3.043552,3.18821 -1.327933,2.56794 -1.414232,3.56363 -0.443578,5.1179 2.88732,4.62333 -3.396819,4.47862 -9.010019,-0.20748 -3.948689,-3.29651 -3.302696,-5.43912 1.378905,-4.5735 3.08706,0.5708 3.299243,0.36762 7.922019,-7.58598 2.6125,-4.49486 4.75,-8.56617 4.75,-9.04734 0,-0.48117 -0.9,-1.43692 -2,-2.12388 -2.497864,-1.55994 -2.519847,-2.41935 -0.09508,-3.71704 1.511072,-0.80871 3.101187,-0.29913 7.690872,2.46463 3.182273,1.91627 6.143168,4.0467 6.579766,4.7343 0.436599,0.6876 0.800707,3.55758 0.809129,6.37774 0.0226,7.56723 1.541576,8.2025 8.032727,3.35945 2.939089,-2.19286 5.375025,-3.96595 5.413192,-3.94021 0.03817,0.0257 3.219394,1.09073 7.069394,2.36664 7.46362,2.47348 9.07672,4.7072 4.030555,5.58127 -2.684369,0.46497 -3.277157,1.32994 -6.174672,9.00982 -1.762875,4.67251 -3.239124,9.01253 -3.280555,9.6445 -0.08237,1.25651 7.119792,5.35097 9.412364,5.35097 1.416888,0 11.187608,-11.46656 13.401038,-15.72697 0.88871,-1.71059 0.86765,-2.69027 -0.0908,-4.22504 -0.95695,-1.53232 -0.97347,-2.27242 -0.0709,-3.17502 0.9026,-0.9026 2.52848,-0.7619 6.97496,0.60359 3.18891,0.97929 6.1603,2.10748 6.6031,2.50707 0.44279,0.3996 1.47712,4.95425 2.2985,10.12146 2.72981,17.17296 3.66807,18.89491 10.29548,18.89491 3.76381,0 4.56567,-1.4306 5.99274,-10.69155 1.59092,-10.32425 1.4915,-11.17414 -1.39181,-11.89781 -2.764,-0.69372 -3.14238,-1.65194 -1.25,-3.16557 0.84087,-0.67258 3.7048,-0.56199 8.75,0.33786 4.125,0.73573 10.02035,1.35555 13.10078,1.37738 6.71387,0.0476 11.58591,1.58575 12.92033,4.07913 1.85527,3.4666 1.1167,6.7988 -2.02111,9.11868 -3.69037,2.72841 -3.72788,3.3825 -0.2889,5.03731 1.86476,0.89731 2.9308,2.38194 3.41484,4.75571 0.38706,1.89813 1.41706,3.97274 2.2889,4.61025 2.02303,1.47927 2.02442,3.05607 0.003,3.83163 -2.88277,1.1062 -12.00609,0.6288 -13.85774,-0.7252 z m -3.16746,-19.24961 c 1.72035,-4.48314 -0.89706,-11.37198 -3.35337,-8.82583 -0.78321,0.81186 -1.40979,5.84091 -1.14096,9.15762 0.14645,1.80673 3.77654,1.53875 4.49433,-0.33179 z m -43.75175,-1.92574 c 0.92272,-2.40456 -0.58628,-8.49247 -2.10501,-8.49247 -0.75522,0 -2.35439,1.58771 -3.5537,3.52824 -1.75528,2.8401 -1.94234,3.81528 -0.95912,5 1.59225,1.91853 5.87678,1.89537 6.61783,-0.0358 z m 66.52703,19.85411 c 0.19374,-1.01593 1.37409,-1.99221 2.62399,-2.17033 2.22734,-0.31741 2.26632,-0.54269 1.98978,-11.5 -0.27299,-10.81681 -0.3563,-11.18677 -2.59051,-11.50346 -1.52981,-0.21684 -2.20089,-0.89145 -1.98954,-2 0.26491,-1.38951 2.09528,-1.77509 10.80845,-2.2769 5.76925,-0.33226 10.71454,-0.40603 10.98954,-0.16392 0.275,0.2421 -0.5125,1.26109 -1.75,2.2644 -1.73383,1.40573 -2.25,2.86359 -2.25,6.35491 0,8.07239 2.07106,6.97636 8,-4.2337 3.10265,-5.86629 3.86897,-6.65316 6.75,-6.93094 1.7875,-0.17235 3.25,-0.007 3.25,0.36799 0,0.37474 -1.35,2.21891 -3,4.09815 -1.65,1.87925 -3,3.92426 -3,4.54447 0,1.98891 6.05893,10.64731 9.66844,13.8165 2.37121,2.08195 4.11232,2.87322 5.41349,2.46025 1.32108,-0.4193 1.91807,-0.13188 1.91807,0.92343 0,1.95195 -2.57252,3.31754 -8.74224,4.64071 -6.38607,1.36957 -9.47497,0.16213 -12.71484,-4.97016 -2.69269,-4.26549 -4.93302,-4.56497 -6.12214,-0.81837 -0.4647,1.46412 -0.0167,2.54656 1.53973,3.7206 3.87027,2.91935 0.29506,4.47549 -11.20337,4.87641 -9.22447,0.3216 -9.91561,0.2134 -9.58885,-1.50004 z M 237,991.94164 c 0,-0.7813 1.40172,-1.72842 3.11494,-2.10471 3.08503,-0.67758 3.10875,-0.73083 2.47023,-5.54427 -0.3546,-2.67306 -1.43951,-7.46345 -2.41091,-10.6453 -1.69142,-5.54027 -1.90963,-5.78744 -5.15467,-5.83852 -3.44469,-0.0542 -4.57689,-1.09877 -3.25333,-3.00147 0.40356,-0.58014 4.55874,-1.85897 9.23374,-2.84185 4.675,-0.98287 10.70315,-2.72937 13.3959,-3.8811 l 4.89589,-2.09405 2.34914,2.9359 c 2.44466,3.05529 3.05471,5.43591 1.393,5.43591 -0.53134,0 -2.5652,-0.76257 -4.51969,-1.6946 -3.29402,-1.57081 -3.67345,-1.57476 -5.1941,-0.0541 -1.30854,1.30854 -1.44587,2.30909 -0.67868,4.9446 1.00826,3.46367 2.83988,3.98145 8.10854,2.29223 1.8488,-0.59275 2.25,-0.34636 2.25,1.38183 0,1.45845 -1.07296,2.55152 -3.5,3.5656 -3.72619,1.55691 -4.29227,3.35044 -2.52475,7.99935 1.22241,3.21518 2.99738,3.24658 6.37873,0.11285 1.72414,-1.59788 2.64602,-3.49353 2.64602,-5.44098 0,-3.33975 1.04297,-4.41125 3.40976,-3.50303 2.28066,0.87518 2.16417,8.59439 -0.15976,10.58615 -2.46695,2.11434 -9.19439,4.58702 -18.64402,6.85263 C 240.85049,993.74365 237,993.8956 237,991.94164 Z m 46,-15.16917 c 0,-0.87434 0.89691,-2.33684 1.99313,-3.25 1.97282,-1.64338 1.95273,-1.75083 -1.97233,-10.54928 -2.18099,-4.88894 -4.201,-9.12454 -4.4889,-9.41244 -1.33861,-1.33861 -5.43563,1.9797 -6.52694,5.28639 -1.58,4.78747 -3.43171,3.96935 -3.80435,-1.68082 l -0.29939,-4.53952 8.03575,-3.23921 c 4.41966,-1.78157 10.57141,-4.76611 13.67054,-6.63231 3.09914,-1.86621 6.15499,-3.3931 6.79078,-3.3931 2.15867,0 7.94672,6.05499 6.84306,7.15865 -0.70217,0.70217 -1.67186,0.68131 -3.06825,-0.066 -2.87789,-1.5402 -8.13246,-1.36213 -8.76919,0.29718 -0.53348,1.39021 7.92524,18.07754 9.72824,19.19185 0.5255,0.32478 1.64504,0.0182 2.48787,-0.68128 1.25016,-1.03754 1.69974,-1.00735 2.44088,0.16391 0.49966,0.78964 0.91537,1.76755 0.92379,2.17316 0.0417,2.00851 -17.81566,10.76253 -21.95456,10.76253 -1.18881,0 -2.03013,-0.6588 -2.03013,-1.58971 z M 168.45738,945.49926 c -7.64077,-4.65949 -10.91352,-12.05879 -10.28143,-23.24512 0.30274,-5.35772 1.00313,-7.66095 3.59996,-11.83837 3.77977,-6.08039 3.87338,-6.94032 1.22783,-11.27942 -2.26371,-3.71282 -2.59735,-10.04277 -0.72443,-13.74415 2.08449,-4.1195 7.40789,-7.0432 12.61857,-6.93034 8.35685,0.18101 9.61444,0.9414 9.51291,5.75192 -0.11157,5.28688 -1.61906,7.08299 -3.97088,4.73116 -2.67376,-2.67376 -8.51184,-1.73861 -10.40849,1.66724 -1.37562,2.47023 -1.3752,3.02977 0.004,5.5 2.48261,4.44617 7.6769,5.62135 18.76696,4.24592 11.41616,-1.41587 12.36557,-0.94278 10.90623,5.43455 -1.00325,4.38421 -1.04253,4.41684 -5.10986,4.24385 l -4.09875,-0.17432 -0.06,16.5 -0.06,16.5 -4.40185,2.25 c -5.54163,2.8326 -13.23185,3.00249 -17.52069,0.38708 z m 12.13763,-8.23938 c 1.5534,-1.71429 1.96544,-3.97521 2.23251,-12.25 0.18014,-5.58124 -0.14622,-11.3852 -0.72525,-12.8977 -0.89888,-2.34801 -1.62116,-2.75 -4.94116,-2.75 -5.09167,0 -8.68261,3.54619 -10.73299,10.59925 -2.03105,6.98657 -1.07082,11.94567 3.12728,16.15075 3.86317,3.8696 8.16768,4.3171 11.03961,1.1477 z m 29.85894,5.02778 c -0.30054,-0.48628 -0.0603,-1.79246 0.53381,-2.90261 1.0406,-1.94438 0.99106,-75.70297 -0.0541,-80.52287 -0.41446,-1.91136 0.16465,-2.01344 13.06632,-2.30316 16.71647,-0.37539 21.17517,0.23823 24.97718,3.43742 7.96952,6.7059 5.82509,21.74036 -4.00098,28.05051 -7.86212,5.04894 -7.52646,4.41556 -4.61427,8.70691 1.42863,2.1052 4.51913,9.74058 6.86779,16.96751 2.85194,8.77557 5.21488,14.21584 7.11424,16.37937 l 2.84396,3.2395 -2.65267,1.00854 c -4.3082,1.63797 -10.2331,2.31131 -10.89625,1.2383 -0.33671,-0.5448 -2.91862,-8.35578 -5.73757,-17.35772 -6.21873,-19.85872 -8.10341,-23.86718 -11.22173,-23.86718 -1.25383,0 -2.81968,0.54 -3.47968,1.2 -1.54955,1.54955 -1.69286,40.01056 -0.15976,42.87519 0.86152,1.60976 0.64675,2.08919 -1.25,2.79043 -3.68168,1.36115 -10.74213,2.02125 -11.33629,1.05986 z m 26.5449,-60.67703 c 6.56986,-3.28309 7.6783,-11.08161 1.98454,-13.96246 -3.50049,-1.77112 -12.07014,-1.61396 -14.76088,0.27071 -1.858,1.30139 -2.22251,2.49866 -2.22251,7.3 0,3.15882 0.54,6.2833 1.2,6.9433 1.77378,1.77378 9.78648,1.45351 13.79885,-0.55155 z m -125.86186,53.17303 c -11.269721,-3.33128 -12.430719,-4.00413 -11.12358,-6.44653 1.04276,-1.94841 1.03032,-66.84375 -0.0134,-69.97495 -0.429258,-1.28777 1.4512,-1.48736 13.29101,-1.41063 13.58839,0.088 13.85286,0.1327 18,3.03894 8.40345,5.88896 13.64482,18.3486 14.45907,34.37169 0.86318,16.98575 -3.49895,32.83008 -10.87251,39.49164 -3.51466,3.17529 -4.42895,3.50331 -9.63045,3.45513 -3.16092,-0.0293 -9.51047,-1.16565 -14.11013,-2.52529 z m 16.44643,-8.88418 c 7.51924,-4.9268 10.68519,-29.37858 5.87893,-45.40504 -0.98629,-3.28878 -3.05895,-6.92134 -5.35148,-9.37906 -3.18174,-3.411 -4.49049,-4.08326 -8.74505,-4.49207 C 110.83655,865.80375 111,865.22507 111,896.24248 c 0,19.82478 0.32347,27.17982 1.25116,28.4485 2.65723,3.63398 10.66698,4.26531 15.33226,1.2085 z m 36.41284,-71.2873 c -0.005,-2.39556 -3.64456,-8.17781 -5.62577,-8.93807 -0.97487,-0.3741 -1.9908,0.0451 -2.55574,1.05461 -0.51572,0.92154 -1.36001,1.4145 -1.87621,1.09547 -1.75885,-1.08702 -0.94192,-2.06184 3.56146,-4.24975 3.91336,-1.90126 4.5,-1.97521 4.5,-0.5673 0,1.98098 3.72099,8.38049 5.89851,10.14452 1.4016,1.13545 1.41314,1.4024 0.0966,2.23469 -2.32477,1.46969 -3.99477,1.14638 -3.99887,-0.77417 z M 175,848.82087 c 0,-2.94371 -4.47784,-10.44463 -6.26254,-10.49049 -1.63654,-0.0421 2.26111,-2.9682 3.95367,-2.9682 0.71988,0 1.30887,0.89619 1.30887,1.99153 0,1.09533 0.83945,2.51577 1.86545,3.15651 1.026,0.64075 1.66971,1.9135 1.43048,2.82833 -0.23924,0.91484 0.27131,2.24951 1.13455,2.96593 2.15962,1.79233 1.97754,2.55076 -0.93048,3.87575 -2.30353,1.04955 -2.5,0.94272 -2.5,-1.35936 z m 10,-5.49008 c 0,-1.11726 -0.70086,-2.30033 -1.55747,-2.62904 -0.89018,-0.34159 -1.3089,-1.24541 -0.97732,-2.10952 0.31909,-0.83152 -0.141,-2.6125 -1.02243,-3.95772 -0.88142,-1.34522 -1.28002,-2.74431 -0.88578,-3.10909 0.39425,-0.36478 0.88713,-0.19246 1.0953,0.38293 0.20816,0.5754 1.89522,3.34923 3.74902,6.16408 2.42482,3.68191 3.06584,5.42259 2.28461,6.20382 C 186.02481,845.93737 185,845.57663 185,843.33079 Z m 7.70822,-4.22257 c 0.27525,-1.43988 -0.69033,-3.80172 -2.67341,-6.53929 -3.08473,-4.25834 -3.23409,-6.20675 -0.47579,-6.20675 0.79579,0 1.44098,0.9374 1.44098,2.09362 0,1.25261 0.8034,2.30371 2,2.61663 1.30345,0.34086 2,1.36402 2,2.93777 0,3.14498 2.55296,4.06652 5.03725,1.81827 1.07951,-0.97694 1.96275,-1.27549 1.96275,-0.66343 0,0.96579 -7.76553,6.19714 -9.19919,6.19714 -0.2879,0 -0.32957,-1.01428 -0.0926,-2.25396 z M 196,830.36218 c 0,-0.55 0.42344,-1 0.94098,-1 0.51754,0 1.2191,0.45 1.55902,1 0.33992,0.55 -0.0835,1 -0.94098,1 -0.85746,0 -1.55902,-0.45 -1.55902,-1 z"
       style="fill:#212121" />
  </g>
</svg>
