<?xml version="1.0" encoding="UTF-8" standalone="no"?>
<!-- Created with Inkscape (http://www.inkscape.org/) -->

<svg
   xmlns:dc="http://purl.org/dc/elements/1.1/"
   xmlns:cc="http://creativecommons.org/ns#"
   xmlns:rdf="http://www.w3.org/1999/02/22-rdf-syntax-ns#"
   xmlns:svg="http://www.w3.org/2000/svg"
   xmlns="http://www.w3.org/2000/svg"
   xmlns:sodipodi="http://sodipodi.sourceforge.net/DTD/sodipodi-0.dtd"
   xmlns:inkscape="http://www.inkscape.org/namespaces/inkscape"
   width="192.09369"
   height="106.44743"
   id="svg2"
   version="1.1"
   inkscape:version="0.48.5 r10040"
   sodipodi:docname="New document 1">
  <defs
     id="defs4" />
  <sodipodi:namedview
     id="base"
     pagecolor="#ffffff"
     bordercolor="#666666"
     borderopacity="1.0"
     inkscape:pageopacity="0.0"
     inkscape:pageshadow="2"
     inkscape:zoom="0.34303779"
     inkscape:cx="7.7734863"
     inkscape:cy="-24.396957"
     inkscape:document-units="px"
     inkscape:current-layer="layer1"
     showgrid="false"
     fit-margin-top="0"
     fit-margin-left="0"
     fit-margin-right="0"
     fit-margin-bottom="0"
     inkscape:window-width="929"
     inkscape:window-height="548"
     inkscape:window-x="2281"
     inkscape:window-y="158"
     inkscape:window-maximized="0" />
  <metadata
     id="metadata7">
    <rdf:RDF>
      <cc:Work
         rdf:about="">
        <dc:format>image/svg+xml</dc:format>
        <dc:type
           rdf:resource="http://purl.org/dc/dcmitype/StillImage" />
        <dc:title></dc:title>
      </cc:Work>
    </rdf:RDF>
  </metadata>
  <g
     inkscape:label="Layer 1"
     inkscape:groupmode="layer"
     id="layer1"
     transform="translate(-364.27375,-395.3367)">
    <path
       inkscape:connector-curvature="0"
       id="path3000"
       d="m 481.70034,499.79569 c -2.39856,-1.08836 -6.35701,-4.00348 -8.79656,-6.47803 -2.43955,-2.47456 -5.13055,-4.49919 -5.98001,-4.49919 -0.84947,0 -3.37674,1.56835 -5.61617,3.48521 -4.54332,3.88892 -8.64424,5.01182 -15.48683,4.24056 -4.49195,-0.50631 -5.2451,-0.34486 -10.05577,2.15553 -3.45205,1.79423 -10.67547,1.59587 -14.9276,-0.40992 -2.07682,-0.97967 -5.46304,-3.5115 -7.52493,-5.6263 -4.39178,-4.50447 -6.34876,-4.73646 -11.34625,-1.34508 -9.1232,6.19117 -18.40486,0.61491 -18.40486,-11.05733 0,-3.5454 -0.32888,-4.53045 -1.37815,-4.1278 -1.71917,0.65971 -3.62185,-1.15137 -3.62185,-3.44748 0,-0.95294 -0.94399,-2.03223 -2.09776,-2.39842 -1.61448,-0.51241 -1.9843,-1.25939 -1.60524,-3.24231 0.34928,-1.8271 -0.13129,-3.0867 -1.65223,-4.3306 -1.72018,-1.40685 -1.89731,-2.0057 -0.89477,-3.02508 1.87128,-1.90268 1.55546,-2.66166 -1.83764,-4.4163 -4.31793,-2.23289 -7.18852,-8.87062 -5.88224,-13.60161 1.28936,-4.66966 4.82617,-7.80791 9.57648,-8.49732 7.33522,-1.06455 9.39094,-2.45095 9.41536,-6.34986 0.0824,-13.16212 14.29433,-21.96648 25.90042,-16.04549 2.34929,1.19852 4.40063,2.03523 4.55853,1.85936 0.68906,-0.76744 4.40764,-10.568 4.94805,-13.0409 0.32706,-1.49662 1.49235,-3.20156 2.58954,-3.78876 1.62982,-0.87226 2.45115,-0.61136 4.48819,1.42568 1.37132,1.37132 2.49331,3.13962 2.49331,3.92956 0,0.78994 0.86645,3.37154 1.92545,5.73688 1.5741,3.51586 2.63895,4.51131 5.83546,5.45513 2.15051,0.63496 6.36735,0.9507 9.37075,0.70164 4.82558,-0.40018 5.83338,-0.13929 8.66454,2.24297 1.76209,1.48271 3.2038,3.30427 3.2038,4.04792 0,2.75759 2.26457,2.60647 5.33641,-0.35613 4.55118,-4.38932 8.08563,-5.44887 15.54658,-4.66053 4.31608,0.45605 6.60767,0.31091 7.07685,-0.44824 1.06591,-1.72467 15.14694,-2.2648 17.01145,-0.65252 0.84079,0.72704 2.20371,1.33987 3.02871,1.36185 2.50863,0.0668 10.24935,1.98001 14.76382,3.64902 3.32074,1.22769 4.67384,1.3203 6.11754,0.41869 1.09688,-0.68501 2.62228,-0.82838 3.73617,-0.35116 1.03536,0.44358 2.85199,0.71303 4.03696,0.59878 1.18497,-0.11426 2.44902,0.26883 2.80902,0.85131 0.35999,0.58248 1.76709,1.05905 3.12689,1.05905 1.3598,0 2.74462,0.70947 3.07737,1.5766 0.33275,0.86714 1.66863,1.981 2.96861,2.47525 1.29999,0.49426 2.36362,1.56895 2.36362,2.38822 0,0.81926 0.9,1.97123 2,2.55993 1.16955,0.62592 2,2.09382 2,3.53518 0,1.35565 0.45,2.46482 1,2.46482 0.55,0 1,1.485 1,3.3 0,1.815 0.52093,3.82093 1.15762,4.45762 0.87682,0.87682 0.86638,1.50854 -0.0431,2.60434 -0.66037,0.79571 -0.92737,2.53567 -0.59333,3.86659 0.3846,1.53237 0.0715,2.86457 -0.85371,3.63242 -0.80358,0.66691 -1.2401,2.05749 -0.97004,3.09018 0.31863,1.21846 -0.24419,2.27107 -1.60324,2.99841 -1.15183,0.61645 -2.09424,1.82771 -2.09424,2.6917 0,0.864 -1.09488,2.43213 -2.43306,3.48474 -1.33818,1.05262 -2.57568,2.90612 -2.75,4.11889 -0.17432,1.21278 -1.21694,2.66631 -2.31694,3.23008 -1.1,0.56377 -2.045,1.58753 -2.1,2.27503 -0.23143,2.89291 -0.49513,3.25 -2.4,3.25 -1.69364,0 -2,0.66667 -2,4.35212 0,5.35504 -3.14432,10.42877 -8.01993,12.94112 -3.77117,1.94323 -8.43433,1.83273 -13.58242,-0.32185 -2.83786,-1.18771 -3.39202,-1.0797 -6.5,1.2669 -6.63614,5.01044 -18.07272,6.2265 -25.75867,2.73893 z m 13.15917,-6.6087 c 0.34732,-0.34732 0.18148,-1.47232 -0.36852,-2.5 -1.61465,-3.01701 -8.92963,-1.98635 -8.92963,1.25816 0,1.40592 8.05787,2.48211 9.29815,1.24184 z m -65.29815,-0.78673 c 0,-2.29272 -1.65803,-3.58179 -4.60699,-3.58179 -3.64207,0 -4.86696,2.46817 -1.64301,3.31067 2.36839,0.61893 6.25,0.78731 6.25,0.27112 z m 95.77083,-1.76929 c -0.61807,-1.85422 -2.77083,-2.16176 -2.77083,-0.39583 0,0.87083 0.7125,1.58333 1.58333,1.58333 0.87084,0 1.40521,-0.53437 1.1875,-1.1875 z m -21.77083,-0.8125 c 0,-0.55 -0.675,-1 -1.5,-1 -0.825,0 -1.5,0.45 -1.5,1 0,0.55 0.675,1 1.5,1 0.825,0 1.5,-0.45 1.5,-1 z m 26,-4.55902 c 0,-0.85746 -0.45734,-1.27636 -1.01631,-0.9309 -0.55897,0.34546 -0.75742,1.04702 -0.44098,1.55902 0.85723,1.38704 1.45729,1.12841 1.45729,-0.62812 z m -100.75,-3.33565 c 1.5125,-0.0579 2.75,-0.55533 2.75,-1.10533 0,-1.12196 -12.82199,-1.38928 -15.5951,-0.32513 -1.59281,0.61121 -1.60335,0.7291 -0.11177,1.25 1.47802,0.51616 3.46839,0.54388 12.95687,0.18046 z m 20.75,-7.53794 c 0,-3.20073 -3.28308,-4.26715 -6.54896,-2.12726 -4.14435,2.71547 -3.04592,4.55987 2.71563,4.55987 3.3939,0 3.83333,-0.27886 3.83333,-2.43261 z m 20.82489,-0.98226 c 0.25687,-2.1827 -0.0423,-2.68992 -1.42889,-2.42288 -0.96458,0.18576 -1.67328,0.67525 -1.57489,1.08775 0.0984,0.4125 0.17889,1.6875 0.17889,2.83333 0,3.06869 2.4397,1.77477 2.82489,-1.4982 z m 21.17511,-0.0851 c 0,-1.375 -0.39754,-2.5 -0.88342,-2.5 -0.48589,0 -1.09848,1.125 -1.36133,2.5 -0.32047,1.67641 -0.0294,2.5 0.88342,2.5 0.78542,0 1.36133,-1.05763 1.36133,-2.5 z m 33,0.10699 c 0,-2.54277 -1.64687,-3.60699 -5.58179,-3.60699 -2.02023,0 -2.41821,0.49372 -2.41821,3 0,2.83333 0.22222,3 4,3 3.55231,0 4,-0.26783 4,-2.39301 z m -37.91014,-11.6799 c 2.46033,-3.20074 2.37032,-3.85704 -1.04342,-7.60811 -1.91696,-2.10639 -4.01844,-3.28876 -6.22068,-3.5 -3.32529,-0.31897 -3.32576,-0.31979 -3.33002,-5.81901 -0.004,-5.27959 -0.11648,-5.51289 -2.80474,-5.82171 -2.78876,-0.32035 -2.79922,-0.2994 -2.49575,5 0.26613,4.64725 0.58991,5.36221 2.55475,5.64126 3.29515,0.46799 3.07314,4.18045 -0.25,4.18045 -2.36641,0 -2.5,0.29661 -2.5,5.55089 l 0,5.55089 7.1121,-0.37377 c 6.11131,-0.32117 7.37462,-0.7153 8.97776,-2.80089 z m -10.66479,-0.26179 c -0.31129,-0.81121 -0.42178,-2.98028 -0.24553,-4.82013 0.2655,-2.77153 0.73049,-3.3452 2.71147,-3.3452 3.27866,0 4.79444,2.64576 3.55047,6.19723 -1.09339,3.12156 -5.07409,4.42374 -6.01641,1.9681 z m -14.26762,-3.16397 c -0.33179,-5.3285 -0.43391,-5.50136 -3.25,-5.50136 -2.50179,0 -2.90936,0.38369 -2.92111,2.75 -0.007,1.5125 -0.27607,3.72841 -0.59681,4.92424 -0.48384,1.80391 -0.0983,2.24678 2.26365,2.60016 1.56575,0.23427 3.29682,0.49397 3.84682,0.57713 0.5984,0.0905 0.86243,-2.05816 0.65745,-5.35017 z m 39.65897,2.74864 c -0.17403,-1.5125 -0.76642,-2.75 -1.31642,-2.75 -0.55,0 -1.04541,1.2375 -1.10091,2.75 -0.0644,1.75396 0.41244,2.75 1.31642,2.75 0.95623,0 1.31439,-0.89467 1.10091,-2.75 z m 16.18358,1.87245 c 0,-0.48266 -0.675,-1.43776 -1.5,-2.12245 -1.2532,-1.04007 -1.5,-0.89568 -1.5,0.87755 0,1.21996 0.63782,2.12245 1.5,2.12245 0.825,0 1.5,-0.3949 1.5,-0.87755 z m 12.26022,-1.66292 c 3.27468,-3.03646 3.40325,-4.37026 0.70082,-7.27097 -3.50161,-3.75854 -4.57763,-2.66057 -4.03975,4.12211 0.1226,1.54587 -0.31464,3.45837 -0.97164,4.25 -2.12895,2.56523 1.30166,1.68888 4.31057,-1.10114 z m -136.51022,0.91018 c 1.88757,-0.50585 2.25,-1.29027 2.25,-4.86976 0,-3.71778 -0.31092,-4.32623 -2.41642,-4.72872 -2.28115,-0.43607 -2.43509,-0.16263 -2.75,4.88478 -0.18347,2.9407 -0.10858,5.33996 0.16642,5.3317 0.275,-0.008 1.5125,-0.28636 2.75,-0.618 z m 49.25,-2.26272 c 0,-1.01369 -3.04579,-2.39454 -3.74326,-1.69706 -0.25136,0.25135 -0.16039,0.93695 0.20214,1.52354 0.79781,1.29088 3.54112,1.42531 3.54112,0.17352 z m -33.16403,-3.63673 c 0.18479,-1.58153 1.0403,-3.39052 1.90113,-4.01998 1.31239,-0.95964 1.376,-1.68708 0.39389,-4.50435 -1.34047,-3.8453 -4.85247,-7.94593 -6.8053,-7.94593 -1.5564,0 -1.76611,1.60977 -0.32569,2.5 0.55,0.33992 1,4.11648 1,8.39235 0,4.27587 0.30937,8.08369 0.6875,8.46182 1.32709,1.32709 2.81578,-0.0365 3.14847,-2.88391 z m 33.75472,-6.97026 c 0.0499,-3.3 0.43552,-6.7875 0.85698,-7.75 0.93607,-2.13768 0.29684,-2.18636 -3.42646,-0.26097 -4.28477,2.21574 -5.31562,7.51097 -1.46219,7.51097 1.62752,0 1.97556,3.55158 0.44098,4.5 -1.83874,1.13641 -1.02688,2.64292 1.25,2.31955 2.03568,-0.28911 2.25864,-0.89107 2.34069,-6.31955 z m -12.35197,3.85246 c 0.41467,-0.25628 0.0935,-1.74319 -0.71378,-3.30424 -0.80726,-1.56105 -1.7641,-4.69162 -2.12632,-6.95682 -0.52202,-3.26453 -1.1652,-4.24569 -3.10181,-4.73175 -3.13344,-0.78645 -3.73094,-0.0685 -5.70325,6.85327 -0.89533,3.1421 -1.88132,6.37339 -2.19109,7.18064 -0.40925,1.06648 0.34724,1.58755 2.76715,1.906 3.37763,0.44449 9.69159,-0.0958 11.0691,-0.9471 z m 70.56958,-1.02679 c 0.21278,-1.48662 -0.36055,-2.36617 -1.85067,-2.83912 -2.82334,-0.89609 -3.96811,0.44086 -2.85791,3.33769 1.10446,2.88184 4.27274,2.54637 4.70858,-0.49857 z m 20.45904,-0.57567 c 0.2387,-0.6875 -0.40671,-2.33325 -1.43425,-3.65722 -1.62943,-2.09949 -1.69227,-2.67227 -0.49153,-4.48068 0.7572,-1.1404 2.45261,-2.3748 3.76758,-2.7431 2.10025,-0.58825 1.99155,-0.68176 -0.89432,-0.76932 -7.54137,-0.22882 -11.02999,6.54075 -5.57996,10.82774 3.04099,2.39204 4.02678,2.56709 4.63248,0.82258 z m -127.18555,-2.75 c 1.499,0 1.04452,-3.73083 -0.66241,-5.43776 -2.1935,-2.1935 -3.41938,-1.08077 -3.41938,3.10377 0,2.82444 0.32257,3.42419 1.58179,2.94098 0.86998,-0.33385 1.99498,-0.60699 2.5,-0.60699 z m 92.44521,-2.08508 c 0.75341,-2.37378 -2.40497,-6.38824 -5.70488,-7.25118 -1.85644,-0.48548 -1.88736,-0.39331 -0.41417,1.23455 0.87563,0.96755 1.59205,2.88626 1.59205,4.26378 0,4.22453 3.33293,5.51504 4.527,1.75285 z m 60.473,-1.91492 c 0,-2.33297 -1.26413,-2.59159 -2.91929,-0.59725 -0.89398,1.07718 -0.86437,1.52306 0.12755,1.92106 2.31819,0.93015 2.79174,0.7056 2.79174,-1.32381 z m -50.50646,-0.75 c -0.39625,-0.9625 -0.94688,-2.5375 -1.22362,-3.5 -0.27675,-0.9625 -1.3507,-1.75 -2.38655,-1.75 -2.21516,0 -2.18296,-0.15784 -0.78554,3.85078 0.7401,2.12307 1.75249,3.14922 3.10698,3.14922 1.52128,0 1.83422,-0.42495 1.28873,-1.75 z m 33.86809,-1.75 c -0.6086,-1.58598 -2.36163,-2.08084 -2.36163,-0.66667 0,1.05752 1.09309,2.16667 2.13528,2.16667 0.44107,0 0.54293,-0.675 0.22635,-1.5 z m 14.40195,-5.27574 c 0.54518,-1.65501 -7.36867,-9.58636 -8.72734,-8.74666 -0.56993,0.35224 -1.03624,1.70758 -1.03624,3.01187 0,1.69791 0.63903,2.46219 2.25,2.69098 1.4662,0.20823 2.36403,1.12404 2.57734,2.62897 0.24104,1.70059 0.87946,2.22784 2.42167,2 1.15188,-0.17018 2.28344,-0.8835 2.51457,-1.58516 z m -118.55177,-9.67912 c -0.2798,-6.75236 -1.01892,-9.35189 -1.93205,-6.79514 -0.24553,0.6875 -1.53393,1.25 -2.86309,1.25 -3.08227,0 -3.05864,1.08114 0.0833,3.81305 3.10845,2.70276 3.55468,6.82177 0.56574,5.22213 -2.6579,-1.42246 -3.06574,-1.31628 -3.06574,0.79815 0,2.62701 1.01627,3.3018 4.46406,2.96406 l 3.03594,-0.29739 -0.28819,-6.95486 z m 103.78819,0.95486 c 0,-0.825 -0.45,-1.5 -1,-1.5 -0.55,0 -1,0.675 -1,1.5 0,0.825 0.45,1.5 1,1.5 0.55,0 1,-0.675 1,-1.5 z m -139,-3.55902 c 0,-0.51754 -0.45,-0.94098 -1,-0.94098 -0.55,0 -1,0.70156 -1,1.55902 0,0.85746 0.45,1.2809 1,0.94098 0.55,-0.33992 1,-1.04148 1,-1.55902 z m 8,-5.83333 c 0,-3.7974 -0.7755,-4.27511 -4.12678,-2.54209 -3.59131,1.85714 -3.62095,2.97879 -0.1271,4.80941 3.37903,1.77045 4.25388,1.30415 4.25388,-2.26732 z m 33.31287,0.80522 c -1.32782,-1.32782 -2.79931,0.49104 -1.75902,2.17426 0.48382,0.78285 0.97617,0.78285 1.75902,0 0.78284,-0.78284 0.78284,-1.39142 0,-2.17426 z m 39.68713,1.52811 c 0,-0.24254 -0.70156,-0.44098 -1.55902,-0.44098 -0.85746,0 -1.27636,0.45734 -0.9309,1.01631 0.57081,0.92358 2.48992,0.48015 2.48992,-0.57533 z m 23.75501,-0.19098 c 0.26846,-0.8152 -0.64032,-1.25 -2.61266,-1.25 -3.20198,0 -5.01275,1.47066 -2.89858,2.35414 2.03665,0.85109 5.06728,0.24393 5.51124,-1.10414 z m -87.65989,-0.86462 c 1.14869,-1.38408 1.00852,-1.88304 -0.98172,-3.49464 -2.86704,-2.32158 -4.1134,-1.66459 -4.1134,2.16828 0,2.21038 0.46642,2.94098 1.87755,2.94098 1.03266,0 2.48057,-0.72658 3.21757,-1.61462 z m 17.53913,-10.21378 c 0.13244,-5.05097 -1.82486,-6.0719 -5.18978,-2.70698 -2.83818,2.83818 -3.00641,3.82412 -0.94447,5.53538 2.08414,1.72968 1.87242,3 -0.5,3 -1.34897,0 -2,0.66667 -2,2.04804 0,1.92559 0.25494,1.87264 4.26393,-0.88562 3.7841,-2.60353 4.27591,-3.39023 4.37032,-6.99082 z m -2.36982,-7.76937 c 0.90144,-0.90143 -0.3398,-3.47368 -1.36922,-2.83747 -0.49236,0.3043 -0.89521,1.20172 -0.89521,1.99426 0,1.47259 1.19141,1.91624 2.26443,0.84321 z"
       style="fill:#a1a1a1" />
    <path
       inkscape:connector-curvature="0"
       id="path2998"
       d="m 487.56136,498.79716 c -5.86145,-1.17796 -8.74092,-2.71961 -12.96007,-6.93876 -3.31898,-3.31898 -4.72609,-4.03993 -7.88494,-4.03993 -2.63744,0 -4.44256,0.66028 -5.74764,2.10238 -3.67045,4.05579 -7.29892,5.19678 -14.58404,4.58603 -4.08352,-0.34235 -7.02564,-0.17004 -7.39853,0.43329 -1.91274,3.09489 -12.52513,4.02462 -17.64874,1.54617 -1.80182,-0.8716 -4.79838,-3.39918 -6.65902,-5.61685 -3.19976,-3.81375 -3.60596,-3.99774 -7.5,-3.39722 -2.26436,0.3492 -5.31149,1.46995 -6.77139,2.49055 -4.02579,2.8144 -8.46242,2.39271 -11.99525,-1.14012 -2.71558,-2.71558 -2.97308,-3.53397 -2.75311,-8.75 0.24163,-5.72952 0.23071,-5.75335 -2.54312,-5.55011 -2.58185,0.18918 -2.74255,-0.0122 -2.19497,-2.75 0.52711,-2.63558 0.32394,-2.95412 -1.88418,-2.95412 -2.67568,0 -3.05344,-1.05066 -1.45297,-4.04116 0.85851,-1.60415 0.61853,-2.01095 -1.5,-2.54267 -2.88696,-0.72458 -3.1611,-1.6409 -1.02203,-3.41617 2.16847,-1.79967 1.8729,-2.6029 -1.46684,-3.98627 -4.02049,-1.66534 -5.86359,-3.8789 -2.7919,-3.35306 1.2423,0.21267 2.91585,-0.0465 3.71898,-0.57595 1.25184,-0.82524 1.19269,-1.25825 -0.41447,-3.03415 -1.83829,-2.03128 -1.83106,-2.11799 0.37213,-4.46318 2.54423,-2.70821 2.50633,-6.89092 -0.0669,-7.38104 -0.90693,-0.17275 -3.08708,1.17266 -4.84477,2.98978 -2.24743,2.32342 -2.86863,2.65139 -2.0933,1.10516 1.6051,-3.20103 5.07189,-5.30129 8.75053,-5.30129 1.77016,0 3.49659,-0.45 3.83651,-1 0.33992,-0.55 1.71648,-1 3.05902,-1 2.27273,0 2.44098,-0.35581 2.44098,-5.16214 0,-14.1647 13.61243,-21.50406 25.40123,-13.69549 3.81142,2.52459 4.63747,3.56728 4.20167,5.30365 -0.35349,1.40845 0.13813,2.74399 1.41141,3.8342 1.5955,1.36611 1.8439,2.47509 1.35439,6.04651 -0.33237,2.4249 -0.12578,5.25866 0.46368,6.36008 0.77011,1.43895 0.69455,3.57223 -0.27414,7.73938 -1.90673,8.20248 -2.95439,8.752 -5.73148,3.00626 -3.54275,-7.32988 -5.97691,-8.64033 -15.85309,-8.53462 -4.56149,0.0488 -8.54209,0.33726 -8.84579,0.64095 -0.30369,0.3037 -0.0252,1.39604 0.61894,2.42743 1.37095,2.19523 0.65405,19.84311 -0.88129,21.69476 -1.48836,1.79499 0.16702,2.24675 8.14047,2.22155 10.60947,-0.0335 15.994,-3.05145 15.994,-8.96431 0,-2.42476 1.21447,-2.4437 3.37833,-0.0527 1.28356,1.41832 1.53128,2.84755 1.0333,5.96171 -0.93025,5.81746 -0.0851,7.61515 2.82353,6.00606 1.24566,-0.68911 2.82734,-1.13879 3.51484,-0.99929 0.77746,0.15776 1.25,-0.87471 1.25,-2.73118 0,-3.30818 1.41712,-4.82858 2.67425,-2.86916 0.80587,1.25606 1.0868,3.20956 1.37575,9.56631 0.0908,1.99843 0.60358,3.14501 1.3,2.90704 0.6325,-0.21612 1.00268,-1.40221 0.82261,-2.63574 -0.18006,-1.23354 0.43612,-3.08646 1.36929,-4.11761 1.65357,-1.82717 1.66946,-5.30001 0.0415,-9.07603 -0.51683,-1.1988 -0.0561,-1.74531 1.76489,-2.09342 2.02114,-0.38636 2.55823,-0.005 2.98656,2.12234 0.85586,4.25016 5.91786,6.52955 15.16512,6.82878 4.4,0.14237 9.0618,0.37266 10.35956,0.51175 2.2732,0.24363 2.36533,-0.0124 2.5175,-6.99711 l 0.15794,-7.25 -5.70848,0 c -5.42223,0 -8.05574,1.12227 -5.84283,2.48992 0.55897,0.34546 1.01631,2.16072 1.01631,4.03391 0,4.06138 -2.79811,6.18977 -5.93228,4.51242 -2.55398,-1.36686 -2.94332,-3.12615 -2.64081,-11.93303 0.20099,-5.85137 0.64073,-7.67951 2.10471,-8.75 3.16567,-2.31479 7.38822,-1.65055 10.46838,1.64678 1.54133,1.65 3.07187,3 3.40121,3 0.32933,0 0.59879,-1.73786 0.59879,-3.8619 l 0,-3.86191 -6.25,-0.61525 c -10.9214,-1.0751 -17.21928,1.55834 -20.52523,8.58258 l -1.93966,4.12124 -1.83608,-2.80221 c -1.47181,-2.24627 -1.84728,-4.86158 -1.89256,-13.18239 -0.0541,-9.93867 0.034,-10.38019 2.07108,-10.38017 2.61312,10e-6 4.79994,-2.44359 4.01571,-4.48725 -0.36652,-0.95515 -1.88214,-1.51274 -4.11188,-1.51274 -3.69691,0 -4.72183,-1.76712 -2.2262,-3.83832 0.94356,-0.78308 2.53671,-0.71602 5.75,0.24205 2.59702,0.77431 6.84833,1.12116 10.22636,0.83431 6.34886,-0.5391 8.56779,0.63613 11.34652,6.0096 1.81955,3.51863 3.31045,3.46976 6.84979,-0.22452 3.98119,-4.15547 8.30718,-5.34812 16.43724,-4.53165 5.58118,0.5605 6.90798,0.41198 7.38322,-0.82647 0.36573,-0.95308 1.3413,-1.3105 2.64584,-0.96935 1.13658,0.29722 2.69904,0.0154 3.47215,-0.62618 1.01871,-0.84546 1.59399,-0.86183 2.08987,-0.0595 0.39528,0.63957 1.85739,0.84943 3.46224,0.49695 2.03073,-0.44603 2.94529,-0.17423 3.39987,1.0104 0.42439,1.10593 1.2738,1.41365 2.67478,0.96899 1.1291,-0.35836 2.59382,-0.21395 3.25493,0.32091 0.6611,0.53487 2.45442,0.9658 3.98515,0.95762 1.53072,-0.008 3.55572,0.65722 4.5,1.47865 2.11844,1.84284 9.67205,2.9013 11.02804,1.54531 0.66143,-0.66143 1.60771,-0.65378 2.81662,0.0228 1.1788,0.65969 2.45177,0.68101 3.61121,0.0605 1.32391,-0.70854 1.94501,-0.5561 2.38282,0.58479 0.32568,0.84872 1.669,1.54313 2.98516,1.54313 1.31615,0 2.39301,0.46114 2.39301,1.02475 0,0.56361 1.125,1.45248 2.5,1.97525 1.375,0.52277 2.5,1.6208 2.5,2.44007 0,0.81926 0.9,1.97123 2,2.55993 1.1,0.5887 2,1.89943 2,2.91274 0,1.0133 0.62854,2.36402 1.39677,3.00158 0.76822,0.63757 1.16511,2.04507 0.88197,3.12777 -0.28313,1.08271 0.0434,2.64117 0.72568,3.46324 0.96937,1.16802 0.97711,1.812 0.0354,2.94668 -0.66279,0.79861 -0.93273,2.31008 -0.59987,3.35882 0.34687,1.0929 -6.4e-4,2.4096 -0.81415,3.08475 -0.78064,0.64788 -1.19839,2.02288 -0.92833,3.05557 0.31863,1.21847 -0.24419,2.27107 -1.60324,2.99841 -1.15182,0.61645 -2.09423,1.84087 -2.09423,2.72095 0,0.88008 -1.125,2.64276 -2.5,3.91707 -1.375,1.27431 -2.5,3.23841 -2.5,4.36467 0,1.52574 -0.64694,2.04775 -2.53785,2.04775 -2.17168,0 -2.49632,0.39678 -2.25,2.75 0.24534,2.34392 -0.0444,2.7038 -1.96215,2.43714 -2.10179,-0.29225 -2.25,0.0545 -2.25,5.26469 0,4.8987 -0.39563,6.00925 -3.2506,9.12456 -4.30573,4.69837 -10.02524,5.65232 -15.09673,2.51797 l -3.48057,-2.15112 -6.33605,3.47023 c -6.67838,3.65772 -12.04145,4.72973 -17.83605,3.56522 z m -56.59516,-5.59131 c 0.50116,-1.30599 0.90179,-1.37778 2.10699,-0.37756 1.92623,1.59863 4.78249,-0.50714 4.00606,-2.95346 -0.29,-0.91371 0.37484,-3.52844 1.47742,-5.81051 1.10258,-2.28208 2.00469,-4.35179 2.00469,-4.59936 0,-0.75795 -12.15101,-1.95438 -18.35302,-1.8071 -3.21915,0.0765 -7.56306,0.59947 -9.65312,1.16226 -3.24615,0.8741 -3.72029,1.34944 -3.25255,3.26081 0.90693,3.70611 2.30988,4.73754 6.44399,4.73754 3.51239,0 3.90643,0.24441 3.62756,2.25 -0.55735,4.00832 10.172,7.8378 11.59198,4.13738 z m 65.40852,-1.63738 c -0.3034,-3.14666 -0.47234,-3.25914 -5.31336,-3.53735 -4.25445,-0.2445 -5.20409,0.0428 -6.36875,1.92658 -1.20106,1.94269 -1.14701,2.37608 0.44113,3.53735 0.99543,0.72788 4.00238,1.32342 6.68211,1.32342 l 4.87223,0 -0.31336,-3.25 z m 31.83562,-1.20043 c 3.49234,-3.59595 4.19134,-6.30925 2.15102,-8.34957 -1.78922,-1.78922 -2.43504,-1.4953 -3.76396,1.713 -1.24032,2.99438 -4.59352,4.58957 -8.76929,4.17173 -3.30986,-0.3312 -4.45763,0.69009 -3.26984,2.9095 0.91082,1.70188 3.06782,2.43506 8.40207,2.85594 1.04444,0.0824 3.40694,-1.40287 5.25,-3.3006 z m -23.87149,0.89373 c 3.29674,-2.30913 2.71126,-3.4433 -1.77749,-3.4433 -3.21212,0 -4,0.36111 -4,1.83333 0,3.48944 2.21353,4.10626 5.77749,1.60997 z m -48.52749,-0.59834 c 3.442,-1.80032 1.81169,-2.98011 -3.56781,-2.58187 -5.56806,0.4122 -8.05167,1.33005 -7.22376,2.66964 0.67792,1.09691 8.65058,1.03207 10.79157,-0.0878 z m -56.0971,-2.28119 c 1.80002,-3.95061 0.478,-5.77275 -3.62928,-5.00222 -2.52708,0.47408 -3.61797,0.27851 -3.91713,-0.70224 -1.52858,-5.01131 -1.50315,-4.98498 -3.68679,-3.81633 -1.78468,0.95513 -2.00443,1.69409 -1.42535,4.79312 0.86102,4.60794 1.96018,5.93934 5.32883,6.45471 5.50091,0.84159 6.23856,0.66778 7.32972,-1.72704 z m 82.8471,0.93623 c 0,-0.83333 -0.88889,-1.5 -2,-1.5 -1.99224,0 -2.60112,1.06554 -1.33333,2.33333 1.21793,1.21793 3.33333,0.68908 3.33333,-0.83333 z m -7,-11.12131 c 8.525,-0.37896 23.375,-0.73169 33,-0.78385 l 17.5,-0.0948 0,-4 0,-4 -25.5,-0.0345 c -14.025,-0.019 -33.05507,0.20602 -42.28903,0.5 -18.08028,0.57562 -19.00439,0.87754 -18.47002,6.03451 0.23434,2.26153 0.78367,2.54769 5.75905,3 3.025,0.275 7.525,0.40273 10,0.28385 2.475,-0.11889 11.475,-0.52621 20,-0.90516 z m -58,-6.07869 c 0,-1.85714 -0.32241,-2.37759 -1.03278,-1.66722 -0.56803,0.56803 -0.74489,1.78303 -0.39301,2.7 0.92629,2.41389 1.42579,2.05207 1.42579,-1.03278 z m 6,1.2 c 0,-0.825 -0.45,-1.5 -1,-1.5 -0.55,0 -1,0.675 -1,1.5 0,0.825 0.45,1.5 1,1.5 0.55,0 1,-0.675 1,-1.5 z m 64.05637,-10.72286 c 3.59914,-3.94055 3.62018,-4.46153 0.31942,-7.90679 l -2.62421,-2.73908 2.12421,-2.70049 c 2.77405,-3.52663 2.69032,-4.36524 -0.81942,-8.20792 -2.84986,-3.1202 -3.20025,-3.22286 -11,-3.22286 -6.3479,0 -8.05637,0.30558 -8.05637,1.44098 0,0.79254 0.45,1.7191 1,2.05902 0.55751,0.34456 1,4.99071 1,10.5 0,5.50929 -0.44249,10.15544 -1,10.5 -0.55,0.33992 -1,1.26648 -1,2.05902 0,1.14237 1.77312,1.44098 8.55637,1.44098 8.36299,0 8.6229,-0.0728 11.5,-3.22286 z m -10.05637,-4.19381 c 0,-2.58306 0.4364,-3.58333 1.56336,-3.58333 1.15518,0 1.48154,0.82844 1.25,3.17299 -0.45274,4.58434 -2.81336,4.92865 -2.81336,0.41034 z m 0,-13.16666 c 0,-4.51831 2.36062,-4.174 2.81336,0.41034 0.23154,2.34455 -0.0948,3.17299 -1.25,3.17299 -1.12696,0 -1.56336,-1.00027 -1.56336,-3.58333 z m 26.08068,18.58333 c -1.8407,-6.58454 0.0145,-15.66053 4.59341,-22.47251 1.89553,-2.81991 1.66002,-3.52749 -1.17409,-3.52749 -1.67401,0 -2.5,0.55473 -2.5,1.679 0,2.40251 -2.25844,8.321 -3.17521,8.321 -1.14095,0 -3.82479,-5.57872 -3.82479,-7.95034 0,-1.7581 -0.63085,-2.04966 -4.43493,-2.04966 l -4.43493,0 3.44936,7.46569 c 3.83709,8.30489 5.3211,15.74423 3.56319,17.86238 -1.65418,1.99317 -0.23466,2.80427 4.32103,2.46898 3.02399,-0.22255 3.93111,-0.67325 3.61696,-1.79705 z m 26.02056,0.44765 c 6.03789,-3.12232 4.93886,-10.66539 -2.06893,-14.19998 -2.45604,-1.23878 -5.15556,-2.95378 -5.99892,-3.81112 -1.37877,-1.40161 -1.35224,-1.69321 0.26309,-2.8919 2.5693,-1.9066 5.81723,-0.70365 7.07142,2.61907 1.53405,4.06417 3.1321,2.92952 3.1321,-2.22388 l 0,-4.3935 -5,-0.85987 c -3.36156,-0.57811 -6.08086,-0.47683 -8.29844,0.30907 -2.55555,0.90567 -3.63081,0.8931 -4.77417,-0.0558 -1.8913,-1.56965 -3.088,-0.44066 -1.52683,1.44043 0.65953,0.79469 0.9085,2.53241 0.56112,3.91647 -0.93448,3.72327 1.76446,7.8813 6.92534,10.66929 6.08276,3.28599 7.4086,7.03406 2.48822,7.03406 -3.08405,0 -5.87205,-1.86142 -6.92124,-4.62098 -1.40978,-3.70801 -2.954,-1.91461 -2.954,3.43066 l 0,4.69165 7.11573,0.21517 c 4.71115,0.14246 8.0855,-0.28632 9.98551,-1.26885 z m 17.86045,-10.90149 c 0.66363,-0.79962 1.28123,-3.59634 1.37245,-6.21493 0.13529,-3.88362 -0.17038,-4.82978 -1.65854,-5.13381 -2.06145,-0.42115 -5.6756,2.41737 -5.6756,4.45757 0,0.73975 0.9,1.34501 2,1.34501 2.41105,0 2.64995,2.53689 0.3596,3.81863 -1.78592,0.99945 -1.04729,3.18137 1.07697,3.18137 0.7252,0 1.8615,-0.65423 2.52512,-1.45384 z m -2.21169,-13.65494 c 3.2629,-1.22064 2.78703,-3.3533 -1.87736,-8.41356 -6.29845,-6.83301 -9.81644,-5.83696 -9.85899,2.79139 -0.0122,2.48163 0.25505,2.70161 2.57504,2.11933 2.273,-0.57048 2.56437,-0.3594 2.38931,1.73095 -0.36846,4.39955 -0.29993,4.41748 6.772,1.77189 z m -13.7861,-9.32376 c 1.7116,-3.19816 0.70153,-5.56746 -2.3735,-5.56746 -2.89544,0 -4.29209,1.69831 -2.70327,3.28713 0.61208,0.61208 1.11287,1.92287 1.11287,2.91287 0,2.60083 2.442,2.21115 3.9639,-0.63254 z m -138.9639,-2.42648 c 0,-1.86426 1.81819,-4.14098 3.30699,-4.14098 0.49884,0 0.6535,0.66059 0.34367,1.46798 -0.30982,0.80738 -0.13297,1.73394 0.39301,2.05901 0.52598,0.32507 0.95633,-0.002 0.95633,-0.72743 0,-1.71248 3.76776,-4.06113 5.14725,-3.20855 0.58625,0.36232 2.81795,0.0805 4.95933,-0.62618 2.97294,-0.98116 3.89342,-1.81097 3.89342,-3.50988 0,-3.28048 -3.71002,-5.18029 -10.23066,-5.23889 -6.31303,-0.0567 -10.76934,2.36668 -10.76934,5.85652 0,1.06008 -0.40122,1.92742 -0.89159,1.92742 -1.85806,0 -2.24134,5.19563 -0.52333,7.09401 1.88994,2.08836 3.41492,1.66277 3.41492,-0.95303 z m 50.45729,-5.07188 c 0.73955,-1.1966 -1.14162,-2.38223 -2.4736,-1.55902 -1.11836,0.69118 -0.38417,2.48992 1.01631,2.48992 0.48508,0 1.14086,-0.41891 1.45729,-0.9309 z m 31.04271,-1.55541 c 0,-2.5895 -2.93931,-3.11109 -6.04917,-1.07343 -3.69579,2.42157 -3.00478,3.71482 1.79917,3.36724 3.47036,-0.25109 4.25,-0.67188 4.25,-2.29381 z m 23.54165,0.93612 c 2.12158,-2.55634 -0.70741,-4.54059 -5.3902,-3.78067 -4.04916,0.65708 -5.88145,2.93842 -3.54717,4.41647 2.24695,1.42276 7.54152,1.0461 8.93737,-0.6358 z m 19.38832,-1.56312 c -0.85211,-1.37874 -3.42997,-1.04306 -3.42997,0.44664 0,0.73334 0.2961,1.62943 0.65799,1.99133 0.90433,0.90433 3.45253,-1.33682 2.77198,-2.43797 z m -62.76184,0.53577 c 0.86163,-2.24537 -1.6032,-4.30057 -5.55932,-4.63542 -3.80106,-0.32173 -5.64263,1.9991 -2.28334,2.87757 1.1199,0.29286 2.27819,1.16313 2.57397,1.93393 0.7309,1.90471 4.51879,1.77811 5.26869,-0.17608 z m 49.08187,0.32754 c -0.47189,-1.41567 -2.07998,-1.26005 -2.58333,0.25 -0.18334,0.55 0.41666,1 1.33333,1 0.91667,0 1.47917,-0.5625 1.25,-1.25 z m -24.75,-1.75 c 0,-0.55 -0.47656,-1 -1.05902,-1 -0.58246,0 -0.7809,0.45 -0.44098,1 0.33992,0.55 0.81648,1 1.05902,1 0.24254,0 0.44098,-0.45 0.44098,-1 z m -81.20816,32.25 c -0.45188,-9.56464 -0.20317,-11.25 1.66016,-11.25 2.94555,0 4.81424,3.91485 4.92881,10.3257 0.1206,6.74844 -1.21031,9.6743 -4.40064,9.6743 -1.53319,0 -1.83124,-1.19177 -2.18833,-8.75 z m -30.04184,-2.82696 c -0.4125,-0.416 -0.75,-1.67137 -0.75,-2.78971 0,-1.47178 0.30207,-1.73126 1.09378,-0.93955 0.60158,0.60158 0.93908,1.85695 0.75,2.78971 -0.18908,0.93276 -0.68128,1.35556 -1.09378,0.93955 z"
       style="fill:#2b2b2b" />
  </g>
</svg>
