<?xml version="1.0" encoding="UTF-8" standalone="no"?>
<!-- Created with Inkscape (http://www.inkscape.org/) -->

<svg
   xmlns:dc="http://purl.org/dc/elements/1.1/"
   xmlns:cc="http://creativecommons.org/ns#"
   xmlns:rdf="http://www.w3.org/1999/02/22-rdf-syntax-ns#"
   xmlns:svg="http://www.w3.org/2000/svg"
   xmlns="http://www.w3.org/2000/svg"
   xmlns:sodipodi="http://sodipodi.sourceforge.net/DTD/sodipodi-0.dtd"
   xmlns:inkscape="http://www.inkscape.org/namespaces/inkscape"
   id="svg4210"
   version="1.1"
   inkscape:version="0.91 r13725"
   xml:space="preserve"
   width="333.07126"
   height="442.91376"
   viewBox="0 0 333.07126 442.91376"
   sodipodi:docname="drive_in_movie.svg"><metadata
     id="metadata4216"><rdf:RDF><cc:Work
         rdf:about=""><dc:format>image/svg+xml</dc:format><dc:type
           rdf:resource="http://purl.org/dc/dcmitype/StillImage" /><dc:title /></cc:Work></rdf:RDF></metadata><defs
     id="defs4214" /><sodipodi:namedview
     pagecolor="#ffffff"
     bordercolor="#666666"
     borderopacity="1"
     objecttolerance="10"
     gridtolerance="10"
     guidetolerance="10"
     inkscape:pageopacity="0"
     inkscape:pageshadow="2"
     inkscape:window-width="1920"
     inkscape:window-height="1019"
     id="namedview4212"
     showgrid="false"
     inkscape:zoom="1.8197674"
     inkscape:cx="166.53563"
     inkscape:cy="221.45688"
     inkscape:window-x="1920"
     inkscape:window-y="29"
     inkscape:window-maximized="1"
     inkscape:current-layer="g4218" /><g
     id="g4218"
     inkscape:groupmode="layer"
     inkscape:label="Winter_Handbook"
     transform="matrix(1.25,0,0,-1.25,0,442.91375)"><path
       inkscape:connector-curvature="0"
       id="path4396"
       d="m 21.341122,166.95367 c -1.18944,0.49435 -1.666279,1.58667 -1.666279,3.81705 0,1.70664 -0.100212,1.94339 -0.868785,2.05255 -0.477832,0.0679 -1.476934,-0.18484 -2.220228,-0.56156 l -1.351443,-0.68494 -0.115216,2.56471 c -0.06337,1.4106 -0.02066,2.65927 0.0949,2.77484 0.115564,0.11556 0.68868,-0.0158 1.273592,-0.29198 0.584916,-0.27616 1.541313,-0.53708 2.12533,-0.57984 0.910629,-0.0667 1.061848,0.0679 1.061848,0.94476 0,0.56237 0.234977,1.34385 0.522174,1.73662 0.466526,0.63801 0.347101,0.88249 -1.120628,2.29403 -3.374352,3.24517 -2.953366,7.94384 0.928001,10.35749 1.312884,0.81642 1.906751,0.88406 8.789012,1.00099 8.380792,0.14238 10.09283,-0.14631 11.963949,-2.01743 2.67588,-2.67588 2.546014,-6.75023 -0.297027,-9.31875 -1.378673,-1.24555 -1.456161,-1.41649 -0.896023,-1.97664 0.337243,-0.33724 0.714902,-1.12181 0.839235,-1.74349 l 0.226065,-1.13033 0.816824,0.76519 c 1.008902,0.94512 4.896239,2.777 5.327434,2.5105 0.17378,-0.1074 0.315968,-2.62933 0.315968,-5.60428 l 0,-5.409 -0.868785,0.26534 c -2.07955,0.63512 -3.644826,1.44224 -4.633519,2.38925 l -1.061848,1.01707 0,-1.76703 c 0,-1.16366 -0.25182,-2.0783 -0.737478,-2.6786 -0.73027,-0.90265 -0.81992,-0.91237 -9.170505,-0.99434 -4.638164,-0.0455 -8.81262,0.075 -9.27657,0.26782 z m 17.706175,1.03318 c 0.610242,0.55227 0.706125,1.2758 0.706125,5.32855 0,3.13256 -0.153836,4.84335 -0.463351,5.15286 -0.635634,0.63564 -11.474152,0.6375 -12.868455,0.002 -0.784489,-0.35744 -1.178149,-0.35744 -1.750497,0 -0.953215,0.59529 -3.164469,0.59399 -3.760671,-0.002 -0.309863,-0.30986 -0.463352,-2.02747 -0.463352,-5.18513 0,-3.77768 0.121321,-4.84309 0.606771,-5.32854 0.514154,-0.51415 1.87981,-0.60677 8.947038,-0.60677 7.218844,0 8.435212,0.0859 9.046392,0.63903 z m -16.669569,1.2916 c -0.514834,0.51484 -0.772253,1.28709 -0.772253,2.31676 0,2.66131 0.798074,3.08901 5.763873,3.08901 4.098343,0 4.242322,-0.0292 5.019645,-1.01739 1.083189,-1.37705 1.024958,-3.04042 -0.147489,-4.21286 -0.886434,-0.88644 -1.211248,-0.94777 -5.019645,-0.94777 -3.557043,0 -4.169517,0.0976 -4.844131,0.77225 z m 9.333165,0.63904 c 0.879214,0.79567 0.911047,2.35579 0.06709,3.28836 -0.539086,0.59568 -1.251695,0.70612 -4.556293,0.70612 -4.397807,0 -4.843961,-0.21338 -4.843961,-2.31676 0,-2.09795 0.451146,-2.31676 4.776872,-2.31676 3.040762,0 3.998614,0.13435 4.556293,0.63904 z m 2.443695,3.22223 c -0.315095,0.50983 0.106903,1.15838 0.75373,1.15838 0.56478,0 1.068304,-0.94521 0.699816,-1.3137 -0.360063,-0.36006 -1.189822,-0.2714 -1.453546,0.15532 z m 2.695306,0.0123 c -0.149956,0.24263 -0.09096,0.62283 0.131105,0.8449 0.518916,0.51892 1.728743,0.0663 1.517624,-0.56778 -0.214918,-0.64548 -1.307567,-0.82914 -1.648729,-0.27712 z m 9.467679,0.95305 c 0,3.29688 -0.124301,4.43952 -0.482658,4.43683 -1.089691,-0.008 -4.531847,-2.35128 -4.753901,-3.23601 -0.508316,-2.02529 -0.05023,-3.08194 1.901588,-4.38636 3.187969,-2.13055 3.334971,-1.99013 3.334971,3.18554 z M 17.152004,173.5115 c 0.790096,0.87305 0.593557,1.71047 -0.544361,2.31947 -0.747078,0.39982 -0.794066,0.32135 -0.794066,-1.32618 0,-1.92073 0.298576,-2.14231 1.338427,-0.99329 z m 2.136712,0.9797 c 0,0.53092 -0.173757,0.96532 -0.386126,0.96532 -0.21237,0 -0.386127,-0.4344 -0.386127,-0.96532 0,-0.53092 0.173757,-0.96532 0.386127,-0.96532 0.212369,0 0.386126,0.4344 0.386126,0.96532 z m 7.336404,5.01965 c 0.383497,0.46208 0.383497,0.69629 0,1.15838 -1.027092,1.23757 -2.745653,0.32318 -2.177124,-1.15838 0.12224,-0.31856 0.553945,-0.57919 0.959347,-0.57919 0.405402,0 0.9534,0.26063 1.217777,0.57919 z m -1.737569,0.19306 c -0.323203,0.52295 0.112915,1.15838 0.795042,1.15838 0.306021,0 0.556401,-0.34752 0.556401,-0.77225 0,-0.7994 -0.931534,-1.06556 -1.351443,-0.38613 z m 6.771408,1.44797 c -0.791698,0.79639 -1.553163,1.70861 -1.692141,2.02717 -0.194909,0.44676 -0.305272,0.46557 -0.482682,0.0823 -0.126499,-0.2733 -0.647769,-0.99341 -1.158379,-1.60024 -1.454709,-1.72883 -1.230462,-1.95716 1.922138,-1.95716 l 2.850525,0 z m -8.018064,-0.57919 c 0.09303,0.26547 -0.301742,1.09081 -0.877268,1.8341 -1.308722,1.69022 -1.930405,2.86339 -1.930405,3.64282 0,0.92498 1.429572,2.14908 2.509823,2.14908 1.444735,0 2.362044,-1.1805 2.659454,-3.42249 0.457363,-3.44776 1.088147,-4.03303 2.241511,-2.07981 1.136196,1.92415 1.206838,3.59215 0.23207,5.4797 -1.258692,2.43733 -2.60591,3.30468 -5.133035,3.30468 -2.20396,0 -3.524583,-0.68801 -4.927535,-2.56711 -1.813238,-2.42864 -0.756931,-6.66277 2.025562,-8.11933 1.560318,-0.81679 2.957351,-0.91356 3.199823,-0.22164 z m 15.614293,0.2759 c 1.731928,1.05601 2.95627,3.57977 2.692101,5.5493 -0.403537,3.00858 -2.767983,5.08288 -5.793852,5.08288 -4.585816,0 -7.353444,-4.90274 -4.956748,-8.78068 1.558402,-2.52154 5.481347,-3.42288 8.058499,-1.8515 z m -5.504276,2.50597 c -2.057035,2.05703 -0.580225,5.77084 2.2948,5.77084 3.117226,0 4.708265,-3.82813 2.411962,-5.80333 -1.441066,-1.23955 -3.448581,-1.22569 -4.706762,0.0325 z m 4.59099,1.07862 c 0.972502,1.30803 0.572904,2.86887 -0.953879,3.72583 -0.827659,0.46455 -1.207503,0.479 -2.165042,0.0824 -1.98532,-0.82235 -2.386251,-2.71561 -0.932905,-4.40535 0.903721,-1.05073 3.063288,-0.73246 4.051826,0.59714 z m -2.838779,0.87307 c -0.364534,0.43924 -0.387868,0.72549 -0.08391,1.02944 0.585769,0.58577 1.715162,0.0727 1.56333,-0.71019 -0.173394,-0.89407 -0.876449,-1.04579 -1.479421,-0.31925 z m -9.82148,-2.62407 c -0.118197,0.30802 -0.214902,0.72289 -0.214902,0.92193 0,0.31587 -1.852994,0.0853 -2.282217,-0.28395 -0.08718,-0.075 0.139886,-0.46611 0.504598,-0.86911 0.767801,-0.84841 2.336931,-0.66639 1.992521,0.23113 z m -1.2078,1.87589 c 1.166265,1.16626 0.495239,2.86837 -1.130798,2.86837 -1.626037,0 -2.297063,-1.70211 -1.130799,-2.86837 0.333722,-0.33372 0.842582,-0.60677 1.130799,-0.60677 0.288216,0 0.797077,0.27305 1.130798,0.60677 z m -1.704737,0.54837 c -0.700839,0.43313 -0.159613,1.6341 0.664868,1.47532 0.369851,-0.0712 0.72642,-0.40972 0.792378,-0.7522 0.141164,-0.73301 -0.736544,-1.16854 -1.457246,-0.72312 z m 7.331153,3.27244 c 0,0.31148 0.613941,1.18027 1.364313,1.93064 l 1.364316,1.36431 -3.114755,0 -3.114756,0 1.364317,-1.36431 c 0.750371,-0.75037 1.364312,-1.61916 1.364312,-1.93064 0,-0.31147 0.173757,-0.56631 0.386127,-0.56631 0.212369,0 0.386126,0.25484 0.386126,0.56631 z"
       style="fill:#2e2b2a"
       sodipodi:nodetypes="sssscscssssssssssscssscsscssssssscscsssssssssssssssssssssssssscsssssssssssssssssssssssssscssssssssssssssssscssccssssssssssssssssssssssssscccssss" /><path
       inkscape:connector-curvature="0"
       id="path4260"
       style="font-style:normal;font-variant:normal;font-weight:normal;font-stretch:normal;font-size:medium;line-height:125%;font-family:'Baron Neue';-inkscape-font-specification:'Baron Neue';text-align:start;letter-spacing:0px;word-spacing:0px;writing-mode:lr-tb;text-anchor:start;fill:#000000;fill-opacity:1;stroke:none;stroke-width:1px;stroke-linecap:butt;stroke-linejoin:miter;stroke-opacity:1"
       d="m 71.063036,180.98496 -4.256,0 0,4.256 -2.856,0 0,-4.256 -4.06,0 0,-2.828 4.06,0 0,-4.312 2.856,0 0,4.312 4.256,0 0,2.828 z" /><path
       style="fill:#2e2b2a"
       d="m 83.101211,179.54296 c 0,15.8534 0.03606,16.49231 0.931945,16.49231 0.512566,0 1.065427,-0.34785 1.228566,-0.77299 0.348935,-0.90931 2.58104,-0.75142 2.393335,0.16929 -0.09434,0.46273 2.508671,0.6037 11.147328,0.6037 9.787735,0 11.309415,-0.1017 11.567015,-0.77299 0.34894,-0.90931 2.58104,-0.75142 2.39334,0.16929 -0.0711,0.34856 0.39708,0.6037 1.10769,0.6037 l 1.23077,0 0,-16.49231 c 0,-15.82367 -0.0376,-16.49231 -0.9272,-16.49231 -0.51316,0 -1.04217,0.43967 -1.18468,0.98462 -0.15848,0.60602 -0.67151,0.98461 -1.33427,0.98461 -0.66277,0 -1.1758,-0.37859 -1.33428,-0.98461 -0.24776,-0.94743 -0.67152,-0.98462 -11.219565,-0.98462 -10.548049,0 -10.971803,0.0372 -11.219563,0.98462 -0.15848,0.60602 -0.671514,0.98461 -1.334277,0.98461 -0.662763,0 -1.175797,-0.37859 -1.334277,-0.98461 -0.142511,-0.54495 -0.67152,-0.98462 -1.184683,-0.98462 -0.8896,0 -0.927194,0.66864 -0.927194,16.49231 z m 3.486062,-14.03077 c 0.850664,0 1.587077,-0.31052 1.751286,-0.73846 0.239612,-0.62441 1.901889,-0.73846 10.762646,-0.73846 8.860755,0 10.523035,0.11405 10.762645,0.73846 0.39922,1.04035 3.0953,0.95117 3.721,-0.12308 0.34801,-0.5975 0.49682,4.04194 0.48556,15.13846 -0.0102,10.04386 -0.18198,15.58766 -0.46147,14.89231 -0.60119,-1.49567 -3.39773,-1.58671 -3.78048,-0.12308 -0.2473,0.94568 -0.67152,0.98462 -10.727255,0.98462 -10.055741,0 -10.479957,-0.0389 -10.727255,-0.98462 -0.382751,-1.46363 -3.179293,-1.37259 -3.780474,0.12308 -0.279496,0.69535 -0.45128,-4.84845 -0.461477,-14.89231 -0.01126,-11.09652 0.137551,-15.73596 0.485569,-15.13846 0.300363,0.51569 1.091065,0.86154 1.969705,0.86154 z m 3.504707,0.0985 c -0.814707,0.81471 -0.814707,11.78837 0,12.60308 0.830161,0.83016 17.18829,0.83016 18.01845,0 0.8147,-0.81471 0.8147,-11.78837 0,-12.60308 -0.41343,-0.41343 -3.11795,-0.59077 -9.009225,-0.59077 -5.89128,0 -8.595803,0.17734 -9.009225,0.59077 z m 17.81809,1.17257 c 0.44205,1.15197 0.34826,9.70423 -0.11441,10.43328 -0.30325,0.47781 -2.44328,0.59517 -8.977075,0.4923 l -8.578912,-0.13507 -0.144333,-4.67693 c -0.232141,-7.52229 -1.05136,-6.8923 8.962575,-6.8923 7.345365,0 8.595535,0.10997 8.852155,0.77872 z m -10.356185,1.17576 c -1.4646,0.60576 -2.63729,2.42913 -2.63729,4.10062 0,1.82673 2.39999,4.28336 4.18461,4.28336 1.830645,0 4.184615,-2.45569 4.184615,-4.36545 0,-2.80078 -3.2193,-5.05775 -5.731935,-4.01853 z m 3.450155,1.5274 c 1.74299,1.37103 1.74299,3.48058 0,4.85162 -0.71344,0.56119 -1.569705,1.02034 -1.902835,1.02034 -1.30739,0 -3.19999,-2.03818 -3.19999,-3.44615 0,-1.40797 1.8926,-3.44616 3.19999,-3.44616 0.33313,0 1.189395,0.45916 1.902835,1.02035 z m -3.133605,2.42581 c 0,1.25591 0.22292,1.9633 0.61539,1.95285 0.66502,-0.0177 3.094975,-1.87983 2.777425,-2.12841 -0.98013,-0.76724 -2.702635,-1.79367 -3.010045,-1.79367 -0.21053,0 -0.38277,0.88615 -0.38277,1.96923 z m -13.102202,-4.21606 c -0.5604,1.46037 0.196332,2.31926 1.898818,2.1552 1.340874,-0.12923 1.603391,-0.35604 1.603391,-1.3853 0,-1.02925 -0.262517,-1.25606 -1.603391,-1.38529 -1.104271,-0.10642 -1.695341,0.0851 -1.898818,0.61539 z m 3.009901,0.76316 c 0,0.87642 -1.623871,1.2875 -2.323243,0.58812 -0.272566,-0.27257 -0.338905,-0.74909 -0.147409,-1.05894 0.489378,-0.79183 2.470652,-0.41426 2.470652,0.47082 z m 22.097786,-0.76316 c -0.5604,1.46037 0.19633,2.31926 1.89881,2.1552 1.34088,-0.12923 1.6034,-0.35604 1.6034,-1.3853 0,-1.02925 -0.26252,-1.25606 -1.6034,-1.38529 -1.10427,-0.10642 -1.69534,0.0851 -1.89881,0.61539 z m 3.0099,0.76316 c 0,0.87642 -1.62387,1.2875 -2.32325,0.58812 -0.27256,-0.27257 -0.3389,-0.74909 -0.14741,-1.05894 0.48938,-0.79183 2.47066,-0.41426 2.47066,0.47082 z m -28.117587,3.66761 c -0.5604,1.46037 0.196332,2.31926 1.898818,2.1552 1.340874,-0.12923 1.603391,-0.35604 1.603391,-1.3853 0,-1.02925 -0.262517,-1.25606 -1.603391,-1.38529 -1.104271,-0.10642 -1.695341,0.0851 -1.898818,0.61539 z m 3.009901,0.76316 c 0,0.87642 -1.623871,1.2875 -2.323243,0.58812 -0.272566,-0.27257 -0.338905,-0.74909 -0.147409,-1.05894 0.489378,-0.79183 2.470652,-0.41426 2.470652,0.47082 z m 22.097786,-0.76316 c -0.5604,1.46037 0.19633,2.31926 1.89881,2.1552 1.34088,-0.12923 1.6034,-0.35604 1.6034,-1.3853 0,-1.02925 -0.26252,-1.25606 -1.6034,-1.38529 -1.10427,-0.10642 -1.69534,0.0851 -1.89881,0.61539 z m 3.0099,0.76316 c 0,0.87642 -1.62387,1.2875 -2.32325,0.58812 -0.27256,-0.27257 -0.3389,-0.74909 -0.14741,-1.05894 0.48938,-0.79183 2.47066,-0.41426 2.47066,0.47082 z m -28.155335,3.76597 c -0.441674,1.15099 0.501908,2.39462 1.81688,2.39462 1.314972,0 2.258554,-1.24363 1.816874,-2.39462 -0.19304,-0.50306 -0.875059,-0.80538 -1.816874,-0.80538 -0.941822,0 -1.62384,0.30232 -1.81688,0.80538 z m 3.047649,0.6648 c 0,0.87642 -1.623871,1.28749 -2.323243,0.58812 -0.272566,-0.27257 -0.338905,-0.74909 -0.147409,-1.05894 0.489378,-0.79183 2.470652,-0.41426 2.470652,0.47082 z m 22.060036,-0.6648 c -0.44168,1.15099 0.50191,2.39462 1.81688,2.39462 1.31497,0 2.25855,-1.24363 1.81687,-2.39462 -0.19304,-0.50306 -0.87506,-0.80538 -1.81687,-0.80538 -0.94182,0 -1.62384,0.30232 -1.81688,0.80538 z m 3.04765,0.6648 c 0,0.87642 -1.62387,1.28749 -2.32325,0.58812 -0.27256,-0.27257 -0.3389,-0.74909 -0.14741,-1.05894 0.48938,-0.79183 2.47066,-0.41426 2.47066,0.47082 z m -27.956147,3.26546 c -1.29352,1.29352 0.43392,3.42157 2.3808,2.93293 1.030154,-0.25854 1.23928,-0.5692 1.114092,-1.65497 -0.125292,-1.08666 -0.433686,-1.36406 -1.648738,-1.48308 -0.822044,-0.0805 -1.652813,0.0118 -1.846154,0.20512 z m 2.848461,1.16531 c 0,0.87642 -1.623871,1.28749 -2.323243,0.58812 -0.272566,-0.27257 -0.338905,-0.74909 -0.147409,-1.05894 0.489378,-0.79183 2.470652,-0.41426 2.470652,0.47082 z m 2.539533,-0.84963 c -0.738837,0.54026 -0.830647,1.41619 -0.709477,6.76923 l 0.139175,6.14868 9.07156,0.13452 c 6.928125,0.10274 9.165555,-0.0136 9.469385,-0.49231 0.21879,-0.34475 0.40121,-3.22211 0.40535,-6.39412 0.007,-5.20244 -0.0857,-5.81721 -0.94471,-6.27693 -1.4252,-0.76274 -16.366496,-0.66766 -17.431283,0.11093 z m 17.592403,1.14279 c 0.56333,1.46803 0.32709,10.31916 -0.29195,10.9382 -0.82813,0.82814 -16.20569,0.82814 -17.033832,0 -0.61904,-0.61904 -0.85528,-9.47017 -0.291944,-10.9382 0.256541,-0.66853 1.502972,-0.77872 8.808861,-0.77872 7.305895,0 8.552325,0.11019 8.808865,0.77872 z m -10.356185,1.17576 c -0.58026,0.23999 -1.41102,0.94463 -1.84615,1.56586 -2.905151,4.14768 2.77556,8.71156 6.369695,5.11742 3.00884,-3.00884 -0.58168,-8.31363 -4.523545,-6.68328 z m 3.450155,1.5274 c 2.39143,1.8811 1.13907,5.50273 -1.902835,5.50273 -3.04191,0 -4.29426,-3.62163 -1.90283,-5.50273 0.71343,-0.56119 1.56971,-1.02035 1.90283,-1.02035 0.33313,0 1.189395,0.45916 1.902835,1.02035 z m -3.133605,2.42581 c 0,1.08307 0.22154,1.96923 0.49231,1.96923 0.27077,0 0.49231,-0.88616 0.49231,-1.96923 0,-1.08308 -0.22154,-1.96923 -0.49231,-1.96923 -0.27077,0 -0.49231,0.88615 -0.49231,1.96923 z m 1.47693,0 c 0,1.08307 0.22154,1.96923 0.49231,1.96923 0.270755,0 0.492295,-0.88616 0.492295,-1.96923 0,-1.08308 -0.22154,-1.96923 -0.492295,-1.96923 -0.27077,0 -0.49231,0.88615 -0.49231,1.96923 z m 10.689995,-6.58744 c -0.19335,0.19335 -0.35154,0.86424 -0.35154,1.49088 0,1.3818 2.05982,2.10435 3.23014,1.13307 1.26774,-1.05212 0.68049,-2.66128 -1.03245,-2.82907 -0.82204,-0.0805 -1.65281,0.0118 -1.84615,0.20512 z m 2.84846,1.16531 c 0,0.87642 -1.62387,1.28749 -2.32325,0.58812 -0.27256,-0.27257 -0.3389,-0.74909 -0.14741,-1.05894 0.48938,-0.79183 2.47066,-0.41426 2.47066,0.47082 z m -27.956147,3.26546 c -0.193348,0.19335 -0.351539,0.86424 -0.351539,1.49088 0,0.80444 0.361446,1.23006 1.229668,1.44796 1.899409,0.47672 2.797532,-0.0861 2.618683,-1.64091 -0.127495,-1.10844 -0.429489,-1.38343 -1.650658,-1.50305 -0.822044,-0.0805 -1.652813,0.0117 -1.846154,0.20512 z m 2.848461,1.16531 c 0,0.87642 -1.623871,1.28749 -2.323243,0.58811 -0.272566,-0.27256 -0.338905,-0.74908 -0.147409,-1.05893 0.489378,-0.79183 2.470652,-0.41427 2.470652,0.47082 z m 22.259226,-1.16531 c -0.74108,0.74107 -0.33741,2.58711 0.63307,2.89513 1.74869,0.55501 3.02851,-0.18005 2.85939,-1.64226 -0.12252,-1.05929 -0.4392,-1.33975 -1.64631,-1.45799 -0.82204,-0.0805 -1.65281,0.0117 -1.84615,0.20512 z m 2.5423,0.63224 c 0.87047,0.55135 0.28027,1.52443 -0.92461,1.52443 -1.05673,0 -1.68076,-0.74884 -1.23077,-1.47693 0.37224,-0.60229 1.24896,-0.62161 2.15538,-0.0475 z m -27.800394,4.17192 c -0.625716,1.63059 0.0012,2.52174 1.774844,2.52174 1.57883,0 1.716332,-0.11832 1.716332,-1.47692 0,-1.30708 -0.184388,-1.4947 -1.603391,-1.63145 -1.081163,-0.1042 -1.696006,0.0869 -1.887785,0.58663 z m 3.245022,0.81411 c 0,0.27927 -0.332308,0.63528 -0.738461,0.79114 -0.985957,0.37834 -2.356493,-0.17999 -1.971385,-0.80311 0.403194,-0.65238 2.709846,-0.64218 2.709846,0.0119 z m 21.862662,-0.81415 c -0.62572,1.63059 0.001,2.52174 1.77484,2.52174 1.57883,0 1.71634,-0.11832 1.71634,-1.47692 0,-1.30708 -0.18439,-1.4947 -1.6034,-1.63145 -1.08116,-0.1042 -1.696,0.0869 -1.88778,0.58663 z m 2.76802,1.04482 c -0.0229,0.73638 -2.11471,0.5941 -2.3664,-0.16096 -0.15211,-0.45636 0.174,-0.60475 1.08198,-0.49231 0.71485,0.0885 1.29284,0.3825 1.28442,0.65327 z"
       id="path4409"
       inkscape:connector-curvature="0"
       sodipodi:nodetypes="sssssssscsssssssssssscssssssssssssssssssscscssssssssssssssscssssssssssssssssssssssssssssssssssssssssssssssssssssssssscssscsssssscscsssssssssssssssssssssssssssscssscsssscsssscsssscsssccssccsssssssssssssssssss" /><path
       inkscape:connector-curvature="0"
       id="path4411"
       d="m 157.36826,164.06152 -3.23965,1.62741 -1.69321,7.91856 c -1.20266,5.62442 -1.54681,7.96735 -1.18788,8.08699 0.27794,0.0927 0.50535,0.60183 0.50535,1.13152 0,0.5297 0.58313,1.52176 1.29586,2.20459 0.71272,0.68283 1.29586,1.46659 1.29586,1.74168 0,0.91347 1.56068,1.92992 2.96325,1.92992 0.846,0 1.48235,0.2579 1.63815,0.66391 0.14012,0.36514 0.83797,0.96548 1.55076,1.33408 2.36242,1.22165 5.33709,-0.11299 6.13796,-2.75391 0.4272,-1.4087 1.02444,-1.19178 1.18104,0.42895 0.15727,1.62755 1.39975,2.39938 4.59928,2.85706 1.95885,0.28019 2.01538,0.33053 2.01538,1.79478 l 0,1.5065 -2.51085,0.13035 c -2.30746,0.1198 -2.49989,0.20727 -2.37574,1.07988 0.1241,0.87221 0.37536,0.94953 3.08563,0.94953 3.46353,0 4.1767,-0.59412 4.1767,-3.47947 0,-1.8011 0.001,-1.80272 1.88878,-2.0614 2.46548,-0.33793 4.08208,-1.09684 4.38771,-2.05978 0.30082,-0.94782 -1.74403,-15.30516 -2.61693,-18.37407 -0.52826,-1.85719 -0.88381,-2.33742 -2.18917,-2.95686 -0.91396,-0.43369 -2.23782,-0.67476 -3.20111,-0.5829 -1.24354,0.11859 -1.76393,-0.0376 -2.14195,-0.64291 -0.27464,-0.43975 -0.7305,-0.71277 -1.01304,-0.60671 -2.35673,0.88473 -2.39231,0.87026 -2.15787,-0.87761 0.2851,-2.12561 -0.50047,-2.8621 -2.62723,-2.46312 -0.84106,0.15778 -1.74952,0.55236 -2.01881,0.87684 -0.40937,0.49325 -0.76309,0.45044 -2.15795,-0.26117 -0.91758,-0.46811 -1.82185,-0.83287 -2.0095,-0.81059 -0.18765,0.0223 -1.79902,0.77287 -3.58082,1.66795 z m 11.80316,0.0777 c 0.27587,1.05494 -0.44345,2.82339 -1.27882,3.14395 -0.77448,0.2972 -1.87581,-0.14121 -1.92128,-0.76481 -0.0198,-0.27155 -0.0924,-0.97968 -0.16142,-1.57361 -0.17048,-1.46776 -0.0599,-1.57816 1.64459,-1.64224 1.16212,-0.0437 1.5341,0.13759 1.71693,0.83671 z m -8.44456,6.25618 -0.11895,6.74652 -2.05178,0.80545 c -2.44252,0.95884 -2.30978,1.70572 -1.22902,-6.91542 0.6204,-4.94888 0.94257,-6.34221 1.57311,-6.80326 1.84,-1.34545 1.95241,-0.96596 1.82664,6.16671 z m 2.41096,-6.26413 c 1.16528,0.53095 1.16874,0.54604 2.04379,8.92703 0.27988,2.68065 0.39409,4.9887 0.25378,5.129 -0.14031,0.1403 -0.99232,-0.0387 -1.89336,-0.39783 l -1.63826,-0.65292 -0.11896,-6.74383 c -0.0654,-3.70912 -0.026,-6.74383 0.0877,-6.74383 0.11364,0 0.68305,0.21707 1.26535,0.48238 z m -6.40213,2.64928 c -0.19329,1.1317 -1.5272,11.86799 -1.5272,12.29197 0,0.18421 -3.14393,1.44626 -3.27537,1.31482 -0.0655,-0.0655 0.55239,-3.22669 1.37307,-7.02491 1.40675,-6.51069 2.01634,-7.98573 3.30029,-7.98573 0.20293,0 0.26108,0.63173 0.12921,1.40385 z m 15.85131,0.94396 c 0.2607,1.36378 -0.21342,2.09592 -1.23203,1.90254 -0.50631,-0.0961 -0.86228,-0.58636 -0.94529,-1.30184 -0.12461,-1.0739 0.13133,-1.31479 1.70261,-1.60255 0.1505,-0.0275 0.36411,0.42328 0.47471,1.00185 z m -2.43665,2.33721 c 0.16378,1.02423 0.11445,1.79428 -0.11494,1.79428 -0.4441,0 -1.42204,-4.18988 -1.06198,-4.54994 0.36224,-0.36224 0.86754,0.82087 1.17692,2.75566 z m -0.77198,4.04877 c 0.73422,3.37814 1.27226,6.20478 1.19563,6.2814 -0.0766,0.0766 -0.91561,-0.17129 -1.86442,-0.55093 -1.91441,-0.766 -1.8175,-0.43914 -2.52748,-8.52491 l -0.29394,-3.34763 1.07763,0 c 1.03575,0 1.12949,0.23866 2.41258,6.14207 z m 8.70576,-5.5919 c 0.70242,0.35545 1.25244,1.19426 1.62447,2.47736 0.57039,1.96727 2.36693,13.44475 2.13998,13.6717 -0.0679,0.0679 -0.87409,-0.0837 -1.79142,-0.33698 -0.91733,-0.25328 -3.38484,-0.3938 -5.48334,-0.31225 l -3.81545,0.14826 2.2e-4,-1.15188 c 1.1e-4,-0.63352 0.23248,-1.22929 0.51636,-1.32391 0.38876,-0.12959 0.33636,-0.99023 -0.21234,-3.48734 -0.87033,-3.96085 -0.42222,-7.39871 1.01333,-7.77411 0.45772,-0.1197 1.02414,-0.72239 1.2587,-1.33932 0.35591,-0.93614 0.69616,-1.12063 2.05697,-1.11532 0.89679,0.003 2.10841,0.24821 2.69252,0.54379 z m -12.86035,10.76081 c 4.44575,1.70346 4.67112,1.87274 4.67112,3.50848 0,1.60598 -1.4895,3.32259 -2.88299,3.32259 -0.78837,0 -1.00459,0.23665 -1.00459,1.09952 0,1.49766 -1.80672,3.22001 -3.37774,3.22001 -1.39261,0 -3.53351,-1.45193 -3.53351,-2.3964 0,-0.44884 -0.25192,-0.51099 -0.97189,-0.23976 -1.32029,0.49736 -2.77487,-0.11859 -3.14416,-1.33143 -0.16746,-0.54993 -0.75093,-1.38862 -1.29663,-1.86377 -1.1285,-0.98262 -1.63354,-2.34594 -1.1523,-3.11055 0.31703,-0.5037 7.5598,-3.50385 8.58913,-3.55785 0.28178,-0.0148 2.12838,0.59234 4.10356,1.34916 z m -10.44724,2.75591 c 0,0.83144 0.82594,2.45162 1.46851,2.88068 0.72175,0.48192 2.36422,0.39188 3.41936,-0.18747 0.51892,-0.28492 1.34266,-0.47039 1.83053,-0.41215 1.18288,0.14119 2.5531,-1.39224 2.14576,-2.40135 -0.28051,-0.69493 -0.3494,-0.67402 -0.68994,0.20946 -0.45216,1.17305 -1.65068,1.73283 -2.11199,0.98641 -0.23997,-0.38829 -0.63343,-0.23019 -1.44374,0.58013 -1.42538,1.42537 -2.91868,1.01435 -3.51995,-0.96885 -0.43322,-1.42891 -1.09854,-1.84491 -1.09854,-0.68686 z m 25.91193,3.34362 c 1.77037,0.60584 2.54835,2.37847 0.80475,1.83364 -1.96077,-0.61268 -8.53924,-0.78162 -10.56578,-0.27133 -1.10085,0.2772 -2.10628,0.39924 -2.23431,0.27122 -0.38401,-0.38401 1.22291,-1.90412 2.21877,-2.09891 2.01252,-0.39366 8.35371,-0.22153 9.77657,0.26538 z m -6.04208,2.45936 c 0,0.23757 -0.57167,0.43195 -1.27037,0.43195 -0.6987,0 -1.3905,-0.19438 -1.53733,-0.43195 -0.15887,-0.25707 0.35548,-0.43196 1.27036,-0.43196 0.84554,0 1.53734,0.19438 1.53734,0.43196 z m 1.29585,3.36923 c 0,2.38054 -0.19372,3.99491 -0.51834,4.31953 -0.62467,0.62468 -4.23314,0.69831 -4.23314,0.0864 0,-0.23757 0.87471,-0.43195 1.94379,-0.43195 l 1.94379,0 0,-3.88758 c 0,-2.30375 0.17598,-3.88758 0.43195,-3.88758 0.25525,0 0.43195,1.55503 0.43195,3.80119 z m 3.23965,-3.36923 c -0.14683,0.23757 -0.74144,0.43195 -1.32135,0.43195 -0.57992,0 -1.05439,-0.19438 -1.05439,-0.43195 0,-0.23758 0.59461,-0.43196 1.32135,-0.43196 0.77091,0 1.21015,0.17994 1.05439,0.43196 z m -6.37131,1.11443 c 1.62744,0.25871 2.27874,0.89037 1.60881,1.5603 -0.33145,0.33144 -4.64748,-0.51458 -5.27565,-1.03412 -0.77023,-0.63704 -0.18064,-1.31904 0.90627,-1.04834 0.50862,0.12668 1.75088,0.36165 2.76057,0.52216 z m 9.40058,-0.24147 c 0.35071,0.56745 -2.39251,1.71875 -4.09528,1.71875 -1.98471,0 -1.62737,-1.09672 0.52607,-1.61456 2.49789,-0.60066 3.24882,-0.62259 3.56921,-0.10419 z"
       style="fill:#2e2b2a"
       sodipodi:nodetypes="scscsssssssssscsssscsssscssssscssscsssscsssssscscssssscsssssscsssssscsscsssscsscccssscssssssssssscsssssssssssssscssssssssssscsssssssssssssssss" /><path
       inkscape:connector-curvature="0"
       id="path4257"
       style="font-style:normal;font-variant:normal;font-weight:normal;font-stretch:normal;font-size:medium;line-height:125%;font-family:'Baron Neue';-inkscape-font-specification:'Baron Neue';text-align:start;letter-spacing:0px;word-spacing:0px;writing-mode:lr-tb;text-anchor:start;fill:#000000;fill-opacity:1;stroke:none;stroke-width:1px;stroke-linecap:butt;stroke-linejoin:miter;stroke-opacity:1"
       d="m 138.32436,180.98496 -4.256,0 0,4.256 -2.856,0 0,-4.256 -4.06,0 0,-2.828 4.06,0 0,-4.312 2.856,0 0,4.312 4.256,0 0,2.828 z" /><path
       inkscape:connector-curvature="0"
       id="path4254"
       style="font-style:normal;font-variant:normal;font-weight:normal;font-stretch:normal;font-size:medium;line-height:125%;font-family:'Baron Neue';-inkscape-font-specification:'Baron Neue';text-align:start;letter-spacing:0px;word-spacing:0px;writing-mode:lr-tb;text-anchor:start;fill:#000000;fill-opacity:1;stroke:none;stroke-width:1px;stroke-linecap:butt;stroke-linejoin:miter;stroke-opacity:1"
       d="m 205.58571,180.98496 -4.256,0 0,4.256 -2.856,0 0,-4.256 -4.06,0 0,-2.828 4.06,0 0,-4.312 2.856,0 0,4.312 4.256,0 0,2.828 z" /><path
       style="color:#000000;font-style:normal;font-variant:normal;font-weight:normal;font-stretch:normal;font-size:medium;line-height:normal;font-family:sans-serif;text-indent:0;text-align:start;text-decoration:none;text-decoration-line:none;text-decoration-style:solid;text-decoration-color:#000000;letter-spacing:normal;word-spacing:normal;text-transform:none;direction:ltr;block-progression:tb;writing-mode:lr-tb;baseline-shift:baseline;text-anchor:start;white-space:normal;clip-rule:nonzero;display:inline;overflow:visible;visibility:visible;opacity:1;isolation:auto;mix-blend-mode:normal;color-interpolation:sRGB;color-interpolation-filters:linearRGB;solid-color:#000000;solid-opacity:1;fill:#000000;fill-opacity:1;fill-rule:nonzero;stroke:none;stroke-width:0.40000001;stroke-linecap:butt;stroke-linejoin:miter;stroke-miterlimit:4;stroke-dasharray:none;stroke-dashoffset:0;stroke-opacity:1;color-rendering:auto;image-rendering:auto;shape-rendering:auto;text-rendering:auto;enable-background:accumulate"
       d="m 231.77488,167.37236 -2.58203,0.81836 -2.48242,0.78515 0,0.82032 0,0.52929 -2.45117,0.77735 -2.72656,0.86328 -0.0469,3.19922 -0.041,2.9082 -1.08789,0.31641 c -0.3417,0.0993 -0.65178,0.19959 -0.88086,0.2832 -0.11454,0.0418 -0.20935,0.0778 -0.28125,0.11133 -0.036,0.0167 -0.0648,0.0326 -0.0957,0.0527 -0.0154,0.0101 -0.0318,0.0197 -0.0527,0.041 -0.0105,0.0107 -0.0222,0.0242 -0.0352,0.0469 -0.006,0.0113 -0.0141,0.0257 -0.0195,0.043 -0.005,0.0173 -0.008,0.0617 -0.008,0.0625 0,7.9e-4 0.002,0.0338 0.004,0.043 0.002,0.009 0.004,0.0159 0.006,0.0215 0.003,0.0111 0.007,0.0189 0.01,0.0273 0.006,0.017 0.0123,0.0338 0.0215,0.0547 0.0184,0.0418 0.0438,0.0963 0.0762,0.16406 0.0648,0.13548 0.15722,0.32328 0.27148,0.55078 0.22852,0.45499 0.54452,1.06851 0.89063,1.73242 l 1.20703,2.31641 -1.30078,2.34375 c -0.37354,0.67257 -0.70325,1.29487 -0.9336,1.75781 -0.11517,0.23147 -0.20526,0.4227 -0.26562,0.56445 -0.0302,0.0709 -0.0526,0.12874 -0.0684,0.17969 -0.008,0.0255 -0.0154,0.0484 -0.0195,0.0801 -0.002,0.0159 -0.003,0.0338 0,0.0625 0.002,0.0143 0.003,0.0311 0.0117,0.0527 0.004,0.0108 0.0172,0.0346 0.0176,0.0352 3.3e-4,5.4e-4 0.0308,0.0387 0.0312,0.0391 4.1e-4,4.1e-4 0.0248,0.0219 0.0332,0.0273 0.008,0.005 0.0141,0.009 0.0195,0.0117 0.0109,0.006 0.0182,0.009 0.0254,0.0117 0.0144,0.006 0.0268,0.009 0.041,0.0137 0.0285,0.009 0.064,0.0177 0.10743,0.0293 0.087,0.0231 0.20756,0.0534 0.36132,0.0898 0.30754,0.073 0.74476,0.173 1.2793,0.29101 1.06908,0.23602 2.52996,0.54696 4.125,0.87891 1.5943,0.3318 3.08384,0.64312 4.19922,0.87695 1.11538,0.23384 1.87275,0.39613 1.94922,0.41406 0.11037,0.0259 0.25529,0.0159 0.37695,-0.0527 0.12167,-0.0687 0.22665,-0.17761 0.35352,-0.33984 0.25373,-0.32446 0.59522,-0.88162 1.17578,-1.85938 0.367,-0.6181 0.69614,-1.18746 0.92969,-1.60547 0.11677,-0.209 0.20983,-0.38009 0.27343,-0.5039 0.003,-0.005 0.003,-0.008 0.006,-0.0137 0.0696,0.10618 0.1428,0.21733 0.24024,0.37305 0.2508,0.40083 0.58116,0.9429 0.92773,1.53125 0.48014,0.81509 0.81193,1.34947 1.06055,1.68359 0.12431,0.16707 0.22708,0.284 0.33008,0.36719 0.10299,0.0832 0.2348,0.14519 0.37304,0.10547 -0.0109,0.003 0.0707,-0.0153 0.17774,-0.0371 0.10709,-0.0218 0.25612,-0.0512 0.44336,-0.0879 0.37448,-0.0735 0.89966,-0.17524 1.53515,-0.29687 1.27099,-0.24326 2.98644,-0.56851 4.83985,-0.91602 1.85426,-0.34767 3.55199,-0.67396 4.79297,-0.92187 0.62048,-0.12396 1.12633,-0.22784 1.48242,-0.30469 0.17804,-0.0384 0.31802,-0.0713 0.41797,-0.0957 0.05,-0.0122 0.0891,-0.0219 0.12109,-0.0312 0.016,-0.005 0.0294,-0.01 0.0449,-0.0156 0.008,-0.003 0.0157,-0.006 0.0274,-0.0117 0.006,-0.003 0.0143,-0.006 0.0234,-0.0117 0.009,-0.006 0.0367,-0.0308 0.0371,-0.0312 4.3e-4,-4.4e-4 0.0184,-0.0204 0.0254,-0.0312 0.007,-0.0109 0.0134,-0.0215 0.0176,-0.0312 0.008,-0.0194 0.0113,-0.0369 0.0137,-0.0508 0.005,-0.0278 0.003,-0.0462 0.002,-0.0625 -0.002,-0.0326 -0.007,-0.0567 -0.0137,-0.082 -0.0136,-0.0506 -0.0339,-0.10462 -0.0605,-0.17188 -0.0533,-0.1345 -0.13326,-0.31331 -0.23633,-0.52929 -0.20613,-0.43197 -0.50357,-1.01022 -0.8418,-1.63282 l -1.17382,-2.16015 1.20117,-2.28125 1.35937,-2.58399 -1.41601,-0.4707 -1.0625,-0.35351 -0.0781,-2.97071 -0.0859,-3.24609 -6.4082,-2.29102 -6.3418,-2.26562 -1.14843,0.34961 c -0.30326,0.0926 -0.57054,0.18699 -0.76172,0.26562 -0.0956,0.0393 -0.17116,0.0735 -0.23242,0.10938 -0.0306,0.0179 -0.0565,0.0311 -0.0918,0.0684 -0.0159,0.0168 -0.0359,0.0452 -0.0508,0.0918 -0.046,-0.0303 -0.0899,-0.0499 -0.11719,-0.0527 -0.0354,-0.004 -0.0656,-0.003 -0.0977,0 -0.0641,0.005 -0.13573,0.0172 -0.21875,0.0352 -0.16603,0.036 -0.37347,0.0949 -0.59375,0.16992 -0.21141,0.072 -0.41798,0.13857 -0.57812,0.18554 -0.0667,0.0196 -0.11935,0.0329 -0.16602,0.0449 -0.002,-0.007 -0.004,-0.006 -0.006,-0.0137 -0.0269,-0.0964 -0.0534,-0.2454 -0.0664,-0.4082 l -0.0703,-0.88281 z m 4.18946,0.45703 0.16211,0.0586 c -0.009,0.018 -0.0236,0.0382 -0.0293,0.0547 -0.0211,0.0609 -0.0335,0.12686 -0.0469,0.21094 -0.0268,0.16816 -0.0492,0.40336 -0.0703,0.69922 -0.0142,0.19871 -0.0212,0.54718 -0.0332,0.79492 -2.7e-4,-0.0122 2.7e-4,-0.0348 0,-0.0469 -0.0119,-0.52264 -0.0268,-0.946 -0.043,-1.24218 -0.008,-0.14809 -0.0158,-0.2631 -0.0254,-0.34766 -0.005,-0.0423 -0.01,-0.0774 -0.0176,-0.11133 -0.002,-0.01 -0.008,-0.0233 -0.0117,-0.0352 l 0.11524,-0.0352 z m -4.73438,0.32422 c 0.0124,0.0443 0.0273,0.0945 0.0391,0.20117 0.003,0.0283 0.001,0.11604 0.004,0.14844 -0.007,-0.01 -0.0138,-0.0207 -0.0273,-0.0332 -0.009,-0.008 -0.0346,-0.0251 -0.0352,-0.0254 -5.3e-4,-3.1e-4 -0.0522,-0.0213 -0.0527,-0.0215 -5.3e-4,-1.3e-4 -0.0678,-0.006 -0.0684,-0.006 -5.2e-4,5e-5 -0.064,0.0154 -0.0645,0.0156 -5e-4,2.2e-4 -0.0464,0.0269 -0.0469,0.0273 -5e-4,4e-4 -0.0219,0.0188 -0.0293,0.0273 -0.0295,0.0342 -0.0346,0.0568 -0.041,0.0742 -0.0127,0.0348 -0.0154,0.0566 -0.0195,0.084 -0.0165,0.10959 -0.0221,0.27162 -0.0215,0.50195 l 0,0.20117 0.01,0 c 0.003,0.099 0.003,0.22214 0.0156,0.28516 0.005,0.0269 -2.6e-4,0.0446 0.043,0.10742 0.005,0.008 0.0104,0.0178 0.0195,0.0273 0.009,0.01 0.0366,0.029 0.0371,0.0293 4.8e-4,3.2e-4 0.0562,0.0272 0.0566,0.0273 4.9e-4,1.4e-4 0.0737,0.006 0.0742,0.006 5e-4,-4e-5 0.0659,-0.0173 0.0664,-0.0176 5e-4,-2.3e-4 0.0444,-0.0269 0.0449,-0.0273 5.1e-4,-4.1e-4 0.0204,-0.0193 0.0273,-0.0273 0.007,-0.008 0.0113,-0.0149 0.0156,-0.0215 0.0267,-0.0403 0.027,-0.0561 0.0312,-0.0762 2.5e-4,0.063 0.004,0.0714 0.004,0.13867 l 0,0.19922 0,0.31641 c -0.0399,-0.0311 -0.0598,-0.0838 -0.10742,-0.0996 -0.24797,-0.0824 -0.50995,9.2e-4 -0.87695,0.14844 -0.16258,0.0653 -0.3032,0.16927 -0.38672,0.31836 -0.0835,0.14908 -0.10742,0.32168 -0.10742,0.52734 0,0.0532 0.005,0.0897 0.006,0.13476 -0.0188,-0.0126 -0.0349,-0.0425 -0.0508,-0.0488 -0.0433,-0.0173 -0.0804,-0.0224 -0.11719,-0.0254 -0.0733,-0.006 -0.17341,0.0266 -0.25977,0.041 l 0,-0.041 -0.26172,0.084 c -0.0335,0.0109 -0.12756,0.0348 -0.17382,0.0488 0.026,-0.0178 0.0525,-0.0216 0.0762,-0.0977 0.017,-0.0547 -0.003,-0.16399 -0.0547,-0.21484 -0.0522,-0.0508 -0.094,-0.0577 -0.12305,-0.0625 -0.0581,-0.01 -0.0934,-0.002 -0.13671,0.004 -0.17338,0.024 -0.44278,0.1024 -0.82422,0.23438 -0.16283,0.0563 -0.28507,0.0993 -0.3711,0.13086 -0.043,0.0158 -0.0768,0.0286 -0.10547,0.041 -0.0143,0.006 -0.0269,0.0106 -0.043,0.0195 -0.008,0.004 -0.0168,0.0103 -0.0293,0.0195 -0.006,0.005 -0.0145,0.0108 -0.0234,0.0195 -0.009,0.009 -0.0309,0.0385 -0.0312,0.0391 -2.1e-4,3.4e-4 -0.0107,0.0346 -0.0195,0.0625 -0.006,-0.22116 -0.0156,-0.41091 -0.0156,-0.66406 l 0,-0.15039 c 0.005,0.0269 -2.6e-4,0.0446 0.043,0.10742 0.005,0.008 0.0124,0.0178 0.0215,0.0273 0.009,0.01 0.0347,0.029 0.0351,0.0293 4.9e-4,3.2e-4 0.0581,0.0272 0.0586,0.0273 4.9e-4,1.4e-4 0.0718,0.006 0.0723,0.006 5e-4,-4e-5 0.0659,-0.0174 0.0664,-0.0176 5e-4,-2.3e-4 0.0444,-0.0269 0.0449,-0.0274 5.1e-4,-4.1e-4 0.0204,-0.0173 0.0274,-0.0254 0.007,-0.008 0.0112,-0.0168 0.0156,-0.0234 0.035,-0.0527 0.0343,-0.072 0.041,-0.0996 0.007,-0.0276 0.0123,-0.0569 0.0176,-0.0918 0.0422,-0.27927 0.0447,-0.6437 -0.004,-0.89063 -0.006,-0.0308 -0.0108,-0.0559 -0.0215,-0.0859 -0.005,-0.015 -0.012,-0.0306 -0.0273,-0.0547 -0.008,-0.0121 -0.0187,-0.026 -0.0371,-0.043 -0.009,-0.008 -0.0346,-0.027 -0.0352,-0.0273 -5.3e-4,-3.1e-4 -0.0522,-0.0214 -0.0527,-0.0215 -5.2e-4,-1.3e-4 -0.0678,-0.006 -0.0684,-0.006 -5.2e-4,5e-5 -0.0639,0.0154 -0.0644,0.0156 -5.1e-4,2.2e-4 -0.0464,0.0269 -0.0469,0.0273 -5e-4,4e-4 -0.02,0.0207 -0.0273,0.0293 -0.0295,0.0342 -0.0366,0.0549 -0.043,0.0723 -0.0101,0.0275 -0.0123,0.0456 -0.0156,0.0664 l 0,-0.39063 1.875,-0.60351 c 0.55265,-0.17789 1.07808,-0.34114 1.47852,-0.46094 0.20022,-0.0599 0.3698,-0.10846 0.49414,-0.14258 0.0449,-0.0123 0.0752,-0.0192 0.10742,-0.0273 z m 4.25782,0.004 c 0.006,0.0651 0.0102,0.12371 0.0156,0.22266 0.0157,0.28821 0.0311,0.7102 0.043,1.23047 0.0237,1.04055 0.0382,2.47752 0.0371,4.05859 -0.001,1.58186 -0.009,3.02051 -0.0195,4.0625 -0.005,0.46155 -0.008,0.80812 -0.0137,1.0918 -0.12996,-0.21048 -0.27583,-0.45384 -0.42774,-0.7207 -0.1762,-0.30953 -0.34906,-0.62512 -0.47656,-0.87305 -0.0637,-0.12396 -0.11748,-0.23233 -0.15234,-0.31055 -0.0174,-0.0391 -0.03,-0.0716 -0.0371,-0.0918 -0.007,-0.0202 -0.004,-0.0403 -0.004,0.006 0,-0.0887 -0.018,-0.17068 -0.0625,-0.2461 -0.0445,-0.0754 -0.13202,-0.1582 -0.25781,-0.1582 0.0747,0 0.0826,0.0205 0.084,0.0215 0.001,9.9e-4 -0.0102,-0.006 -0.0234,-0.0195 -0.0265,-0.0272 -0.0681,-0.0778 -0.11523,-0.14062 -0.0942,-0.12559 -0.21227,-0.30425 -0.32813,-0.50196 -0.12377,-0.21119 -0.25428,-0.40418 -0.37109,-0.54882 -0.0584,-0.0723 -0.11375,-0.13269 -0.16797,-0.18164 -0.0542,-0.049 -0.0848,-0.10938 -0.23047,-0.10938 -0.0574,0 -0.0717,0.008 -0.11132,0.0156 -0.0397,0.008 -0.0887,0.0187 -0.1504,0.0332 -0.12331,0.029 -0.29319,0.0722 -0.50586,0.12695 -0.42532,0.10945 -1.02169,0.26747 -1.75781,0.4668 -1.47224,0.39866 -3.49907,0.95795 -5.79883,1.60351 -0.71639,0.2011 -1.37389,0.37698 -1.85546,0.49805 -0.24079,0.0605 -0.43866,0.10774 -0.57422,0.13672 -0.005,10e-4 -0.007,8.8e-4 -0.0117,0.002 -8.2e-4,-0.0133 -0.001,-0.0186 -0.002,-0.0332 -0.008,-0.14945 -0.0157,-0.3649 -0.0234,-0.62891 -0.0154,-0.528 -0.0285,-1.2489 -0.0352,-2.03515 l -0.0234,-2.71875 2.14649,-0.71875 c 0.62725,-0.21009 1.22222,-0.40393 1.67187,-0.54492 0.22483,-0.0705 0.41259,-0.12794 0.55078,-0.16797 0.0601,-0.0174 0.10569,-0.0289 0.14454,-0.0391 0.008,0.0219 0.0135,0.0282 0.0215,0.0723 0.0284,0.15699 0.0449,0.43888 0.0449,0.84375 0,0.37519 0.0145,0.67001 0.0488,0.88477 0.0171,0.10738 0.0382,0.19406 0.0742,0.27343 0.018,0.0397 0.0384,0.0786 0.0781,0.11719 0.0397,0.0386 0.10861,0.0762 0.18164,0.0762 0.0572,0 0.0743,-0.007 0.11914,-0.0156 0.0449,-0.009 0.10198,-0.0216 0.16993,-0.0371 0.1359,-0.031 0.31879,-0.0763 0.53515,-0.13086 0.43273,-0.10919 1.00106,-0.25854 1.60547,-0.42383 l 2.33594,-0.63867 0.0527,-1.47852 0.043,-1.19336 0.81836,-0.26562 c 0.26683,-0.0867 0.49977,-0.17313 0.66797,-0.24805 0.0841,-0.0375 0.15094,-0.071 0.20703,-0.10742 0.0281,-0.0182 0.0524,-0.0331 0.0859,-0.0742 0.0125,-0.0153 0.026,-0.0453 0.0371,-0.0781 0.0463,0.0313 0.0913,0.0496 0.11914,0.0527 0.0357,0.004 0.0654,0.002 0.0977,0 0.0646,-0.005 0.1354,-0.0174 0.21875,-0.0352 0.16669,-0.0356 0.3772,-0.0928 0.59765,-0.16796 0.21123,-0.072 0.41847,-0.13862 0.58008,-0.18555 0.0415,-0.012 0.069,-0.018 0.10352,-0.0273 z m 0.95898,0.0547 c 0.28205,0.10062 2.70253,0.95267 5.76758,2.03321 l 0.0332,0.0117 c 1.56705,0.55259 3.01946,1.07479 4.08984,1.4668 0.53953,0.1976 0.9818,0.36164 1.29688,0.48242 0.15754,0.0604 0.28345,0.11045 0.37109,0.14649 0.0369,0.0152 0.0637,0.0253 0.0859,0.0352 1.8e-4,8e-5 -1.8e-4,0.002 0,0.002 0.0102,0.0385 0.0236,0.10247 0.0352,0.18359 0.0233,0.16391 0.0447,0.39734 0.0625,0.67383 0.0355,0.55297 0.0578,1.27902 0.0644,1.99805 0.007,0.71902 -0.002,1.43369 -0.0273,1.96289 -0.0128,0.2646 -0.0307,0.48268 -0.0508,0.62695 -0.002,0.0152 -0.004,0.0178 -0.006,0.0312 -0.0641,-0.0194 -0.13338,-0.0408 -0.23243,-0.0723 -0.24788,-0.0787 -0.59754,-0.1928 -1.02343,-0.33398 -0.8518,-0.28237 -2.00819,-0.67285 -3.25977,-1.10156 -1.25325,-0.42928 -2.40539,-0.80986 -3.25391,-1.08008 -0.42425,-0.13511 -0.771,-0.24294 -1.01953,-0.31445 -0.12426,-0.0358 -0.22438,-0.0625 -0.29882,-0.0801 -0.0372,-0.009 -0.0662,-0.0151 -0.0957,-0.0195 -0.0147,-0.002 -0.0306,-0.005 -0.0508,-0.006 -0.0101,-2.2e-4 -0.0215,0.001 -0.0391,0.004 -0.009,0.001 -0.018,0.002 -0.0312,0.006 -0.0132,0.004 -0.0503,0.0231 -0.0508,0.0234 -0.052,0.0322 -0.0513,0.0413 -0.0645,0.0566 -0.0131,0.0153 -0.0249,0.032 -0.0391,0.0508 -0.0282,0.0376 -0.0625,0.0863 -0.10351,0.14649 -0.082,0.12037 -0.19108,0.28641 -0.32032,0.48828 -0.25846,0.40374 -0.59822,0.95008 -0.95703,1.54101 l -0.95703,1.57618 -0.0566,-1.43165 c -0.0722,-1.84163 -0.0758,-4.20313 -0.0332,-6.08984 0.0213,-0.94336 0.0543,-1.76966 0.0957,-2.34961 0.0207,-0.28997 0.0433,-0.51871 0.0664,-0.66406 3.3e-4,-0.002 0.002,-0.002 0.002,-0.004 z m -6.69141,0.5918 c -4.9e-4,9e-5 -0.0679,0.0251 -0.0684,0.0254 -4.8e-4,2.9e-4 -0.0405,0.0327 -0.041,0.0332 -4.8e-4,4.9e-4 -0.0176,0.0189 -0.0234,0.0274 -0.0117,0.0168 -0.0168,0.0301 -0.0215,0.041 -0.0186,0.0435 -0.0212,0.0639 -0.0254,0.0918 -0.0169,0.11157 -0.0215,0.28433 -0.0215,0.53711 0,0.2528 0.005,0.42359 0.0215,0.53515 0.004,0.0279 0.007,0.0483 0.0254,0.0918 0.005,0.0109 0.01,0.0242 0.0215,0.041 0.006,0.008 0.023,0.0269 0.0234,0.0273 4.8e-4,4.9e-4 0.0405,0.0329 0.041,0.0332 4.9e-4,2.9e-4 0.0679,0.0253 0.0684,0.0254 5e-4,9e-5 0.0796,1e-4 0.0801,0 5e-4,-1.1e-4 0.062,-0.0251 0.0625,-0.0254 5.1e-4,-3e-4 0.0295,-0.0217 0.0391,-0.0312 0.0769,-0.0763 0.0572,-0.0947 0.0645,-0.12304 0.007,-0.0284 0.0123,-0.0587 0.0176,-0.0937 0.0425,-0.28063 0.0425,-0.68227 0,-0.96289 -0.005,-0.0351 -0.0103,-0.0634 -0.0176,-0.0918 -0.007,-0.0284 0.0124,-0.0487 -0.0645,-0.125 -0.01,-0.01 -0.0385,-0.029 -0.0391,-0.0293 -5e-4,-3e-4 -0.062,-0.0253 -0.0625,-0.0254 -5e-4,-1e-4 -0.0796,-0.002 -0.0801,-0.002 z m -1.15234,0.33008 c -4.9e-4,9e-5 -0.0659,0.0232 -0.0664,0.0234 -4.8e-4,2.9e-4 -0.0405,0.0327 -0.041,0.0332 -4.8e-4,4.8e-4 -0.0176,0.0209 -0.0234,0.0293 -0.0117,0.0168 -0.0188,0.0282 -0.0234,0.0391 -0.0186,0.0435 -0.0192,0.0659 -0.0234,0.0937 -0.0169,0.11157 -0.0215,0.28237 -0.0215,0.53515 0,0.25279 0.005,0.42359 0.0215,0.53516 0.004,0.0279 0.005,0.0503 0.0234,0.0937 0.005,0.0109 0.0118,0.0222 0.0234,0.0391 0.006,0.008 0.023,0.0288 0.0234,0.0293 4.8e-4,4.8e-4 0.0405,0.0329 0.041,0.0332 4.9e-4,2.9e-4 0.0659,0.0233 0.0664,0.0234 4.9e-4,9e-5 0.0796,1.1e-4 0.0801,0 5e-4,-1.1e-4 0.0639,-0.0251 0.0644,-0.0254 5.1e-4,-3.1e-4 0.0294,-0.0198 0.0391,-0.0293 0.0769,-0.0763 0.0571,-0.0966 0.0645,-0.125 0.007,-0.0284 0.0123,-0.0567 0.0176,-0.0918 0.0425,-0.28063 0.0425,-0.68422 0,-0.96485 -0.005,-0.0351 -0.0103,-0.0634 -0.0176,-0.0918 -0.007,-0.0284 0.0124,-0.0487 -0.0645,-0.125 -0.01,-0.01 -0.0386,-0.029 -0.0391,-0.0293 -5e-4,-3.1e-4 -0.064,-0.0253 -0.0644,-0.0254 -5e-4,-1.1e-4 -0.0796,-9e-5 -0.0801,0 z m 0.60156,0.59765 c -0.0981,0.0361 -0.12821,0.10279 -0.14648,0.14844 -0.0358,0.0894 -0.0371,0.17135 -0.0332,0.27149 l 0,0.006 c 0.002,0.0543 0.005,0.1002 0.0137,0.14454 0.009,0.0443 0.007,0.0869 0.0781,0.1582 0.0356,0.0356 0.1137,0.0731 0.1836,0.0625 0.0699,-0.0106 0.10948,-0.0456 0.13281,-0.0703 0.0466,-0.0494 0.0586,-0.087 0.0762,-0.13086 0.035,-0.0875 0.0505,-0.17605 0.0469,-0.26367 -0.004,-0.0876 -0.0175,-0.18163 -0.10352,-0.26758 -0.043,-0.043 -0.14998,-0.0947 -0.24805,-0.0586 z m 1.75586,1.04102 c 0.0103,0.02 0.0234,0.0543 0.0234,0.10547 0,0.10206 -0.0848,0.2275 -0.29297,0.30664 -0.13128,0.0499 -0.22291,0.0849 -0.28906,0.10547 -0.002,-0.0433 -0.004,-0.0807 -0.004,-0.15821 0,-0.15101 0.0196,-0.19052 0.0879,-0.24023 0.0633,-0.0461 0.23141,-0.0917 0.47461,-0.11914 z m 0.14258,0.45312 c -0.002,0.002 -0.003,0.009 -0.006,0.0117 -3.6e-4,3.5e-4 -0.005,0.002 -0.006,0.002 0.004,-0.005 0.008,-0.009 0.0117,-0.0137 z m -1.19727,0.41211 c 0.0217,0.0562 0.0281,0.11669 0.084,0.15821 0.0583,0.0433 0.11876,0.0336 0.17969,0.0391 -0.44766,0.11937 -0.88339,0.23587 -1.44922,0.38672 -0.41092,0.10955 -0.79628,0.19748 -1.08008,0.25195 -0.13119,0.0252 -0.2332,0.0419 -0.31055,0.0508 -0.007,-0.0605 -0.0113,-0.16054 -0.0176,-0.2539 0.006,0.005 0.0231,0.0192 0.0332,0.0254 0.0118,0.007 0.0219,0.0118 0.0312,0.0156 0.0187,0.008 0.0328,0.0113 0.0449,0.0137 0.0243,0.005 0.042,0.006 0.0586,0.006 0.0332,5e-4 0.064,-0.002 0.0996,-0.006 0.0712,-0.008 0.15862,-0.0218 0.26172,-0.041 0.20619,-0.0385 0.47011,-0.0975 0.73828,-0.16211 0.26817,-0.0646 0.53866,-0.13385 0.75586,-0.19727 0.1086,-0.0317 0.20435,-0.0625 0.28125,-0.0898 0.0769,-0.0274 0.12156,-0.0353 0.19531,-0.0918 0.0335,-0.0257 0.065,-0.0516 0.0937,-0.0977 0.001,-0.002 -0.001,-0.006 0,-0.008 z m -2.61328,0.0742 c 0.008,0.0152 0.0253,0.0506 0.0254,0.0508 2.7e-4,3.7e-4 0.0697,0.0603 0.0703,0.0605 5.6e-4,3e-4 0.0336,0.0147 0.0449,0.0176 0.0395,0.0101 0.0509,0.007 0.0644,0.006 -0.0495,0.0212 -0.0952,0.0397 -0.13672,0.0684 -0.0185,0.0128 -0.0407,0.038 -0.0625,0.0644 -0.003,-0.0769 -0.003,-0.18174 -0.006,-0.26758 z m -2.28906,2.95508 c -0.114,-0.0168 -0.24457,0.0301 -0.32226,0.12305 -0.0777,0.093 -0.10938,0.21357 -0.10938,0.3457 0,0.13601 0.0354,0.26403 0.11328,0.36719 0.0779,0.10316 0.20801,0.17383 0.3457,0.17383 0.12526,0 0.25524,-0.0538 0.33204,-0.15625 0.0768,-0.10242 0.094,-0.23332 0.0703,-0.35547 -0.0511,-0.26329 -0.2017,-0.46444 -0.42969,-0.49805 z m -4.53125,0.0234 c -0.18148,-0.0764 -0.43281,-0.0112 -0.55078,0.17969 -0.11022,0.17834 -0.0971,0.40124 0.01,0.55664 0.10688,0.1554 0.29465,0.25 0.50585,0.25 0.12548,0 0.25344,-0.0583 0.32618,-0.16016 0.0727,-0.10181 0.0899,-0.23055 0.0664,-0.35156 -0.0432,-0.2227 -0.17594,-0.3982 -0.35742,-0.47461 z m -0.1543,0.36914 c 0.0358,0.0151 0.0983,0.0741 0.11914,0.18164 0.007,0.0376 -0.001,0.0474 0.002,0.043 0.003,-0.004 0.0166,-0.008 -0.002,-0.008 -0.0942,0 -0.15028,-0.0391 -0.17578,-0.0762 -0.0255,-0.0371 -0.0324,-0.0636 0.002,-0.11914 0.0307,-0.0497 0.0188,-0.0366 0.0547,-0.0215 z m 4.65821,0.0586 c 0.0212,0.0191 0.0447,0.0213 0.0644,0.12305 0.008,0.0401 -0.002,0.045 0.002,0.0391 0.004,-0.006 0.0161,-0.004 -0.0117,-0.004 -0.0148,0 -0.014,0.002 -0.0273,-0.0156 -0.0133,-0.0176 -0.0312,-0.0591 -0.0312,-0.125 0,-0.0134 0.003,-0.007 0.004,-0.0176 z m 14.24218,0.32813 c 0.0723,0.0268 0.20792,0.0737 0.49219,0.17187 0.31358,0.10829 0.75226,0.25812 1.28125,0.43946 1.05799,0.36267 2.48229,0.84927 4.01953,1.37304 1.5369,0.52365 2.94235,1.00678 3.9668,1.36133 0.51223,0.17727 0.92787,0.32306 1.21875,0.42578 0.12363,0.0437 0.21192,0.0743 0.28711,0.10156 -0.0415,0.1002 -0.10361,0.23824 -0.18359,0.40821 -0.16685,0.35453 -0.40132,0.83049 -0.6504,1.31836 -0.24907,0.48787 -0.51362,0.98809 -0.73632,1.39648 -0.22271,0.40839 -0.41387,0.73607 -0.48242,0.82813 l -0.18165,0.24414 -5.92968,-1.81055 c -1.66719,-0.50935 -3.18781,-0.97713 -4.29493,-1.32031 -0.55355,-0.1716 -1.00352,-0.31326 -1.3164,-0.41211 -0.12179,-0.0385 -0.2033,-0.0647 -0.28125,-0.0899 0.066,-0.1238 0.16444,-0.29922 0.28906,-0.51757 0.25219,-0.44189 0.6073,-1.04814 1.00391,-1.70899 0.52928,-0.88193 0.90666,-1.47569 1.16601,-1.83008 0.12968,-0.17719 0.2307,-0.29415 0.29493,-0.35156 0.0212,-0.0189 0.0278,-0.0214 0.0371,-0.0273 z m -6.42382,0.10351 c 0.0202,0.0181 0.0462,0.0429 0.082,0.084 0.0852,0.0976 0.20168,0.25075 0.33984,0.44922 0.27632,0.39693 0.63895,0.97219 1.04492,1.66406 0.37335,0.63626 0.70797,1.21987 0.94532,1.64453 0.11361,0.20328 0.20159,0.36425 0.26367,0.48242 -0.0467,0.0134 -0.0808,0.0237 -0.14258,0.041 -0.22995,0.0647 -0.56073,0.1562 -0.9668,0.26758 -0.81212,0.22274 -1.92607,0.52527 -3.14648,0.85351 -1.22117,0.32845 -2.3675,0.64205 -3.23242,0.88281 -0.43246,0.12039 -0.79473,0.22391 -1.06055,0.30078 -0.26582,0.0769 -0.41285,0.11781 -0.49805,0.15235 -0.11203,0.0454 -0.18922,0.0786 -0.25,0.11328 -0.0248,0.0142 -0.0527,0.0331 -0.0879,0.0762 -0.006,-0.002 -0.0141,-0.006 -0.0195,-0.008 -0.0216,-0.006 -0.0375,-0.007 -0.0508,-0.008 -0.0266,-0.002 -0.0466,-0.001 -0.0684,0 -0.0435,0.003 -0.0917,0.008 -0.15039,0.0176 -0.11745,0.019 -0.27346,0.0515 -0.46289,0.0937 -0.37886,0.0845 -0.88703,0.21192 -1.43555,0.36133 -0.58788,0.16014 -1.09305,0.27882 -1.45703,0.34571 -0.18199,0.0334 -0.32886,0.0523 -0.42578,0.0586 -0.0333,0.002 -0.0496,0.002 -0.0684,0.002 -0.0115,-0.019 -0.0425,-0.0635 -0.10156,-0.16211 -0.0743,-0.12396 -0.17134,-0.29244 -0.28321,-0.49023 -0.22372,-0.39559 -0.50747,-0.90808 -0.78515,-1.42188 -0.27769,-0.51379 -0.55062,-1.0299 -0.75781,-1.43164 -0.1036,-0.20087 -0.18987,-0.37352 -0.25196,-0.50195 -0.0182,-0.0376 -0.0294,-0.0624 -0.043,-0.0918 0.0523,-0.0249 0.10682,-0.0526 0.20313,-0.0898 0.25333,-0.0979 0.64889,-0.2315 1.18555,-0.40039 1.07331,-0.33777 2.71257,-0.81504 4.94726,-1.44336 1.80797,-0.50835 3.47901,-0.9719 4.71484,-1.30859 0.61792,-0.16835 1.12605,-0.30564 1.48829,-0.40039 0.18111,-0.0474 0.32569,-0.0845 0.42773,-0.10938 0.0436,-0.0106 0.0766,-0.0174 0.10352,-0.0234 z m -10.95118,2.56055 c 0.002,0.008 0.006,0.0159 0.0117,0.0293 0.003,0.007 0.0134,0.025 0.0137,0.0254 1.9e-4,3e-4 0.0132,0.0151 0.0215,0.0254 -0.0128,0.004 -0.0362,0.0118 -0.0488,0.0156 l 0.002,-0.0957 z m 26.64649,0.0781 0,0.0137 c -0.001,-4.1e-4 -0.003,-0.002 -0.004,-0.002 0.003,-0.004 0.002,-0.008 0.004,-0.0117 z m -12.5332,0.16015 0.0566,1.46289 c -0.007,0.0141 -0.0178,0.0347 -0.0234,0.0469 -0.01,0.0206 -0.0178,0.0388 -0.0254,0.0605 -0.004,0.0108 -0.008,0.0211 -0.0117,0.0449 -9.7e-4,0.006 -0.001,0.0127 -0.002,0.0215 -5.5e-4,0.009 -5e-5,0.0328 0,0.0332 4e-5,4.4e-4 0.0136,0.0544 0.0137,0.0547 3e-5,7e-5 0.008,0.0117 0.0117,0.0176 -0.017,-0.004 -0.0322,-0.005 -0.0469,-0.008 0.001,-10e-4 0.006,-0.008 0.006,-0.008 1.2e-4,-2.8e-4 0.0136,-0.0562 0.0137,-0.0566 4e-5,-4e-4 0.002,-0.0244 0.002,-0.0332 -5.4e-4,-0.009 -0.003,-0.0156 -0.004,-0.0215 -0.004,-0.0236 -0.006,-0.0345 -0.01,-0.0449 -0.007,-0.0209 -0.0144,-0.0369 -0.0234,-0.0566 -0.0181,-0.0394 -0.0435,-0.0898 -0.0762,-0.15234 -0.0132,-0.0252 -0.0411,-0.0744 -0.0566,-0.10352 0.0307,-0.01 0.0624,-0.0195 0.0625,-0.0195 1.2e-4,-8e-5 0.0468,-0.0487 0.0469,-0.0488 1.1e-4,-1.5e-4 0.0175,-0.031 0.0176,-0.0312 1.1e-4,-2.3e-4 0.008,-0.0143 0.01,-0.0195 0.007,-0.021 0.008,-0.029 0.01,-0.0371 0.003,-0.0163 0.003,-0.0263 0.004,-0.0391 0.002,-0.0256 0.004,-0.0577 0.006,-0.0977 0.004,-0.08 0.007,-0.19298 0.01,-0.33985 0.003,-0.14826 0.007,-0.41477 0.01,-0.625 z m 8.27148,0.70899 c -0.24354,0 -0.42767,0.15598 -0.51172,0.375 -0.0854,0.22247 -0.0733,0.45771 0.0117,0.65039 0.085,0.19267 0.26467,0.36132 0.5,0.36132 0.12177,0 0.22316,-0.0416 0.32227,-0.0976 0.0991,-0.056 0.19387,-0.12955 0.26953,-0.2207 0.0922,-0.11115 0.16797,-0.22746 0.16797,-0.375 0,-0.14755 -0.0757,-0.2619 -0.16797,-0.37305 -0.0757,-0.0912 -0.17043,-0.16469 -0.26953,-0.22071 -0.0991,-0.056 -0.2005,-0.0996 -0.32227,-0.0996 z m -17.2793,0.0566 c -0.23875,-0.0622 -0.5023,0.0405 -0.6875,0.26367 -0.0999,0.12038 -0.18738,0.24337 -0.17383,0.40625 0.0136,0.16288 0.11287,0.26913 0.23047,0.38672 0.22045,0.22045 0.51402,0.29362 0.75196,0.19336 0.23793,-0.10026 0.38122,-0.37591 0.33789,-0.67969 -0.0406,-0.28509 -0.22024,-0.50811 -0.45899,-0.57031 z m -0.6875,0.26367 0.1543,-0.0723 -0.0937,0 -0.0606,0.0723 z m 18.11328,0.14453 c 0.0511,0.0324 0.10483,0.0729 0.13672,0.11133 0.009,0.0103 0.003,0.005 0.01,0.0137 l -0.0195,0 c -0.0409,-0.05 -0.0689,-0.0956 -0.12696,-0.125 z m -17.71484,0.0684 c -0.0612,0.0607 -0.14268,0.0873 -0.16211,0.17383 -2.9e-4,-6e-5 -0.0118,-0.0148 -0.0117,-0.0137 9.1e-4,0.0109 0.002,-0.0184 0.084,-0.11719 0.0356,-0.0429 0.057,-0.0213 0.0898,-0.043 z m 9.12305,0.86914 c -0.0401,10e-4 0.0489,0.007 0.14844,0.0293 0.0996,0.0218 0.23826,0.054 0.4082,0.0977 0.33987,0.0873 0.80766,0.21646 1.36914,0.375 1.12295,0.3171 2.61906,0.75652 4.21484,1.24219 1.59624,0.4858 3.04639,0.93666 4.09766,1.27148 0.45466,0.14481 0.79234,0.25501 1.07617,0.34961 -0.24879,0.0566 -0.51648,0.11698 -0.89258,0.19922 -0.94629,0.20693 -2.24724,0.4856 -3.66015,0.78321 -2.82583,0.59521 -6.10273,1.27008 -7.9043,1.61914 l -0.13281,0.0254 0,-2.8125 0,-2.90625 0.39062,-0.11328 c 0.27574,-0.0796 0.70208,-0.15337 0.88477,-0.16016 z m -1.93555,0.50391 c 0.0192,0.0975 0.0384,0.25767 0.0527,0.48632 0.0295,0.47203 0.043,1.21337 0.043,2.26563 0,1.37664 -0.007,2.12447 -0.043,2.49219 -0.0149,0.15031 -0.0335,0.1911 -0.0391,0.21093 -0.22076,-0.0546 -2.76077,-0.65234 -5.7832,-1.36132 -1.52133,-0.35687 -2.89665,-0.6921 -3.88672,-0.94532 -0.43528,-0.11132 -0.75891,-0.19961 -1.02344,-0.27343 0.002,-7.7e-4 0.003,-0.001 0.006,-0.002 0.32237,-0.1006 0.76078,-0.22747 1.23633,-0.35351 0.48083,-0.12745 0.90878,-0.25172 1.21484,-0.35157 0.15303,-0.0499 0.27477,-0.0938 0.36329,-0.13085 0.0443,-0.0185 0.0798,-0.0331 0.11718,-0.0566 0.0173,-0.0109 0.0366,-0.0245 0.0645,-0.0586 0.0151,0.006 0.0286,0.0118 0.0391,0.0137 0.0544,0.01 0.0793,0.004 0.11523,0 0.036,-0.004 0.0774,-0.009 0.125,-0.0176 0.0952,-0.0164 0.21888,-0.0408 0.375,-0.0762 0.6245,-0.14154 1.75962,-0.43914 3.40039,-0.88867 0.98935,-0.27107 1.90866,-0.51683 2.59375,-0.69531 0.34255,-0.0892 0.62677,-0.16128 0.83008,-0.21094 0.0843,-0.0206 0.14481,-0.0346 0.19922,-0.0469 z m -11.4668,2.81054 c -0.008,0.0327 -0.0215,0.0934 -0.0215,0.0937 2e-5,3e-4 0.008,0.0276 0.0156,0.0527 -0.0967,-0.0213 -0.20296,-0.045 -0.26757,-0.0586 -0.0495,-0.0104 -0.0888,-0.0196 -0.11914,-0.0254 -0.0152,-0.003 -0.0272,-0.004 -0.0391,-0.006 -0.0119,-0.002 -0.0139,-0.006 -0.0488,-0.006 -2.6e-4,0 -0.0188,0.004 -0.0352,0.006 l -0.008,-0.0176 c 0.004,3.7e-4 0.0113,0.007 0.0156,0.008 0.0528,0.006 0.10578,0.006 0.16797,0.002 0.0895,-0.006 0.21614,-0.0288 0.33984,-0.0488 z m 25.60547,0.0781 0.125,0.0371 c -0.0414,0.001 -0.0854,0.004 -0.13672,0.01 0.006,-0.0141 0.0137,-0.037 0.0137,-0.0371 0,-2e-5 -0.002,-0.008 -0.002,-0.01 z m 0.32227,0.0977 0.0937,0.0293 0.006,-0.006 0.0273,0.0508 c -0.0376,-0.0327 -0.0829,-0.0541 -0.12695,-0.0742 z m -26.32617,0.29493 c 0.0154,0.003 0.0245,0.004 0.043,0.008 0.0961,0.0203 0.23442,0.0514 0.40626,0.0898 0.34367,0.0768 0.8247,0.18615 1.39843,0.31836 1.14747,0.26442 2.66158,0.61712 4.17383,0.97266 1.51225,0.35553 3.02344,0.71327 4.16211,0.98633 0.56933,0.13653 1.04575,0.25268 1.38281,0.33593 0.13028,0.0322 0.21909,0.0563 0.30469,0.0781 -0.0128,0.0177 -0.0222,0.0293 -0.0371,0.0508 -0.0735,0.10579 -0.17421,0.25828 -0.29492,0.44726 -0.24142,0.37797 -0.56515,0.90329 -0.91602,1.48829 -0.34928,0.58235 -0.68081,1.12 -0.93164,1.51367 -0.12541,0.19683 -0.23003,0.35683 -0.30664,0.46875 -0.0294,0.043 -0.0506,0.0709 -0.0703,0.0976 -0.0144,-0.002 -0.0212,-0.003 -0.0391,-0.006 -0.0907,-0.0135 -0.22485,-0.0362 -0.39258,-0.0664 -0.33546,-0.0603 -0.80989,-0.15035 -1.375,-0.26172 -1.13023,-0.22274 -2.62574,-0.52852 -4.11914,-0.83984 -1.4934,-0.31133 -2.98365,-0.62826 -4.10547,-0.875 -0.56091,-0.12338 -1.03023,-0.22842 -1.35938,-0.30664 -0.13612,-0.0324 -0.23233,-0.0581 -0.3164,-0.0801 0.003,-0.007 0.004,-0.01 0.008,-0.0176 0.0618,-0.13259 0.15502,-0.32237 0.26953,-0.54688 0.22902,-0.44901 0.54123,-1.04175 0.85938,-1.63086 0.31814,-0.5891 0.64285,-1.17581 0.89258,-1.61328 0.12486,-0.21873 0.22975,-0.3993 0.30664,-0.52343 0.0243,-0.0393 0.0391,-0.0615 0.0566,-0.0879 z m 26.18164,0.0391 c -0.0378,-0.003 0.009,0.002 0.0781,0.0723 0.0693,0.0705 0.16515,0.19009 0.2793,0.35743 0.2283,0.33466 0.53475,0.86033 0.93555,1.59765 0.3143,0.5782 0.59498,1.1093 0.79101,1.49805 0.0894,0.17721 0.15566,0.31482 0.20508,0.42187 -0.0918,0.0191 -0.19483,0.0409 -0.3418,0.0703 -0.35781,0.0717 -0.86762,0.17164 -1.48047,0.29101 -1.22569,0.23874 -2.86288,0.55439 -4.51953,0.8711 -1.65664,0.3167 -3.33267,0.63403 -4.63672,0.8789 -1.26692,0.2379 -2.15075,0.40083 -2.32812,0.42774 -0.02,-0.0187 -0.0434,-0.0423 -0.0781,-0.082 -0.0848,-0.0968 -0.20177,-0.24641 -0.33398,-0.42774 -0.26441,-0.36265 -0.59532,-0.85444 -0.91406,-1.35352 -0.31874,-0.49907 -0.62573,-1.00599 -0.83985,-1.39257 -0.10705,-0.1933 -0.19107,-0.35808 -0.24023,-0.47071 -3.5e-4,-8e-4 3.5e-4,-10e-4 0,-0.002 0.0688,-0.0172 0.14272,-0.0371 0.25195,-0.0625 0.27428,-0.0637 0.66814,-0.14956 1.15039,-0.25391 0.96451,-0.20868 2.28426,-0.48653 3.72657,-0.78125 2.88628,-0.58978 5.87383,-1.21035 6.64843,-1.38085 0.38096,-0.0839 0.76154,-0.15627 1.06641,-0.20704 0.15243,-0.0254 0.28562,-0.0464 0.38867,-0.0586 0.10306,-0.0122 0.18541,-0.0141 0.19141,-0.0137 z m 0.36914,2.5332 c -0.13228,-0.0271 -0.27227,-0.0222 -0.40235,0.0312 -0.13007,0.0534 -0.24749,0.16346 -0.30468,0.3125 -0.099,0.25781 -0.0106,0.53241 0.18164,0.72461 0.21507,0.21508 0.51192,0.26898 0.74609,0.16797 0.23417,-0.10101 0.39411,-0.36786 0.35156,-0.66602 -0.0211,-0.14768 -0.17373,-0.17163 -0.26758,-0.26562 -0.10724,-0.10742 -0.16359,-0.27578 -0.30468,-0.30469 z m -27.21289,0.625 c -0.26995,0 -0.52572,0.12995 -0.625,0.38867 -0.0518,0.13504 -0.0346,0.26857 0.006,0.39453 0.0404,0.12597 0.10928,0.24599 0.20898,0.34571 0.0642,0.0642 0.11729,0.11798 0.17773,0.16211 0.0604,0.0441 0.13882,0.084 0.23243,0.084 0.0936,0 0.17197,-0.0399 0.23242,-0.084 0.0604,-0.0441 0.11356,-0.0979 0.17773,-0.16211 0.21055,-0.21055 0.28999,-0.48747 0.20899,-0.72461 -0.081,-0.23715 -0.32691,-0.4043 -0.61914,-0.4043 z"
       id="path4436"
       inkscape:connector-curvature="0" /><path
       inkscape:connector-curvature="0"
       id="path4251"
       style="font-style:normal;font-variant:normal;font-weight:normal;font-stretch:normal;font-size:medium;line-height:125%;font-family:'Baron Neue';-inkscape-font-specification:'Baron Neue';text-align:start;letter-spacing:0px;word-spacing:0px;writing-mode:lr-tb;text-anchor:start;fill:#000000;fill-opacity:1;stroke:none;stroke-width:1px;stroke-linecap:butt;stroke-linejoin:miter;stroke-opacity:1"
       d="m 69.33502,90.430015 -9.8,0 0,-2.8 9.8,0 0,2.8 z m 0,-4.956 -9.8,0 0,-2.828 9.8,0 0,2.828 z" /><path
       inkscape:connector-curvature="0"
       id="path4464"
       d="m 187.64263,69.542223 0.12748,4.3191 2.02769,0.51389 c 3.1752,0.8047 6.018,2.69779 7.27683,4.84583 0.89665,1.53001 1.12087,2.50674 1.12087,4.88243 0,4.72253 -1.34343,6.90333 -5.32913,8.65078 -2.86897,1.25786 -14.92017,1.87261 -15.3385,0.78245 -0.25349,-0.66056 -2.92326,-0.72468 -30.17592,-0.72468 -19.63613,0 -29.89783,0.15227 -29.89783,0.44363 0,0.28391 -3.98595,0.44364 -11.07058,0.44364 l -11.070586,0 -0.13117,-2.93435 -0.13118,-2.93435 -4.13344,4.95212 c -2.2734,2.72367 -4.07012,5.11239 -3.992711,5.30828 0.0774,0.19588 1.987361,2.330337 4.244351,4.743217 l 4.10362,4.38707 0,-2.32466 0,-2.32465 11.090846,0 c 10.78337,0 11.09085,0.0245 11.09085,0.88446 l 56.89599,0.87598 c 2.70347,0.0128 2.99453,-0.0721 2.99453,-0.87316 0,-0.84545 0.29794,-0.88757 6.32178,-0.89382 9.49966,-0.01 14.23474,-1.45036 18.37413,-5.589747 6.37341,-6.3734 6.52892,-18.13819 0.33045,-24.99915 -2.85489,-3.16002 -7.75805,-5.59917 -12.9539,-6.44409 l -1.90202,-0.309307 0.12748,4.319107 z m 6.03648,1.45557 c 0.10541,0.71636 -0.087,0.96343 -0.75017,0.96343 -1.1676,0 -1.60459,-0.75713 -0.91592,-1.58693 0.72039,-0.86802 1.48894,-0.5804 1.66609,0.6235 z m 5.76408,3.29895 c 0.17656,0.9168 -1.10412,1.53457 -1.78005,0.85865 -0.67592,-0.67593 -0.0582,-1.95661 0.85865,-1.78005 0.42494,0.0818 0.83957,0.49646 0.9214,0.9214 z m 3.86612,6.11296 c 0.40732,0.65906 -0.62008,1.74928 -1.37535,1.45946 -0.97241,-0.37316 -0.78861,-1.92252 0.22806,-1.92252 0.47361,0 0.98988,0.20838 1.14729,0.46306 z m 0.45793,6.67765 c 0.39111,0.63283 -0.90363,1.92757 -1.53646,1.53646 -0.26741,-0.16527 -0.4862,-0.68798 -0.4862,-1.16158 0,-0.94228 1.50015,-1.22032 2.02266,-0.37488 z m -109.465306,6.28565 c 0.17656,0.9168 -1.10412,1.53458 -1.78005,0.85865 -0.67592,-0.67593 -0.0582,-1.95661 0.85865,-1.78005 0.42494,0.0818 0.83957,0.49647 0.9214,0.9214 z m 106.031686,0.21992 c 0.10652,0.74662 -0.08,0.99364 -0.75017,0.99364 -1.08167,0 -1.48628,-0.55846 -1.11175,-1.53447 0.39384,-1.02631 1.69214,-0.6492 1.86192,0.54083 z m -52.57011,4.53691 c -106.695183,-88.491964 -53.347586,-44.245982 0,0 z m 46.88292,-0.83401 c 0,0.54837 -0.31273,0.83981 -0.90118,0.83981 -1.07272,0 -1.69158,-1.26885 -0.86732,-1.77826 0.84367,-0.52142 1.7685,-0.0307 1.7685,0.93845 z m -103.144896,0.61799 c 0,0.48132 -0.32424,0.93756 -0.72054,1.01389 -0.76888,0.14807 -1.45459,-1.03117 -1.01408,-1.74394 0.45206,-0.73143 1.73462,-0.19164 1.73462,0.73005 z m 6.34947,-0.10447 c 0.17657,0.91681 -1.10412,1.53458 -1.78004,0.85865 -0.67593,-0.67593 -0.0581,-1.95661 0.85864,-1.78005 0.42494,0.0818 0.83957,0.49647 0.9214,0.9214 z m 5.990146,-0.39322 c 0.26379,0.68742 -0.48034,1.60678 -1.30053,1.60678 -0.63364,0 -1.01319,-0.87371 -0.72269,-1.66363 0.27481,-0.74729 1.73033,-0.70639 2.02322,0.0568 z m 5.98797,0.39322 c 0.17656,0.91681 -1.10412,1.53458 -1.78004,0.85865 -0.67593,-0.67593 -0.0581,-1.95661 0.85864,-1.78005 0.42494,0.0818 0.83957,0.49647 0.9214,0.9214 z m 6.04754,-0.60101 c 0.42795,0.69243 -0.27328,1.86488 -1.02926,1.72091 -0.3963,-0.0755 -0.78433,-0.58436 -0.8623,-1.13087 -0.10652,-0.74663 0.08,-0.99364 0.75017,-0.99364 0.49057,0 1.00419,0.18162 1.14139,0.4036 z m 66.26481,0.60101 c 0.17656,0.91681 -1.10413,1.53458 -1.78005,0.85865 -0.67593,-0.67593 -0.0582,-1.95661 0.85865,-1.78005 0.42493,0.0818 0.83956,0.49647 0.9214,0.9214 z m 6.04753,-0.60101 c 0.37611,0.60857 -0.21128,1.81457 -0.88381,1.81457 -0.77938,0 -1.22826,-0.76861 -0.91922,-1.57397 0.27468,-0.71582 1.41526,-0.86802 1.80303,-0.2406 z m -93.887066,5.037347 c 0.17656,0.91681 -1.10412,1.53458 -1.78005,0.85865 -0.67592,-0.67592 -0.0582,-1.95661 0.85865,-1.78005 0.42494,0.0818 0.83957,0.49647 0.9214,0.9214 z"
       style="fill:#f6d832"
       sodipodi:nodetypes="ccsssscssscccscscccsccscssscccssssccccccscsssssscsssssccsscssccscscccscccsscsccssccscccsscsscs" /><path
       inkscape:connector-curvature="0"
       id="path4468"
       d="m 104.58873,71.295773 0,16.63628 1.88545,-0.003 c 1.03699,-10e-4 19.62179,0.0132 41.29955,0.0323 21.67776,0.0191 39.48605,-0.0371 39.57397,-0.12506 0.17467,-0.17467 0.25311,-8.52085 0.22115,-23.528345 l -0.0206,-9.648829 -41.47978,0 -41.47978,0 0,16.636274 z m 87.42429,-0.92149 c -0.68867,0.8298 -0.25168,1.58693 0.91592,1.58693 0.6632,0 0.85558,-0.24707 0.75017,-0.96343 -0.17715,-1.2039 -0.9457,-1.49152 -1.66609,-0.6235 z m 5.45678,3.58032 c -0.15366,0.40043 -0.0667,0.94078 0.19334,1.20077 0.67593,0.67593 1.95661,0.0581 1.78005,-0.85864 -0.19666,-1.0212 -1.61823,-1.26766 -1.97339,-0.34213 z m 3.83114,6.83183 c 0,1.0736 1.10992,1.51373 1.78029,0.70598 0.65161,-0.78514 0.19928,-1.54579 -0.91921,-1.54579 -0.5491,0 -0.86108,0.30427 -0.86108,0.83981 z m 0.44364,6.67579 c 0,1.19457 0.83924,1.59524 1.64778,0.7867 0.80855,-0.80855 0.40787,-1.64779 -0.7867,-1.64779 -0.5566,0 -0.86108,0.30449 -0.86108,0.86109 z m -109.416036,5.56864 c -0.15365,0.40043 -0.0667,0.94078 0.19334,1.20078 0.67593,0.67592 1.95661,0.0581 1.78005,-0.85865 -0.19666,-1.02119 -1.61823,-1.26766 -1.97339,-0.34213 z m 106.143156,0.0212 c -0.37453,0.97601 0.0301,1.53447 1.11175,1.53447 0.67021,0 0.85669,-0.24702 0.75017,-0.99364 -0.16978,-1.19003 -1.46808,-1.56714 -1.86192,-0.54083 z m -5.59377,3.306 c -0.82426,0.50942 -0.2054,1.77826 0.86732,1.77826 0.58845,0 0.90118,-0.29143 0.90118,-0.8398 0,-0.96911 -0.92483,-1.45987 -1.7685,-0.93846 z m -103.111016,0.82622 c -0.44051,0.71277 0.2452,1.892 1.01408,1.74393 0.94523,-0.18204 0.93336,-1.84801 -0.0145,-2.03055 -0.40425,-0.0779 -0.85408,0.0511 -0.99962,0.28662 z m 6.11071,0.28345 c -0.15366,0.40043 -0.0667,0.94078 0.19334,1.20077 0.67592,0.67593 1.95661,0.0582 1.78004,-0.85864 -0.19666,-1.0212 -1.61823,-1.26766 -1.97338,-0.34213 z m 5.940306,-0.10794 c -0.2905,0.78992 0.0891,1.66362 0.72269,1.66362 0.82019,0 1.56432,-0.91935 1.30053,-1.60678 -0.29289,-0.76323 -1.74841,-0.80413 -2.02322,-0.0568 z m 6.0378,0.10794 c -0.15365,0.40043 -0.0667,0.94078 0.19335,1.20077 0.67592,0.67593 1.9566,0.0582 1.78004,-0.85864 -0.19666,-1.0212 -1.61822,-1.26766 -1.97339,-0.34213 z m 6.12937,0.33115 c 0.16978,1.19003 1.46808,1.56714 1.86192,0.54083 0.37453,-0.97601 -0.0301,-1.53447 -1.11175,-1.53447 -0.67021,0 -0.85669,0.24702 -0.75017,0.99364 z m 66.18298,-0.33115 c -0.15366,0.40043 -0.0667,0.94078 0.19334,1.20077 0.67592,0.67593 1.95661,0.0582 1.78005,-0.85864 -0.19667,-1.0212 -1.61823,-1.26766 -1.97339,-0.34213 z m 6.21789,-0.0183 c -0.30904,0.80536 0.13984,1.57396 0.91922,1.57396 0.67253,0 1.25992,-1.20599 0.88381,-1.81457 -0.38777,-0.62742 -1.52835,-0.47521 -1.80303,0.24061 z m -94.057426,4.454607 c -0.15365,0.40043 -0.0667,0.94078 0.19334,1.20078 0.67593,0.67593 1.95661,0.0582 1.78005,-0.85865 -0.19666,-1.02119 -1.61823,-1.26765 -1.97339,-0.34213 z m -1.04883,1.33385 c 0.57306,0.61 1.14175,1.10909 1.26375,1.10909 0.122,0 -0.24705,-0.49909 -0.82012,-1.10909 -0.57306,-0.61 -1.14174,-1.10908 -1.26374,-1.10908 -0.122,0 0.24705,0.49908 0.82011,1.10908 z"
       style="fill:#f5a19b"
       sodipodi:nodetypes="cccscscccccsssssssssssssssssssssssssssscssccsssssscsssssssssssssssssscssccsssc" /><path
       style="fill:#6ab4e3"
       d="m 171.00198,126.03695 c -6.15563,-0.002 -14.23002,-0.0222 -24.82187,-0.0516 l -44.475,-0.12188 -2.210936,-1.10937 c -3.180512,-1.59561 -3.934896,-3.14795 -4.151568,-8.54219 -0.09606,-2.39206 -0.03195,-6.4404 0.142192,-8.99531 l 0.317184,-4.64531 10.826568,0 10.825,0 0,1.10938 0,1.10936 29.94531,0 29.94531,0 0,-1.10936 0,-1.10938 5.24531,0 5.24375,0 1.42032,10.98125 c 0.78118,6.03897 1.41693,11.33344 1.41093,11.76718 -0.007,0.56344 -1.19559,0.72261 -19.6625,0.71719 z m -64.19843,-5.34531 5.43593,0 c 0,0 5.1864,-0.0915 4.18125,-4.82031 -0.98231,-4.59172 -6.16875,-4.5 -6.16875,-4.5 l -2.76406,0 -1.41563,-6.67188 -2.67343,0 1.9875,9.32188 2.58124,0 -1.69062,3.99687 0.52657,2.67344 z m 16.55156,-0.31719 1.79218,-10.07969 -1.70937,0 -0.19532,1.13282 -3.4578,0 -0.65782,-1.13282 -1.80625,0 6.03438,10.07969 z m 17.51093,-0.14062 c 1.428,0 2.54851,-0.58838 3.26251,-1.48438 l -1.31563,-1.06406 c -0.462,0.588 -1.18963,0.91094 -2.01563,0.91094 -1.876,0 -3.68331,-1.316 -4.14531,-3.5 -0.504,-2.352 0.68588,-3.30469 2.42188,-3.30469 1.05,0 2.04394,0.46243 2.78594,1.14843 l 0.36406,1.48438 -2.60313,0 0.30782,1.44219 4.24218,0 -1.19062,-5.58593 -1.42813,0 0.15469,0.85312 c -0.952,-0.742 -1.8205,-0.97969 -2.9125,-0.97969 -2.702,0 -4.4235,1.8895 -3.7375,5.1375 0.616,2.87 3.17737,4.94219 5.80937,4.94219 z m 29.88438,0 c 1.764,0 2.88294,-1.20432 2.56094,-2.87032 l -1.60938,0.11251 c 0.154,0.812 -0.34987,1.12031 -1.02187,1.12031 -0.84,0 -1.66656,-0.50426 -1.87656,-1.45626 -0.168,-0.77 0.392,-1.14843 1.05,-1.14843 0.14,0 0.82593,-0.0281 1.38593,-0.36406 1.008,-0.462 1.41444,-1.48351 1.14844,-2.68751 -0.378,-1.834 -1.988,-2.78593 -3.5,-2.78593 -1.75,0.042 -2.95463,1.0785 -2.59063,2.9125 l 1.625,-0.1125 c -0.154,-0.812 0.37795,-1.1625 1.03595,-1.1625 0.82599,0 1.68043,0.53175 1.84843,1.34375 0.168,0.784 -0.43538,1.247 -1.00938,1.275 -0.154,0 -0.84005,0.0281 -1.41406,0.36406 -0.99399,0.462 -1.427,1.35694 -1.17499,2.56094 0.392,1.82 2.03018,2.89844 3.54218,2.89844 z m -44.47969,-0.13907 1.94687,0 1.73595,-3.5 3.26093,3.5 2.05938,0 -4.775,-5.16718 -1.02188,-4.63282 -1.6375,0 1.02188,4.63282 -2.59063,5.16718 z m 20.92969,0 6.5375,0 -0.35,-1.63905 -4.9,0 -0.51719,-2.45 4.07344,0 -0.35,-1.62344 -4.07344,0 -0.51875,-2.45 4.9,0 -0.35,-1.63751 -6.5375,0 2.08594,9.8 z m 8.23125,0 1.62344,0 3.40156,-6.97343 1.5125,6.97343 1.62343,0 -2.08593,-9.8 -1.62344,0 -3.3875,6.97188 -1.5125,-6.97188 -1.6375,0 2.08594,9.8 z m 9.71875,0 1.48281,0 -0.65781,-3.12343 -1.48438,0 0.65938,3.12343 z m -55.78906,-2.07656 1.57656,-3.975 c 0.73102,0.0914 2.5589,0.52494 2.90156,2.14687 0.4112,1.91895 -2.17031,1.82813 -2.17031,1.82813 l -2.30781,0 z m 13.20937,-1.77344 -1.94687,-3.40312 2.38125,0 -0.43438,3.40312 z m 3.25313,-12.93593 c -0.3835,0.027 -0.81804,-0.0701 -1.45313,-0.27969 -1.00269,-0.33092 -1.46396,-0.72188 -1.31406,-1.1125 0.12708,-0.33115 -0.11031,-1.8203 -0.52812,-3.309367 -0.72146,-2.57104 -0.7206,-2.75005 0.0203,-3.56876 0.70762,-0.78192 0.89435,-0.80385 2.00469,-0.22968 1.51777,0.78487 3.4607,3.04834 3.80937,4.4375 0.36603,1.458417 -0.14504,2.785897 -1.3875,3.599997 -0.435,0.28502 -0.76806,0.43547 -1.15156,0.4625 z m 8.73906,-0.0438 c -0.44718,-0.002 -0.97331,-0.0859 -1.58281,-0.25 -1.51252,-0.40728 -1.77413,-0.65332 -1.77813,-1.67968 -0.003,-0.66158 -0.3067,-2.196757 -0.675,-3.410937 -0.36825,-1.21416 -0.57084,-2.46261 -0.45156,-2.77343 0.35678,-0.92978 1.09473,-0.63987 1.39218,0.54531 0.35142,1.40009 0.59152,1.38964 1.75938,-0.075 0.63822,-0.80046 1.18812,-1.08958 1.69844,-0.89375 0.68604,0.26327 0.6641,0.41085 -0.23125,1.62187 -0.54177,0.73278 -0.89841,1.39498 -0.79375,1.47188 0.10468,0.0769 0.73838,0.48335 1.40938,0.90312 0.94675,0.5923 1.22031,1.10415 1.22031,2.289057 0,1.52291 -0.62565,2.25695 -1.96719,2.25156 z m 20.82656,-0.0297 c -0.37552,0.0309 -0.8934,-0.0118 -1.575,-0.12812 -1.4832,-0.2532 -2.00161,-0.55364 -2.09531,-1.21251 -0.0685,-0.48161 -0.44689,-2.008997 -0.84062,-3.393737 -0.39378,-1.38475 -0.58737,-2.85315 -0.42969,-3.26407 0.23014,-0.59975 0.61515,-0.68626 1.94687,-0.4375 1.98632,0.37102 2.06725,0.43527 1.71563,1.35157 -0.18429,0.48026 -0.56676,0.62239 -1.16407,0.43281 -1.44605,-0.45896 -1.04102,0.6845 0.44063,1.24375 1.37936,0.52065 1.83356,1.63906 0.66563,1.63906 -0.366,0 -0.66563,0.25936 -0.66563,0.576557 0,0.81429 0.92616,1.64219 1.8375,1.64219 0.94273,0 1.32216,0.527 0.88594,1.23281 -0.11232,0.18171 -0.34636,0.28628 -0.72188,0.31719 z m -15.01093,-0.22032 c -0.72348,0 -2.79896,-7.169957 -2.30626,-7.967177 l -0.002,0 c 0.62419,-1.00996 1.23857,-0.14505 2.31094,3.25625 1.10877,3.515257 1.10777,4.710927 -0.003,4.710927 z m 4.13749,0 c -0.82096,0 -0.88749,-0.2947 -0.88749,-3.954677 0,-2.74677 0.16962,-4.02545 0.55468,-4.18437 1.28247,-0.52931 1.97153,0.10825 3.52032,3.25937 1.79577,3.653677 2.04885,4.879677 1.00625,4.879677 -0.4094,0 -1.2016,-1.117 -1.96407,-2.77187 l -1.27656,-2.773437 -0.0328,2.773437 c -0.0292,2.466 -0.1312,2.77187 -0.92032,2.77187 z m 19.96719,-0.0109 c -0.41704,0.0366 -0.85945,-0.24151 -1.00937,-0.76563 -1.63598,-5.719367 -1.98394,-7.175447 -1.76562,-7.393747 0.79394,-0.79394 1.45966,0.13819 2.51562,3.525 0.64882,2.080997 1.05896,3.978657 0.9125,4.215627 -0.16202,0.26215 -0.4029,0.39677 -0.65313,0.41875 z m 8.00781,-0.0391 c -0.54176,-0.0696 -0.86628,-0.66977 -1.10468,-1.94062 -0.38402,-2.047017 -1.05002,-1.989057 -1.22344,0.10626 -0.10848,1.31062 -0.32335,1.66249 -1.00937,1.66249 -0.7019,0 -1.07356,-0.67385 -1.91875,-3.473437 -0.57672,-1.91033 -0.933,-3.77213 -0.7922,-4.13905 0.40903,-1.06591 1.28977,-0.44248 1.71095,1.21093 0.57149,2.24353 1.20625,2.65272 1.20625,0.77812 0,-1.63965 1.06154,-3.05095 1.74531,-2.32031 0.20725,0.22147 0.8787,2.06275 1.49218,4.09219 0.89771,2.969647 0.99743,3.735787 0.51251,3.921867 -0.23363,0.0897 -0.43817,0.12477 -0.61876,0.10156 z m -37.99062,-1.41249 c 0.085,-0.0129 0.16335,-0.0504 0.23125,-0.11719 0.34201,-0.33652 0.15951,-0.77301 -0.63594,-1.520317 -0.8104,-0.76132 -1.11406,-0.86732 -1.11406,-0.38905 0,0.985807 0.92378,2.117227 1.51875,2.026557 z m -8.68282,-0.0922 c 0.44495,-0.047 0.95313,-0.44028 0.95313,-0.95468 0,-0.35202 -0.30179,-1.223277 -0.67031,-1.935947 -0.55734,-1.07777 -2.43594,-2.66441 -2.43594,-2.05781 0,0.1535 0.84496,2.6766 1.54376,4.610937 0.0976,0.27013 0.3424,0.36571 0.60936,0.3375 z m -19.39374,-7.760937 c -1.85618,0 -2.17697,-0.12156 -2.05157,-0.77656 0.0817,-0.427 0.16411,-1.73635 0.18282,-2.90938 l 0.0344,-2.1328 1.88438,0.13749 1.88594,0.13594 0.13124,2.77188 0.13282,2.77343 -2.2,0 z m 75.60937,0 c -3.87139,0 -4.68906,-0.1161 -4.68906,-0.66562 0,-0.54222 -0.73888,-0.66563 -3.99219,-0.66563 l -3.99218,0 0,-2.19062 0,-2.19063 8.16718,0.0391 8.16562,0.0406 0.28751,2.03907 c 0.15805,1.12204 0.38951,2.39018 0.51406,2.81718 0.20554,0.70466 -0.20561,0.77656 -4.46094,0.77656 z m -78.99687,-6.21094 c -0.9612,0 -1.89136,-0.33824 -2.44063,-0.88749 -0.853452,-0.85347 -0.887492,-1.47839 -0.887492,-16.41407 l 0,-15.528124 2.440622,0 2.44062,0 0,16.415624 0,16.41406 -1.55312,0 z"
       id="path4466"
       inkscape:connector-curvature="0" /></g></svg>