<?xml version="1.0" encoding="UTF-8" standalone="no"?>
<!-- Created with Inkscape (http://www.inkscape.org/) -->

<svg
   xmlns:dc="http://purl.org/dc/elements/1.1/"
   xmlns:cc="http://creativecommons.org/ns#"
   xmlns:rdf="http://www.w3.org/1999/02/22-rdf-syntax-ns#"
   xmlns:svg="http://www.w3.org/2000/svg"
   xmlns="http://www.w3.org/2000/svg"
   xmlns:sodipodi="http://sodipodi.sourceforge.net/DTD/sodipodi-0.dtd"
   xmlns:inkscape="http://www.inkscape.org/namespaces/inkscape"
   width="55.880001mm"
   height="55.880001mm"
   viewBox="0 0 198 198"
   id="svg2"
   version="1.1"
   inkscape:version="0.91 r13725"
   sodipodi:docname="greyhouse.svg">
  <defs
     id="defs4" />
  <sodipodi:namedview
     id="base"
     pagecolor="#ffffff"
     bordercolor="#666666"
     borderopacity="1.0"
     inkscape:pageopacity="0.0"
     inkscape:pageshadow="2"
     inkscape:zoom="4.2171716"
     inkscape:cx="99.000002"
     inkscape:cy="99.000002"
     inkscape:document-units="px"
     inkscape:current-layer="layer1"
     showgrid="false"
     fit-margin-top="0"
     fit-margin-left="0"
     fit-margin-right="0"
     fit-margin-bottom="0"
     inkscape:window-width="1920"
     inkscape:window-height="1048"
     inkscape:window-x="0"
     inkscape:window-y="0"
     inkscape:window-maximized="1" />
  <metadata
     id="metadata7">
    <rdf:RDF>
      <cc:Work
         rdf:about="">
        <dc:format>image/svg+xml</dc:format>
        <dc:type
           rdf:resource="http://purl.org/dc/dcmitype/StillImage" />
        <dc:title></dc:title>
      </cc:Work>
    </rdf:RDF>
  </metadata>
  <g
     inkscape:label="Layer 1"
     inkscape:groupmode="layer"
     id="layer1"
     transform="translate(-0.99998254,-853.36224)">
    <path
       style="fill:#4e4e4e"
       d="M 87.046223,1050.8692 C 65.057495,1047.7676 45.292709,1037.9712 29.833067,1022.5115 13.868214,1006.5467 3.836837,985.60571 1.307801,962.96372 0.83373596,958.7195 0.92571796,944.95629 1.456818,940.66638 3.802504,921.71936 10.57115,905.68139 22.89818,889.86215 c 2.511491,-3.22299 11.428557,-12.14006 14.651547,-14.65155 11.968755,-9.32656 23.311539,-15.0994 36.80157,-18.72991 9.615264,-2.58772 15.807906,-3.27671 27.769423,-3.08963 10.29152,0.16096 13.96875,0.62604 22.82243,2.8865 36.99651,9.44569 65.44135,39.81452 72.67074,77.58616 1.29987,6.79153 1.45653,9.25394 1.30136,20.45493 -0.16053,11.58764 -0.47383,14.21611 -2.72899,22.89507 -6.25168,24.05968 -20.8597,44.43458 -41.73497,58.21098 -11.28511,7.4475 -23.58752,12.2951 -37.8,14.8945 -3.93688,0.7201 -4.90478,0.7742 -15.45,0.864 -8.340008,0.071 -12.001436,-0.01 -14.155067,-0.314 z m 26.305067,-17.5126 c 8.50065,-1.4898 15.37075,-3.7146 22.8,-7.3834 24.00117,-11.8527 40.24405,-33.67505 44.88992,-60.30948 0.89037,-5.10448 1.12285,-17.19483 0.44342,-23.06075 -1.46805,-12.67441 -5.98782,-24.92959 -13.10977,-35.5466 -3.69896,-5.5142 -7.00291,-9.45671 -11.6809,-13.93849 -12.43109,-11.90967 -27.89018,-19.44463 -45.14267,-22.00312 -5.09469,-0.75553 -18.054761,-0.75454 -22.949993,0.002 -12.790692,1.97612 -23.623572,6.12033 -34.005231,13.00901 -17.365821,11.52297 -29.994819,29.82856 -34.521275,50.03819 -1.515222,6.76513 -1.803619,9.66505 -1.805017,18.15 -0.0014,8.75978 0.34374,12.09792 1.954373,18.9 4.694318,19.82519 16.648297,37.23784 33.533272,48.84574 11.302743,7.7704 23.791071,12.3448 38.143878,13.9719 0.5775,0.065 4.83,0.082 9.449993,0.038 6.9345,-0.067 9.02808,-0.1915 12,-0.7124 z m -37.649993,-24.6539 c -16.186497,-1.9864 -27.333375,-10.19475 -34.02933,-25.05837 -2.991501,-6.64052 -4.365774,-12.86964 -4.3689,-19.80274 -0.0021,-4.85198 0.58869,-8.49692 2.136249,-13.17787 3.022326,-9.14172 9.161769,-16.97025 17.811981,-22.71244 7.701213,-5.11222 20.90127,-10.03829 33.939522,-12.66573 2.166735,-0.43664 4.866306,-1.05892 5.999043,-1.38286 2.605242,-0.74503 3.732278,-0.74364 4.536498,0.006 0.3849,0.35859 1.07172,1.99582 1.73045,4.125 0.60073,1.94173 1.77103,5.42042 2.60066,7.73042 0.82963,2.31 1.83483,5.10776 2.23379,6.21723 0.82373,2.29077 0.72888,3.23842 -0.41414,4.13752 -1.62747,1.28017 -2.71546,0.66654 -5.01833,-2.83034 -2.36267,-3.58767 -4.551773,-5.0628 -8.943962,-6.02689 -3.604002,-0.79107 -12.224742,-0.5099 -16.113531,0.52557 -12.3336,3.28405 -20.319972,9.67765 -23.891829,19.12691 -0.830016,2.1958 -0.850599,2.39454 -0.85434,8.25 -0.0036,5.6366 0.04725,6.19079 0.839505,9.15 1.664763,6.21815 4.598208,12.62671 7.964652,17.4 2.182194,3.09414 7.343316,8.10739 10.361589,10.06474 9.520785,6.1741 19.963275,7.3762 31.254866,3.5978 6.79408,-2.2735 10.26562,-4.57355 9.93736,-6.58408 -0.12855,-0.78735 -5.79783,-15.56292 -8.51545,-22.19341 -0.4655,-1.13571 -1.2673,-2.51946 -1.78178,-3.07499 -0.84016,-0.9072 -1.09985,-1.00967 -2.55,-1.00623 -0.888783,0.002 -2.678385,0.34355 -3.981105,0.75956 -1.96524,0.62758 -2.532279,0.70103 -3.344001,0.43313 -1.811088,-0.59771 -2.02773,-2.87029 -0.383418,-4.02201 0.802851,-0.56234 3.856785,-1.75167 11.643944,-4.53463 3.0525,-1.0909 6.9,-2.56827 8.55,-3.28305 9.67821,-4.19256 10.92402,-4.49727 12.12823,-2.96637 1.24443,1.58203 0.71513,2.50881 -2.44513,4.28133 -2.06356,1.15741 -2.9331,2.18307 -2.9331,3.45972 0,1.33756 1.39187,5.29621 6.26162,17.80884 2.56827,6.59907 4.23838,11.30392 4.23838,11.9399 0,1.54846 -0.61492,2.49425 -3.17785,4.88775 -5.5685,5.20034 -15.55118,10.61859 -25.77215,13.98829 -8.645618,2.8502 -19.050164,4.2427 -25.649993,3.4327 z m 47.095773,-63.38287 c -0.52293,-0.25929 -0.77397,-0.66046 -0.84013,-1.34253 -0.0792,-0.81648 0.10328,-1.15015 1.13589,-2.07714 1.06584,-0.95683 1.20445,-1.22176 1.03733,-1.98265 -0.33537,-1.52694 -8.19091,-21.99552 -9.46176,-24.65379 l -0.71711,-1.5 -2.06554,0.0848 c -2.31088,0.0949 -3.18446,-0.35886 -3.18446,-1.654 0,-1.17019 1.07686,-1.82864 6.00201,-3.66996 2.5564,-0.95574 5.44104,-2.09166 6.41032,-2.52427 2.0746,-0.92594 3.49554,-1.00662 4.19118,-0.23795 0.83484,0.9225 0.59139,1.70846 -0.92851,2.99755 l -1.425,1.20861 0.87142,2.49761 c 1.6982,4.86732 2.70529,6.99149 3.35978,7.0865 0.6148,0.0892 12.82429,-4.52324 13.56309,-5.12383 0.50484,-0.41041 0.34869,-1.02899 -1.34174,-5.31506 -0.74838,-1.8975 -1.66061,-3.75993 -2.02718,-4.13874 -0.59857,-0.61855 -0.7981,-0.65918 -1.95787,-0.39859 -1.87836,0.42204 -3.3175,-0.28826 -3.3175,-1.63739 0,-0.99294 1.10632,-1.71462 4.57143,-2.98209 1.69321,-0.61934 4.55614,-1.72904 6.36205,-2.46599 1.80591,-0.73694 3.71774,-1.35221 4.24852,-1.36726 2.22664,-0.0631 2.63624,1.87079 0.718,3.39006 -0.76549,0.60629 -1.2,1.19585 -1.2,1.62824 0,0.76083 0.66076,2.77441 2.1915,6.67833 0.57008,1.45389 2.46987,6.29637 4.22176,10.76106 1.75189,4.4647 3.47277,8.42625 3.82418,8.80345 0.49952,0.53617 0.84335,0.64712 1.57575,0.50847 2.92533,-0.55378 3.02831,-0.55193 3.58596,0.0643 0.81203,0.89728 0.54661,2.15534 -0.62002,2.93882 -0.53397,0.3586 -2.49147,1.192 -4.35,1.85198 -1.85852,0.65999 -4.71107,1.7547 -6.33901,2.43268 -3.18438,1.32621 -4.37647,1.5035 -5.11869,0.76128 -0.87918,-0.87918 -0.58857,-2.08537 0.75973,-3.15325 1.08331,-0.858 1.21256,-1.08968 1.07631,-1.92929 -0.25537,-1.57367 -3.4867,-9.85363 -4.07675,-10.44626 -0.53113,-0.53344 -0.73895,-0.47578 -6.81428,1.89081 -6.51078,2.53621 -7.61853,3.0733 -7.61336,3.69134 0.006,0.68081 3.88339,9.90588 4.40714,10.48462 0.45445,0.50216 0.78079,0.54801 2.65218,0.37265 2.37391,-0.22245 3.1376,0.14764 3.1376,1.52055 0,1.16409 -1.03188,1.81302 -5.51072,3.46558 -2.3316,0.86029 -5.25178,1.99978 -6.48928,2.5322 -2.91103,1.25244 -3.59917,1.39736 -4.50422,0.94859 z"
       id="path4237"
       inkscape:connector-curvature="0" />
  </g>
</svg>
