<?xml version="1.0" encoding="UTF-8" standalone="no"?>
<!-- Created with Inkscape (http://www.inkscape.org/) -->

<svg
   xmlns:dc="http://purl.org/dc/elements/1.1/"
   xmlns:cc="http://creativecommons.org/ns#"
   xmlns:rdf="http://www.w3.org/1999/02/22-rdf-syntax-ns#"
   xmlns:svg="http://www.w3.org/2000/svg"
   xmlns="http://www.w3.org/2000/svg"
   xmlns:sodipodi="http://sodipodi.sourceforge.net/DTD/sodipodi-0.dtd"
   xmlns:inkscape="http://www.inkscape.org/namespaces/inkscape"
   width="2in"
   height="1.125in"
   viewBox="0 0 180 101.25"
   id="svg4224"
   version="1.1"
   inkscape:version="0.91 r13725"
   sodipodi:docname="heavenly_ham.svg">
  <defs
     id="defs4226" />
  <sodipodi:namedview
     id="base"
     pagecolor="#ffffff"
     bordercolor="#666666"
     borderopacity="1.0"
     inkscape:pageopacity="0.0"
     inkscape:pageshadow="2"
     inkscape:zoom="3.625"
     inkscape:cx="93.862069"
     inkscape:cy="54.487069"
     inkscape:document-units="px"
     inkscape:current-layer="layer1"
     showgrid="false"
     units="in"
     showguides="false"
     inkscape:window-width="1920"
     inkscape:window-height="1019"
     inkscape:window-x="1920"
     inkscape:window-y="29"
     inkscape:window-maximized="1">
    <sodipodi:guide
       position="4.4408779,4.7297266"
       orientation="-94.185768,0"
       id="guide5014" />
    <sodipodi:guide
       position="4.4408779,98.915495"
       orientation="0,170.03448"
       id="guide5016" />
    <sodipodi:guide
       position="174.47536,98.915495"
       orientation="94.185768,0"
       id="guide5018" />
    <sodipodi:guide
       position="174.47536,4.7297266"
       orientation="0,-170.03448"
       id="guide5020" />
    <inkscape:grid
       type="xygrid"
       id="grid5022" />
  </sodipodi:namedview>
  <metadata
     id="metadata4229">
    <rdf:RDF>
      <cc:Work
         rdf:about="">
        <dc:format>image/svg+xml</dc:format>
        <dc:type
           rdf:resource="http://purl.org/dc/dcmitype/StillImage" />
        <dc:title></dc:title>
      </cc:Work>
    </rdf:RDF>
  </metadata>
  <g
     inkscape:label="Layer 1"
     inkscape:groupmode="layer"
     id="layer1"
     transform="translate(0,-951.11215)">
    <path
       inkscape:connector-curvature="0"
       id="path5012"
       d="m 42.224346,1045.3716 c -29.182058,-2.5747 -41.58777692,-12.2364 -33.4525883,-26.0532 2.1425753,-3.639 2.2824303,-4.3447 1.5206583,-7.6737 -1.3581105,-5.9349 1.814589,-8.1167 6.473791,-4.4517 l 2.272248,1.7873 3.049547,-1.8434 c 12.438197,-7.51882 32.657969,-15.39114 49.308926,-19.19775 10.041506,-2.29561 10.334554,-2.46798 10.835531,-6.37349 0.538866,-4.20089 4.158503,-5.44039 4.180275,-1.43149 0.02267,4.17464 0.388656,4.25295 12.489772,2.67259 6.188754,-0.80823 13.051334,-1.49274 15.250184,-1.52112 3.60028,-0.0465 4.13911,-0.31164 5.41776,-2.66605 4.19727,-7.72855 7.74322,-8.25087 9.10577,-1.34127 l 0.69786,3.53895 7.31579,0.55916 c 43.85405,3.35187 49.7594,23.92807 12.36211,43.07367 -28.29241,14.4843 -75.344593,23.6992 -106.827634,20.9215 z m 29.297607,-14.5442 c 0,-0.4355 -0.403206,-0.9262 -0.896015,-1.0905 -0.492808,-0.1642 -0.896015,0.3265 -0.896015,1.0905 0,0.7641 0.403207,1.2548 0.896015,1.0905 0.492809,-0.1642 0.896015,-0.655 0.896015,-1.0905 z m 26.267135,-3.39 c 0.694691,-1.8103 -1.068916,-3.5128 -2.331264,-2.2505 -1.066916,1.067 -0.405957,3.5568 0.944175,3.5568 0.487199,0 1.111392,-0.5879 1.387089,-1.3063 z m -22.641399,-6.612 c 0,-2.4823 -3.253657,-2.2343 -3.609099,0.2751 -0.2289,1.616 0.051,1.8959 1.667005,1.667 1.294729,-0.1834 1.942094,-0.8308 1.942094,-1.9421 z m 11.252281,-4.2167 c 0,-1.3753 -1.317304,-1.6077 -2.083755,-0.3676 -0.679726,1.0999 0.316905,2.6606 1.307846,2.0482 0.42675,-0.2637 0.775909,-1.02 0.775909,-1.6806 z m -70.8477,-5.7325 c 0,-0.6044 -0.529222,-1.5382 -1.176048,-2.075 -1.623073,-1.347 -2.491007,0.2592 -1.321184,2.445 0.949511,1.7742 2.497232,1.5449 2.497232,-0.37 z m 110.0489,-31.79588 c 0.81015,-2.13087 0.4836,-3.68082 -0.77549,-3.68082 -0.94439,0 -2.6917,4.15423 -2.12976,5.06348 0.8581,1.38842 2.07119,0.81109 2.90525,-1.38266 z m -14.09218,-7.48874 c -1.29095,-1.64117 -2.81293,-2.30406 -6.52014,-2.8398 -7.981662,-1.15346 -15.25487,-4.96679 -15.25487,-7.9981 0,-1.8869 2.853554,-1.38276 3.761488,0.66455 1.053438,2.3754 8.246892,4.69237 14.783942,4.76183 5.15021,0.0547 6.54051,-1.4555 3.05648,-3.3201 l -1.73616,-0.92916 1.44859,-1.60067 c 0.79672,-0.88037 2.22098,-1.60067 3.16501,-1.60067 1.61744,0 1.63447,0.082 0.29532,1.42111 -1.33914,1.33914 -1.28935,1.55942 0.86328,3.81911 l 2.28438,2.39799 -2.26588,1.81741 c -1.67631,1.34453 -2.13897,2.30268 -1.77817,3.68242 0.63971,2.44622 -0.0312,2.3582 -2.10327,-0.27592 z m -24.952738,-5.4127 c 0.200562,-0.60168 0.856945,-1.25806 1.458629,-1.45863 0.625127,-0.20837 0.93769,0.10419 0.729315,0.72932 -0.200557,0.60168 -0.856945,1.25807 -1.458629,1.45863 -0.625127,0.20837 -0.93769,-0.10419 -0.729315,-0.72932 z m 0.26047,-9.11643 c -0.283324,-0.45842 0.06962,-0.8335 0.784311,-0.8335 0.714693,0 1.299445,0.37508 1.299445,0.8335 0,0.45843 -0.352939,0.8335 -0.784309,0.8335 -0.431375,0 -1.016124,-0.37507 -1.299447,-0.8335 z m 14.586288,-2.50051 c 0,-0.91685 0.37508,-1.667 0.8335,-1.667 0.45843,0 0.83351,0.75015 0.83351,1.667 0,0.91686 -0.37508,1.66701 -0.83351,1.66701 -0.45842,0 -0.8335,-0.75015 -0.8335,-1.66701 z"
       style="fill:#cccccc" />
    <path
       inkscape:connector-curvature="0"
       id="path5010"
       d="m 18.609347,1033.6069 c -1.222965,-1.4763 -2.223574,-3.3153 -2.223574,-4.0867 0,-0.7714 -0.914246,-3.4699 -2.031655,-5.9965 -4.308631,-9.7426 -4.7698675,-17.2846 -1.057054,-17.2846 3.904425,0 7.256221,5.6173 7.256221,12.1607 0,3.2888 0.264086,3.8172 2.292131,4.5855 1.260672,0.4776 3.048082,1.5763 3.97202,2.4415 2.43486,2.2801 4.433968,0.9233 3.06536,-2.0804 -2.260337,-4.9609 -0.822044,-8.7723 3.310398,-8.7723 2.799324,0 3.978867,1.941 3.418989,5.6262 -0.347456,2.2869 -0.153074,2.7089 1.247991,2.7089 2.648124,0 3.756099,-2.0335 3.129331,-5.7433 -1.118771,-6.622 1.79472,-8.4122 6.692201,-4.1122 4.227236,3.7116 6.216321,0.024 2.362325,-4.3797 -1.753201,-2.0032 -1.382264,-3.2684 0.958249,-3.2684 1.160453,0 2.32581,-0.5626 2.589683,-1.2502 0.614894,-1.6024 2.306539,-1.6013 3.637531,0 0.893397,1.0764 1.230344,0.8712 2.394189,-1.4587 1.039046,-2.08 1.972397,-2.77132 4.00797,-2.96842 3.209106,-0.31092 5.052921,2.12232 3.627089,4.78652 -1.658906,3.0997 -1.09136,4.35 1.846055,4.0668 l 2.708882,-0.2612 0,-5.001 c 0,-3.48962 0.314879,-4.97589 1.041878,-4.91773 0.573033,0.0458 1.776851,0.13961 2.675152,0.20838 0.8983,0.0688 2.537022,1.09963 3.641603,2.29095 2.323789,2.5061 5.262901,2.4381 4.931749,-0.1141 -1.942631,-14.97188 -2.162087,-20.45561 -0.870319,-21.74738 2.067395,-2.0674 3.166228,-0.63116 3.166228,4.13844 0,10.88858 3.174044,24.72564 5.671751,24.72564 0.707751,0 3.496775,-4.4323 3.496775,-5.5571 0,-0.3936 -0.843921,-1.0859 -1.87538,-1.5384 -2.486287,-1.09082 -2.703281,-3.53627 -0.614641,-6.92682 2.12363,-3.44735 3.821241,-3.08127 3.507536,0.75638 -0.220545,2.69801 -0.167459,2.75983 1.013447,1.18015 2.351185,-3.14514 3.037932,-3.75076 4.253172,-3.75076 0.66956,0 1.21739,0.75015 1.21739,1.66701 0,0.92611 0.55567,1.667 1.25025,1.667 1.78714,0 1.57383,0.66164 -1.25025,3.8781 -2.27005,2.58544 -2.50051,3.38684 -2.50051,8.69484 0,8.7417 -3.047801,13.1487 -7.460196,10.7873 -1.849925,-0.9901 -3.007351,-4.2748 -2.224834,-6.314 0.615041,-1.6028 -5.684994,-8.4734 -6.524368,-7.1152 -0.702055,1.1359 -4.354969,1.1874 -5.044912,0.071 -0.85477,-1.383 -2.083755,-0.9382 -2.083755,0.7543 0,4.2869 -11.206839,7.4117 -15.230481,4.2467 -3.09958,-2.4381 -3.940074,-2.0781 -3.940074,1.6879 0,3.0478 -0.224894,3.3998 -2.457901,3.8464 -1.351846,0.2704 -3.097821,1.1987 -3.879944,2.0629 -0.782122,0.8642 -2.165885,1.5713 -3.075027,1.5713 -0.909143,0 -3.280625,1.5004 -5.26996,3.3341 -2.783144,2.5654 -4.289359,3.334 -6.53364,3.334 -2.217957,0 -3.255324,0.5168 -4.330348,2.1575 -1.392791,2.1257 -3.881624,2.4462 -8.613535,1.1092 -0.940788,-0.2658 -1.240183,0.4303 -1.250253,2.9068 -0.01702,4.1848 -1.257376,4.5502 -4.040935,1.1902 z m -0.601899,-15.0736 c -0.06536,-3.9064 -2.658239,-10.1464 -4.351569,-10.4726 -2.073767,-0.3993 -1.836983,2.1487 0.755088,8.1255 2.440074,5.6263 3.664729,6.4256 3.596481,2.3471 z m 15.881874,-0.1592 c 0,-0.2022 -0.375076,-0.5994 -0.833502,-0.8827 -0.458426,-0.2833 -0.833502,-0.1179 -0.833502,0.3676 0,0.4854 0.375076,0.8826 0.833502,0.8826 0.458426,0 0.833502,-0.1654 0.833502,-0.3675 z m 63.679063,-5.6466 c 0.412301,-1.6336 0.479281,-3.668 0.148847,-4.5209 l -0.600788,-1.5507 -1.190725,1.6179 c -1.51134,2.0536 -1.630122,8.2501 -0.148847,7.7651 0.573033,-0.1876 1.379213,-1.6777 1.791513,-3.3114 z m 62.819865,-4.8214 c -1.08412,-1.7359 -3.14058,-2.2817 -3.14058,-0.8335 0,1.5425 -3.11954,0.8503 -4.32072,-0.9588 l -1.19003,-1.7923 -2.15176,1.4099 c -2.34126,1.5341 -4.84003,0.2593 -4.84003,-2.4691 0,-1.3699 -1.32051,-1.5922 -2.08742,-0.3513 -1.4644,2.3695 -5.48065,3.4762 -7.59274,2.0923 -1.31933,-0.8644 -3.50881,-1.2777 -6.13419,-1.158 -4.40227,0.2009 -6.38016,-0.8497 -7.58991,-4.03162 -0.96844,-2.54715 -1.73183,-2.40109 -3.47711,0.66532 -0.80275,1.4104 -1.92798,2.4104 -2.50051,2.2221 -1.51745,-0.499 -1.76509,-6.8703 -0.35494,-9.13214 0.65704,-1.05389 1.43193,-3.22893 1.72197,-4.83342 0.88366,-4.88845 5.66535,-14.93992 7.36365,-15.47894 4.95054,-1.57124 5.64139,7.84331 1.07364,14.63096 -2.5743,3.82541 -2.76535,4.46272 -1.667,5.56106 0.68228,0.68228 1.24051,1.93319 1.24051,2.77981 0,4.71937 2.85408,5.51317 5.41776,1.5069 3.45625,-5.40108 6.056,-5.14755 7.00373,0.68303 0.67855,4.17464 2.09895,4.38964 5.37439,0.81368 3.23702,-3.534 5.30036,-3.83193 6.04311,-0.87259 0.48757,1.94265 0.65329,2.01325 1.95689,0.83351 2.21801,-2.00728 3.96213,-1.53269 4.96766,1.35174 l 0.92053,2.6407 2.0893,-1.9628 c 2.35914,-2.21634 2.92826,-1.91787 5.33154,2.7961 2.22322,4.3607 -0.94073,7.9178 -3.45774,3.8874 z m -35.68868,-25.09333 c 1.86139,-4.32692 2.00028,-7.46642 0.35425,-8.00777 -1.19221,-0.3921 -3.54294,5.43007 -4.2291,10.47443 -0.68038,5.00199 1.16814,3.82525 3.87485,-2.46666 z"
       style="fill:#333333" />
  </g>
</svg>
