<?xml version="1.0" encoding="UTF-8" standalone="no"?>
<!-- Created with Inkscape (http://www.inkscape.org/) -->

<svg
   xmlns:dc="http://purl.org/dc/elements/1.1/"
   xmlns:cc="http://creativecommons.org/ns#"
   xmlns:rdf="http://www.w3.org/1999/02/22-rdf-syntax-ns#"
   xmlns:svg="http://www.w3.org/2000/svg"
   xmlns="http://www.w3.org/2000/svg"
   xmlns:sodipodi="http://sodipodi.sourceforge.net/DTD/sodipodi-0.dtd"
   xmlns:inkscape="http://www.inkscape.org/namespaces/inkscape"
   width="641.82892"
   height="278.28009"
   id="svg2"
   version="1.1"
   inkscape:version="0.48.5 r10040"
   sodipodi:docname="heirloom.svg">
  <sodipodi:namedview
     id="base"
     pagecolor="#ffffff"
     bordercolor="#666666"
     borderopacity="1.0"
     inkscape:pageopacity="0.0"
     inkscape:pageshadow="2"
     inkscape:zoom="0.78870185"
     inkscape:cx="343.32689"
     inkscape:cy="189.67673"
     inkscape:document-units="px"
     inkscape:current-layer="layer1"
     showgrid="false"
     fit-margin-top="0"
     fit-margin-left="0"
     fit-margin-right="0"
     fit-margin-bottom="0"
     inkscape:window-width="1920"
     inkscape:window-height="1017"
     inkscape:window-x="1912"
     inkscape:window-y="-8"
     inkscape:window-maximized="1" />
  <defs
     id="defs4" />
  <metadata
     id="metadata7">
    <rdf:RDF>
      <cc:Work
         rdf:about="">
        <dc:format>image/svg+xml</dc:format>
        <dc:type
           rdf:resource="http://purl.org/dc/dcmitype/StillImage" />
        <dc:title />
      </cc:Work>
    </rdf:RDF>
  </metadata>
  <g
     transform="translate(-28.720347,-437.57773)"
     id="layer1"
     inkscape:groupmode="layer"
     inkscape:label="Layer 1">
    <g
       id="g3864">
      <path
         inkscape:connector-curvature="0"
         style="fill:#b0b0b0"
         d="m 471.03936,542.78896 c 2.4655,-1.93936 2.63388,-2.59821 2.61955,-10.25 -0.0205,-10.94019 -0.60285,-11.7473 -6.43252,-8.91503 l -4.55217,2.21162 0,8.92966 c 0,6.20806 0.38098,9.08339 1.25,9.43405 2.5184,1.01619 4.53969,0.61555 7.11514,-1.4103 z"
         id="path3668" />
      <path
         inkscape:connector-curvature="0"
         style="fill:#b0b0b0"
         d="m 51.674217,537.80252 c 0,-0.58246 -0.45,-0.7809 -1,-0.44098 -0.55,0.33992 -1,0.81648 -1,1.05902 0,0.24254 0.45,0.44098 1,0.44098 0.55,0 1,-0.47656 1,-1.05902 z"
         id="path3666" />
      <path
         inkscape:connector-curvature="0"
         style="fill:#b0b0b0"
         d="m 345.67422,506.4127 c 2.9975,-5.86694 3.48054,-7.76233 3.36445,-13.20168 -0.14854,-6.95929 -2.18516,-11.34948 -5.26506,-11.34948 -3.71885,0 -4.57914,2.76653 -5.09939,16.39851 -0.48281,12.65112 -0.57734,13.11247 -2.75,13.42104 -2.43526,0.34586 -3.17636,3.66715 -1,4.48152 2.8297,1.05884 7.29837,-2.9941 10.75,-9.74991 z"
         id="path3656" />
      <path
         inkscape:connector-curvature="0"
         style="fill:#b0b0b0"
         d="m 472.67422,515.15162 c 0.275,-0.24951 0.5,-10.20435 0.5,-22.12187 l 0,-21.66821 -3.34354,-0.32033 c -2.13273,-0.20434 -4.03393,0.30446 -5.25,1.40498 -1.76217,1.59475 -1.90646,3.34542 -1.90646,23.13161 l 0,21.40629 4.75,-0.68941 c 2.6125,-0.37917 4.975,-0.89355 5.25,-1.14306 z"
         id="path3654" />
      <path
         inkscape:connector-curvature="0"
         style="fill:#b0b0b0"
         d="m 582.27839,474.13237 c -0.33229,-0.33229 -0.56864,0.25834 -0.52522,1.3125 0.048,1.16495 0.28494,1.4019 0.60416,0.60417 0.28887,-0.72187 0.25335,-1.58437 -0.0789,-1.91667 z"
         id="path3646" />
      <path
         inkscape:connector-curvature="0"
         style="fill:#b0b0b0"
         d="m 87.674217,464.80252 c 0,-0.58246 -0.45,-0.7809 -1,-0.44098 -0.55,0.33992 -1,0.81648 -1,1.05902 0,0.24254 0.45,0.44098 1,0.44098 0.55,0 1,-0.47656 1,-1.05902 z"
         id="path3638" />
      <path
         inkscape:connector-curvature="0"
         style="fill:#b0b0b0"
         d="m 387.25717,554.99575 c -0.43077,-0.697 -0.51316,-1.53733 -0.18309,-1.86741 0.89497,-0.89496 1.87077,0.4213 1.38739,1.87145 -0.33872,1.01617 -0.57427,1.01538 -1.2043,-0.004 z"
         id="path3628" />
      <path
         inkscape:connector-curvature="0"
         style="fill:#8f8f8f"
         d="m 311.42422,610.61154 c -0.47189,-1.41567 -2.07998,-1.26005 -2.58333,0.25 -0.18334,0.55 0.41666,1 1.33333,1 0.91667,0 1.47917,-0.5625 1.25,-1.25 z"
         id="path3468" />
      <path
         inkscape:connector-curvature="0"
         style="fill:#8f8f8f"
         d="m 371.42422,606.61154 c -0.47189,-1.41567 -2.07998,-1.26005 -2.58333,0.25 -0.18334,0.55 0.41666,1 1.33333,1 0.91667,0 1.47917,-0.5625 1.25,-1.25 z"
         id="path3456" />
      <path
         inkscape:connector-curvature="0"
         style="fill:#8f8f8f"
         d="m 394.13151,605.93064 c 0.73955,-1.1966 -1.14162,-2.38223 -2.4736,-1.55902 -1.11836,0.69118 -0.38417,2.48992 1.01631,2.48992 0.48508,0 1.14086,-0.41891 1.45729,-0.9309 z"
         id="path3452" />
      <path
         inkscape:connector-curvature="0"
         style="fill:#8f8f8f"
         d="m 453.67422,604.80252 c 0,-0.58246 -0.45,-0.7809 -1,-0.44098 -0.55,0.33992 -1,0.81648 -1,1.05902 0,0.24254 0.45,0.44098 1,0.44098 0.55,0 1,-0.47656 1,-1.05902 z"
         id="path3448" />
      <path
         inkscape:connector-curvature="0"
         style="fill:#8f8f8f"
         d="m 558.42422,600.61154 c -0.47189,-1.41567 -2.07998,-1.26005 -2.58333,0.25 -0.18334,0.55 0.41666,1 1.33333,1 0.91667,0 1.47917,-0.5625 1.25,-1.25 z"
         id="path3432" />
      <path
         inkscape:connector-curvature="0"
         style="fill:#8f8f8f"
         d="m 662.42422,600.61154 c -0.47189,-1.41567 -2.07998,-1.26005 -2.58333,0.25 -0.18334,0.55 0.41666,1 1.33333,1 0.91667,0 1.47917,-0.5625 1.25,-1.25 z"
         id="path3428" />
      <path
         inkscape:connector-curvature="0"
         style="fill:#8f8f8f"
         d="m 454.67422,586.30252 c 0,-1.83298 -1.41441,-1.8515 -2.91929,-0.0382 -0.89421,1.07746 -0.86463,1.50997 0.12755,1.86506 1.73138,0.61964 2.79174,-0.0742 2.79174,-1.82683 z"
         id="path3422" />
      <path
         inkscape:connector-curvature="0"
         style="fill:#8f8f8f"
         d="m 79.674217,570.86154 c 0,-0.55 -0.675,-1 -1.5,-1 -0.825,0 -1.5,0.45 -1.5,1 0,0.55 0.675,1 1.5,1 0.825,0 1.5,-0.45 1.5,-1 z"
         id="path3408" />
      <path
         inkscape:connector-curvature="0"
         style="fill:#8f8f8f"
         d="m 458.67422,569.36154 c 0,-0.82536 -0.8854,-1.5 -1.96862,-1.5 -1.33903,0 -1.78453,0.47971 -1.39301,1.5 0.31659,0.825 1.20246,1.5 1.96862,1.5 0.76615,0 1.39301,-0.675 1.39301,-1.5 z"
         id="path3406" />
      <path
         inkscape:connector-curvature="0"
         style="fill:#8f8f8f"
         d="m 540.44505,569.04904 c 0.21982,-0.65946 -0.5166,-1.1875 -1.65611,-1.1875 -1.43811,0 -1.87491,0.46137 -1.46013,1.54226 0.65496,1.70679 2.49904,1.49685 3.11624,-0.35476 z"
         id="path3404" />
      <path
         inkscape:connector-curvature="0"
         style="fill:#8f8f8f"
         d="m 92.674217,550.80252 c 0,-0.51754 -0.45,-0.94098 -1,-0.94098 -0.55,0 -1,0.70156 -1,1.55902 0,0.85746 0.45,1.2809 1,0.94098 0.55,-0.33992 1,-1.04148 1,-1.55902 z"
         id="path3390" />
      <path
         inkscape:connector-curvature="0"
         style="fill:#8f8f8f"
         d="m 124.67422,549.86154 c 0,-0.55 -0.675,-1 -1.5,-1 -0.825,0 -1.5,0.45 -1.5,1 0,0.55 0.675,1 1.5,1 0.825,0 1.5,-0.45 1.5,-1 z"
         id="path3388" />
      <path
         inkscape:connector-curvature="0"
         style="fill:#8f8f8f"
         d="m 472.54164,542.30296 c 1.92291,-2.44459 2.01542,-4.05472 2.07653,-36.14277 0.0448,-23.51854 -0.27364,-33.99098 -1.06244,-34.94143 -1.8194,-2.19223 -6.70625,-1.62339 -9.42696,1.09733 l -2.45455,2.45454 0,33.46367 c 0,18.40501 0.27314,34.17547 0.60699,35.04545 1.04472,2.72249 7.861,2.07358 10.26043,-0.97679 z"
         id="path3384" />
      <path
         inkscape:connector-curvature="0"
         style="fill:#8f8f8f"
         d="m 529.99421,538.40183 c 0.96019,-6.87533 0.17287,-12.54029 -1.74286,-12.54029 -0.73273,0 -1.90147,-0.68587 -2.59719,-1.52417 -0.69572,-0.83829 -1.51329,-1.27581 -1.81683,-0.97228 -1.07793,1.07793 -0.007,19.9742 1.17536,20.74086 2.75944,1.7891 4.15882,0.18673 4.98152,-5.70412 z"
         id="path3382" />
      <path
         inkscape:connector-curvature="0"
         style="fill:#8f8f8f"
         d="m 324.86172,542.17843 c -0.72188,-0.28887 -1.58438,-0.25335 -1.91667,0.0789 -0.33229,0.33229 0.25834,0.56864 1.3125,0.52522 1.16495,-0.048 1.4019,-0.28494 0.60417,-0.60416 z"
         id="path3378" />
      <path
         inkscape:connector-curvature="0"
         style="fill:#8f8f8f"
         d="m 52.090767,538.21841 c 0.34679,-0.90372 0.40581,-1.86784 0.131155,-2.1425 -0.796079,-0.79608 -3.58391,1.91803 -2.977678,2.89894 0.858088,1.38841 2.155799,1.04356 2.846523,-0.75644 z"
         id="path3374" />
      <path
         inkscape:connector-curvature="0"
         style="fill:#8f8f8f"
         d="m 344.03805,536.36728 c -0.31537,-0.82184 -0.97625,-1.24528 -1.46861,-0.94098 -1.41193,0.87262 -1.04399,2.43524 0.5734,2.43524 0.89208,0 1.24351,-0.5866 0.89521,-1.49426 z"
         id="path3372" />
      <path
         inkscape:connector-curvature="0"
         style="fill:#8f8f8f"
         d="m 323.67422,529.86154 c 0,-0.55 -0.47656,-1 -1.05902,-1 -0.58246,0 -0.7809,0.45 -0.44098,1 0.33992,0.55 0.81648,1 1.05902,1 0.24254,0 0.44098,-0.45 0.44098,-1 z"
         id="path3362" />
      <path
         inkscape:connector-curvature="0"
         style="fill:#8f8f8f"
         d="m 335.628,519.11154 c 5.97596,-4.85579 8.83518,-8.18315 11.18925,-13.0213 3.03156,-6.23052 3.72836,-16.64294 1.41333,-21.1197 -1.43565,-2.77626 -4.86672,-5.109 -7.51447,-5.109 -1.79353,0 -2.51259,4.04968 -3.01654,16.98894 -0.48709,12.50653 -0.67101,13.51222 -2.52535,13.80855 -4.28464,0.6847 -4.48704,0.94125 -3.33953,4.23299 0.79438,2.27877 0.7846,3.42445 -0.0362,4.24528 -1.30108,1.30108 -1.47846,2.72424 -0.33954,2.72424 0.43158,0 2.30767,-1.2375 4.16908,-2.75 z"
         id="path3352" />
      <path
         inkscape:connector-curvature="0"
         style="fill:#8f8f8f"
         d="m 612.67422,509.86154 c 0,-0.55 -0.70156,-1 -1.55902,-1 -0.85746,0 -1.2809,0.45 -0.94098,1 0.33992,0.55 1.04148,1 1.55902,1 0.51754,0 0.94098,-0.45 0.94098,-1 z"
         id="path3350" />
      <path
         inkscape:connector-curvature="0"
         style="fill:#8f8f8f"
         d="m 64.424081,484.27807 c -0.952958,-0.95296 -2.863492,0.5906 -2.153308,1.7397 0.422119,0.683 0.981465,0.66575 1.699645,-0.0524 0.588756,-0.58876 0.792909,-1.34803 0.453663,-1.68727 z"
         id="path3344" />
      <path
         inkscape:connector-curvature="0"
         style="fill:#8f8f8f"
         d="m 330.67422,476.84069 c -2.22706,-1.40828 -3,-1.1882 -3,0.85418 0,2.73939 1.1877,3.40759 2.94048,1.65432 1.38028,-1.38069 1.38712,-1.66899 0.0595,-2.5085 z"
         id="path3342" />
      <path
         inkscape:connector-curvature="0"
         style="fill:#8f8f8f"
         d="m 583.67422,476.94333 c 0,-1.95285 -1.25164,-4.0443 -2.10478,-3.51703 -1.48484,0.91768 -1.00518,4.43524 0.60478,4.43524 0.825,0 1.5,-0.4132 1.5,-0.91821 z"
         id="path3340" />
      <path
         inkscape:connector-curvature="0"
         style="fill:#8f8f8f"
         d="m 88.249547,463.10349 c -0.40637,-0.40636 -1.37703,0.13391 -2.15702,1.20061 -1.1177,1.52855 -1.15335,2.10549 -0.16824,2.72311 1.41182,0.88514 3.5411,-2.70788 2.32526,-3.92372 z"
         id="path3332" />
      <path
         inkscape:connector-curvature="0"
         style="fill:#8f8f8f"
         d="m 316.24332,466.7497 c 0.73943,-1.19643 -1.48097,-3.0607 -2.72768,-2.29019 -0.93563,0.57825 0.0658,3.40199 1.20655,3.40199 0.4587,0 1.14321,-0.50031 1.52113,-1.1118 z"
         id="path3330" />
      <path
         inkscape:connector-curvature="0"
         style="fill:#8f8f8f"
         d="m 389.67422,461.80252 c 0,-0.51754 -0.675,-0.94098 -1.5,-0.94098 -1.54641,0 -1.9867,1.17996 -0.86052,2.30615 0.79893,0.79893 2.36052,-0.10419 2.36052,-1.36517 z"
         id="path3324" />
      <path
         inkscape:connector-curvature="0"
         style="fill:#8f8f8f"
         d="m 417.48672,460.92404 c 0.25,-0.75 -0.125,-1.125 -0.875,-0.875 -0.72188,0.24062 -1.50937,1.02813 -1.75,1.75 -0.25,0.75 0.125,1.125 0.875,0.875 0.72187,-0.24062 1.50937,-1.02813 1.75,-1.75 z"
         id="path3322" />
      <path
         inkscape:connector-curvature="0"
         style="fill:#8f8f8f"
         d="m 145.67422,459.86154 c 0,-0.55 -0.45,-1 -1,-1 -0.55,0 -1,0.45 -1,1 0,0.55 0.45,1 1,1 0.55,0 1,-0.45 1,-1 z"
         id="path3318" />
      <path
         inkscape:connector-curvature="0"
         style="fill:#8f8f8f"
         d="m 588.67422,459.86154 c 0,-0.55 -0.47656,-1 -1.05902,-1 -0.58246,0 -0.7809,0.45 -0.44098,1 0.33992,0.55 0.81648,1 1.05902,1 0.24254,0 0.44098,-0.45 0.44098,-1 z"
         id="path3314" />
      <path
         inkscape:connector-curvature="0"
         style="fill:#8f8f8f"
         d="m 663.67422,456.30252 c 0,-1.47259 -1.19141,-1.91624 -2.26443,-0.84321 -0.90144,0.90143 0.3398,3.47368 1.36921,2.83747 0.49237,-0.3043 0.89522,-1.20172 0.89522,-1.99426 z"
         id="path3304" />
      <path
         inkscape:connector-curvature="0"
         style="fill:#8f8f8f"
         d="m 119.67422,439.86154 c -0.5887,-1.1 -1.50453,-2 -2.03518,-2 -0.53065,0 -0.96482,0.9 -0.96482,2 0,1.34486 0.66667,2 2.03518,2 1.72531,0 1.87221,-0.30452 0.96482,-2 z"
         id="path3302" />
      <path
         inkscape:connector-curvature="0"
         style="fill:#6e6e6e"
         d="m 101.98685,707.75391 c -0.10306,-0.7658 -1.08888,-5.66737 -2.190723,-10.89237 -4.07894,-19.34261 -7.09108,-64.48294 -7.11162,-106.57569 -0.0101,-20.59695 0.0408,-21.1216 2.23971,-23.09726 4.022,-3.61369 26.939833,-16.53776 27.787643,-15.67031 1.38404,1.41612 4.00736,57.42085 4.00199,85.43798 -0.003,14.5229 -0.48365,30.17196 -1.06861,34.77568 -0.58496,4.60372 -0.8441,8.58985 -0.57587,8.85808 0.26823,0.26823 4.67655,-3.74242 9.79627,-8.91255 5.11972,-5.17013 10.57384,-10.28127 12.12027,-11.35809 l 2.81169,-1.95784 -2.56744,-10.5 c -3.02082,-12.35423 -5.82817,-30.89628 -8.25153,-54.5 -2.22819,-21.70279 -2.56039,-92.78376 -0.50006,-107 1.73156,-11.94772 3.94739,-20.3426 6.20705,-23.516 1.01607,-1.42694 1.54167,-3.05585 1.168,-3.61979 -0.37367,-0.56394 -4.2163,-3.39864 -8.53919,-6.29934 -4.32288,-2.90069 -10.71329,-7.69469 -14.20092,-10.65334 -3.48763,-2.95864 -6.53816,-5.0491 -6.77896,-4.64544 -0.2408,0.40365 0.39038,8.60891 1.40262,18.23391 5.13939,48.86816 6.26848,73.65012 3.46171,75.97954 -0.81144,0.67343 -7.43324,4.9783 -14.71511,9.56636 -8.795333,5.54165 -13.616543,8.02925 -14.362163,7.41043 -1.38566,-1.14999 -3.88263,-51.00153 -3.62117,-72.29585 l 0.18221,-14.83953 -9.75421,9.18328 c -5.36482,5.05081 -11.43825,10.1536 -13.49652,11.33953 -2.058262,1.18593 -3.745762,2.52376 -3.749998,2.97296 -0.0042,0.4492 1.065898,2.2492 2.378077,4 7.268071,9.69758 10.126661,21.30894 12.655521,51.40566 0.61106,7.27231 0.83777,14.08329 0.5038,15.13552 -1.42817,4.49976 -15.191998,11.1421 -23.087945,11.1421 -9.191095,0 -14.457155,-4.55316 -14.457155,-12.5 0,-4.35427 1.811948,-8.04043 5.829463,-11.85924 3.176188,-3.01909 5.170537,-2.84023 5.170537,0.46371 0,1.09254 1.104545,3.09098 2.454545,4.44098 3.546822,3.54683 8.802096,3.35176 12.622375,-0.46853 5.7252,-5.72519 3.19315,-17.82276 -4.493812,-21.47046 -16.669085,-7.91 -37.275037,15.56397 -31.564975,35.9583 4.586159,16.38016 20.435865,21.36196 41.165237,12.93886 4.94769,-2.01043 5.88312,-2.12844 6.92457,-0.87357 0.91674,1.10461 1.05282,10.33117 0.57019,38.66041 -0.71666,42.06598 -2.12256,66.0905 -4.21973,72.10825 -0.78611,2.25571 -1.43584,4.43121 -1.44385,4.83444 -0.008,0.40324 2.18504,1.84777 4.87343,3.21008 2.68839,1.36231 8.87589,5.86298 13.75,10.00147 8.45656,7.18029 11.088563,8.52349 10.674653,5.44767 z"
         id="path3142" />
      <path
         inkscape:connector-curvature="0"
         style="fill:#6e6e6e"
         d="m 91.538277,700.24081 c -2.86148,-2.54141 -7.65281,-6.18806 -10.6474,-8.10367 -5.30459,-3.3933 -5.42787,-3.57676 -4.79063,-7.12927 3.75392,-20.92761 5.88214,-116.14633 2.59596,-116.14633 -0.42354,0 -2.75543,1.10963 -5.18197,2.46585 -10.973465,6.13319 -26.238569,7.18325 -33.600539,2.31133 -8.268555,-5.47187 -11.548253,-18.63173 -7.563585,-30.34904 2.355992,-6.92803 11.187726,-15.66231 17.417766,-17.22556 7.883647,-1.97817 14.623282,1.37969 16.956008,8.44793 1.5177,4.59867 0.37715,8.81255 -3.199913,11.82246 -3.863994,3.25133 -5.348456,3.18218 -8.947473,-0.41684 -2.638362,-2.63836 -2.874018,-3.3807 -2.270781,-7.15314 0.744977,-4.65883 0.684432,-4.65928 -5.465768,-0.0409 -4.386897,3.29427 -9.145429,11.68452 -9.152613,16.13789 -0.0067,4.18215 2.850237,9.20948 6.64654,11.69567 2.041428,1.33692 4.57952,1.78098 9.797741,1.71419 8.294235,-0.10615 15.975367,-3.12296 21.701457,-8.52335 3.63841,-3.43146 3.64568,-3.45523 3.18648,-10.41291 -1.00092,-15.16546 -3.54698,-35.37318 -5.4038,-42.88908 -1.75686,-7.11131 -3.46266,-11.03791 -8.00352,-18.42338 -1.35387,-2.20199 -1.233207,-2.49414 2.06198,-4.99251 1.925,-1.45951 6.46103,-5.46953 10.08006,-8.91115 3.61904,-3.44161 7.10654,-6.25748 7.75,-6.25748 0.83119,0 1.17488,3.69173 1.18701,12.75 0.009,7.0125 0.67671,25.575 1.48293,41.25 0.80622,15.675 1.47354,29.0625 1.48293,29.75 0.009,0.6875 0.45176,1.25 0.98305,1.25 0.53129,0 8.06879,-4.51843 16.750003,-10.04097 12.23081,-7.78059 15.95826,-10.65081 16.55804,-12.75 0.9055,-3.16917 -0.68282,-35.16025 -2.81553,-56.70903 -2.62767,-26.54988 -2.84168,-30.5 -1.65242,-30.5 0.60638,0 4.10747,2.24625 7.7802,4.99167 3.67273,2.74542 8.63789,6.23179 11.03369,7.74749 2.3958,1.51569 4.53749,3.22876 4.75931,3.80682 0.22182,0.57805 -0.65828,4.21625 -1.95577,8.08488 -4.52864,13.50266 -5.85118,28.51671 -5.84625,66.36914 0.006,45.75819 3.29572,82.8215 9.98553,112.5 l 2.47951,11 -4.77115,3.98094 c -2.62413,2.18951 -6.89478,6.12701 -9.49034,8.75 -2.59556,2.62298 -4.92852,4.76906 -5.18436,4.76906 -0.25584,0 -0.21511,-11.3625 0.0905,-25.25 0.31128,-14.14468 0.0528,-34.70601 -0.58775,-46.75 -0.62888,-11.825 -1.42954,-28.82987 -1.77925,-37.78859 -0.3497,-8.95873 -1.03749,-16.53684 -1.52842,-16.84025 -1.46191,-0.90351 -31.885483,17.74094 -33.022963,20.23742 -0.69804,1.53203 -0.66226,15.02394 0.11289,42.56719 1.12358,39.92399 2.76523,63.68444 5.63536,81.56346 2.33622,14.55311 2.25484,14.6631 -5.65276,7.64004 z"
         id="path3140" />
      <path
         inkscape:connector-curvature="0"
         style="fill:#6e6e6e"
         d="m 172.51985,643.98705 c 11.56471,-8.16691 33.70462,-15.40286 53.15437,-17.37236 l 2.5,-0.25315 -0.35184,-13 c -0.19351,-7.15 -0.54214,-13.19863 -0.77474,-13.44141 -0.23259,-0.24277 -2.77427,1.81883 -5.64816,4.58134 -10.8202,10.40083 -23.6017,18.07003 -33.99006,20.39485 -9.11491,2.03983 -8.7352,2.91104 -8.7352,-20.04207 0,-11.03854 -0.4807,-31.14339 -1.06822,-44.67746 -0.96312,-22.18657 -0.9099,-24.76518 0.54101,-26.21132 2.33403,-2.32636 16.4972,-2.15091 22.87112,0.28331 2.62768,1.00352 4.97004,1.63215 5.20523,1.39695 0.74358,-0.74358 -1.91736,-16.78419 -2.7843,-16.78419 -0.45536,0 -3.55127,0.91743 -6.87979,2.03872 -7.1618,2.41264 -16.47025,2.80465 -18.49596,0.77894 -1.80657,-1.80657 -3.44681,-15.1112 -3.69351,-29.95965 -0.23901,-14.38503 0.26143,-15.22432 9.00191,-15.0971 7.51188,0.10933 17.69302,3.29973 28.1654,8.826 4.59958,2.4272 8.7359,4.41309 9.19181,4.41309 0.45592,0 0.58169,-3.0375 0.2795,-6.75 -0.30219,-3.7125 -0.11309,-9.10892 0.42022,-11.99205 0.6871,-3.71453 0.64561,-5.49172 -0.14238,-6.09884 -0.62321,-0.48015 -8.58492,-0.29654 -18.11204,0.41771 -16.82404,1.26129 -27.69153,0.78071 -36.5,-1.6141 -5.78074,-1.57164 -6.29595,-1.35383 -5.59799,2.36666 1.18739,6.32932 4.5006,40.25133 6.0723,62.17062 3.11229,43.4049 3.90161,94.24079 1.7118,110.24898 -1.08875,7.95915 -0.73453,8.47957 3.65952,5.37653 z"
         id="path3132" />
      <path
         inkscape:connector-curvature="0"
         style="fill:#6e6e6e"
         d="m 171.53582,641.19487 c -0.0761,-0.45833 -0.0416,-14.10833 0.0768,-30.33333 0.27827,-38.13901 -2.2708,-85.26051 -6.89719,-127.5 -0.96384,-8.8 -1.3796,-16.48143 -0.92391,-17.06985 0.58409,-0.75421 3.12298,-0.65717 8.6056,0.32893 5.81203,1.04535 11.4408,1.21023 22.27707,0.65254 7.975,-0.41043 16.75,-0.78345 19.5,-0.82893 l 5,-0.0827 0.28775,9.2669 c 0.34026,10.95803 -0.2238,11.55916 -7.43652,7.92523 -10.88735,-5.48527 -19.52071,-7.98517 -27.94117,-8.09072 -11.07247,-0.13879 -11.41003,0.21916 -11.41003,12.09895 0,5.20051 0.47915,14.93291 1.06478,21.62756 0.89494,10.23067 1.3911,12.45121 3.11078,13.92209 2.62217,2.2428 8.89919,2.2663 18.00949,0.0674 8.12024,-1.95993 9.00681,-1.42415 8.57586,5.18259 -0.22041,3.37908 -0.57137,3.94811 -2.26091,3.66575 -1.1,-0.18384 -6.50455,-0.56838 -12.01012,-0.85454 -8.76806,-0.45573 -10.27889,-0.29018 -12.17626,1.33425 -2.13413,1.82713 -2.15319,2.11318 -1.28903,19.35454 0.48241,9.625 1.09948,30.55 1.37126,46.5 l 0.49414,29 4.805,-0.25998 c 10.40255,-0.56285 24.40976,-7.47371 36.61583,-18.06546 2.64595,-2.29601 5.20107,-4.17456 5.67804,-4.17456 1.12514,0 2.25741,9.22934 1.83794,14.98144 -0.37509,5.14366 -0.37023,5.14107 -13.23773,7.03729 -11.43599,1.68526 -24.71289,6.48474 -40.83907,14.76293 -0.4125,0.21175 -0.81228,0.01 -0.8884,-0.44833 z"
         id="path3130" />
      <path
         inkscape:connector-curvature="0"
         style="fill:#6e6e6e"
         d="m 251.96809,619.39893 c 8.30543,-2.78804 22.8422,-5.53739 29.2781,-5.53739 2.3705,0 4.56899,-0.41906 4.88554,-0.93124 0.31654,-0.51219 -0.5372,-2.57096 -1.89722,-4.57505 -8.71207,-12.83795 -15.71132,-55.20544 -15.85848,-95.99371 -0.0856,-23.70951 2.89067,-35.03644 10.78896,-41.06076 3.24597,-2.47582 3.50923,-3.08032 3.50923,-8.05793 0,-2.95972 -0.37802,-5.38131 -0.84004,-5.38131 -0.46202,0 -4.31193,0.88796 -8.55536,1.97325 -4.24342,1.08528 -12.97791,2.71062 -19.40996,3.61186 -6.43205,0.90125 -12.31483,1.8213 -13.07285,2.04457 -0.91568,0.26971 0.35912,2.24292 3.79855,5.87961 6.00091,6.34507 10.4878,15.26572 12.61382,25.07827 1.97396,9.11073 3.80997,46.26813 3.15802,63.91244 -0.8096,21.91118 -4.30582,35.12812 -12.70068,48.01305 -2.82252,4.33217 -3.9915,7.20422 -3.9915,9.80667 0,2.02415 0.21553,3.68028 0.47895,3.68028 0.26342,0 3.78013,-1.10817 7.81492,-2.46261 z"
         id="path3122" />
      <path
         inkscape:connector-curvature="0"
         style="fill:#6e6e6e"
         d="m 245.38819,617.55854 c -0.3128,-0.81516 1.34949,-4.56796 3.694,-8.33955 11.26765,-18.12622 12.99693,-28.10094 12.28429,-70.85745 -0.69472,-41.6815 -2.82333,-52.45433 -12.97743,-65.6784 -2.64338,-3.44257 -3.2783,-4.92804 -2.40357,-5.62349 0.65381,-0.5198 5.01374,-1.48836 9.68874,-2.15237 4.675,-0.664 11.2,-1.83928 14.5,-2.61173 9.34098,-2.18649 10.5,-1.99748 10.5,1.71229 0,2.34114 -1.13116,4.35559 -4.42026,7.8719 -6.6155,7.07251 -8.62814,14.46177 -9.31462,34.19793 -1.15124,33.09849 5.96918,84.56185 13.83249,99.9752 1.15299,2.26004 1.68457,4.42649 1.20403,4.90703 -0.47322,0.47322 -4.38214,1.35023 -8.6865,1.94891 -4.30436,0.59868 -11.26614,2.0056 -15.47062,3.12649 -11.73233,3.12776 -11.81113,3.13741 -12.43055,1.52324 z"
         id="path3120" />
      <path
         inkscape:connector-curvature="0"
         style="fill:#6e6e6e"
         d="m 321.73494,611.33676 c 11.1319,-0.81041 12.03526,-1.38402 8.60319,-5.46279 -1.46547,-1.74162 -2.93304,-4.36939 -3.26125,-5.8395 -0.32822,-1.47011 -1.0269,-4.24793 -1.55262,-6.17293 -0.52572,-1.925 -1.2215,-13.62891 -1.54618,-26.00868 -0.5009,-19.09856 -0.36741,-22.69369 0.8811,-23.72986 1.16361,-0.96571 3.33792,-0.89753 10.39324,0.3259 11.52438,1.99838 14.20005,3.62638 17.91654,10.90128 2.88147,5.64038 2.99967,6.37962 2.86961,17.94702 -0.13924,12.38346 -2.06942,24.03322 -5.00792,30.22564 -0.89003,1.87562 -1.38907,3.63939 -1.10897,3.91949 0.41143,0.41144 19.16493,0.84572 22.02822,0.51013 0.42662,-0.05 0.0856,-1.42539 -0.75783,-3.05641 -1.15581,-2.23507 -1.63188,-7.34592 -1.93288,-20.75 -0.4663,-20.76547 -1.62261,-25.73496 -8.10968,-34.85313 -3.28009,-4.61048 -5.77809,-6.84712 -10.39638,-9.30864 -3.3434,-1.78201 -6.07219,-3.55113 -6.06399,-3.93138 0.008,-0.38025 2.92207,-4.29136 6.47525,-8.69136 3.55317,-4.4 8.5692,-12.1335 11.14672,-17.18556 4.13204,-8.09899 4.74047,-10.1197 5.14354,-17.08249 0.5088,-8.78927 -0.8172,-16.57925 -3.91438,-22.99608 -2.57263,-5.33006 -8.15915,-8.76365 -17.50248,-10.75741 -6.70782,-1.43136 -46.14266,-4.0327 -47.07035,-3.10501 -0.25764,0.25764 1.36197,4.21651 3.59914,8.79749 6.92684,14.18385 9.66453,32.57636 11.08052,74.44178 1.24608,36.84218 -0.47384,62.62521 -4.61387,69.16553 -1.77376,2.80213 -0.95821,4.37895 1.95228,3.77464 1.20379,-0.24994 6.04103,-0.7349 10.74943,-1.07767 z"
         id="path3114" />
      <path
         inkscape:connector-curvature="0"
         style="fill:#6e6e6e"
         d="m 311.67422,609.11117 c 0,-0.41271 0.69713,-3.90021 1.54918,-7.75 2.19353,-9.91102 3.00687,-49.83894 1.53793,-75.49963 -1.87497,-32.75369 -4.39122,-48.39066 -9.63424,-59.87084 -4.06481,-8.90036 -4.69247,-8.53136 13.29713,-7.81744 17.33203,0.68782 30.56422,2.78761 36.43253,5.7814 7.2983,3.72332 11.06271,12.68539 11.09189,26.40688 0.0132,6.22014 -0.53217,9.35687 -2.45139,14.0988 -3.10989,7.68376 -9.9885,18.05771 -17.38037,26.21214 -3.14642,3.47102 -5.3207,6.65528 -4.83172,7.07612 0.48899,0.42085 2.91406,1.39331 5.38906,2.16102 5.48018,1.69987 13.64866,9.48013 16.78458,15.98687 3.21736,6.6757 3.99822,12.47807 4.36904,32.46505 l 0.33395,18 -6.99378,-0.34568 c -3.84659,-0.19013 -7.29009,-0.64013 -7.65223,-1 -0.36215,-0.35988 0.27303,-4.02932 1.4115,-8.15432 1.64005,-5.94239 2.08832,-10.61523 2.15844,-22.5 0.0848,-14.37167 -0.0222,-15.20944 -2.55341,-20 -4.4599,-8.44065 -6.49649,-9.58329 -21.33721,-11.9714 -5.22464,-0.84073 -9.77763,-1.5286 -10.11776,-1.5286 -0.34012,0 -0.39893,11.8125 -0.13068,26.25 0.47972,25.81922 1.23694,32.22772 4.53646,38.39293 0.80641,1.50678 0.79163,2.35654 -0.0557,3.20387 -1.2651,1.2651 -15.7532,1.63558 -15.7532,0.40283 z"
         id="path3112" />
      <path
         inkscape:connector-curvature="0"
         style="fill:#6e6e6e"
         d="m 333.36431,528.22288 c 6.65315,-3.14041 14.70358,-11.89501 18.72357,-20.36134 2.65767,-5.59721 3.08394,-7.61113 3.06903,-14.5 -0.0264,-12.22067 -4.12469,-18.38904 -15.53774,-23.38619 -4.93194,-2.15942 -26.65179,-6.74031 -27.57608,-5.81601 -0.32288,0.32288 0.42207,2.00424 1.65545,3.73635 5.02088,7.05118 6.19196,13.75796 6.71658,38.46585 0.27702,13.04668 0.92102,23.53676 1.48815,24.24033 1.24529,1.5449 4.64155,0.83992 11.46104,-2.37899 z"
         id="path3110" />
      <path
         inkscape:connector-curvature="0"
         style="fill:#6e6e6e"
         d="m 323.87719,528.66451 c -0.81429,-0.81429 -1.20324,-5.41943 -1.20381,-14.25297 -0.001,-17.55324 -1.61026,-33.41829 -4.12717,-40.6911 -1.14031,-3.29501 -1.78883,-6.27539 -1.44116,-6.62307 0.34768,-0.34767 3.72767,-0.10131 7.5111,0.54748 13.65285,2.3412 21.56915,6.25408 26.05807,12.88 2.21184,3.26481 2.5,4.73598 2.5,12.76342 0,8.09203 -0.32444,9.71698 -3,15.02549 -4.82546,9.57407 -14.38303,18.25057 -23.04703,20.92244 -1.12587,0.3472 -2.58837,0.0899 -3.25,-0.57169 z"
         id="path3108" />
      <path
         inkscape:connector-curvature="0"
         style="fill:#0b0b0b"
         d="m 314.122,605.55094 c 2.70131,-12.7916 2.98379,-17.36266 2.94703,-47.6894 -0.0631,-52.02862 -3.0559,-76.28982 -11.89325,-96.41159 -0.81257,-1.85016 -0.34397,-1.8918 14.57944,-1.29547 16.6062,0.66358 28.99218,2.59747 34.78832,5.43171 4.56066,2.2301 7.55056,7.90734 9.14607,17.36661 2.59952,15.41167 -3.44285,29.70875 -20.63922,48.83525 -2.51987,2.8027 -4.35721,5.68053 -4.08297,6.39518 0.27424,0.71465 2.45796,1.87039 4.85271,2.56832 6.80662,1.98371 11.63166,5.69836 15.82099,12.18008 4.82155,7.45986 5.91387,13.63993 6.31501,35.72845 l 0.29599,16.29853 -5.53895,-0.32865 c -4.25656,-0.25255 -5.45941,-0.66895 -5.1954,-1.79853 4.58935,-19.6357 5.42267,-36.61602 2.21166,-45.06671 -2.47574,-6.51561 -5.74773,-11.29033 -9.08989,-13.26459 -2.94455,-1.73939 -25.55583,-6.00971 -27.0223,-5.10337 -1.26137,0.77956 -1.18504,41.98901 0.0944,50.96478 0.54879,3.85 1.71072,9.16665 2.58207,11.81478 0.87136,2.64813 1.42593,4.94851 1.23239,5.11195 -0.19353,0.16344 -2.99018,0.55702 -6.21476,0.87461 l -5.86288,0.57745 0.67354,-3.18939 z"
         id="path3236" />
      <path
         inkscape:connector-curvature="0"
         style="fill:#6e6e6e"
         d="m 338.75019,517.20766 c 9.56191,-9.12051 13.62816,-20.18792 10.94205,-29.78176 -1.61275,-5.76017 -2.90537,-6.79889 -12.38179,-9.94972 -10.3748,-3.44954 -11.86557,-3.43124 -11.03032,0.13536 0.3542,1.5125 1.34801,4.28407 2.20847,6.15905 1.4945,3.25662 1.60753,3.31251 2.52785,1.25 1.06404,-2.38459 3.65777,-2.94755 3.65777,-0.79391 0,0.75083 -0.8348,2.43833 -1.85512,3.75 -3.11506,4.00459 -3.91526,14.09705 -0.97356,12.27898 1.43043,-0.88405 3.76049,2.70958 3.79688,5.85588 0.0263,2.27515 -0.39988,2.75 -2.4682,2.75 -1.375,0 -2.5452,0.3375 -2.60044,0.75 -0.0553,0.4125 -0.22018,3.5625 -0.36651,7 -0.34006,7.98821 0.71585,8.06189 8.54292,0.59612 z"
         id="path3106" />
      <path
         inkscape:connector-curvature="0"
         style="fill:#6e6e6e"
         d="m 421.17422,605.4374 c 11.55,-0.0417 23.83351,0.28636 27.29668,0.72908 l 6.29668,0.80494 -0.67161,-7.4114 c -0.44359,-4.89523 -0.25585,-8.67113 0.55299,-11.12194 0.67352,-2.0408 0.97728,-3.95786 0.675,-4.26013 -0.30227,-0.30227 -2.70962,0.75889 -5.34966,2.35815 -12.20935,7.39602 -23.61484,10.83239 -33.56461,10.11269 -7.08376,-0.5124 -8.76324,-2.09494 -8.05361,-7.58879 0.26275,-2.03415 -0.23318,-15.73065 -1.10207,-30.43667 -1.85722,-31.43369 -1.99125,-48.85824 -0.47123,-61.26179 1.2901,-10.52747 4.88224,-23.57493 8.40371,-30.52422 1.36825,-2.70011 2.4878,-5.26175 2.4879,-5.69254 9e-5,-0.43078 -7.19951,-0.78324 -15.99912,-0.78324 -8.7996,0 -15.99967,0.19542 -16.00016,0.43428 -4.9e-4,0.23885 0.88308,2.26385 1.96349,4.5 4.51841,9.35185 6.63844,26.64356 8.03439,65.5314 1.29006,35.93801 -0.12119,61.35394 -3.96771,71.45677 -1.7682,4.64415 -0.87383,5.57289 4.15249,4.31204 2.37405,-0.59552 13.76645,-1.11691 25.31645,-1.15863 z"
         id="path3102" />
      <path
         inkscape:connector-curvature="0"
         style="fill:#6e6e6e"
         d="m 394.0653,603.4383 c -0.28854,-0.75192 -0.061,-3.1018 0.50557,-5.22195 5.51838,-20.64912 3.10581,-109.31711 -3.50208,-128.71021 -0.86448,-2.53712 -1.41113,-5.09493 -1.21476,-5.68402 0.40324,-1.20974 23.68659,-1.98577 24.41102,-0.81362 0.24404,0.39486 -0.64734,3.18496 -1.98083,6.20022 -7.06674,15.97916 -9.41778,37.50329 -7.58017,69.39774 0.68938,11.96529 1.52719,29.85508 1.8618,39.75508 l 0.60837,18 5.84904,1.38823 c 5.10086,1.21066 6.86665,1.18775 13.80442,-0.17906 4.37546,-0.86201 11.49005,-3.22602 15.81021,-5.25334 4.32015,-2.02732 8.2663,-3.43173 8.76923,-3.12091 0.50292,0.31082 0.88126,3.85012 0.84075,7.86511 l -0.0736,7.29997 -8,-0.5 c -11.55755,-0.72235 -31.68903,-0.61414 -41.29215,0.22195 -6.59136,0.57387 -8.39975,0.44154 -8.81677,-0.64519 z"
         id="path3100" />
      <path
         inkscape:connector-curvature="0"
         style="fill:#6e6e6e"
         d="m 591.10626,603.9715 c 0.30254,-0.48953 -0.54464,-2.85203 -1.88263,-5.25 -3.48597,-6.24765 -7.33742,-22.09253 -8.66959,-35.66671 -1.21417,-12.37188 -0.71087,-79.17396 0.62115,-82.44325 1.16044,-2.84817 2.977,-2.02434 5.51257,2.5 1.31,2.3375 4.95899,8.34588 8.10886,13.35196 9.51427,15.12097 10.47922,19.38397 7.27745,32.15067 -0.88008,3.50923 -1.38979,6.59077 -1.13269,6.84786 0.2571,0.2571 2.66466,-0.0317 5.35015,-0.64179 2.78701,-0.63315 7.56522,-0.82817 11.13269,-0.45438 3.4375,0.36018 6.25147,0.28155 6.25327,-0.17473 0.002,-0.45627 -0.98566,-4.6963 -2.19434,-9.42227 -1.94907,-7.62093 -2.05962,-9.20421 -0.97755,-14 1.4595,-6.46855 15.42201,-33.40732 17.3152,-33.40732 2.38932,0 3.13752,9.33335 3.24664,40.5 0.0868,24.8063 -0.22676,32.60289 -1.67991,41.76475 -2.15802,13.6059 -5.79398,26.52303 -9.86955,35.06262 -1.66133,3.48101 -2.86832,6.47845 -2.68218,6.66098 0.18613,0.18252 8.43842,0.45685 18.33842,0.60962 15.18893,0.23439 17.96933,0.0532 17.80363,-1.1601 -0.108,-0.79083 -1.56608,-5.1705 -3.24018,-9.7326 -6.94882,-18.93633 -9.97205,-47.92472 -8.09711,-77.63981 1.55541,-24.6511 4.42478,-39.06578 10.23035,-51.3937 1.63909,-3.48054 2.70863,-6.59977 2.37676,-6.93164 -0.33186,-0.33187 -6.10915,0.15595 -12.83842,1.08405 -6.72927,0.92809 -13.69753,1.68482 -15.48503,1.68163 -3.07061,-0.005 -3.25,0.19448 -3.25,3.62272 0,6.20902 -18.55024,46.37148 -21.41807,46.37148 -0.77145,0 -3.18297,-2.81894 -5.35892,-6.26432 -8.47154,-13.41373 -14.85689,-28.33892 -16.0311,-37.47128 l -0.69191,-5.38126 -13.75049,-0.19157 c -7.56277,-0.10536 -13.75027,0.19902 -13.75,0.67641 2.7e-4,0.4774 1.3385,2.3919 2.97385,4.25446 5.51283,6.27876 6.53249,12.16203 6.47814,37.37756 -0.0902,41.82755 -5.39711,78.89478 -13.64772,95.3247 -1.05635,2.10359 -1.78185,4.23253 -1.61221,4.731 0.16964,0.49846 5.93343,1.1444 12.80843,1.43543 6.875,0.29102 14.3,0.92283 16.5,1.404 2.2,0.48118 4.31094,0.92662 4.69098,0.98987 0.38004,0.0633 0.93852,-0.28552 1.24106,-0.77504 z"
         id="path3096" />
      <path
         inkscape:connector-curvature="0"
         style="fill:#6e6e6e"
         d="m 570.18512,601.11315 c -5.494,-0.18139 -10.34471,-0.68542 -10.77934,-1.12005 -0.43464,-0.43464 0.7911,-5.51608 2.72388,-11.29209 6.22624,-18.60684 10.65954,-54.74281 10.89917,-88.83947 0.13041,-18.55449 -0.88939,-25.93063 -4.65732,-33.68616 -1.14097,-2.34848 -1.87291,-4.47155 -1.62652,-4.71794 0.64158,-0.64159 19.79,-1.06847 20.4036,-0.45486 0.28133,0.28132 0.9521,2.83476 1.49061,5.6743 1.37227,7.23593 7.27243,21.06788 13.51542,31.68466 6.56636,11.16669 9.07302,14.33153 10.29645,13 1.87698,-2.04283 19.51506,-39.79223 21.12233,-45.20645 0.91723,-3.08977 2.32764,-5.95423 3.13425,-6.36548 2.05536,-1.04791 22.96018,-3.26779 23.7102,-2.51778 0.33862,0.33863 -0.82095,4.86254 -2.57684,10.05315 -6.12675,18.11132 -7.63039,30.41401 -7.64327,62.53656 -0.0128,31.90169 0.9584,40.0999 6.95649,58.72197 2.39748,7.44339 2.9836,10.47283 2.15622,11.14482 -0.64584,0.52454 -7.11044,0.68971 -14.9784,0.38269 l -13.84217,-0.54014 0.53357,-2.60467 c 0.29347,-1.43257 1.88263,-6.42967 3.53147,-11.10467 8.4054,-23.83197 11.20235,-64.53593 7.04322,-102.5 -1.34756,-12.30038 -1.77896,-14.04496 -3.13718,-12.68674 -1.17121,1.17121 -8.10558,14.14484 -15.04907,28.15558 -4.89424,9.87571 -5.98529,18.28834 -3.48016,26.83414 0.80907,2.76001 1.19462,5.45238 0.85677,5.98304 -0.33786,0.53067 -4.37726,1.00995 -8.97646,1.06506 l -8.36218,0.10022 0.85775,-5.72565 c 1.60099,-10.68701 1.03138,-15.23877 -2.78647,-22.2667 -5.80061,-10.6778 -19.01211,-31.95895 -19.84036,-31.95895 -1.68836,0 -2.15432,5.815 -3.08501,38.5 -1.30536,45.84264 0.27185,65.34114 6.65766,82.30668 1.33144,3.53729 2.42079,6.82786 2.42079,7.31238 0,0.48452 -1.6875,0.78676 -3.75,0.67165 -2.0625,-0.11511 -8.24509,-0.3577 -13.7391,-0.5391 z"
         id="path3094" />
      <path
         inkscape:connector-curvature="0"
         style="fill:#6e6e6e"
         d="m 539.00113,571.04221 c 1.4856,-1.55064 2.39479,-3.12564 2.02042,-3.5 -0.37436,-0.37437 -19.95566,-0.68067 -43.514,-0.68067 -46.09676,0 -46.41334,0.0388 -40.19847,4.92742 2.56111,2.01457 3.7034,2.07258 40.81291,2.07258 l 38.17805,0 z"
         id="path3076" />
      <path
         inkscape:connector-curvature="0"
         style="fill:#6e6e6e"
         d="m 460.35274,571.20672 c -0.37319,-0.37318 -0.67852,-1.05886 -0.67852,-1.52373 0,-0.46487 17.2125,-0.72737 38.25,-0.58333 24.65874,0.16883 38.25,0.61721 38.25,1.26188 0,1.13518 -74.69882,1.96785 -75.82148,0.84518 z"
         id="path3074" />
      <path
         inkscape:connector-curvature="0"
         style="fill:#6e6e6e"
         d="m 475.26016,554.39186 c 3.15339,-0.93645 6.28547,-2.84124 8.63268,-5.25 6.65915,-6.83376 6.78202,-7.60446 6.7758,-42.4982 -0.003,-17.56777 -0.43979,-32.8452 -0.99602,-34.84747 -0.54474,-1.96095 -2.572,-5.41305 -4.50501,-7.67134 -4.58501,-5.35655 -10.87476,-7.80042 -19.67898,-7.64622 -9.45396,0.16557 -16.21587,4.01651 -20.11232,11.45407 l -2.79792,5.34066 0.29792,34.20991 0.29791,34.20991 3.01384,4.28621 c 6.12085,8.70492 17.2465,11.9243 29.0721,8.41247 z"
         id="path3068" />
      <path
         inkscape:connector-curvature="0"
         style="fill:#6e6e6e"
         d="m 456.16564,551.99656 c -5.78464,-2.62791 -10.09829,-8.00429 -11.4911,-14.3221 -0.79717,-3.61598 -1.06412,-14.89486 -0.83579,-35.31292 0.2899,-25.92508 0.56624,-30.42129 2.03439,-33.10156 8.36108,-15.26406 32.92071,-15.3182 41.06031,-0.0905 2.18488,4.08751 2.24077,4.97773 2.24077,35.69207 0,33.92272 -0.28819,36.21796 -5.29457,42.1677 -1.44248,1.71429 -4.44131,3.94298 -6.66406,4.95264 -5.38671,2.44684 -15.68039,2.45402 -21.04995,0.0147 z"
         id="path3066" />
      <path
         inkscape:connector-curvature="0"
         style="fill:#6e6e6e"
         d="m 473.79117,549.13338 c 1.60904,-0.95048 3.81597,-3.56756 4.90429,-5.81572 1.84993,-3.82143 1.97876,-6.25024 1.97876,-37.30396 0,-35.80152 -0.19016,-37.29922 -5.33849,-42.04582 -3.56014,-3.28233 -10.91854,-3.91533 -15.58424,-1.34061 -6.95224,3.83652 -7.07745,4.60133 -7.07572,43.21867 10e-4,30.85717 0.18688,34.88658 1.75,38.0156 3.16263,6.33086 13.02675,9.01618 19.3654,5.27184 z"
         id="path3064" />
      <path
         inkscape:connector-curvature="0"
         style="fill:#6e6e6e"
         d="m 523.08941,548.44013 c -1.69665,-0.73872 -4.05915,-2.5818 -5.25,-4.09572 -2.1288,-2.70632 -2.16519,-3.35511 -2.16519,-38.60195 l 0,-35.84937 2.75,-3.06886 c 4.86017,-5.42372 13.41047,-5.61298 18.3051,-0.40519 l 2.4449,2.60132 0.26664,35.67059 c 0.2571,34.39322 0.19365,35.78913 -1.77189,38.98077 -1.88236,3.05657 -7.17388,6.24345 -10.21263,6.15068 -0.70517,-0.0215 -2.67029,-0.64355 -4.36693,-1.38227 z"
         id="path3052" />
      <path
         inkscape:connector-curvature="0"
         style="fill:#6e6e6e"
         d="m 536.36652,554.36028 c 6.06959,-1.80248 12.60297,-8.29812 14.22621,-14.14404 1.51188,-5.44487 1.44497,-63.40948 -0.0791,-68.49626 -2.88536,-9.63057 -12.05784,-15.48159 -23.83941,-15.20688 -7.54168,0.17584 -12.55515,2.05744 -16.80464,6.30692 -6.05286,6.05287 -6.30568,7.96246 -5.98512,45.2072 l 0.28976,33.66568 3.01384,4.28635 c 6.14321,8.737 17.24342,11.92535 29.17846,8.38103 z"
         id="path3058" />
      <path
         inkscape:connector-curvature="0"
         style="fill:#6e6e6e"
         d="m 517.16564,551.99656 c -4.61659,-2.09727 -10.11383,-7.92571 -11.22697,-11.90336 -0.42045,-1.50241 -0.76445,-17.35666 -0.76445,-35.23166 0,-28.69637 0.19883,-32.86299 1.69892,-35.60156 8.26411,-15.08703 33.18901,-15.31933 40.81031,-0.38035 1.86936,3.66424 1.98943,5.90203 1.96881,36.69207 -0.0199,29.73943 -0.19371,33.16196 -1.86808,36.78984 -3.59613,7.79175 -10.1874,11.51349 -20.32784,11.47804 -3.89971,-0.0136 -7.80232,-0.71258 -10.2907,-1.84302 z"
         id="path3056" />
      <path
         inkscape:connector-curvature="0"
         style="fill:#6e6e6e"
         d="m 536.11513,547.77927 c 1.96929,-1.72905 3.95776,-4.69251 4.52922,-6.75 1.32399,-4.76684 1.35046,-65.47354 0.0306,-70.22458 -2.31329,-8.32714 -12.23237,-12.37888 -20.00075,-8.16988 -6.8484,3.71055 -6.99671,4.62195 -6.99845,43.00885 -0.002,38.00336 0.22041,39.55374 6.18827,43.19225 2.08056,1.26847 5.06173,2.01954 8.02538,2.02189 3.84414,0.003 5.36372,-0.56566 8.22571,-3.07853 z"
         id="path3054" />
      <path
         inkscape:connector-curvature="0"
         style="fill:#6e6e6e"
         d="m 530.90891,543.43448 c 0.40408,-0.59012 0.74158,-2.99989 0.75,-5.35506 0.008,-2.35516 0.67828,-5.86883 1.48858,-7.80815 1.85549,-4.44082 3.1011,-13.40973 1.86236,-13.40973 -0.50712,0 -1.3526,1.4625 -1.87883,3.25 -0.78552,2.6682 -1.5233,3.30495 -4.12133,3.55698 -2.46888,0.2395 -3.30804,-0.14519 -3.81738,-1.75 -1.57818,-4.97239 -2.51809,-1.24899 -2.51809,9.97524 0,11.56338 0.0877,12.06482 2.25,12.8686 2.43563,0.90538 4.81734,0.37693 5.98469,-1.32788 z"
         id="path3050" />
      <path
         inkscape:connector-curvature="0"
         style="fill:#6e6e6e"
         d="m 535.65891,493.55252 c -0.008,-1.75504 -0.42751,-3.84251 -0.93129,-4.63883 -1.25513,-1.98391 -2.50856,2.9982 -1.63249,6.48875 0.85271,3.39745 2.58297,2.14897 2.56378,-1.84992 z"
         id="path3048" />
      <path
         inkscape:connector-curvature="0"
         style="fill:#6e6e6e"
         d="m 535.19042,474.95744 c -0.682,-4.03673 -0.75284,-4.0959 -4.9041,-4.0959 -4.22727,0 -6.6121,1.31751 -6.6121,3.65289 0,0.92082 1.36668,1.09102 5.15656,0.64216 3.79816,-0.44983 4.9666,-0.30335 4.43546,0.55606 -0.39662,0.64174 -0.42237,2.10806 -0.0572,3.2585 1.16276,3.66354 2.73902,0.47054 1.98141,-4.01371 z"
         id="path3046" />
      <path
         inkscape:connector-curvature="0"
         style="fill:#0b0b0b"
         d="m 101.92422,713.8725 c -3.411513,-2.08004 -4.402043,-3.66702 -1.62325,-2.6007 3.73618,1.43371 4.12647,-0.96684 1.82319,-11.21382 -4.476743,-19.91641 -7.862783,-71.74275 -7.261843,-111.14907 l 0.3119,-20.45264 10.000003,-5.88212 c 5.5,-3.23517 11.4625,-6.78069 13.25,-7.87893 l 3.25,-1.9968 0,4.01941 c 0,3.20499 -0.35459,3.9962 -1.75,3.90485 -0.9625,-0.063 -6.1375,2.52285 -11.5,5.74637 -8.14451,4.89584 -9.765633,6.28343 -9.844913,8.42671 -0.25427,6.87379 0.13251,52.21678 0.55075,64.56578 0.969653,28.62991 3.336873,51.86103 6.655693,65.31664 1.92923,7.82173 1.98038,11.18828 0.16985,11.17962 -0.42976,-0.002 -2.24388,-0.89544 -4.03138,-1.9853 z"
         id="path3278" />
      <path
         inkscape:connector-curvature="0"
         style="fill:#0b0b0b"
         d="m 90.625237,697.26671 c -2.99806,-2.48936 -7.32214,-5.6424 -9.60906,-7.00677 -3.97602,-2.37207 -4.11822,-2.62483 -3.24861,-5.77433 1.99034,-7.2084 3.04635,-28.1853 3.59218,-71.35606 0.64672,-51.14956 1.13304,-48.23546 -7.3343,-43.94768 -10.730301,5.43373 -23.708655,7.25912 -30.633349,4.30855 -6.852775,-2.91993 -11.009954,-10.52536 -11.060864,-20.2355 -0.07936,-15.13719 13.719601,-28.99398 25.390806,-25.4972 7.407357,2.2193 10.515317,11.63159 5.497632,16.64927 -2.876451,2.87645 -4.271305,3.0353 -7.401428,0.84288 -2.045827,-1.43296 -2.228076,-2.14179 -1.643501,-6.39216 0.804525,-5.84959 -0.365376,-6.86338 -4.768763,-4.13243 -7.024969,4.35684 -13.652711,13.986 -13.709801,19.91838 -0.0675,7.01367 5.863214,13.63705 13.660276,15.25571 8.926903,1.85322 21.652302,-2.5587 28.750832,-9.96797 l 2.87114,-2.99682 -0.6829,-12.08358 c -0.7676,-13.58238 -2.9504,-31.38432 -4.73964,-38.65448 -1.29054,-5.24377 -4.69315,-13.17209 -7.57269,-17.64487 -1.7337,-2.69295 -1.73477,-2.85184 -0.0258,-3.81828 0.98078,-0.55462 5.03078,-3.86682 9,-7.36045 l 7.21678,-6.35204 0.2352,5.17033 c 0.12936,2.84368 0.92854,20.69533 1.77595,39.67033 0.84741,18.975 1.76264,35.5125 2.03385,36.75 0.27121,1.2375 1.15179,2.25 1.95684,2.25 1.57631,0 30.748473,-18.14734 33.906383,-21.09239 1.71526,-1.59965 1.89306,-3.17641 1.75836,-15.5936 -0.14363,-13.24041 -2.2626,-41.95434 -4.18995,-56.77767 -0.50318,-3.86999 -0.92877,-9.25228 -0.94575,-11.96065 l -0.0308,-4.92432 2.25,2.03724 c 1.2375,1.12048 5.9625,4.61138 10.5,7.75756 4.5375,3.14617 8.25,5.8529 8.25,6.01495 0,0.16205 -0.64538,1.83924 -1.43417,3.72709 -5.04494,12.07423 -7.03249,31.93664 -6.98577,69.81179 0.0527,42.69336 3.17504,78.68395 9.47802,109.2497 l 2.93855,14.2503 -2.74831,1.97722 c -1.51158,1.08748 -5.01666,4.1012 -7.78908,6.69717 l -5.04077,4.71995 0.0154,-31.69717 c 0.008,-17.43344 -0.54209,-42.04717 -1.22347,-54.69717 -1.83961,-34.15281 -2.18051,-37.5513 -3.83031,-38.18439 -0.7959,-0.30541 -9.06767,4.01931 -18.54368,9.69516 l -17.106883,10.24652 0.57375,40.62135 c 0.60099,42.55117 1.54859,58.77272 4.73506,81.05822 1.0567,7.39028 1.79582,13.56232 1.64249,13.71565 -0.15333,0.15332 -2.73174,-1.75797 -5.72981,-4.24734 z"
         id="path3274" />
      <path
         inkscape:connector-curvature="0"
         style="fill:#0b0b0b"
         d="m 124.20877,686.61154 c -1.46509,-2.08786 -1.44361,-2.28603 0.29802,-2.75 1.03229,-0.275 4.47586,-3.57336 7.65238,-7.32968 5.05663,-5.97961 9.70749,-10.13347 17.55154,-15.67596 l 2.13087,-1.50565 -2.00827,-7.99435 c -8.41692,-33.50547 -13.30176,-94.65555 -11.15314,-139.61881 1.40313,-29.36271 3.38699,-41.34259 8.19607,-49.49338 l 2.1574,-3.65652 1.76299,2.1772 c 1.70006,2.09947 1.67585,2.30562 -0.6781,5.77436 -5.38566,7.9362 -7.42608,21.43546 -8.05978,53.32279 -0.46016,23.15478 1.26371,69.50468 3.10557,83.5 0.21714,1.65 0.86772,7.725 1.44572,13.5 1.18445,11.8342 3.20005,23.62718 6.09777,35.67719 2.52221,10.48842 2.48604,11.17475 -0.6517,12.36771 -3.26256,1.24043 -15.394,12.85403 -20.06143,19.2051 -3.89293,5.29718 -5.46816,5.80298 -7.78591,2.5 z"
         id="path3270" />
      <path
         inkscape:connector-curvature="0"
         style="fill:#0b0b0b"
         d="m 173.33531,619.61154 c 0.98643,-31.66989 -2.68764,-104.10524 -7.09799,-139.93926 -0.76383,-6.20608 -1.22546,-11.54804 -1.02585,-11.87102 0.19962,-0.32298 3.8729,0.0422 8.16284,0.81158 5.7857,1.03759 11.15697,1.20118 20.79991,0.63347 7.15,-0.42095 15.43575,-0.79222 18.41277,-0.82506 l 5.41278,-0.0597 -0.23771,7.4916 c -0.13073,4.12037 -0.3475,7.6014 -0.48171,7.7356 -0.1342,0.13421 -4.3403,-1.56362 -9.34688,-3.77294 -15.62256,-6.89398 -29.10403,-8.59734 -34.72769,-4.38778 -2.61731,1.95917 -3.11245,10.81857 -1.61171,28.83825 1.59543,19.15677 1.7027,19.53961 5.97472,21.32458 4.12947,1.7254 12.09073,1.24562 18.83909,-1.13534 4.62317,-1.63115 4.90852,-1.47772 5.40482,2.90603 0.25573,2.25882 -0.0282,2.90867 -1.14942,2.63035 -4.08824,-1.01488 -19.79334,-1.20846 -22.18676,-0.27347 -5.00863,1.95661 -5.54272,4.18831 -4.70098,19.64312 0.41938,7.7 1.03503,28.60888 1.36811,46.46417 0.44341,23.7695 0.93033,32.67414 1.81809,33.24816 1.64074,1.0609 8.92028,-0.0177 16.21248,-2.40221 6.6573,-2.17689 17.7507,-8.71818 25.13842,-14.82304 2.65371,-2.1929 5.17067,-3.98709 5.59325,-3.98709 0.42258,0 0.76833,3.50052 0.76833,7.77893 l 0,7.77892 -8.93517,1.2169 c -10.67883,1.45438 -22.49874,5.05647 -33.94511,10.34471 -4.61968,2.1343 -8.54764,3.88054 -8.72881,3.88054 -0.18117,0 -0.0596,-8.6625 0.27018,-19.25 z"
         id="path3260" />
      <path
         inkscape:connector-curvature="0"
         style="fill:#0b0b0b"
         d="m 180.67422,607.99182 c 0,-8.72834 -0.48971,-28.58974 -1.08825,-44.13644 -0.90122,-23.40885 -0.85825,-28.41251 0.25,-29.11497 2.55068,-1.61674 13.67243,-0.91952 20.3619,1.27648 8.05387,2.6439 8.85226,2.0998 7.48647,-5.10196 -0.55556,-2.92951 -1.01012,-7.12005 -1.01012,-9.31232 0,-6.70771 2.73858,-2.76829 3.52511,5.07082 0.36907,3.67846 1.02615,8.36263 1.46018,10.40926 1.15504,5.44648 -0.46324,6.22628 -6.6091,3.18473 -7.00214,-3.46532 -17.99564,-4.39117 -21.08405,-1.77567 l -2.20786,1.86979 0.98227,25 c 0.54024,13.75 1.08378,32.53743 1.20786,41.74984 0.20703,15.37145 0.0816,16.74985 -1.52441,16.75 -1.59316,1.5e-4 -1.75,-1.42215 -1.75,-15.86956 z"
         id="path3254" />
      <path
         inkscape:connector-curvature="0"
         style="fill:#0b0b0b"
         d="m 305.74463,615.43648 c -1.42284,-1.51454 -1.83448,-2.60272 -1.14562,-3.02846 0.59137,-0.36548 1.07521,-0.18796 1.07521,0.3945 0,2.59224 26.66785,0.18952 28.71874,-2.5875 1.00115,-1.35561 1.49214,-1.42335 2.75,-0.37942 1.72765,1.43382 2.00739,3.61364 0.57718,4.49756 -0.92858,0.5739 -11.29339,1.86061 -23.65031,2.93602 -5.49103,0.47788 -6.32753,0.29373 -8.3252,-1.8327 z"
         id="path3250" />
      <path
         inkscape:connector-curvature="0"
         style="fill:#0b0b0b"
         d="m 246.67422,616.20593 c 0,-0.36058 1.14599,-2.15808 2.54665,-3.99444 3.79208,-4.97168 9.12799,-16.80092 11.66032,-25.84995 2.11545,-7.55934 2.23835,-9.84525 2.23121,-41.5 -0.008,-35.70422 -0.67298,-43.25771 -5.02304,-57.06117 -1.31613,-4.1763 -4.20328,-10.15992 -6.44936,-13.3663 -2.23658,-3.19282 -3.93134,-5.93566 -3.76614,-6.0952 0.1652,-0.15953 5.70036,-1.22537 12.30036,-2.36853 6.6,-1.14316 13.4625,-2.50388 15.25,-3.02383 3.1209,-0.90781 3.25,-0.83353 3.25,1.86983 0,1.88515 -0.81055,3.34627 -2.4535,4.42278 -9.32471,6.10978 -13.11877,28.47499 -10.62676,62.64257 2.38192,32.65812 6.56946,58.07702 11.56568,70.2051 1.4217,3.45111 2.68158,6.68175 2.79974,7.17919 0.11816,0.49745 -3.79039,1.50123 -8.68567,2.23064 -4.89528,0.7294 -12.2128,2.2349 -16.26116,3.34556 -8.23936,2.26043 -8.33833,2.27662 -8.33833,1.36375 z"
         id="path3248" />
      <path
         inkscape:connector-curvature="0"
         style="fill:#0b0b0b"
         d="m 348.89053,611.54629 c -1.58163,-1.74597 -1.13957,-1.80692 11.58343,-1.59711 7.2753,0.11997 13.50553,-0.0596 13.84495,-0.399 0.33942,-0.33942 -0.20132,-2.32072 -1.20165,-4.40288 -1.4723,-3.06458 -1.9512,-7.5005 -2.51391,-23.28576 -0.68319,-19.16479 -1.80962,-25.74122 -5.08502,-29.68783 -0.62101,-0.74828 -0.87966,-1.60995 -0.57477,-1.91484 0.93119,-0.9312 5.81534,8.25288 7.35949,13.83868 0.92891,3.36021 1.59235,11.68512 1.83443,23.01854 0.34506,16.15444 0.57686,18.07431 2.57206,21.3026 1.20605,1.95142 1.89966,3.84121 1.54135,4.19951 -0.3583,0.3583 -6.74098,0.67213 -14.18372,0.6974 -11.83854,0.0402 -13.73807,-0.18126 -15.17664,-1.76931 z"
         id="path3246" />
      <path
         inkscape:connector-curvature="0"
         style="fill:#0b0b0b"
         d="m 391.1471,611.46539 c -1.08336,-0.79217 -1.74544,-1.65767 -1.47131,-1.92333 2.3838,-2.31012 45.07903,-3.56806 57.95269,-1.70747 8.57452,1.23924 9.02415,0.78073 8.32319,-8.48759 -0.59659,-7.88824 1.12915,-16.85781 3.11276,-16.17867 0.62702,0.21468 0.9889,2.0794 0.83188,4.2866 -0.15284,2.14865 -0.37784,8.40663 -0.5,13.90663 l -0.22209,10 -4,-0.0879 c -2.2,-0.0483 -11.425,-0.44026 -20.5,-0.87092 -14.8814,-0.70622 -35.92894,0.34311 -40.26622,2.00748 -0.71014,0.27251 -2.17755,-0.15267 -3.2609,-0.94483 z"
         id="path3244" />
      <path
         inkscape:connector-curvature="0"
         style="fill:#0b0b0b"
         d="m 283.89194,604.11865 c -5.25524,-9.85985 -8.71843,-26.45226 -11.6377,-55.75711 -4.59666,-46.1433 -2.57698,-65.19338 8.05512,-75.97806 4.48928,-4.55369 4.53475,-4.66801 4.20162,-10.56455 -0.18522,-3.27857 -0.0893,-5.96021 0.21324,-5.95921 1.97133,0.007 2.95,3.20824 2.95,9.65093 0,7.13504 -0.0561,7.29191 -3.56585,9.96891 -7.51535,5.73224 -10.39195,16.47181 -10.41456,38.88198 -0.0293,29.04874 6.41785,77.02307 12.14717,90.38904 2.75242,6.42113 1.61336,6.05182 -1.94904,-0.63193 z"
         id="path3240" />
      <path
         inkscape:connector-curvature="0"
         style="fill:#0b0b0b"
         d="m 583.67422,608.24702 c -5.83703,-0.85701 -12.6948,-1.16447 -17.78578,-0.7974 -8.02645,0.57872 -11.21422,-0.19177 -11.21422,-2.71052 0,-1.25465 16.44026,-1.0836 27.59378,0.28709 6.27092,0.77065 9.81272,0.82885 10.46954,0.17203 0.65681,-0.65681 -0.024,-3.16516 -2.01246,-7.41465 -3.70618,-7.92033 -6.49292,-18.59459 -7.94232,-30.42203 -1.89587,-15.47076 -1.24883,-85.51969 0.78968,-85.49175 0.33098,0.005 1.63395,1.90869 2.89548,4.23146 1.90838,3.51374 2.06123,4.39432 0.90987,5.24175 -1.85949,1.36863 -3.03147,53.58049 -1.61657,72.01854 1.14794,14.95929 4.7804,30.89165 8.48384,37.2111 2.7166,4.63552 2.91073,8.67007 0.42916,8.91884 -0.825,0.0827 -5.775,-0.4773 -11,-1.24446 z"
         id="path3238" />
      <path
         inkscape:connector-curvature="0"
         style="fill:#0b0b0b"
         d="m 324.64505,517.11154 c -0.0598,-22.03522 -1.9367,-38.02684 -5.45762,-46.5 -0.98473,-2.36977 1.97398,-2.31085 11.93903,0.23778 6.88145,1.75998 15.26648,5.62684 14.29911,6.5942 -0.19462,0.19462 -3.63639,-0.75671 -7.64839,-2.11406 -8.34855,-2.82452 -14.10296,-3.23936 -14.10296,-1.01671 0,0.79817 0.71651,4.06067 1.59224,7.25 1.04753,3.81501 1.77367,11.95664 2.12259,23.79879 0.2917,9.9 0.91695,18.74252 1.38945,19.65004 0.82077,1.57643 -0.60295,2.84996 -3.18607,2.84996 -0.50501,0 -0.93134,-4.8375 -0.94738,-10.75 z"
         id="path3232" />
      <path
         inkscape:connector-curvature="0"
         style="fill:#0b0b0b"
         d="m 646.02828,607.1297 c -14.50949,-0.24985 -18.39174,-0.60863 -19.37245,-1.79032 -1.39775,-1.68419 2.32931,-1.90529 25.26839,-1.49902 11.29183,0.19999 12.75,0.0364 12.75,-1.43033 0,-0.91088 -1.59298,-6.4174 -3.53996,-12.23671 -6.16806,-18.43564 -7.73416,-30.20412 -7.82641,-58.81178 -0.0615,-19.07962 0.3362,-27.78603 1.67952,-36.7646 2.02208,-13.51531 5.60664,-26.67019 9.19912,-33.75962 1.36825,-2.70011 2.48773,-5.669 2.48773,-6.59752 0,-1.54373 0.17119,-1.53331 2,0.12174 2.61123,2.36313 2.52257,4.3102 -0.43819,9.62405 -3.26327,5.85677 -6.9757,19.0075 -9.14812,32.40588 -1.39349,8.59431 -1.76067,16.49253 -1.69547,36.47007 0.10391,31.84029 1.02002,40.00668 6.33819,56.5 4.92486,15.27353 5.29185,17.9829 2.44359,18.04032 -1.1,0.0222 -10.16567,-0.10029 -20.14594,-0.27216 z"
         id="path3228" />
      <path
         inkscape:connector-curvature="0"
         style="fill:#0b0b0b"
         d="m 331.08701,604.36878 c -3.60064,-5.49526 -4.5857,-12.4436 -5.14017,-36.25724 -0.35496,-15.24506 -0.19588,-23.25 0.46203,-23.25 4.2365,0 19.06241,3.3963 20.26535,4.64236 1.34999,1.39839 1.09997,1.49819 -2.5,0.99795 -2.2,-0.30571 -5.8,-0.80462 -8,-1.10869 -2.2,-0.30407 -4.5539,-0.18933 -5.2309,0.25498 -0.90185,0.59188 -1.26884,6.40886 -1.37286,21.76061 -0.12512,18.46637 0.10177,21.78176 1.91195,27.9384 1.12965,3.84209 1.8959,7.14364 1.70276,7.33677 -0.19313,0.19313 -1.1373,-0.84868 -2.09816,-2.31514 z"
         id="path3226" />
      <path
         inkscape:connector-curvature="0"
         style="fill:#0b0b0b"
         d="m 395.69389,602.754 c 0.0108,-0.21585 0.68714,-3.99246 1.50292,-8.39246 4.52932,-24.42927 1.9214,-104.53714 -4.04319,-124.1955 -0.80177,-2.64247 -1.46262,-5.09309 -1.46858,-5.4458 -0.006,-0.35272 4.48918,-0.64131 9.98918,-0.64131 5.5,0 10,0.23518 10,0.52262 0,0.28744 -1.3298,4.40102 -2.9551,9.1413 -4.82074,14.05989 -6.16148,24.19456 -6.16727,46.61869 -0.003,11 0.46957,26.3 1.04982,34 0.58025,7.7 1.05894,20.19411 1.06377,27.7647 l 0.009,13.7647 3.25,1.98156 c 1.7875,1.08986 4.4875,1.98325 6,1.9853 1.5125,0.002 2.75,0.45374 2.75,1.00374 0,0.55 -1.95899,1 -4.35331,1 -2.39432,0 -7.11932,0.28911 -10.5,0.64246 -3.38068,0.35335 -6.13784,0.46585 -6.12702,0.25 z"
         id="path3224" />
      <path
         inkscape:connector-curvature="0"
         style="fill:#0b0b0b"
         d="m 436.67422,602.15509 c -13.71057,-0.42049 -16.05365,-1.21145 -8.37604,-2.8275 3.36818,-0.70896 9.61905,-2.90385 13.89083,-4.87754 4.27178,-1.97368 7.9285,-3.58851 8.12604,-3.58851 0.19754,0 0.35917,2.7 0.35917,6 0,5.61705 -0.14361,5.98675 -2.25,5.79246 -1.2375,-0.11415 -6.525,-0.33866 -11.75,-0.49891 z"
         id="path3222" />
      <path
         inkscape:connector-curvature="0"
         style="fill:#0b0b0b"
         d="m 569.8321,599.11525 c -8.34402,-0.29581 -9.26943,-0.51403 -8.66173,-2.04245 7.31963,-18.40948 11.18956,-42.42959 13.50233,-83.80693 1.20129,-21.49204 0.0945,-35.89015 -3.42976,-44.61841 -1.26897,-3.14275 -2.06606,-5.95525 -1.7713,-6.25 0.29475,-0.29476 4.07504,-0.53592 8.40063,-0.53592 5.44797,0 7.96678,0.38411 8.19686,1.25 0.18268,0.6875 0.87153,3.5 1.53078,6.25 0.65925,2.75 2.27998,7.67818 3.60163,10.95151 1.32164,3.27334 2.23672,6.11779 2.0335,6.32101 -0.20322,0.20322 -2.56589,-3.37186 -5.25038,-7.94461 -4.79192,-8.16252 -7.47415,-10.44962 -8.6528,-7.37811 -1.98985,5.18547 -2.8058,26.25066 -2.3841,61.5502 0.51459,43.0762 1.14729,48.09922 8.21888,65.25 0.61103,1.48194 0.20734,1.71821 -2.63543,1.54246 -1.84635,-0.11415 -7.56094,-0.35659 -12.69911,-0.53875 z"
         id="path3220" />
      <path
         inkscape:connector-curvature="0"
         style="fill:#0b0b0b"
         d="m 641.81777,598.11506 c -8.2943,-0.29377 -9.2944,-0.52563 -8.80982,-2.04245 0.30065,-0.94109 1.92011,-5.65998 3.59881,-10.48643 6.93865,-19.94949 9.96266,-51.47023 8.05526,-83.96419 -0.62183,-10.59325 -1.67119,-22.41045 -2.33193,-26.26045 -1.65118,-9.6212 -3.38296,-9.43221 -9.16356,1 -4.983,8.99279 -5.66504,9.4006 -2.04964,1.22556 1.34346,-3.03782 3.14716,-7.94669 4.00822,-10.90862 l 1.56555,-5.38531 10.61364,-1.26062 c 5.83751,-0.69334 10.81908,-1.05518 11.07017,-0.8041 0.25108,0.25109 -0.69673,3.6536 -2.10626,7.56114 -11.19468,31.03427 -11.45996,91.98947 -0.53847,123.73331 2.66311,7.74049 2.56076,8.37799 -1.30552,8.1311 -1.7875,-0.11415 -7.4604,-0.35667 -12.60645,-0.53894 z"
         id="path3218" />
      <path
         inkscape:connector-curvature="0"
         style="fill:#0b0b0b"
         d="m 410.3443,593.11154 c -0.24637,-0.4125 -0.50057,-7.05 -0.5649,-14.75 -0.0643,-7.7 -0.55117,-19.85 -1.08189,-27 -2.08514,-28.09146 -1.09503,-54.25374 2.61131,-69 2.00448,-7.97515 8.53607,-22.44215 10.14678,-22.47437 2.69853,-0.054 2.35033,3.36166 -1.05407,10.33994 -4.49067,9.20489 -6.44497,15.74058 -8.26322,27.63443 -1.65432,10.82149 -1.88776,34.99252 -0.53119,55 2.23511,32.9644 2.3779,41 0.72856,41 -0.84888,0 -1.745,-0.3375 -1.99138,-0.75 z"
         id="path3216" />
      <path
         inkscape:connector-curvature="0"
         style="fill:#0b0b0b"
         d="m 45.265147,582.3808 c -2.149988,-0.76613 -4.849988,-2.35942 -6,-3.54065 l -2.09093,-2.14769 4,1.69913 c 6.189445,2.62918 16.450934,2.27446 25.77105,-0.89084 4.27408,-1.45157 8.21158,-2.63921 8.75,-2.63921 0.53842,0 0.97895,1.53287 0.97895,3.40638 0,2.8076 -0.32143,3.32232 -1.82857,2.9282 -1.00571,-0.263 -4.55816,0.22913 -7.89434,1.09362 -7.409006,1.91987 -16.447449,1.95782 -21.68616,0.0911 z"
         id="path3214" />
      <path
         inkscape:connector-curvature="0"
         style="fill:#0b0b0b"
         d="m 460.92422,577.83038 c -6.36836,-2.55977 -1.17389,-2.96884 37.69911,-2.96884 l 39.94911,0 2.56974,-3.3691 c 1.70839,-2.23982 2.34215,-3.99955 1.89076,-5.25 -0.56494,-1.56498 -0.23218,-1.47371 1.98115,0.54341 1.46307,1.33338 2.66013,2.84362 2.66013,3.3561 0,0.51248 -1.38781,2.68404 -3.08403,4.82569 l -3.08403,3.8939 -39.16597,-0.0634 c -21.54128,-0.0349 -40.17847,-0.47036 -41.41597,-0.96777 z"
         id="path3212" />
      <path
         inkscape:connector-curvature="0"
         style="fill:#0b0b0b"
         d="m 43.470233,561.11154 c -3.314634,-3.83142 -2.765675,-10.47627 1.291615,-15.63428 2.583624,-3.28454 3.290713,-3.27552 4.811103,0.0614 1.022649,2.24447 0.967785,2.81811 -0.339507,3.5497 -2.663104,1.49035 -4.816344,6.80136 -4.227821,10.428 0.62539,3.85383 0.516477,3.96698 -1.53539,1.59521 z"
         id="path3208" />
      <path
         inkscape:connector-curvature="0"
         style="fill:#0b0b0b"
         d="m 462.17422,559.98549 c -3.39102,-0.89225 -9.86582,-4.09146 -9.34158,-4.6157 0.18935,-0.18935 2.81867,0.32065 5.84293,1.13333 14.35005,3.85617 28.11096,-2.71845 32.47075,-15.51371 2.18495,-6.41248 2.23689,-62.45422 0.0646,-69.67228 -0.80483,-2.67425 -1.33486,-4.99073 -1.17785,-5.14774 0.15701,-0.15701 1.37801,1.62199 2.71333,3.95334 2.40735,4.20302 2.43062,4.50479 2.75582,35.73881 0.22424,21.53788 -0.0428,33.19251 -0.84448,36.85169 -1.37042,6.2554 -6.14798,12.17019 -12.41528,15.37056 -4.41866,2.25638 -14.93342,3.25277 -20.06821,1.9017 z"
         id="path3206" />
      <path
         inkscape:connector-curvature="0"
         style="fill:#0b0b0b"
         d="m 520.67422,559.22263 c -2.475,-0.8489 -5.175,-2.2413 -6,-3.09424 -1.3416,-1.38703 -1.28903,-1.47627 0.49777,-0.84513 16.91494,5.9748 32.70682,-0.35937 37.03095,-14.85322 1.15673,-3.87718 1.4643,-11.35992 1.43863,-35 -0.0291,-26.81085 -0.23718,-30.66437 -1.92052,-35.5685 l -1.88789,-5.5 2.43273,3 c 1.33799,1.65 2.85486,4.575 3.37082,6.5 0.51595,1.925 1.05403,18.125 1.19572,36 0.23146,29.20045 0.0788,32.9061 -1.50335,36.5 -4.01816,9.12722 -12.82746,14.50574 -23.65486,14.44249 -3.575,-0.0209 -8.525,-0.73251 -11,-1.5814 z"
         id="path3204" />
      <path
         inkscape:connector-curvature="0"
         style="fill:#0b0b0b"
         d="m 56.924217,553.92405 c -1.7875,-1.11821 -3.25,-2.20945 -3.25,-2.42497 0,-0.21553 1.974018,-0.16937 4.386708,0.10258 3.954615,0.44574 4.767243,0.14579 8.250002,-3.0452 3.63751,-3.33278 3.86329,-3.88023 3.86329,-9.36728 0,-3.2052 -0.3487,-6.77988 -0.77488,-7.94373 -0.68202,-1.86246 -0.47098,-2.05798 1.76072,-1.63137 2.8762,0.54982 3.13549,1.35005 4.04941,12.49746 0.57414,7.00292 0.46374,7.75 -1.14521,7.75 -0.97933,0 -2.97248,1.14189 -4.42922,2.53754 -3.65551,3.5022 -8.60158,4.0956 -12.71082,1.52497 z"
         id="path3202" />
      <path
         inkscape:connector-curvature="0"
         style="fill:#0b0b0b"
         d="m 451.1773,546.56462 c -1.81331,-1.81331 -3.7908,-5.07581 -4.39443,-7.25 -0.68253,-2.4584 -1.0975,-15.10721 -1.0975,-33.45308 0,-18.34587 0.41497,-30.99468 1.0975,-33.45308 0.60363,-2.17419 2.58112,-5.43669 4.39443,-7.25 3.75623,-3.75623 7.10174,-4.63408 3.64735,-0.95705 -1.20901,1.28693 -2.63745,3.87146 -3.17431,5.7434 -1.22268,4.26322 -1.25368,66.01503 -0.0358,71.26338 0.49095,2.11566 1.90866,4.92816 3.15046,6.25 3.49112,3.71613 0.20303,2.89718 -3.58772,-0.89357 z"
         id="path3200" />
      <path
         inkscape:connector-curvature="0"
         style="fill:#0b0b0b"
         d="m 479.20436,546.22199 2.46986,-3.63954 0,-36.72091 0,-36.72091 -2.46986,-3.63954 c -2.82051,-4.15626 -2.01908,-4.7488 1.72711,-1.27695 6.19353,5.73997 6.24275,6.06828 6.24275,41.6374 0,31.53812 -0.0649,32.62126 -2.19239,36.59725 -1.85855,3.47332 -5.9682,7.40275 -7.74229,7.40275 -0.27778,0 0.60639,-1.6378 1.96482,-3.63955 z"
         id="path3198" />
      <path
         inkscape:connector-curvature="0"
         style="fill:#0b0b0b"
         d="m 513.18345,547.69014 c -1.51827,-1.19427 -3.59407,-4.00677 -4.6129,-6.25 -1.67768,-3.6939 -1.85241,-7.04972 -1.85241,-35.5786 0,-28.52888 0.17473,-31.8847 1.85241,-35.5786 1.78757,-3.93585 6.26857,-8.4214 8.41284,-8.4214 0.5717,0 0.0503,1.05294 -1.15874,2.33987 -1.20901,1.28693 -2.63745,3.87146 -3.17431,5.7434 -0.54502,1.90038 -0.97612,17.76277 -0.97612,35.91673 0,18.15396 0.4311,34.01635 0.97612,35.91673 0.53686,1.87194 1.9653,4.45647 3.17431,5.7434 2.76596,2.94422 1.02849,3.05505 -2.6412,0.16847 z"
         id="path3196" />
      <path
         inkscape:connector-curvature="0"
         style="fill:#0b0b0b"
         d="m 540.20436,546.22199 2.46986,-3.63954 0,-36.72091 0,-36.72091 -2.51374,-3.70419 -2.51373,-3.7042 2.91948,1.72458 c 1.60571,0.94852 3.97439,3.56511 5.26373,5.81465 2.32703,4.06 2.34426,4.329 2.34426,36.59007 0,35.56912 -0.0492,35.89743 -6.24275,41.6374 -3.74619,3.47185 -4.54762,2.87931 -1.72711,-1.27695 z"
         id="path3194" />
      <path
         inkscape:connector-curvature="0"
         style="fill:#0b0b0b"
         d="m 92.670167,545.11154 c -0.002,-0.9625 -0.71493,-15.475 -1.58378,-32.25 -0.89334,-17.24784 -1.30062,-35.20427 -0.93736,-41.32694 0.45676,-7.69865 0.30112,-11.23812 -0.53867,-12.25 -1.93656,-2.33342 1.30965,-1.77437 3.9431,0.67906 1.50272,1.4 2.01057,2.65252 1.52047,3.75 -2.49421,5.58523 -0.56631,76.08896 2.1652,79.18235 1.15523,1.30828 1.06805,1.71366 -0.5914,2.75 -2.70441,1.68893 -3.97281,1.51849 -3.97756,-0.53447 z"
         id="path3192" />
      <path
         inkscape:connector-curvature="0"
         style="fill:#0b0b0b"
         d="m 457.92422,543.17728 c -0.93571,-1.63506 -1.25,-11.1381 -1.25,-37.79545 l 0,-35.6112 2.38827,-2.38827 c 3.38364,-3.38364 8.53721,-4.1454 12.74025,-1.88315 l 3.37148,1.81466 -5.24998,0.55159 c -3.58776,0.37695 -5.96237,1.26362 -7.5,2.80046 -2.23075,2.2296 -2.2543,2.55917 -2.75002,38.47224 -0.4094,29.65986 -0.72649,35.8276 -1.75,34.03912 z"
         id="path3190" />
      <path
         inkscape:connector-curvature="0"
         style="fill:#0b0b0b"
         d="m 518.67422,542.86154 c -1.23782,-2.06303 -1.5481,-8.35536 -1.7752,-36 -0.31733,-38.63005 -0.19795,-39.29934 7.48386,-41.95492 3.78437,-1.30825 4.56569,-1.28468 7.75,0.23382 4.75213,2.26613 4.46334,3.30884 -0.80046,2.89019 -3.49385,-0.27787 -4.90977,0.14304 -7.25,2.15521 l -2.9082,2.50053 -0.5,36.33758 c -0.45242,32.87939 -0.64275,36.09967 -2,33.83759 z"
         id="path3188" />
      <path
         inkscape:connector-curvature="0"
         style="fill:#0b0b0b"
         d="m 600.40124,540.1124 c -0.94986,-1.04959 -1.72702,-2.09791 -1.72702,-2.3296 0,-0.65203 4.53739,-0.97418 16.25,-1.15373 12.4754,-0.19125 12.05591,0.34238 8.62088,-10.96673 -3.01905,-9.93955 -2.26758,-15.18209 3.93654,-27.46278 2.73356,-5.41091 6.08511,-11.77946 7.44789,-14.15233 2.30228,-4.00871 2.52169,-4.15038 3.09759,-2 0.34088,1.27287 0.62594,4.17433 0.63345,6.44768 0.0102,3.093 -0.42682,4.25512 -1.73635,4.6171 -0.97258,0.26884 -3.67046,4.32217 -6.07303,9.1242 -5.62483,11.24237 -6.18625,16.32679 -3.05108,27.63187 1.29549,4.6714 2.35964,8.94346 2.36477,9.49346 0.006,0.60487 -4.33711,1.01158 -10.99066,1.02931 -6.05,0.0161 -12.36034,0.38944 -14.02298,0.8296 -2.3797,0.62998 -3.39048,0.39419 -4.75,-1.10805 z"
         id="path3186" />
      <path
         inkscape:connector-curvature="0"
         style="fill:#0b0b0b"
         d="m 348.44973,536.79572 c -1.52146,-0.88669 -0.9558,-1.9721 4.80477,-9.21959 3.59109,-4.51803 8.64211,-12.44815 11.22449,-17.62249 l 4.69523,-9.4079 -0.0728,-10.5921 c -0.0562,-8.18299 -0.55751,-11.91905 -2.2039,-16.42629 -2.80834,-7.68823 -0.20181,-5.76216 2.9438,2.17529 1.85154,4.67206 2.25049,7.66435 2.28776,17.1589 l 0.0451,11.5 -4.26165,8.5 c -2.3439,4.675 -6.7314,11.7833 -9.75,15.79623 -3.01859,4.01292 -5.48835,7.72542 -5.48835,8.25 0,1.22608 -2.02034,1.17249 -4.22449,-0.11205 z"
         id="path3184" />
      <path
         inkscape:connector-curvature="0"
         style="fill:#0b0b0b"
         d="m 605.67422,529.5452 c 0,-0.72399 0.46354,-3.82384 1.03008,-6.88855 0.66934,-3.62082 0.69802,-7.05008 0.0819,-9.7923 l -0.94819,-4.22008 2.72283,2.60863 c 3.60012,3.44914 4.713,3.29595 6.89053,-0.9485 l 1.82492,-3.55714 -0.39961,6.30714 c -0.23522,3.71238 0.21898,8.6727 1.10403,12.05714 l 1.50366,5.75 -6.90507,0 c -5.043,0 -6.90508,-0.35498 -6.90508,-1.31634 z"
         id="path3182" />
      <path
         inkscape:connector-curvature="0"
         style="fill:#0b0b0b"
         d="m 178.21,517.61154 c -0.94239,-5.52001 -2.53488,-24.95513 -2.51963,-30.75 0.0202,-7.69165 0.75931,-8.49725 7.70886,-8.40283 7.35874,0.1 17.44375,3.31747 28.13788,8.97702 8.05135,4.26094 11.11322,5.26959 11.15835,3.67581 0.0117,-0.4125 0.15645,-6.25728 0.32172,-12.98839 0.29854,-12.15879 0.65248,-14.0005 2.47423,-12.87459 1.34246,0.82968 0.7624,29.91978 -0.6057,30.37582 -0.5856,0.1952 -2.84081,-0.7663 -5.01159,-2.13665 -10.37488,-6.54937 -24.67975,-11.62619 -32.75896,-11.62619 -7.74566,0 -7.84567,0.26921 -7.16447,19.28582 0.31944,8.9178 0.88607,17.00168 1.25916,17.96418 0.46871,1.20919 0.19573,1.75 -0.88333,1.75 -0.98141,0 -1.76784,-1.20759 -2.11652,-3.25 z"
         id="path3180" />
      <path
         inkscape:connector-curvature="0"
         style="fill:#0b0b0b"
         d="m 607.3276,500.65934 c -8.45069,-13.2341 -14.62211,-28.30444 -15.57003,-38.02133 l -0.65591,-6.72353 2.2269,2.09205 c 1.71754,1.61355 2.20578,3.15138 2.13462,6.72353 -0.0545,2.73452 1.00925,7.6682 2.59713,12.04571 3.72902,10.2803 11.52852,25.08577 13.21515,25.08577 1.59326,0 1.9006,2.57181 0.41691,3.48878 -0.54001,0.33375 -2.50416,-1.77719 -4.36477,-4.69098 z"
         id="path3178" />
    </g>
  </g>
</svg>
