<?xml version="1.0" encoding="UTF-8" standalone="no"?>
<!-- Created with Inkscape (http://www.inkscape.org/) -->

<svg
   xmlns:dc="http://purl.org/dc/elements/1.1/"
   xmlns:cc="http://creativecommons.org/ns#"
   xmlns:rdf="http://www.w3.org/1999/02/22-rdf-syntax-ns#"
   xmlns:svg="http://www.w3.org/2000/svg"
   xmlns="http://www.w3.org/2000/svg"
   xmlns:sodipodi="http://sodipodi.sourceforge.net/DTD/sodipodi-0.dtd"
   xmlns:inkscape="http://www.inkscape.org/namespaces/inkscape"
   width="3in"
   height="2.5in"
   viewBox="0 0 270 225.00001"
   id="svg2"
   version="1.1"
   inkscape:version="0.91 r13725"
   sodipodi:docname="hiking_plan.svg">
  <defs
     id="defs4" />
  <sodipodi:namedview
     id="base"
     pagecolor="#ffffff"
     bordercolor="#666666"
     borderopacity="1.0"
     inkscape:pageopacity="0.0"
     inkscape:pageshadow="2"
     inkscape:zoom="3.7066667"
     inkscape:cx="135"
     inkscape:cy="112.5"
     inkscape:document-units="px"
     inkscape:current-layer="layer1"
     showgrid="false"
     units="in"
     inkscape:window-width="1920"
     inkscape:window-height="1019"
     inkscape:window-x="1920"
     inkscape:window-y="29"
     inkscape:window-maximized="1" />
  <metadata
     id="metadata7">
    <rdf:RDF>
      <cc:Work
         rdf:about="">
        <dc:format>image/svg+xml</dc:format>
        <dc:type
           rdf:resource="http://purl.org/dc/dcmitype/StillImage" />
        <dc:title></dc:title>
      </cc:Work>
    </rdf:RDF>
  </metadata>
  <g
     inkscape:label="Layer 1"
     inkscape:groupmode="layer"
     id="layer1"
     transform="translate(0,-827.36215)">
    <path
       style="fill:none;fill-rule:evenodd;stroke:#888888;stroke-width:0.50000004;stroke-linecap:butt;stroke-linejoin:miter;stroke-opacity:0.19607843;stroke-miterlimit:4;stroke-dasharray:none"
       d="m 215.82732,914.77222 c -7.82374,-14.83813 -46.40288,-21.85252 -59.89209,-21.85252 -13.48921,0 -60.431648,4.04677 -71.223015,11.33094 -10.791367,7.28417 -36.420863,25.89928 -40.197842,35.34173 -3.776978,9.44244 -19.42446,47.21223 10.791367,55.84532 30.215828,8.63311 73.92086,29.40651 82.82374,31.29501 8.90287,1.8884 61.78057,2.9676 67.98561,1.6187 6.20503,-1.349 27.78777,-11.331 27.78777,-11.331"
       id="path4194"
       inkscape:connector-curvature="0" />
    <path
       style="fill:none;fill-rule:evenodd;stroke:#888888;stroke-width:0.50000004;stroke-linecap:butt;stroke-linejoin:miter;stroke-opacity:0.19607843;stroke-miterlimit:4;stroke-dasharray:none"
       d="m 168.07552,905.32978 c -21.58273,-4.04677 -35.61151,-5.39569 -52.60791,-1.88849 -16.996402,3.50719 -32.104316,16.72662 -36.960431,23.741 -4.856115,7.01439 -16.18705,35.34173 -16.18705,41.81655 0,6.47482 28.327338,33.99286 33.453237,36.42086 5.125894,2.4281 31.294964,8.6331 31.294964,8.6331"
       id="path4196"
       inkscape:connector-curvature="0" />
    <path
       style="fill:none;fill-rule:evenodd;stroke:#888888;stroke-width:0.62500006;stroke-linecap:butt;stroke-linejoin:miter;stroke-miterlimit:4;stroke-dasharray:none;stroke-dashoffset:0;stroke-opacity:0.19607843"
       d="m 253.82749,827.67701 c -4.79551,4.4004 -23.28204,21.89226 -25.951,29.62175 -2.05587,11.34301 -7.75727,21.81699 -26.21811,22.45946 -24.92336,1.01343 -62.79636,5.80378 -87.71973,6.81722 -28.219825,5.47435 -72.066944,24.17841 -88.742527,63.18115 -0.942308,23.72622 -5.530215,38.892 28.160152,55.48451 39.040478,15.3189 74.739125,31.351 126.235205,28.1224 59.16006,-0.6987 74.94993,-22.1941 77.57693,-61.02553 2.25139,-18.95055 -6.69664,-39.38747 -27.62425,-60.45996 -19.0253,-26.70163 33.25481,-56.30527 40.35591,-57.08779"
       id="path4151-1"
       inkscape:connector-curvature="0"
       sodipodi:nodetypes="cccccccccc" />
    <path
       style="fill:none;fill-rule:evenodd;stroke:#888888;stroke-width:0.62500006;stroke-linecap:butt;stroke-linejoin:miter;stroke-opacity:0.19607843;stroke-miterlimit:4;stroke-dasharray:none"
       d="m 210.43163,827.63193 c 0,0 -0.80935,14.02878 -9.17266,22.12231 -8.36331,8.09352 -71.76259,11.60072 -86.8705,10.79136 -15.107909,-0.80935 -69.874097,-0.26978 -78.50719,6.74461 -8.633094,7.01439 -36.15107943,33.72302 -36.15107943,33.72302"
       id="path4188"
       inkscape:connector-curvature="0" />
    <path
       style="fill:none;fill-rule:evenodd;stroke:#888888;stroke-width:0.62500006;stroke-linecap:butt;stroke-linejoin:miter;stroke-opacity:0.19607843;stroke-miterlimit:4;stroke-dasharray:none"
       d="m 159.71221,827.36215 c -4.58633,9.44245 -50.17986,18.61511 -52.33813,18.88489 -2.15827,0.26979 -25.899275,9.71223 -38.039563,2.96763 C 57.19423,842.47006 46.942431,827.63193 46.942431,827.63193"
       id="path4190"
       inkscape:connector-curvature="0" />
    <path
       style="fill:none;fill-rule:evenodd;stroke:#888888;stroke-width:0.62500006;stroke-linecap:butt;stroke-linejoin:miter;stroke-opacity:0.19607843;stroke-miterlimit:4;stroke-dasharray:none"
       d="m 0.26976891,1016.2111 c 27.78777009,2.6978 66.36690709,36.1511 66.36690709,36.1511"
       id="path4192"
       inkscape:connector-curvature="0" />
    <path
       sodipodi:nodetypes="ccccccc"
       inkscape:connector-curvature="0"
       id="path4180"
       d="m 214.07307,925.8972 c -22.78985,-9.31666 -43.57624,-13.03291 -78.67265,-6.44437 -12.19729,5.98409 -32.40819,23.16906 -36.591899,51.55491 2.236549,27.6299 19.927829,28.60168 39.336319,36.51806 27.50015,8.3032 59.29325,14.8145 85.07619,0.716 16.68809,-14.77938 22.50054,-27.99071 18.29602,-54.41904 -5.71357,-10.87664 -12.57198,-19.73711 -27.44398,-27.92556 z"
       style="fill:none;fill-rule:evenodd;stroke:#888888;stroke-width:0.62500006;stroke-linecap:butt;stroke-linejoin:miter;stroke-miterlimit:4;stroke-dasharray:none;stroke-opacity:0.19607843" />
    <path
       style="fill:none;fill-rule:evenodd;stroke:#888888;stroke-width:0.62500006;stroke-linecap:butt;stroke-linejoin:miter;stroke-miterlimit:4;stroke-dasharray:none;stroke-opacity:0.19607843"
       d="m 211.37262,939.4675 c -19.44804,-6.90353 -37.18643,-9.65723 -67.13646,-4.77521 -10.40873,4.43414 -27.656,17.16801 -31.22623,38.2016 1.90859,20.47344 17.00571,21.19352 33.56822,27.05948 23.46766,6.15263 50.59877,10.97733 72.60102,0.53053 14.24103,-10.95134 19.20116,-20.74079 15.61318,-40.32389 -4.87576,-8.05946 -10.72849,-14.62496 -23.41973,-20.69251 z"
       id="path4182"
       inkscape:connector-curvature="0"
       sodipodi:nodetypes="ccccccc" />
    <path
       sodipodi:nodetypes="ccccccc"
       inkscape:connector-curvature="0"
       id="path4184"
       d="m 201.60503,944.00539 c -13.94627,-5.1422 -26.66653,-7.19333 -48.14382,-3.55688 -7.46414,3.30284 -19.83222,12.78785 -22.39244,28.45504 1.36865,15.24994 12.19486,15.7863 24.07189,20.15564 16.82875,4.58285 36.28458,8.17664 52.06247,0.3952 10.21229,-8.15729 13.76923,-15.44911 11.19627,-30.03586 -3.49642,-6.00322 -7.69343,-10.89363 -16.79437,-15.41314 z"
       style="fill:none;fill-rule:evenodd;stroke:#888888;stroke-width:0.62500006;stroke-linecap:butt;stroke-linejoin:miter;stroke-miterlimit:4;stroke-dasharray:none;stroke-opacity:0.19607843" />
    <path
       style="fill:none;fill-rule:evenodd;stroke:#888888;stroke-width:0.62500006;stroke-linecap:butt;stroke-linejoin:miter;stroke-miterlimit:4;stroke-dasharray:none;stroke-opacity:0.19607843"
       d="m 190.82708,959.52472 c -6.34855,-1.56455 -12.13899,-2.18862 -21.91576,-1.08221 -3.3978,1.00492 -9.02791,3.89081 -10.19337,8.65766 0.62303,4.63991 5.55128,4.8031 10.95788,6.13251 7.66069,1.39436 16.51725,2.4878 23.69959,0.12025 4.64878,-2.48192 6.26795,-4.70051 5.0967,-9.13864 -1.59163,-1.82652 -3.50216,-3.31447 -7.64504,-4.68957 z"
       id="path4186"
       inkscape:connector-curvature="0"
       sodipodi:nodetypes="ccccccc" />
    <path
       style="fill:none;fill-rule:evenodd;stroke:#000000;stroke-width:1.00000012;stroke-linecap:butt;stroke-linejoin:miter;stroke-miterlimit:4;stroke-dasharray:none;stroke-opacity:1"
       d="m 222.60509,917.92527 c -27.28526,-11.15442 -52.17187,-15.60371 -94.19121,-7.71555 -14.60327,7.16448 -38.800877,27.73927 -43.809837,61.72437 2.67771,33.08001 23.858697,34.24351 47.095607,43.72141 32.92469,9.9411 70.98913,17.7367 101.85789,0.8573 19.97989,-17.69474 26.93888,-33.51206 21.905,-65.15351 -6.84061,-13.02211 -15.05187,-23.63036 -32.85745,-33.43402 z"
       id="path4149"
       inkscape:connector-curvature="0"
       sodipodi:nodetypes="ccccccc" />
    <path
       style="fill:none;fill-rule:evenodd;stroke:#000000;stroke-width:1.00000012;stroke-linecap:butt;stroke-linejoin:miter;stroke-miterlimit:4;stroke-dasharray:none;stroke-opacity:1"
       d="m 231.43027,827.5805 c -5.40892,4.96326 -11.48148,13.42742 -14.49184,22.14559 -2.31882,12.7939 -8.7495,21.56469 -29.57168,22.28933 -28.11132,1.14306 -56.22266,2.28607 -84.33398,3.42914 -31.829464,6.17458 -79.763634,34.87839 -98.5722043,78.87001 -1.06284,26.76106 -6.23759,43.86673 31.7621403,62.58163 44.03417,17.2783 84.299064,35.3612 142.382044,31.7195 58.81567,-8.3953 74.79949,-25.6415 77.76251,-69.43993 2.53936,-21.37454 0.96695,-48.38136 -9.85722,-74.5836 -21.45884,-30.11705 16.06995,-30.47118 24.07936,-31.3538"
       id="path4151"
       inkscape:connector-curvature="0"
       sodipodi:nodetypes="cccccccccc" />
    <text
       xml:space="preserve"
       style="font-style:normal;font-variant:normal;font-weight:normal;font-stretch:normal;font-size:15px;line-height:125%;font-family:serif;-inkscape-font-specification:'serif, Normal';text-align:start;letter-spacing:0px;word-spacing:0px;writing-mode:lr-tb;text-anchor:start;fill:#000000;fill-opacity:1;stroke:none;stroke-width:1px;stroke-linecap:butt;stroke-linejoin:miter;stroke-opacity:1"
       x="133.80214"
       y="923.13556"
       id="text4153"
       sodipodi:linespacing="125%"><tspan
         sodipodi:role="line"
         id="tspan4155"
         x="133.80214"
         y="923.13556">Indiana</tspan></text>
    <text
       xml:space="preserve"
       style="font-style:normal;font-variant:normal;font-weight:normal;font-stretch:normal;font-size:15px;line-height:125%;font-family:serif;-inkscape-font-specification:'serif, Normal';text-align:start;letter-spacing:0px;word-spacing:0px;writing-mode:lr-tb;text-anchor:start;fill:#000000;fill-opacity:1;stroke:none;stroke-width:1px;stroke-linecap:butt;stroke-linejoin:miter;stroke-opacity:1"
       x="40.737396"
       y="916.93048"
       id="text4157"
       sodipodi:linespacing="125%"><tspan
         sodipodi:role="line"
         id="tspan4159"
         x="40.737396"
         y="916.93048">Midwest</tspan></text>
    <text
       xml:space="preserve"
       style="font-style:normal;font-variant:normal;font-weight:normal;font-stretch:normal;font-size:15px;line-height:125%;font-family:serif;-inkscape-font-specification:'serif, Normal';text-align:start;letter-spacing:0px;word-spacing:0px;writing-mode:lr-tb;text-anchor:start;fill:#000000;fill-opacity:1;stroke:none;stroke-width:1px;stroke-linecap:butt;stroke-linejoin:miter;stroke-opacity:1"
       x="7.0143733"
       y="843.54919"
       id="text4161"
       sodipodi:linespacing="125%"><tspan
         sodipodi:role="line"
         id="tspan4163"
         x="7.0143733"
         y="843.54919">Other Places</tspan></text>
  </g>
</svg>
