<?xml version="1.0" encoding="utf-8" standalone="no"?>
<!DOCTYPE svg PUBLIC "-//W3C//DTD SVG 1.1//EN"
  "http://www.w3.org/Graphics/SVG/1.1/DTD/svg11.dtd">
<!-- Created with matplotlib (http://matplotlib.org/) -->
<svg height="129pt" version="1.1" viewBox="0 0 469 129" width="469pt" xmlns="http://www.w3.org/2000/svg" xmlns:xlink="http://www.w3.org/1999/xlink">
 <defs>
  <style type="text/css">
*{stroke-linecap:butt;stroke-linejoin:round;stroke-miterlimit:100000;}
  </style>
 </defs>
 <g id="figure_1">
  <g id="patch_1">
   <path d="M 0 129.15625 
L 469.53 129.15625 
L 469.53 0 
L 0 0 
L 0 129.15625 
z
" style="fill:none;"/>
  </g>
  <g id="axes_1">
   <g id="patch_2">
    <path d="M 49.41 97.47125 
L 462.33 97.47125 
L 462.33 11.07125 
L 49.41 11.07125 
L 49.41 97.47125 
z
" style="fill:none;"/>
   </g>
   <g id="PolyCollection_1">
    <defs>
     <path d="M 49.607749 -53.596538 
L 49.607749 -31.685 
L 56.923897 -31.685 
L 61.817762 -31.685 
L 63.696283 -31.685 
L 75.16497 -31.685 
L 78.97131 -31.685 
L 82.777834 -31.685 
L 88.462694 -31.685 
L 93.356559 -31.685 
L 96.026075 -31.685 
L 104.825061 -31.685 
L 111.597632 -31.685 
L 118.024004 -31.685 
L 123.560599 -31.685 
L 125.389636 -31.685 
L 129.195975 -31.685 
L 132.804751 -31.685 
L 136.363859 -31.685 
L 140.219682 -31.685 
L 141.949937 -31.685 
L 143.976723 -31.685 
L 145.608011 -31.685 
L 151.292871 -31.685 
L 153.023127 -31.685 
L 155.049913 -31.685 
L 160.586507 -31.685 
L 166.122917 -31.685 
L 175.416553 -31.685 
L 180.903664 -31.685 
L 182.831668 -31.685 
L 186.539041 -31.685 
L 190.246784 -31.685 
L 194.053123 -31.685 
L 197.612416 -31.685 
L 199.342486 -31.685 
L 201.616504 -31.685 
L 206.757416 -31.685 
L 210.613424 -31.685 
L 217.979056 -31.685 
L 221.686614 -31.685 
L 225.394172 -31.685 
L 229.200511 -31.685 
L 232.759619 -31.685 
L 235.478618 -31.685 
L 237.357138 -31.685 
L 239.136692 -31.685 
L 242.003586 -31.685 
L 249.418887 -31.685 
L 253.373491 -31.685 
L 255.004965 -31.685 
L 257.822561 -31.685 
L 262.370597 -31.685 
L 264.397383 -31.685 
L 269.093499 -31.685 
L 272.99862 -31.685 
L 281.056466 -31.685 
L 286.543577 -31.685 
L 288.372614 -31.685 
L 297.468501 -31.685 
L 299.544771 -31.685 
L 307.009184 -31.685 
L 312.496296 -31.685 
L 319.812444 -31.685 
L 327.375825 -31.685 
L 336.471712 -31.685 
L 338.498498 -31.685 
L 342.057605 -31.685 
L 343.985609 -31.685 
L 349.472721 -31.685 
L 358.716873 -31.685 
L 368.010324 -31.685 
L 369.987626 -31.685 
L 375.474923 -31.685 
L 377.204993 -31.685 
L 379.231594 -31.685 
L 382.890039 -31.685 
L 388.475932 -31.685 
L 395.79208 -31.685 
L 403.207196 -31.685 
L 405.036047 -31.685 
L 416.109422 -31.685 
L 417.888976 -31.685 
L 427.232096 -31.685 
L 431.087919 -31.685 
L 436.673812 -31.685 
L 439.738825 -31.685 
L 446.016746 -31.685 
L 449.576038 -31.685 
L 455.162117 -31.685 
L 456.94167 -31.685 
L 462.33 -31.685 
L 462.33 -76.754231 
L 462.33 -76.754231 
L 456.94167 -83.66 
L 455.162117 -89.06 
L 449.576038 -96.588846 
L 446.016746 -105.779231 
L 439.738825 -110.088846 
L 436.673812 -104.636923 
L 431.087919 -94.356154 
L 427.232096 -89.579231 
L 417.888976 -88.021538 
L 416.109422 -89.994615 
L 405.036047 -90.513846 
L 403.207196 -91.915769 
L 395.79208 -102.819615 
L 388.475932 -88.333077 
L 382.890039 -83.608077 
L 379.231594 -89.890769 
L 377.204993 -93.629231 
L 375.474923 -96.329231 
L 369.987626 -89.06 
L 368.010324 -88.904231 
L 358.716873 -77.688846 
L 349.472721 -88.333077 
L 343.985609 -97.004231 
L 342.057605 -92.227308 
L 338.498498 -91.085 
L 336.471712 -85.840769 
L 327.375825 -97.004231 
L 319.812444 -88.852308 
L 312.496296 -78.727308 
L 307.009184 -74.936923 
L 299.544771 -78.623462 
L 297.468501 -79.142692 
L 288.372614 -94.200385 
L 286.543577 -95.965769 
L 281.056466 -87.917692 
L 272.99862 -89.994615 
L 269.093499 -84.646538 
L 264.397383 -83.452308 
L 262.370597 -81.738846 
L 257.822561 -77.429231 
L 255.004965 -76.494615 
L 253.373491 -74.833077 
L 249.418887 -73.898462 
L 242.003586 -84.075385 
L 239.136692 -86.827308 
L 237.357138 -89.111923 
L 235.478618 -89.942692 
L 232.759619 -88.852308 
L 229.200511 -83.036923 
L 225.394172 -81.427308 
L 221.686614 -79.142692 
L 217.979056 -84.542692 
L 210.613424 -73.275385 
L 206.757416 -76.494615 
L 201.616504 -84.335 
L 199.342486 -87.450385 
L 197.612416 -90.513846 
L 194.053123 -87.450385 
L 190.246784 -80.804231 
L 186.539041 -83.140769 
L 182.831668 -87.190769 
L 180.903664 -85.165769 
L 175.416553 -86.256154 
L 166.122917 -81.323462 
L 160.586507 -79.090769 
L 155.049913 -72.756154 
L 153.023127 -72.288846 
L 151.292871 -75.404231 
L 145.608011 -81.167692 
L 143.976723 -83.452308 
L 141.949937 -81.635 
L 140.219682 -78.779231 
L 136.363859 -85.685 
L 132.804751 -83.608077 
L 129.195975 -84.542692 
L 125.389636 -86.619615 
L 123.560599 -83.556154 
L 118.024004 -90.929231 
L 111.597632 -84.283077 
L 104.825061 -79.142692 
L 96.026075 -78.727308 
L 93.356559 -78.571538 
L 88.462694 -77.688846 
L 82.777834 -82.985 
L 78.97131 -84.075385 
L 75.16497 -82.413846 
L 63.696283 -70.627308 
L 61.817762 -69.536923 
L 56.923897 -64.500385 
L 49.607749 -53.596538 
z
" id="me84ae7f335"/>
    </defs>
    <g clip-path="url(#pc8c9de3ace)">
     <use style="fill:#ff0000;fill-opacity:0.2;" x="0.0" xlink:href="#me84ae7f335" y="129.15625"/>
    </g>
   </g>
   <g id="patch_3">
    <path clip-path="url(#pc8c9de3ace)" d="M 49.41 97.47125 
L 49.41 97.47125 
z
" style="fill:#ff0000;opacity:0.5;stroke:#000000;stroke-linejoin:miter;"/>
   </g>
   <g id="line2d_1">
    <path clip-path="url(#pc8c9de3ace)" d="M 49.607749 75.559712 
L 56.923897 64.655865 
L 61.817762 59.619327 
L 63.696283 58.528942 
L 75.16497 46.742404 
L 78.97131 45.080865 
L 82.777834 46.17125 
L 88.462694 51.467404 
L 93.356559 50.584712 
L 96.026075 50.428942 
L 104.825061 50.013558 
L 111.597632 44.873173 
L 118.024004 38.227019 
L 123.560599 45.600096 
L 125.389636 42.536635 
L 129.195975 44.613558 
L 132.804751 45.548173 
L 136.363859 43.47125 
L 140.219682 50.377019 
L 141.949937 47.52125 
L 143.976723 45.703942 
L 145.608011 47.988558 
L 151.292871 53.752019 
L 153.023127 56.867404 
L 155.049913 56.400096 
L 160.586507 50.065481 
L 166.122917 47.832788 
L 175.416553 42.900096 
L 180.903664 43.990481 
L 182.831668 41.965481 
L 186.539041 46.015481 
L 190.246784 48.352019 
L 194.053123 41.705865 
L 197.612416 38.642404 
L 199.342486 41.705865 
L 201.616504 44.82125 
L 206.757416 52.661635 
L 210.613424 55.880865 
L 217.979056 44.613558 
L 221.686614 50.013558 
L 225.394172 47.728942 
L 229.200511 46.119327 
L 232.759619 40.303942 
L 235.478618 39.213558 
L 237.357138 40.044327 
L 239.136692 42.328942 
L 242.003586 45.080865 
L 249.418887 55.257788 
L 253.373491 54.323173 
L 255.004965 52.661635 
L 257.822561 51.727019 
L 262.370597 47.417404 
L 264.397383 45.703942 
L 269.093499 44.509712 
L 272.99862 39.161635 
L 281.056466 41.238558 
L 286.543577 33.190481 
L 288.372614 34.955865 
L 297.468501 50.013558 
L 299.544771 50.532788 
L 307.009184 54.219327 
L 312.496296 50.428942 
L 319.812444 40.303942 
L 327.375825 32.152019 
L 336.471712 43.315481 
L 338.498498 38.07125 
L 342.057605 36.928942 
L 343.985609 32.152019 
L 349.472721 40.823173 
L 358.716873 51.467404 
L 368.010324 40.252019 
L 369.987626 40.09625 
L 375.474923 32.827019 
L 377.204993 35.527019 
L 379.231594 39.265481 
L 382.890039 45.548173 
L 388.475932 40.823173 
L 395.79208 26.336635 
L 403.207196 37.240481 
L 405.036047 38.642404 
L 416.109422 39.161635 
L 417.888976 41.134712 
L 427.232096 39.577019 
L 431.087919 34.800096 
L 436.673812 24.519327 
L 439.738825 19.067404 
L 446.016746 23.377019 
L 449.576038 32.567404 
L 455.162117 40.09625 
L 456.94167 45.49625 
L 462.33 52.402019 
" style="fill:none;stroke:#ff0000;"/>
    <defs>
     <path d="M 0 1.5 
C 0.397805 1.5 0.77937 1.341951 1.06066 1.06066 
C 1.341951 0.77937 1.5 0.397805 1.5 0 
C 1.5 -0.397805 1.341951 -0.77937 1.06066 -1.06066 
C 0.77937 -1.341951 0.397805 -1.5 0 -1.5 
C -0.397805 -1.5 -0.77937 -1.341951 -1.06066 -1.06066 
C -1.341951 -0.77937 -1.5 -0.397805 -1.5 0 
C -1.5 0.397805 -1.341951 0.77937 -1.06066 1.06066 
C -0.77937 1.341951 -0.397805 1.5 0 1.5 
z
" id="mb46b558899" style="stroke:#ff0000;stroke-width:0.5;"/>
    </defs>
    <g clip-path="url(#pc8c9de3ace)">
     <use style="fill:#ff0000;stroke:#ff0000;stroke-width:0.5;" x="49.6077487683" xlink:href="#mb46b558899" y="75.55971158"/>
     <use style="fill:#ff0000;stroke:#ff0000;stroke-width:0.5;" x="56.9238972005" xlink:href="#mb46b558899" y="64.65586526"/>
     <use style="fill:#ff0000;stroke:#ff0000;stroke-width:0.5;" x="61.8177622198" xlink:href="#mb46b558899" y="59.61932684"/>
     <use style="fill:#ff0000;stroke:#ff0000;stroke-width:0.5;" x="63.6962828528" xlink:href="#mb46b558899" y="58.5289421"/>
     <use style="fill:#ff0000;stroke:#ff0000;stroke-width:0.5;" x="75.1649700876" xlink:href="#mb46b558899" y="46.74240368"/>
     <use style="fill:#ff0000;stroke:#ff0000;stroke-width:0.5;" x="78.9713095471" xlink:href="#mb46b558899" y="45.08086526"/>
     <use style="fill:#ff0000;stroke:#ff0000;stroke-width:0.5;" x="82.777834338" xlink:href="#mb46b558899" y="46.17125"/>
     <use style="fill:#ff0000;stroke:#ff0000;stroke-width:0.5;" x="88.4626944305" xlink:href="#mb46b558899" y="51.46740368"/>
     <use style="fill:#ff0000;stroke:#ff0000;stroke-width:0.5;" x="93.3565594498" xlink:href="#mb46b558899" y="50.58471158"/>
     <use style="fill:#ff0000;stroke:#ff0000;stroke-width:0.5;" x="96.026075156" xlink:href="#mb46b558899" y="50.4289421"/>
     <use style="fill:#ff0000;stroke:#ff0000;stroke-width:0.5;" x="104.825061353" xlink:href="#mb46b558899" y="50.0135579"/>
     <use style="fill:#ff0000;stroke:#ff0000;stroke-width:0.5;" x="111.597632337" xlink:href="#mb46b558899" y="44.87317316"/>
     <use style="fill:#ff0000;stroke:#ff0000;stroke-width:0.5;" x="118.024003978" xlink:href="#mb46b558899" y="38.22701948"/>
     <use style="fill:#ff0000;stroke:#ff0000;stroke-width:0.5;" x="123.560598827" xlink:href="#mb46b558899" y="45.60009632"/>
     <use style="fill:#ff0000;stroke:#ff0000;stroke-width:0.5;" x="125.389635935" xlink:href="#mb46b558899" y="42.53663474"/>
     <use style="fill:#ff0000;stroke:#ff0000;stroke-width:0.5;" x="129.195975394" xlink:href="#mb46b558899" y="44.6135579"/>
     <use style="fill:#ff0000;stroke:#ff0000;stroke-width:0.5;" x="132.804751417" xlink:href="#mb46b558899" y="45.54817316"/>
     <use style="fill:#ff0000;stroke:#ff0000;stroke-width:0.5;" x="136.363858583" xlink:href="#mb46b558899" y="43.47125"/>
     <use style="fill:#ff0000;stroke:#ff0000;stroke-width:0.5;" x="140.219681567" xlink:href="#mb46b558899" y="50.37701948"/>
     <use style="fill:#ff0000;stroke:#ff0000;stroke-width:0.5;" x="141.949936957" xlink:href="#mb46b558899" y="47.52125"/>
     <use style="fill:#ff0000;stroke:#ff0000;stroke-width:0.5;" x="143.976722833" xlink:href="#mb46b558899" y="45.7039421"/>
     <use style="fill:#ff0000;stroke:#ff0000;stroke-width:0.5;" x="145.608011173" xlink:href="#mb46b558899" y="47.9885579"/>
     <use style="fill:#ff0000;stroke:#ff0000;stroke-width:0.5;" x="151.292871266" xlink:href="#mb46b558899" y="53.75201948"/>
     <use style="fill:#ff0000;stroke:#ff0000;stroke-width:0.5;" x="153.023126655" xlink:href="#mb46b558899" y="56.86740368"/>
     <use style="fill:#ff0000;stroke:#ff0000;stroke-width:0.5;" x="155.049912532" xlink:href="#mb46b558899" y="56.40009632"/>
     <use style="fill:#ff0000;stroke:#ff0000;stroke-width:0.5;" x="160.586507381" xlink:href="#mb46b558899" y="50.06548052"/>
     <use style="fill:#ff0000;stroke:#ff0000;stroke-width:0.5;" x="166.122916898" xlink:href="#mb46b558899" y="47.83278842"/>
     <use style="fill:#ff0000;stroke:#ff0000;stroke-width:0.5;" x="175.416553014" xlink:href="#mb46b558899" y="42.90009632"/>
     <use style="fill:#ff0000;stroke:#ff0000;stroke-width:0.5;" x="180.903664338" xlink:href="#mb46b558899" y="43.99048052"/>
     <use style="fill:#ff0000;stroke:#ff0000;stroke-width:0.5;" x="182.831668496" xlink:href="#mb46b558899" y="41.96548052"/>
     <use style="fill:#ff0000;stroke:#ff0000;stroke-width:0.5;" x="186.539040905" xlink:href="#mb46b558899" y="46.01548052"/>
     <use style="fill:#ff0000;stroke:#ff0000;stroke-width:0.5;" x="190.246783978" xlink:href="#mb46b558899" y="48.35201948"/>
     <use style="fill:#ff0000;stroke:#ff0000;stroke-width:0.5;" x="194.053123437" xlink:href="#mb46b558899" y="41.70586526"/>
     <use style="fill:#ff0000;stroke:#ff0000;stroke-width:0.5;" x="197.612415935" xlink:href="#mb46b558899" y="38.64240368"/>
     <use style="fill:#ff0000;stroke:#ff0000;stroke-width:0.5;" x="199.342485993" xlink:href="#mb46b558899" y="41.70586526"/>
     <use style="fill:#ff0000;stroke:#ff0000;stroke-width:0.5;" x="201.616504163" xlink:href="#mb46b558899" y="44.82125"/>
     <use style="fill:#ff0000;stroke:#ff0000;stroke-width:0.5;" x="206.757416144" xlink:href="#mb46b558899" y="52.66163474"/>
     <use style="fill:#ff0000;stroke:#ff0000;stroke-width:0.5;" x="210.61342446" xlink:href="#mb46b558899" y="55.88086526"/>
     <use style="fill:#ff0000;stroke:#ff0000;stroke-width:0.5;" x="217.979056417" xlink:href="#mb46b558899" y="44.6135579"/>
     <use style="fill:#ff0000;stroke:#ff0000;stroke-width:0.5;" x="221.686614158" xlink:href="#mb46b558899" y="50.0135579"/>
     <use style="fill:#ff0000;stroke:#ff0000;stroke-width:0.5;" x="225.394171899" xlink:href="#mb46b558899" y="47.7289421"/>
     <use style="fill:#ff0000;stroke:#ff0000;stroke-width:0.5;" x="229.200511358" xlink:href="#mb46b558899" y="46.11932684"/>
     <use style="fill:#ff0000;stroke:#ff0000;stroke-width:0.5;" x="232.759618525" xlink:href="#mb46b558899" y="40.3039421"/>
     <use style="fill:#ff0000;stroke:#ff0000;stroke-width:0.5;" x="235.478617756" xlink:href="#mb46b558899" y="39.2135579"/>
     <use style="fill:#ff0000;stroke:#ff0000;stroke-width:0.5;" x="237.357138389" xlink:href="#mb46b558899" y="40.04432684"/>
     <use style="fill:#ff0000;stroke:#ff0000;stroke-width:0.5;" x="239.136691972" xlink:href="#mb46b558899" y="42.3289421"/>
     <use style="fill:#ff0000;stroke:#ff0000;stroke-width:0.5;" x="242.003585783" xlink:href="#mb46b558899" y="45.08086526"/>
     <use style="fill:#ff0000;stroke:#ff0000;stroke-width:0.5;" x="249.418886597" xlink:href="#mb46b558899" y="55.25778842"/>
     <use style="fill:#ff0000;stroke:#ff0000;stroke-width:0.5;" x="253.3734913" xlink:href="#mb46b558899" y="54.32317316"/>
     <use style="fill:#ff0000;stroke:#ff0000;stroke-width:0.5;" x="255.004964971" xlink:href="#mb46b558899" y="52.66163474"/>
     <use style="fill:#ff0000;stroke:#ff0000;stroke-width:0.5;" x="257.822560589" xlink:href="#mb46b558899" y="51.72701948"/>
     <use style="fill:#ff0000;stroke:#ff0000;stroke-width:0.5;" x="262.370596928" xlink:href="#mb46b558899" y="47.41740368"/>
     <use style="fill:#ff0000;stroke:#ff0000;stroke-width:0.5;" x="264.397382804" xlink:href="#mb46b558899" y="45.7039421"/>
     <use style="fill:#ff0000;stroke:#ff0000;stroke-width:0.5;" x="269.093499055" xlink:href="#mb46b558899" y="44.50971158"/>
     <use style="fill:#ff0000;stroke:#ff0000;stroke-width:0.5;" x="272.998620233" xlink:href="#mb46b558899" y="39.16163474"/>
     <use style="fill:#ff0000;stroke:#ff0000;stroke-width:0.5;" x="281.056465545" xlink:href="#mb46b558899" y="41.2385579"/>
     <use style="fill:#ff0000;stroke:#ff0000;stroke-width:0.5;" x="286.543576869" xlink:href="#mb46b558899" y="33.19048052"/>
     <use style="fill:#ff0000;stroke:#ff0000;stroke-width:0.5;" x="288.372613977" xlink:href="#mb46b558899" y="34.95586526"/>
     <use style="fill:#ff0000;stroke:#ff0000;stroke-width:0.5;" x="297.468501324" xlink:href="#mb46b558899" y="50.0135579"/>
     <use style="fill:#ff0000;stroke:#ff0000;stroke-width:0.5;" x="299.544770726" xlink:href="#mb46b558899" y="50.53278842"/>
     <use style="fill:#ff0000;stroke:#ff0000;stroke-width:0.5;" x="307.009184401" xlink:href="#mb46b558899" y="54.21932684"/>
     <use style="fill:#ff0000;stroke:#ff0000;stroke-width:0.5;" x="312.496295725" xlink:href="#mb46b558899" y="50.4289421"/>
     <use style="fill:#ff0000;stroke:#ff0000;stroke-width:0.5;" x="319.812444157" xlink:href="#mb46b558899" y="40.3039421"/>
     <use style="fill:#ff0000;stroke:#ff0000;stroke-width:0.5;" x="327.375824883" xlink:href="#mb46b558899" y="32.15201948"/>
     <use style="fill:#ff0000;stroke:#ff0000;stroke-width:0.5;" x="336.47171223" xlink:href="#mb46b558899" y="43.31548052"/>
     <use style="fill:#ff0000;stroke:#ff0000;stroke-width:0.5;" x="338.498498106" xlink:href="#mb46b558899" y="38.07125"/>
     <use style="fill:#ff0000;stroke:#ff0000;stroke-width:0.5;" x="342.057605272" xlink:href="#mb46b558899" y="36.9289421"/>
     <use style="fill:#ff0000;stroke:#ff0000;stroke-width:0.5;" x="343.98560943" xlink:href="#mb46b558899" y="32.15201948"/>
     <use style="fill:#ff0000;stroke:#ff0000;stroke-width:0.5;" x="349.472720754" xlink:href="#mb46b558899" y="40.82317316"/>
     <use style="fill:#ff0000;stroke:#ff0000;stroke-width:0.5;" x="358.716873345" xlink:href="#mb46b558899" y="51.46740368"/>
     <use style="fill:#ff0000;stroke:#ff0000;stroke-width:0.5;" x="368.010324128" xlink:href="#mb46b558899" y="40.25201948"/>
     <use style="fill:#ff0000;stroke:#ff0000;stroke-width:0.5;" x="369.98762648" xlink:href="#mb46b558899" y="40.09625"/>
     <use style="fill:#ff0000;stroke:#ff0000;stroke-width:0.5;" x="375.474923135" xlink:href="#mb46b558899" y="32.82701948"/>
     <use style="fill:#ff0000;stroke:#ff0000;stroke-width:0.5;" x="377.204993193" xlink:href="#mb46b558899" y="35.52701948"/>
     <use style="fill:#ff0000;stroke:#ff0000;stroke-width:0.5;" x="379.231593738" xlink:href="#mb46b558899" y="39.26548052"/>
     <use style="fill:#ff0000;stroke:#ff0000;stroke-width:0.5;" x="382.890038617" xlink:href="#mb46b558899" y="45.54817316"/>
     <use style="fill:#ff0000;stroke:#ff0000;stroke-width:0.5;" x="388.47593166" xlink:href="#mb46b558899" y="40.82317316"/>
     <use style="fill:#ff0000;stroke:#ff0000;stroke-width:0.5;" x="395.792080092" xlink:href="#mb46b558899" y="26.33663474"/>
     <use style="fill:#ff0000;stroke:#ff0000;stroke-width:0.5;" x="403.207195574" xlink:href="#mb46b558899" y="37.24048052"/>
     <use style="fill:#ff0000;stroke:#ff0000;stroke-width:0.5;" x="405.036047351" xlink:href="#mb46b558899" y="38.64240368"/>
     <use style="fill:#ff0000;stroke:#ff0000;stroke-width:0.5;" x="416.109422381" xlink:href="#mb46b558899" y="39.16163474"/>
     <use style="fill:#ff0000;stroke:#ff0000;stroke-width:0.5;" x="417.888975964" xlink:href="#mb46b558899" y="41.13471158"/>
     <use style="fill:#ff0000;stroke:#ff0000;stroke-width:0.5;" x="427.232095604" xlink:href="#mb46b558899" y="39.57701948"/>
     <use style="fill:#ff0000;stroke:#ff0000;stroke-width:0.5;" x="431.087918588" xlink:href="#mb46b558899" y="34.80009632"/>
     <use style="fill:#ff0000;stroke:#ff0000;stroke-width:0.5;" x="436.673811631" xlink:href="#mb46b558899" y="24.51932684"/>
     <use style="fill:#ff0000;stroke:#ff0000;stroke-width:0.5;" x="439.738824874" xlink:href="#mb46b558899" y="19.06740368"/>
     <use style="fill:#ff0000;stroke:#ff0000;stroke-width:0.5;" x="446.016745939" xlink:href="#mb46b558899" y="23.37701948"/>
     <use style="fill:#ff0000;stroke:#ff0000;stroke-width:0.5;" x="449.576038437" xlink:href="#mb46b558899" y="32.56740368"/>
     <use style="fill:#ff0000;stroke:#ff0000;stroke-width:0.5;" x="455.162116811" xlink:href="#mb46b558899" y="40.09625"/>
     <use style="fill:#ff0000;stroke:#ff0000;stroke-width:0.5;" x="456.941670394" xlink:href="#mb46b558899" y="45.49625"/>
     <use style="fill:#ff0000;stroke:#ff0000;stroke-width:0.5;" x="462.33" xlink:href="#mb46b558899" y="52.40201948"/>
    </g>
   </g>
   <g id="patch_4">
    <path d="M 49.41 97.47125 
L 462.33 97.47125 
" style="fill:none;stroke:#000000;stroke-linecap:square;stroke-linejoin:miter;"/>
   </g>
   <g id="patch_5">
    <path d="M 49.41 97.47125 
L 49.41 11.07125 
" style="fill:none;stroke:#000000;stroke-linecap:square;stroke-linejoin:miter;"/>
   </g>
   <g id="matplotlib.axis_1">
    <g id="xtick_1">
     <g id="line2d_2">
      <defs>
       <path d="M 0 0 
L 0 -4 
" id="m176a50d6f2" style="stroke:#000000;stroke-width:0.5;"/>
      </defs>
      <g>
       <use style="stroke:#000000;stroke-width:0.5;" x="49.41" xlink:href="#m176a50d6f2" y="97.47125"/>
      </g>
     </g>
     <g id="text_1">
      <!-- 0 -->
      <defs>
       <path d="M 31.78125 66.40625 
Q 24.171875 66.40625 20.328125 58.90625 
Q 16.5 51.421875 16.5 36.375 
Q 16.5 21.390625 20.328125 13.890625 
Q 24.171875 6.390625 31.78125 6.390625 
Q 39.453125 6.390625 43.28125 13.890625 
Q 47.125 21.390625 47.125 36.375 
Q 47.125 51.421875 43.28125 58.90625 
Q 39.453125 66.40625 31.78125 66.40625 
M 31.78125 74.21875 
Q 44.046875 74.21875 50.515625 64.515625 
Q 56.984375 54.828125 56.984375 36.375 
Q 56.984375 17.96875 50.515625 8.265625 
Q 44.046875 -1.421875 31.78125 -1.421875 
Q 19.53125 -1.421875 13.0625 8.265625 
Q 6.59375 17.96875 6.59375 36.375 
Q 6.59375 54.828125 13.0625 64.515625 
Q 19.53125 74.21875 31.78125 74.21875 
" id="BitstreamVeraSans-Roman-30"/>
      </defs>
      <g transform="translate(46.865 107.55)scale(0.08 -0.08)">
       <use xlink:href="#BitstreamVeraSans-Roman-30"/>
      </g>
     </g>
    </g>
    <g id="xtick_2">
     <g id="line2d_3">
      <g>
       <use style="stroke:#000000;stroke-width:0.5;" x="142.075777082" xlink:href="#m176a50d6f2" y="97.47125"/>
      </g>
     </g>
     <g id="text_2">
      <!-- 50 -->
      <defs>
       <path d="M 10.796875 72.90625 
L 49.515625 72.90625 
L 49.515625 64.59375 
L 19.828125 64.59375 
L 19.828125 46.734375 
Q 21.96875 47.46875 24.109375 47.828125 
Q 26.265625 48.1875 28.421875 48.1875 
Q 40.625 48.1875 47.75 41.5 
Q 54.890625 34.8125 54.890625 23.390625 
Q 54.890625 11.625 47.5625 5.09375 
Q 40.234375 -1.421875 26.90625 -1.421875 
Q 22.3125 -1.421875 17.546875 -0.640625 
Q 12.796875 0.140625 7.71875 1.703125 
L 7.71875 11.625 
Q 12.109375 9.234375 16.796875 8.0625 
Q 21.484375 6.890625 26.703125 6.890625 
Q 35.15625 6.890625 40.078125 11.328125 
Q 45.015625 15.765625 45.015625 23.390625 
Q 45.015625 31 40.078125 35.4375 
Q 35.15625 39.890625 26.703125 39.890625 
Q 22.75 39.890625 18.8125 39.015625 
Q 14.890625 38.140625 10.796875 36.28125 
z
" id="BitstreamVeraSans-Roman-35"/>
      </defs>
      <g transform="translate(136.985777082 107.55)scale(0.08 -0.08)">
       <use xlink:href="#BitstreamVeraSans-Roman-35"/>
       <use x="63.623046875" xlink:href="#BitstreamVeraSans-Roman-30"/>
      </g>
     </g>
    </g>
    <g id="xtick_3">
     <g id="line2d_4">
      <g>
       <use style="stroke:#000000;stroke-width:0.5;" x="234.741554165" xlink:href="#m176a50d6f2" y="97.47125"/>
      </g>
     </g>
     <g id="text_3">
      <!-- 100 -->
      <defs>
       <path d="M 12.40625 8.296875 
L 28.515625 8.296875 
L 28.515625 63.921875 
L 10.984375 60.40625 
L 10.984375 69.390625 
L 28.421875 72.90625 
L 38.28125 72.90625 
L 38.28125 8.296875 
L 54.390625 8.296875 
L 54.390625 0 
L 12.40625 0 
z
" id="BitstreamVeraSans-Roman-31"/>
      </defs>
      <g transform="translate(227.106554165 107.55)scale(0.08 -0.08)">
       <use xlink:href="#BitstreamVeraSans-Roman-31"/>
       <use x="63.623046875" xlink:href="#BitstreamVeraSans-Roman-30"/>
       <use x="127.24609375" xlink:href="#BitstreamVeraSans-Roman-30"/>
      </g>
     </g>
    </g>
    <g id="xtick_4">
     <g id="line2d_5">
      <g>
       <use style="stroke:#000000;stroke-width:0.5;" x="327.407331247" xlink:href="#m176a50d6f2" y="97.47125"/>
      </g>
     </g>
     <g id="text_4">
      <!-- 150 -->
      <g transform="translate(319.772331247 107.55)scale(0.08 -0.08)">
       <use xlink:href="#BitstreamVeraSans-Roman-31"/>
       <use x="63.623046875" xlink:href="#BitstreamVeraSans-Roman-35"/>
       <use x="127.24609375" xlink:href="#BitstreamVeraSans-Roman-30"/>
      </g>
     </g>
    </g>
    <g id="xtick_5">
     <g id="line2d_6">
      <g>
       <use style="stroke:#000000;stroke-width:0.5;" x="420.07310833" xlink:href="#m176a50d6f2" y="97.47125"/>
      </g>
     </g>
     <g id="text_5">
      <!-- 200 -->
      <defs>
       <path d="M 19.1875 8.296875 
L 53.609375 8.296875 
L 53.609375 0 
L 7.328125 0 
L 7.328125 8.296875 
Q 12.9375 14.109375 22.625 23.890625 
Q 32.328125 33.6875 34.8125 36.53125 
Q 39.546875 41.84375 41.421875 45.53125 
Q 43.3125 49.21875 43.3125 52.78125 
Q 43.3125 58.59375 39.234375 62.25 
Q 35.15625 65.921875 28.609375 65.921875 
Q 23.96875 65.921875 18.8125 64.3125 
Q 13.671875 62.703125 7.8125 59.421875 
L 7.8125 69.390625 
Q 13.765625 71.78125 18.9375 73 
Q 24.125 74.21875 28.421875 74.21875 
Q 39.75 74.21875 46.484375 68.546875 
Q 53.21875 62.890625 53.21875 53.421875 
Q 53.21875 48.921875 51.53125 44.890625 
Q 49.859375 40.875 45.40625 35.40625 
Q 44.1875 33.984375 37.640625 27.21875 
Q 31.109375 20.453125 19.1875 8.296875 
" id="BitstreamVeraSans-Roman-32"/>
      </defs>
      <g transform="translate(412.43810833 107.55)scale(0.08 -0.08)">
       <use xlink:href="#BitstreamVeraSans-Roman-32"/>
       <use x="63.623046875" xlink:href="#BitstreamVeraSans-Roman-30"/>
       <use x="127.24609375" xlink:href="#BitstreamVeraSans-Roman-30"/>
      </g>
     </g>
    </g>
    <g id="text_6">
     <!-- Distance ($s$) [$mi$] -->
     <defs>
      <path id="BitstreamVeraSans-Roman-20"/>
      <path d="M 8.59375 75.984375 
L 29.296875 75.984375 
L 29.296875 69 
L 17.578125 69 
L 17.578125 -6.203125 
L 29.296875 -6.203125 
L 29.296875 -13.1875 
L 8.59375 -13.1875 
z
" id="BitstreamVeraSans-Roman-5b"/>
      <path d="M 7.8125 7.171875 
Q 7.8125 9.03125 8.59375 11.078125 
L 16.703125 32.625 
Q 18.015625 36.28125 18.015625 38.625 
Q 18.015625 41.609375 15.828125 41.609375 
Q 11.859375 41.609375 9.296875 37.53125 
Q 6.734375 33.453125 5.515625 28.421875 
Q 5.328125 27.78125 4.6875 27.78125 
L 3.515625 27.78125 
Q 2.6875 27.78125 2.6875 28.71875 
L 2.6875 29 
Q 4.296875 34.96875 7.609375 39.578125 
Q 10.9375 44.1875 16.015625 44.1875 
Q 19.578125 44.1875 22.046875 41.84375 
Q 24.515625 39.5 24.515625 35.890625 
Q 24.515625 34.03125 23.6875 31.984375 
L 15.578125 10.5 
Q 14.203125 7.171875 14.203125 4.5 
Q 14.203125 1.515625 16.5 1.515625 
Q 20.40625 1.515625 23.015625 5.6875 
Q 25.640625 9.859375 26.703125 14.703125 
Q 26.90625 15.28125 27.484375 15.28125 
L 28.71875 15.28125 
Q 29.109375 15.28125 29.34375 15.015625 
Q 29.59375 14.75 29.59375 14.40625 
Q 29.59375 14.3125 29.5 14.109375 
Q 28.125 8.453125 24.734375 3.65625 
Q 21.34375 -1.125 16.3125 -1.125 
Q 12.796875 -1.125 10.296875 1.296875 
Q 7.8125 3.71875 7.8125 7.171875 
M 19.09375 60.59375 
Q 19.09375 62.703125 20.84375 64.40625 
Q 22.609375 66.109375 24.703125 66.109375 
Q 26.421875 66.109375 27.515625 65.0625 
Q 28.609375 64.015625 28.609375 62.40625 
Q 28.609375 60.15625 26.828125 58.46875 
Q 25.046875 56.78125 22.90625 56.78125 
Q 21.296875 56.78125 20.1875 57.875 
Q 19.09375 58.984375 19.09375 60.59375 
" id="Cmmi10-69"/>
      <path d="M 30.421875 75.984375 
L 30.421875 -13.1875 
L 9.71875 -13.1875 
L 9.71875 -6.203125 
L 21.390625 -6.203125 
L 21.390625 69 
L 9.71875 69 
L 9.71875 75.984375 
z
" id="BitstreamVeraSans-Roman-5d"/>
      <path d="M 7.71875 1.703125 
Q 7.71875 2.296875 7.8125 2.59375 
L 15.28125 32.421875 
Q 16.015625 35.203125 16.015625 37.3125 
Q 16.015625 41.609375 13.09375 41.609375 
Q 9.96875 41.609375 8.453125 37.859375 
Q 6.9375 34.125 5.515625 28.421875 
Q 5.515625 28.125 5.21875 27.953125 
Q 4.9375 27.78125 4.6875 27.78125 
L 3.515625 27.78125 
Q 3.171875 27.78125 2.921875 28.140625 
Q 2.6875 28.515625 2.6875 28.8125 
Q 3.765625 33.15625 4.765625 36.171875 
Q 5.765625 39.203125 7.890625 41.6875 
Q 10.015625 44.1875 13.1875 44.1875 
Q 16.9375 44.1875 19.8125 41.8125 
Q 22.703125 39.453125 22.703125 35.796875 
Q 25.6875 39.703125 29.6875 41.9375 
Q 33.6875 44.1875 38.1875 44.1875 
Q 42.921875 44.1875 46.359375 41.765625 
Q 49.8125 39.359375 49.8125 34.90625 
Q 52.875 39.265625 57 41.71875 
Q 61.140625 44.1875 66.015625 44.1875 
Q 71.1875 44.1875 74.328125 41.375 
Q 77.484375 38.578125 77.484375 33.40625 
Q 77.484375 29.296875 75.65625 23.484375 
Q 73.828125 17.671875 71.09375 10.5 
Q 69.671875 7.03125 69.671875 4.5 
Q 69.671875 1.515625 72.015625 1.515625 
Q 75.921875 1.515625 78.515625 5.703125 
Q 81.109375 9.90625 82.171875 14.703125 
Q 82.46875 15.28125 83.015625 15.28125 
L 84.1875 15.28125 
Q 84.578125 15.28125 84.84375 15.015625 
Q 85.109375 14.75 85.109375 14.40625 
Q 85.109375 14.3125 85.015625 14.109375 
Q 83.640625 8.453125 80.25 3.65625 
Q 76.859375 -1.125 71.78125 -1.125 
Q 68.265625 -1.125 65.765625 1.296875 
Q 63.28125 3.71875 63.28125 7.171875 
Q 63.28125 8.9375 64.109375 11.078125 
Q 66.9375 18.609375 68.8125 24.515625 
Q 70.703125 30.421875 70.703125 34.90625 
Q 70.703125 37.703125 69.578125 39.65625 
Q 68.453125 41.609375 65.828125 41.609375 
Q 60.359375 41.609375 56.34375 38.25 
Q 52.34375 34.90625 49.421875 29.390625 
Q 49.21875 28.421875 49.125 27.875 
L 42.671875 2.203125 
Q 42.328125 0.828125 41.125 -0.140625 
Q 39.9375 -1.125 38.484375 -1.125 
Q 37.3125 -1.125 36.40625 -0.34375 
Q 35.5 0.4375 35.5 1.703125 
Q 35.5 2.296875 35.59375 2.59375 
L 42 28.078125 
Q 43.015625 32.171875 43.015625 34.90625 
Q 43.015625 37.703125 41.859375 39.65625 
Q 40.71875 41.609375 37.984375 41.609375 
Q 34.328125 41.609375 31.25 39.984375 
Q 28.171875 38.375 25.875 35.71875 
Q 23.578125 33.0625 21.6875 29.390625 
L 14.890625 2.203125 
Q 14.546875 0.828125 13.34375 -0.140625 
Q 12.15625 -1.125 10.6875 -1.125 
Q 9.46875 -1.125 8.59375 -0.34375 
Q 7.71875 0.4375 7.71875 1.703125 
" id="Cmmi10-6d"/>
      <path d="M 54.890625 33.015625 
L 54.890625 0 
L 45.90625 0 
L 45.90625 32.71875 
Q 45.90625 40.484375 42.875 44.328125 
Q 39.84375 48.1875 33.796875 48.1875 
Q 26.515625 48.1875 22.3125 43.546875 
Q 18.109375 38.921875 18.109375 30.90625 
L 18.109375 0 
L 9.078125 0 
L 9.078125 54.6875 
L 18.109375 54.6875 
L 18.109375 46.1875 
Q 21.34375 51.125 25.703125 53.5625 
Q 30.078125 56 35.796875 56 
Q 45.21875 56 50.046875 50.171875 
Q 54.890625 44.34375 54.890625 33.015625 
" id="BitstreamVeraSans-Roman-6e"/>
      <path d="M 31 75.875 
Q 24.46875 64.65625 21.28125 53.65625 
Q 18.109375 42.671875 18.109375 31.390625 
Q 18.109375 20.125 21.3125 9.0625 
Q 24.515625 -2 31 -13.1875 
L 23.1875 -13.1875 
Q 15.875 -1.703125 12.234375 9.375 
Q 8.59375 20.453125 8.59375 31.390625 
Q 8.59375 42.28125 12.203125 53.3125 
Q 15.828125 64.359375 23.1875 75.875 
z
" id="BitstreamVeraSans-Roman-28"/>
      <path d="M 8.6875 6.109375 
Q 11.375 1.515625 19.484375 1.515625 
Q 23 1.515625 26.171875 2.703125 
Q 29.34375 3.90625 31.421875 6.296875 
Q 33.5 8.6875 33.5 12.109375 
Q 33.5 14.703125 31.640625 16.359375 
Q 29.78125 18.015625 27.09375 18.609375 
L 21.6875 19.671875 
Q 17.96875 20.609375 15.578125 23.140625 
Q 13.1875 25.6875 13.1875 29.296875 
Q 13.1875 33.734375 15.59375 37.15625 
Q 18.015625 40.578125 21.96875 42.375 
Q 25.921875 44.1875 30.171875 44.1875 
Q 34.71875 44.1875 38.296875 42.015625 
Q 41.890625 39.84375 41.890625 35.59375 
Q 41.890625 33.296875 40.59375 31.53125 
Q 39.3125 29.78125 37.015625 29.78125 
Q 35.6875 29.78125 34.734375 30.640625 
Q 33.796875 31.5 33.796875 32.8125 
Q 33.796875 33.984375 34.453125 35.078125 
Q 35.109375 36.1875 36.203125 36.84375 
Q 37.3125 37.5 38.484375 37.5 
Q 37.59375 39.65625 35.171875 40.625 
Q 32.765625 41.609375 29.984375 41.609375 
Q 27.4375 41.609375 24.890625 40.578125 
Q 22.359375 39.546875 20.8125 37.5625 
Q 19.28125 35.59375 19.28125 32.90625 
Q 19.28125 31.109375 20.546875 29.734375 
Q 21.828125 28.375 23.6875 27.78125 
L 29.5 26.609375 
Q 32.28125 26.03125 34.59375 24.53125 
Q 36.921875 23.046875 38.25 20.765625 
Q 39.59375 18.5 39.59375 15.578125 
Q 39.59375 11.859375 37.515625 8.25 
Q 35.453125 4.640625 32.421875 2.484375 
Q 27.09375 -1.125 19.390625 -1.125 
Q 14.0625 -1.125 9.609375 1.3125 
Q 5.171875 3.765625 5.171875 8.59375 
Q 5.171875 11.328125 6.75 13.34375 
Q 8.34375 15.375 11.078125 15.375 
Q 12.703125 15.375 13.796875 14.390625 
Q 14.890625 13.421875 14.890625 11.8125 
Q 14.890625 9.515625 13.171875 7.8125 
Q 11.46875 6.109375 9.1875 6.109375 
z
" id="Cmmi10-73"/>
      <path d="M 19.671875 64.796875 
L 19.671875 8.109375 
L 31.59375 8.109375 
Q 46.6875 8.109375 53.6875 14.9375 
Q 60.6875 21.78125 60.6875 36.53125 
Q 60.6875 51.171875 53.6875 57.984375 
Q 46.6875 64.796875 31.59375 64.796875 
z
M 9.8125 72.90625 
L 30.078125 72.90625 
Q 51.265625 72.90625 61.171875 64.09375 
Q 71.09375 55.28125 71.09375 36.53125 
Q 71.09375 17.671875 61.125 8.828125 
Q 51.171875 0 30.078125 0 
L 9.8125 0 
z
" id="BitstreamVeraSans-Roman-44"/>
      <path d="M 9.421875 54.6875 
L 18.40625 54.6875 
L 18.40625 0 
L 9.421875 0 
z
M 9.421875 75.984375 
L 18.40625 75.984375 
L 18.40625 64.59375 
L 9.421875 64.59375 
z
" id="BitstreamVeraSans-Roman-69"/>
      <path d="M 56.203125 29.59375 
L 56.203125 25.203125 
L 14.890625 25.203125 
Q 15.484375 15.921875 20.484375 11.0625 
Q 25.484375 6.203125 34.421875 6.203125 
Q 39.59375 6.203125 44.453125 7.46875 
Q 49.3125 8.734375 54.109375 11.28125 
L 54.109375 2.78125 
Q 49.265625 0.734375 44.1875 -0.34375 
Q 39.109375 -1.421875 33.890625 -1.421875 
Q 20.796875 -1.421875 13.15625 6.1875 
Q 5.515625 13.8125 5.515625 26.8125 
Q 5.515625 40.234375 12.765625 48.109375 
Q 20.015625 56 32.328125 56 
Q 43.359375 56 49.78125 48.890625 
Q 56.203125 41.796875 56.203125 29.59375 
M 47.21875 32.234375 
Q 47.125 39.59375 43.09375 43.984375 
Q 39.0625 48.390625 32.421875 48.390625 
Q 24.90625 48.390625 20.390625 44.140625 
Q 15.875 39.890625 15.1875 32.171875 
z
" id="BitstreamVeraSans-Roman-65"/>
      <path d="M 18.3125 70.21875 
L 18.3125 54.6875 
L 36.8125 54.6875 
L 36.8125 47.703125 
L 18.3125 47.703125 
L 18.3125 18.015625 
Q 18.3125 11.328125 20.140625 9.421875 
Q 21.96875 7.515625 27.59375 7.515625 
L 36.8125 7.515625 
L 36.8125 0 
L 27.59375 0 
Q 17.1875 0 13.234375 3.875 
Q 9.28125 7.765625 9.28125 18.015625 
L 9.28125 47.703125 
L 2.6875 47.703125 
L 2.6875 54.6875 
L 9.28125 54.6875 
L 9.28125 70.21875 
z
" id="BitstreamVeraSans-Roman-74"/>
      <path d="M 34.28125 27.484375 
Q 23.390625 27.484375 19.1875 25 
Q 14.984375 22.515625 14.984375 16.5 
Q 14.984375 11.71875 18.140625 8.90625 
Q 21.296875 6.109375 26.703125 6.109375 
Q 34.1875 6.109375 38.703125 11.40625 
Q 43.21875 16.703125 43.21875 25.484375 
L 43.21875 27.484375 
z
M 52.203125 31.203125 
L 52.203125 0 
L 43.21875 0 
L 43.21875 8.296875 
Q 40.140625 3.328125 35.546875 0.953125 
Q 30.953125 -1.421875 24.3125 -1.421875 
Q 15.921875 -1.421875 10.953125 3.296875 
Q 6 8.015625 6 15.921875 
Q 6 25.140625 12.171875 29.828125 
Q 18.359375 34.515625 30.609375 34.515625 
L 43.21875 34.515625 
L 43.21875 35.40625 
Q 43.21875 41.609375 39.140625 45 
Q 35.0625 48.390625 27.6875 48.390625 
Q 23 48.390625 18.546875 47.265625 
Q 14.109375 46.140625 10.015625 43.890625 
L 10.015625 52.203125 
Q 14.9375 54.109375 19.578125 55.046875 
Q 24.21875 56 28.609375 56 
Q 40.484375 56 46.34375 49.84375 
Q 52.203125 43.703125 52.203125 31.203125 
" id="BitstreamVeraSans-Roman-61"/>
      <path d="M 44.28125 53.078125 
L 44.28125 44.578125 
Q 40.484375 46.53125 36.375 47.5 
Q 32.28125 48.484375 27.875 48.484375 
Q 21.1875 48.484375 17.84375 46.4375 
Q 14.5 44.390625 14.5 40.28125 
Q 14.5 37.15625 16.890625 35.375 
Q 19.28125 33.59375 26.515625 31.984375 
L 29.59375 31.296875 
Q 39.15625 29.25 43.1875 25.515625 
Q 47.21875 21.78125 47.21875 15.09375 
Q 47.21875 7.46875 41.1875 3.015625 
Q 35.15625 -1.421875 24.609375 -1.421875 
Q 20.21875 -1.421875 15.453125 -0.5625 
Q 10.6875 0.296875 5.421875 2 
L 5.421875 11.28125 
Q 10.40625 8.6875 15.234375 7.390625 
Q 20.0625 6.109375 24.8125 6.109375 
Q 31.15625 6.109375 34.5625 8.28125 
Q 37.984375 10.453125 37.984375 14.40625 
Q 37.984375 18.0625 35.515625 20.015625 
Q 33.0625 21.96875 24.703125 23.78125 
L 21.578125 24.515625 
Q 13.234375 26.265625 9.515625 29.90625 
Q 5.8125 33.546875 5.8125 39.890625 
Q 5.8125 47.609375 11.28125 51.796875 
Q 16.75 56 26.8125 56 
Q 31.78125 56 36.171875 55.265625 
Q 40.578125 54.546875 44.28125 53.078125 
" id="BitstreamVeraSans-Roman-73"/>
      <path d="M 48.78125 52.59375 
L 48.78125 44.1875 
Q 44.96875 46.296875 41.140625 47.34375 
Q 37.3125 48.390625 33.40625 48.390625 
Q 24.65625 48.390625 19.8125 42.84375 
Q 14.984375 37.3125 14.984375 27.296875 
Q 14.984375 17.28125 19.8125 11.734375 
Q 24.65625 6.203125 33.40625 6.203125 
Q 37.3125 6.203125 41.140625 7.25 
Q 44.96875 8.296875 48.78125 10.40625 
L 48.78125 2.09375 
Q 45.015625 0.34375 40.984375 -0.53125 
Q 36.96875 -1.421875 32.421875 -1.421875 
Q 20.0625 -1.421875 12.78125 6.34375 
Q 5.515625 14.109375 5.515625 27.296875 
Q 5.515625 40.671875 12.859375 48.328125 
Q 20.21875 56 33.015625 56 
Q 37.15625 56 41.109375 55.140625 
Q 45.0625 54.296875 48.78125 52.59375 
" id="BitstreamVeraSans-Roman-63"/>
      <path d="M 8.015625 75.875 
L 15.828125 75.875 
Q 23.140625 64.359375 26.78125 53.3125 
Q 30.421875 42.28125 30.421875 31.390625 
Q 30.421875 20.453125 26.78125 9.375 
Q 23.140625 -1.703125 15.828125 -13.1875 
L 8.015625 -13.1875 
Q 14.5 -2 17.703125 9.0625 
Q 20.90625 20.125 20.90625 31.390625 
Q 20.90625 42.671875 17.703125 53.65625 
Q 14.5 64.65625 8.015625 75.875 
" id="BitstreamVeraSans-Roman-29"/>
     </defs>
     <g transform="translate(222.83 120.2925)scale(0.08 -0.08)">
      <use transform="translate(0.0 0.015625)" xlink:href="#BitstreamVeraSans-Roman-44"/>
      <use transform="translate(77.001953125 0.015625)" xlink:href="#BitstreamVeraSans-Roman-69"/>
      <use transform="translate(104.78515625 0.015625)" xlink:href="#BitstreamVeraSans-Roman-73"/>
      <use transform="translate(156.884765625 0.015625)" xlink:href="#BitstreamVeraSans-Roman-74"/>
      <use transform="translate(196.09375 0.015625)" xlink:href="#BitstreamVeraSans-Roman-61"/>
      <use transform="translate(257.373046875 0.015625)" xlink:href="#BitstreamVeraSans-Roman-6e"/>
      <use transform="translate(320.751953125 0.015625)" xlink:href="#BitstreamVeraSans-Roman-63"/>
      <use transform="translate(375.732421875 0.015625)" xlink:href="#BitstreamVeraSans-Roman-65"/>
      <use transform="translate(437.255859375 0.015625)" xlink:href="#BitstreamVeraSans-Roman-20"/>
      <use transform="translate(469.04296875 0.015625)" xlink:href="#BitstreamVeraSans-Roman-28"/>
      <use transform="translate(508.056640625 0.015625)" xlink:href="#Cmmi10-73"/>
      <use transform="translate(554.833984375 0.015625)" xlink:href="#BitstreamVeraSans-Roman-29"/>
      <use transform="translate(593.84765625 0.015625)" xlink:href="#BitstreamVeraSans-Roman-20"/>
      <use transform="translate(625.634765625 0.015625)" xlink:href="#BitstreamVeraSans-Roman-5b"/>
      <use transform="translate(664.6484375 0.015625)" xlink:href="#Cmmi10-6d"/>
      <use transform="translate(752.44140625 0.015625)" xlink:href="#Cmmi10-69"/>
      <use transform="translate(786.865234375 0.015625)" xlink:href="#BitstreamVeraSans-Roman-5d"/>
     </g>
    </g>
   </g>
   <g id="matplotlib.axis_2">
    <g id="ytick_1">
     <g id="line2d_7">
      <defs>
       <path d="M 0 0 
L 4 0 
" id="m855f0073de" style="stroke:#000000;stroke-width:0.5;"/>
      </defs>
      <g>
       <use style="stroke:#000000;stroke-width:0.5;" x="49.41" xlink:href="#m855f0073de" y="97.47125"/>
      </g>
     </g>
     <g id="text_7">
      <!-- 0 -->
      <g transform="translate(40.32 99.67875)scale(0.08 -0.08)">
       <use xlink:href="#BitstreamVeraSans-Roman-30"/>
      </g>
     </g>
    </g>
    <g id="ytick_2">
     <g id="line2d_8">
      <g>
       <use style="stroke:#000000;stroke-width:0.5;" x="49.41" xlink:href="#m855f0073de" y="86.67125"/>
      </g>
     </g>
     <g id="text_8">
      <!-- 2000 -->
      <g transform="translate(25.05 88.87875)scale(0.08 -0.08)">
       <use xlink:href="#BitstreamVeraSans-Roman-32"/>
       <use x="63.623046875" xlink:href="#BitstreamVeraSans-Roman-30"/>
       <use x="127.24609375" xlink:href="#BitstreamVeraSans-Roman-30"/>
       <use x="190.869140625" xlink:href="#BitstreamVeraSans-Roman-30"/>
      </g>
     </g>
    </g>
    <g id="ytick_3">
     <g id="line2d_9">
      <g>
       <use style="stroke:#000000;stroke-width:0.5;" x="49.41" xlink:href="#m855f0073de" y="75.87125"/>
      </g>
     </g>
     <g id="text_9">
      <!-- 4000 -->
      <defs>
       <path d="M 37.796875 64.3125 
L 12.890625 25.390625 
L 37.796875 25.390625 
z
M 35.203125 72.90625 
L 47.609375 72.90625 
L 47.609375 25.390625 
L 58.015625 25.390625 
L 58.015625 17.1875 
L 47.609375 17.1875 
L 47.609375 0 
L 37.796875 0 
L 37.796875 17.1875 
L 4.890625 17.1875 
L 4.890625 26.703125 
z
" id="BitstreamVeraSans-Roman-34"/>
      </defs>
      <g transform="translate(25.05 78.07875)scale(0.08 -0.08)">
       <use xlink:href="#BitstreamVeraSans-Roman-34"/>
       <use x="63.623046875" xlink:href="#BitstreamVeraSans-Roman-30"/>
       <use x="127.24609375" xlink:href="#BitstreamVeraSans-Roman-30"/>
       <use x="190.869140625" xlink:href="#BitstreamVeraSans-Roman-30"/>
      </g>
     </g>
    </g>
    <g id="ytick_4">
     <g id="line2d_10">
      <g>
       <use style="stroke:#000000;stroke-width:0.5;" x="49.41" xlink:href="#m855f0073de" y="65.07125"/>
      </g>
     </g>
     <g id="text_10">
      <!-- 6000 -->
      <defs>
       <path d="M 33.015625 40.375 
Q 26.375 40.375 22.484375 35.828125 
Q 18.609375 31.296875 18.609375 23.390625 
Q 18.609375 15.53125 22.484375 10.953125 
Q 26.375 6.390625 33.015625 6.390625 
Q 39.65625 6.390625 43.53125 10.953125 
Q 47.40625 15.53125 47.40625 23.390625 
Q 47.40625 31.296875 43.53125 35.828125 
Q 39.65625 40.375 33.015625 40.375 
M 52.59375 71.296875 
L 52.59375 62.3125 
Q 48.875 64.0625 45.09375 64.984375 
Q 41.3125 65.921875 37.59375 65.921875 
Q 27.828125 65.921875 22.671875 59.328125 
Q 17.53125 52.734375 16.796875 39.40625 
Q 19.671875 43.65625 24.015625 45.921875 
Q 28.375 48.1875 33.59375 48.1875 
Q 44.578125 48.1875 50.953125 41.515625 
Q 57.328125 34.859375 57.328125 23.390625 
Q 57.328125 12.15625 50.6875 5.359375 
Q 44.046875 -1.421875 33.015625 -1.421875 
Q 20.359375 -1.421875 13.671875 8.265625 
Q 6.984375 17.96875 6.984375 36.375 
Q 6.984375 53.65625 15.1875 63.9375 
Q 23.390625 74.21875 37.203125 74.21875 
Q 40.921875 74.21875 44.703125 73.484375 
Q 48.484375 72.75 52.59375 71.296875 
" id="BitstreamVeraSans-Roman-36"/>
      </defs>
      <g transform="translate(25.05 67.27875)scale(0.08 -0.08)">
       <use xlink:href="#BitstreamVeraSans-Roman-36"/>
       <use x="63.623046875" xlink:href="#BitstreamVeraSans-Roman-30"/>
       <use x="127.24609375" xlink:href="#BitstreamVeraSans-Roman-30"/>
       <use x="190.869140625" xlink:href="#BitstreamVeraSans-Roman-30"/>
      </g>
     </g>
    </g>
    <g id="ytick_5">
     <g id="line2d_11">
      <g>
       <use style="stroke:#000000;stroke-width:0.5;" x="49.41" xlink:href="#m855f0073de" y="54.27125"/>
      </g>
     </g>
     <g id="text_11">
      <!-- 8000 -->
      <defs>
       <path d="M 31.78125 34.625 
Q 24.75 34.625 20.71875 30.859375 
Q 16.703125 27.09375 16.703125 20.515625 
Q 16.703125 13.921875 20.71875 10.15625 
Q 24.75 6.390625 31.78125 6.390625 
Q 38.8125 6.390625 42.859375 10.171875 
Q 46.921875 13.96875 46.921875 20.515625 
Q 46.921875 27.09375 42.890625 30.859375 
Q 38.875 34.625 31.78125 34.625 
M 21.921875 38.8125 
Q 15.578125 40.375 12.03125 44.71875 
Q 8.5 49.078125 8.5 55.328125 
Q 8.5 64.0625 14.71875 69.140625 
Q 20.953125 74.21875 31.78125 74.21875 
Q 42.671875 74.21875 48.875 69.140625 
Q 55.078125 64.0625 55.078125 55.328125 
Q 55.078125 49.078125 51.53125 44.71875 
Q 48 40.375 41.703125 38.8125 
Q 48.828125 37.15625 52.796875 32.3125 
Q 56.78125 27.484375 56.78125 20.515625 
Q 56.78125 9.90625 50.3125 4.234375 
Q 43.84375 -1.421875 31.78125 -1.421875 
Q 19.734375 -1.421875 13.25 4.234375 
Q 6.78125 9.90625 6.78125 20.515625 
Q 6.78125 27.484375 10.78125 32.3125 
Q 14.796875 37.15625 21.921875 38.8125 
M 18.3125 54.390625 
Q 18.3125 48.734375 21.84375 45.5625 
Q 25.390625 42.390625 31.78125 42.390625 
Q 38.140625 42.390625 41.71875 45.5625 
Q 45.3125 48.734375 45.3125 54.390625 
Q 45.3125 60.0625 41.71875 63.234375 
Q 38.140625 66.40625 31.78125 66.40625 
Q 25.390625 66.40625 21.84375 63.234375 
Q 18.3125 60.0625 18.3125 54.390625 
" id="BitstreamVeraSans-Roman-38"/>
      </defs>
      <g transform="translate(25.05 56.47875)scale(0.08 -0.08)">
       <use xlink:href="#BitstreamVeraSans-Roman-38"/>
       <use x="63.623046875" xlink:href="#BitstreamVeraSans-Roman-30"/>
       <use x="127.24609375" xlink:href="#BitstreamVeraSans-Roman-30"/>
       <use x="190.869140625" xlink:href="#BitstreamVeraSans-Roman-30"/>
      </g>
     </g>
    </g>
    <g id="ytick_6">
     <g id="line2d_12">
      <g>
       <use style="stroke:#000000;stroke-width:0.5;" x="49.41" xlink:href="#m855f0073de" y="43.47125"/>
      </g>
     </g>
     <g id="text_12">
      <!-- 10000 -->
      <g transform="translate(19.96 45.67875)scale(0.08 -0.08)">
       <use xlink:href="#BitstreamVeraSans-Roman-31"/>
       <use x="63.623046875" xlink:href="#BitstreamVeraSans-Roman-30"/>
       <use x="127.24609375" xlink:href="#BitstreamVeraSans-Roman-30"/>
       <use x="190.869140625" xlink:href="#BitstreamVeraSans-Roman-30"/>
       <use x="254.4921875" xlink:href="#BitstreamVeraSans-Roman-30"/>
      </g>
     </g>
    </g>
    <g id="ytick_7">
     <g id="line2d_13">
      <g>
       <use style="stroke:#000000;stroke-width:0.5;" x="49.41" xlink:href="#m855f0073de" y="32.67125"/>
      </g>
     </g>
     <g id="text_13">
      <!-- 12000 -->
      <g transform="translate(19.96 34.87875)scale(0.08 -0.08)">
       <use xlink:href="#BitstreamVeraSans-Roman-31"/>
       <use x="63.623046875" xlink:href="#BitstreamVeraSans-Roman-32"/>
       <use x="127.24609375" xlink:href="#BitstreamVeraSans-Roman-30"/>
       <use x="190.869140625" xlink:href="#BitstreamVeraSans-Roman-30"/>
       <use x="254.4921875" xlink:href="#BitstreamVeraSans-Roman-30"/>
      </g>
     </g>
    </g>
    <g id="ytick_8">
     <g id="line2d_14">
      <g>
       <use style="stroke:#000000;stroke-width:0.5;" x="49.41" xlink:href="#m855f0073de" y="21.87125"/>
      </g>
     </g>
     <g id="text_14">
      <!-- 14000 -->
      <g transform="translate(19.96 24.07875)scale(0.08 -0.08)">
       <use xlink:href="#BitstreamVeraSans-Roman-31"/>
       <use x="63.623046875" xlink:href="#BitstreamVeraSans-Roman-34"/>
       <use x="127.24609375" xlink:href="#BitstreamVeraSans-Roman-30"/>
       <use x="190.869140625" xlink:href="#BitstreamVeraSans-Roman-30"/>
       <use x="254.4921875" xlink:href="#BitstreamVeraSans-Roman-30"/>
      </g>
     </g>
    </g>
    <g id="ytick_9">
     <g id="line2d_15">
      <g>
       <use style="stroke:#000000;stroke-width:0.5;" x="49.41" xlink:href="#m855f0073de" y="11.07125"/>
      </g>
     </g>
     <g id="text_15">
      <!-- 16000 -->
      <g transform="translate(19.96 13.27875)scale(0.08 -0.08)">
       <use xlink:href="#BitstreamVeraSans-Roman-31"/>
       <use x="63.623046875" xlink:href="#BitstreamVeraSans-Roman-36"/>
       <use x="127.24609375" xlink:href="#BitstreamVeraSans-Roman-30"/>
       <use x="190.869140625" xlink:href="#BitstreamVeraSans-Roman-30"/>
       <use x="254.4921875" xlink:href="#BitstreamVeraSans-Roman-30"/>
      </g>
     </g>
    </g>
    <g id="text_16">
     <!-- Elevation ($z$) [$ft$] -->
     <defs>
      <path d="M 4.890625 -1.125 
Q 4.109375 -1.125 4.109375 -0.203125 
Q 4.109375 0.296875 4.296875 0.484375 
Q 6.984375 5.125 10.765625 9.34375 
Q 14.546875 13.578125 19.359375 17.890625 
Q 24.171875 22.21875 29.03125 26.5625 
Q 33.890625 30.90625 36.921875 34.28125 
L 36.53125 34.28125 
Q 34.328125 34.28125 30.078125 35.6875 
Q 25.828125 37.109375 23.390625 37.109375 
Q 20.75 37.109375 18.25 35.953125 
Q 15.765625 34.8125 15.09375 32.421875 
Q 14.9375 31.6875 14.3125 31.6875 
L 13.09375 31.6875 
Q 12.3125 31.6875 12.3125 32.71875 
L 12.3125 33.015625 
Q 13.09375 35.9375 14.875 38.46875 
Q 16.65625 41.015625 19.265625 42.59375 
Q 21.875 44.1875 24.703125 44.1875 
Q 26.703125 44.1875 28.015625 43.28125 
Q 29.34375 42.390625 31.09375 40.484375 
Q 32.859375 38.578125 33.953125 37.75 
Q 35.0625 36.921875 36.71875 36.921875 
Q 38.921875 36.921875 40.65625 38.921875 
Q 42.390625 40.921875 44.09375 43.890625 
Q 44.390625 44.1875 44.828125 44.1875 
L 46 44.1875 
Q 46.34375 44.1875 46.5625 43.9375 
Q 46.78125 43.703125 46.78125 43.3125 
Q 46.78125 42.96875 46.578125 42.671875 
Q 43.890625 38.03125 40.296875 34 
Q 36.71875 29.984375 30.921875 24.78125 
Q 25.140625 19.578125 21.15625 15.984375 
Q 17.1875 12.40625 13.71875 8.59375 
Q 14.5 8.796875 15.828125 8.796875 
Q 18.265625 8.796875 22.484375 7.390625 
Q 26.703125 6 29 6 
Q 31.5 6 34.03125 7.078125 
Q 36.578125 8.15625 38.421875 10.109375 
Q 40.28125 12.0625 40.921875 14.59375 
Q 41.15625 15.28125 41.703125 15.28125 
L 42.921875 15.28125 
Q 43.3125 15.28125 43.546875 14.96875 
Q 43.796875 14.65625 43.796875 14.3125 
Q 43.796875 14.203125 43.703125 14.015625 
Q 42.78125 10.203125 40.484375 6.765625 
Q 38.1875 3.328125 34.84375 1.09375 
Q 31.5 -1.125 27.6875 -1.125 
Q 25.78125 -1.125 24.453125 -0.234375 
Q 23.140625 0.640625 21.359375 2.5625 
Q 19.578125 4.5 18.453125 5.34375 
Q 17.328125 6.203125 15.71875 6.203125 
Q 10.75 6.203125 6.78125 -0.78125 
Q 6.453125 -1.125 6.109375 -1.125 
z
" id="Cmmi10-7a"/>
      <path d="M 30.609375 48.390625 
Q 23.390625 48.390625 19.1875 42.75 
Q 14.984375 37.109375 14.984375 27.296875 
Q 14.984375 17.484375 19.15625 11.84375 
Q 23.34375 6.203125 30.609375 6.203125 
Q 37.796875 6.203125 41.984375 11.859375 
Q 46.1875 17.53125 46.1875 27.296875 
Q 46.1875 37.015625 41.984375 42.703125 
Q 37.796875 48.390625 30.609375 48.390625 
M 30.609375 56 
Q 42.328125 56 49.015625 48.375 
Q 55.71875 40.765625 55.71875 27.296875 
Q 55.71875 13.875 49.015625 6.21875 
Q 42.328125 -1.421875 30.609375 -1.421875 
Q 18.84375 -1.421875 12.171875 6.21875 
Q 5.515625 13.875 5.515625 27.296875 
Q 5.515625 40.765625 12.171875 48.375 
Q 18.84375 56 30.609375 56 
" id="BitstreamVeraSans-Roman-6f"/>
      <path d="M 9.421875 75.984375 
L 18.40625 75.984375 
L 18.40625 0 
L 9.421875 0 
z
" id="BitstreamVeraSans-Roman-6c"/>
      <path d="M 9.8125 72.90625 
L 55.90625 72.90625 
L 55.90625 64.59375 
L 19.671875 64.59375 
L 19.671875 43.015625 
L 54.390625 43.015625 
L 54.390625 34.71875 
L 19.671875 34.71875 
L 19.671875 8.296875 
L 56.78125 8.296875 
L 56.78125 0 
L 9.8125 0 
z
" id="BitstreamVeraSans-Roman-45"/>
      <path d="M 6.203125 8.109375 
Q 6.203125 9.578125 6.5 10.890625 
L 13.71875 39.59375 
L 3.21875 39.59375 
Q 2.203125 39.59375 2.203125 40.921875 
Q 2.59375 43.109375 3.515625 43.109375 
L 14.59375 43.109375 
L 18.609375 59.421875 
Q 19 60.75 20.171875 61.671875 
Q 21.34375 62.59375 22.796875 62.59375 
Q 24.078125 62.59375 24.921875 61.828125 
Q 25.78125 61.078125 25.78125 59.8125 
Q 25.78125 59.515625 25.75 59.34375 
Q 25.734375 59.1875 25.6875 58.984375 
L 21.6875 43.109375 
L 31.984375 43.109375 
Q 33.015625 43.109375 33.015625 41.796875 
Q 32.953125 41.546875 32.8125 40.953125 
Q 32.671875 40.375 32.421875 39.984375 
Q 32.171875 39.59375 31.6875 39.59375 
L 20.796875 39.59375 
L 13.625 10.6875 
Q 12.890625 7.859375 12.890625 5.8125 
Q 12.890625 1.515625 15.828125 1.515625 
Q 20.21875 1.515625 23.609375 5.640625 
Q 27 9.765625 28.8125 14.703125 
Q 29.203125 15.28125 29.59375 15.28125 
L 30.8125 15.28125 
Q 31.203125 15.28125 31.4375 15.015625 
Q 31.6875 14.75 31.6875 14.40625 
Q 31.6875 14.203125 31.59375 14.109375 
Q 29.390625 8.0625 25.1875 3.46875 
Q 21 -1.125 15.578125 -1.125 
Q 11.625 -1.125 8.90625 1.453125 
Q 6.203125 4.046875 6.203125 8.109375 
" id="Cmmi10-74"/>
      <path d="M 9.71875 -16.5 
Q 11.578125 -17.921875 14.203125 -17.921875 
Q 17.78125 -17.921875 20.015625 -10.015625 
Q 20.953125 -6.203125 25.09375 15.09375 
L 29.6875 39.59375 
L 21.09375 39.59375 
Q 20.125 39.59375 20.125 40.921875 
Q 20.515625 43.109375 21.390625 43.109375 
L 30.328125 43.109375 
L 31.5 49.609375 
Q 32.078125 52.640625 32.5625 54.8125 
Q 33.0625 56.984375 33.625 58.828125 
Q 34.1875 60.6875 35.296875 62.984375 
Q 37.015625 66.265625 39.921875 68.390625 
Q 42.828125 70.515625 46.1875 70.515625 
Q 48.390625 70.515625 50.46875 69.703125 
Q 52.546875 68.890625 53.859375 67.28125 
Q 55.171875 65.671875 55.171875 63.484375 
Q 55.171875 60.9375 53.484375 59.046875 
Q 51.8125 57.171875 49.421875 57.171875 
Q 47.796875 57.171875 46.65625 58.171875 
Q 45.515625 59.1875 45.515625 60.796875 
Q 45.515625 62.984375 47 64.625 
Q 48.484375 66.265625 50.6875 66.5 
Q 48.828125 67.921875 46.09375 67.921875 
Q 44.578125 67.921875 43.234375 66.5 
Q 41.890625 65.09375 41.5 63.484375 
Q 40.875 60.9375 38.71875 49.703125 
L 37.5 43.109375 
L 47.796875 43.109375 
Q 48.78125 43.109375 48.78125 41.796875 
Q 48.734375 41.546875 48.578125 40.9375 
Q 48.4375 40.328125 48.171875 39.953125 
Q 47.90625 39.59375 47.515625 39.59375 
L 36.8125 39.59375 
L 32.171875 15.1875 
Q 31.296875 9.859375 30.140625 4.359375 
Q 29 -1.125 26.921875 -6.90625 
Q 24.859375 -12.703125 21.625 -16.609375 
Q 18.40625 -20.515625 14.015625 -20.515625 
Q 10.640625 -20.515625 7.984375 -18.578125 
Q 5.328125 -16.65625 5.328125 -13.484375 
Q 5.328125 -10.9375 6.953125 -9.046875 
Q 8.59375 -7.171875 11.078125 -7.171875 
Q 12.75 -7.171875 13.859375 -8.171875 
Q 14.984375 -9.1875 14.984375 -10.796875 
Q 14.984375 -12.9375 13.390625 -14.71875 
Q 11.8125 -16.5 9.71875 -16.5 
" id="Cmmi10-66"/>
      <path d="M 2.984375 54.6875 
L 12.5 54.6875 
L 29.59375 8.796875 
L 46.6875 54.6875 
L 56.203125 54.6875 
L 35.6875 0 
L 23.484375 0 
z
" id="BitstreamVeraSans-Roman-76"/>
     </defs>
     <g transform="translate(13.28 86.91125)rotate(-90.0)scale(0.08 -0.08)">
      <use transform="translate(0.0 0.015625)" xlink:href="#BitstreamVeraSans-Roman-45"/>
      <use transform="translate(63.18359375 0.015625)" xlink:href="#BitstreamVeraSans-Roman-6c"/>
      <use transform="translate(90.966796875 0.015625)" xlink:href="#BitstreamVeraSans-Roman-65"/>
      <use transform="translate(152.490234375 0.015625)" xlink:href="#BitstreamVeraSans-Roman-76"/>
      <use transform="translate(211.669921875 0.015625)" xlink:href="#BitstreamVeraSans-Roman-61"/>
      <use transform="translate(272.94921875 0.015625)" xlink:href="#BitstreamVeraSans-Roman-74"/>
      <use transform="translate(312.158203125 0.015625)" xlink:href="#BitstreamVeraSans-Roman-69"/>
      <use transform="translate(339.94140625 0.015625)" xlink:href="#BitstreamVeraSans-Roman-6f"/>
      <use transform="translate(401.123046875 0.015625)" xlink:href="#BitstreamVeraSans-Roman-6e"/>
      <use transform="translate(464.501953125 0.015625)" xlink:href="#BitstreamVeraSans-Roman-20"/>
      <use transform="translate(496.2890625 0.015625)" xlink:href="#BitstreamVeraSans-Roman-28"/>
      <use transform="translate(535.302734375 0.015625)" xlink:href="#Cmmi10-7a"/>
      <use transform="translate(581.787109375 0.015625)" xlink:href="#BitstreamVeraSans-Roman-29"/>
      <use transform="translate(620.80078125 0.015625)" xlink:href="#BitstreamVeraSans-Roman-20"/>
      <use transform="translate(652.587890625 0.015625)" xlink:href="#BitstreamVeraSans-Roman-5b"/>
      <use transform="translate(691.6015625 0.015625)" xlink:href="#Cmmi10-66"/>
      <use transform="translate(740.478515625 0.015625)" xlink:href="#Cmmi10-74"/>
      <use transform="translate(776.5625 0.015625)" xlink:href="#BitstreamVeraSans-Roman-5d"/>
     </g>
    </g>
   </g>
  </g>
 </g>
 <defs>
  <clipPath id="pc8c9de3ace">
   <rect height="86.4" width="412.92" x="49.41" y="11.07125"/>
  </clipPath>
 </defs>
</svg>
