<?xml version="1.0" encoding="UTF-8" standalone="no"?>
<!-- Created with Inkscape (http://www.inkscape.org/) -->

<svg
   xmlns:dc="http://purl.org/dc/elements/1.1/"
   xmlns:cc="http://creativecommons.org/ns#"
   xmlns:rdf="http://www.w3.org/1999/02/22-rdf-syntax-ns#"
   xmlns:svg="http://www.w3.org/2000/svg"
   xmlns="http://www.w3.org/2000/svg"
   xmlns:sodipodi="http://sodipodi.sourceforge.net/DTD/sodipodi-0.dtd"
   xmlns:inkscape="http://www.inkscape.org/namespaces/inkscape"
   width="34.938301mm"
   height="23.222797mm"
   viewBox="0 0 123.79713 82.285502"
   id="svg2"
   version="1.1"
   inkscape:version="0.91 r13725"
   sodipodi:docname="la_scala.svg">
  <defs
     id="defs4" />
  <sodipodi:namedview
     id="base"
     pagecolor="#ffffff"
     bordercolor="#666666"
     borderopacity="1.0"
     inkscape:pageopacity="0.0"
     inkscape:pageshadow="2"
     inkscape:zoom="2.3062284"
     inkscape:cx="134.44586"
     inkscape:cy="38.397288"
     inkscape:document-units="px"
     inkscape:current-layer="layer1"
     showgrid="false"
     fit-margin-top="0"
     fit-margin-left="0"
     fit-margin-right="0"
     fit-margin-bottom="0"
     inkscape:window-width="1920"
     inkscape:window-height="1048"
     inkscape:window-x="0"
     inkscape:window-y="0"
     inkscape:window-maximized="1" />
  <metadata
     id="metadata7">
    <rdf:RDF>
      <cc:Work
         rdf:about="">
        <dc:format>image/svg+xml</dc:format>
        <dc:type
           rdf:resource="http://purl.org/dc/dcmitype/StillImage" />
        <dc:title></dc:title>
      </cc:Work>
    </rdf:RDF>
  </metadata>
  <g
     inkscape:label="Layer 1"
     inkscape:groupmode="layer"
     id="layer1"
     transform="translate(-19.839883,-948.47403)">
    <path
       inkscape:connector-curvature="0"
       id="path4243"
       d="m 67.285741,1029.4148 c -22.202078,-4.7011 -36.353012,-13.0609 -43.625833,-25.7725 -2.663962,-4.65611 -3.303379,-6.98101 -3.672186,-13.35193 -0.388769,-6.71577 -0.116238,-8.43566 2.105784,-13.2892 5.076729,-11.08904 17.148293,-20.75629 32.222571,-25.80475 6.408261,-2.14616 8.620929,-2.33271 27.469664,-2.31598 19.879569,0.0177 20.726879,0.10171 27.996379,2.77727 14.91879,5.49089 25.50204,13.89213 30.58324,24.27774 6.01244,12.28899 3.75848,23.71618 -6.93209,35.14445 -13.86716,14.824 -43.68935,23.0902 -66.147529,18.3349 z m 7.5,-3.8859 c 0,-1.3021 -1.188773,-2.168 -2.155792,-1.5704 -1.034219,0.6392 -0.142445,2.4037 1.214809,2.4037 0.517541,0 0.940983,-0.375 0.940983,-0.8333 z m 23.384009,-4.1667 -0.639625,-4 5.177465,0 c 2.84761,0 6.51834,-0.6933 8.15718,-1.5408 3.37022,-1.7428 4.92097,-1.2387 4.92097,1.5999 0,1.0675 0.42344,1.9409 0.94098,1.9409 1.44712,0 2.21757,-1.7839 1.07533,-2.4899 -2.08669,-1.2896 -0.85054,-4.0971 3.00504,-6.8249 2.18826,-1.5482 3.97865,-3.2357 3.97865,-3.75 0,-1.2497 3.71771,-1.2009 4.49636,0.059 0.33792,0.5467 -0.64802,2.6706 -2.19098,4.7197 l -2.80538,3.7256 3.1039,-2.1838 c 3.98392,-2.8029 7.98153,-8.0642 10.56507,-13.90473 1.58999,-3.59445 1.95613,-6.13123 1.65474,-11.46499 -0.44227,-7.82717 -1.55349,-9.69615 -4.62461,-7.7782 -1.65512,1.03364 -2.33293,1.02608 -3.6179,-0.0403 -0.86966,-0.72176 -1.59966,-1.81968 -1.62221,-2.43984 -0.0577,-1.58725 -7.48586,-9.62756 -8.89452,-9.62756 -0.64008,0 -2.60394,-0.76099 -4.36413,-1.69109 -7.47823,-3.95156 -16.2633,-6.51863 -21.788077,-6.36666 -6.793983,0.18689 -8.518533,-1.21977 -6.430252,-5.24493 l 1.399384,-2.69732 -9.440697,0 c -5.504893,0 -9.440697,0.40895 -9.440697,0.98095 0,1.66231 5.186654,2.38707 8.400745,1.17389 2.572178,-0.97089 3.315326,-0.87764 4.760152,0.59733 3.810869,3.89036 2.886106,4.46648 -7.160897,4.46118 -5.225,-0.003 -10.004182,0.40481 -10.620403,0.90571 -0.616222,0.5009 -2.866222,1.01652 -5,1.14583 -3.557175,0.21557 -3.905894,0.007 -4.196019,-2.51489 -0.418109,-3.63374 -2.108821,-3.53172 -10.843645,0.65433 -6.362898,3.04934 -9.856085,5.6029 -7.64895,5.59149 1.107218,-0.006 10.200233,-4.66065 11.964616,-6.12495 0.999353,-0.82939 1.745365,-0.86991 2.480563,-0.13471 2.122386,2.12239 0.292946,4.75418 -5.096625,7.33189 l -5.439536,2.60161 0.288255,9.90346 c 0.158541,5.44691 0.500098,10.24623 0.759017,10.66517 0.258918,0.41894 2.731703,0.76171 5.495077,0.76171 3.575009,0 4.904126,0.36057 4.60765,1.25 -0.282666,0.848 -2.767514,1.25 -7.726461,1.25 l -7.309795,0 0.159536,-9 c 0.191949,-10.82848 -0.670331,-12.80231 -3.263645,-7.47074 -2.333677,4.79778 -4.059188,5.52119 -6.75035,2.83003 -2.401174,-2.40118 -3.172499,-1.74267 -4.850121,4.14071 -2.069066,7.25617 -0.84183,13.71862 4.0786,21.47732 l 3.112749,4.9083 1.761911,-2.3358 c 2.528361,-3.352 6.677906,-2.1549 8.616894,2.4857 1.193354,2.8561 1.97193,3.4644 4.434102,3.4644 1.642619,0 2.98658,0.45 2.98658,1 0,0.55 1.055256,1 2.345012,1 1.289757,0 3.095951,0.8298 4.013765,1.844 2.267091,2.5051 11.883322,4.632 14.532401,3.2143 1.376336,-0.7366 2.185725,-0.7428 2.632291,-0.02 0.354665,0.5739 1.528569,0.7629 2.608676,0.4201 1.080107,-0.3428 2.632576,-0.068 3.449932,0.6101 1.115123,0.9254 2.039262,0.957 3.702012,0.1263 1.405713,-0.7022 4.409675,-0.8474 8.215911,-0.397 5.376458,0.6362 5.991748,0.9434 5.920599,2.9562 -0.04423,1.2514 0.514682,2.2463 1.261818,2.2463 1.004692,0 1.180729,-1.0036 0.701592,-4 z m -28.883186,-8.0729 c -13.516809,-1.5644 -23.482744,-6.2046 -21.943066,-10.217 1.312387,-3.42 11.590819,-7.37535 21.692243,-8.34759 3.7125,-0.35732 6.75,-0.98045 6.75,-1.38475 0,-0.40429 -1.317665,-1.28087 -2.928145,-1.94796 -3.203023,-1.32673 -4.686794,-3.81482 -3.175957,-5.32566 0.615283,-0.61528 1.935834,-0.19502 3.667641,1.16722 5.068193,3.98664 12.436461,2.26462 12.436461,-2.9065 0,-2.78411 -0.239832,-2.96482 -3.9349,-2.96482 -7.43258,0 -11.24181,-2.93278 -9.072927,-6.98538 1.142258,-2.13432 8.922311,-5.37032 11.648975,-4.84521 2.817094,0.54252 2.29404,3.31811 -0.641148,3.40226 -5.911983,0.16949 -9.937941,3.42237 -4.25,3.43391 4.282496,0.009 10.302733,1.96827 10.910183,3.55126 0.46722,1.21755 0.966974,1.18576 3.333255,-0.21204 2.803195,-1.65588 6.006562,-1.31 6.006562,0.64857 0,0.58087 -1.152078,1.49415 -2.560174,2.02951 -2.952597,1.12257 -2.380002,2.97712 0.919191,2.97712 2.696832,0 4.640982,-1.75144 4.640982,-4.18095 0,-2.57204 4.59243,-3.49787 6.91674,-1.3944 1.63944,1.48367 1.90004,1.4952 2.43252,0.10758 0.328,-0.85476 0.35566,-2.78668 0.0615,-4.29317 -0.60566,-3.10138 1.65382,-6.93524 3.43758,-5.83282 0.67602,0.41783 1.15166,3.37187 1.15166,7.15278 0,3.54254 0.43588,6.44098 0.96862,6.44098 0.53273,0 0.7136,-0.66454 0.40193,-1.47676 -0.84921,-2.21299 3.7618,-4.05796 6.49115,-2.59726 2.50924,1.34291 3.844,5.73167 2.42661,7.9788 -0.84685,1.34258 -3.52291,1.61381 -16.89726,1.71258 -8.74008,0.0645 -16.721006,-0.31151 -17.735398,-0.83568 -1.371731,-0.70882 -2.396738,-0.45357 -4,0.99607 -1.185608,1.07201 -3.036367,2.41812 -4.112798,2.99136 -1.737329,0.92518 -1.490641,1.16786 2.19639,2.16068 2.605427,0.70156 5.063869,2.28162 6.595935,4.23923 l 2.442398,3.12084 11.202503,-1.3322 c 12.26881,-1.45907 14.30714,-1.01499 14.82048,3.2288 0.56391,4.6619 -1.70728,5.3173 -14.13109,4.0776 l -11.169469,-1.1146 -2.698273,2.9304 c -4.638504,5.0374 -8.599348,5.6645 -24.300904,3.8472 z M 54.169603,987.92019 c -0.328812,-0.85687 -0.253721,-2.34545 0.166868,-3.30795 0.42059,-0.9625 0.673871,-2.3131 0.562848,-3.00133 -0.332469,-2.06096 4.274339,-3.64662 6.748121,-2.32269 2.505606,1.34096 3.843635,5.72762 2.433711,7.9788 -1.400993,2.23691 -9.108891,2.74486 -9.911548,0.65317 z m -6.383862,29.88301 c 0,-0.8574 -0.45,-1.2809 -1,-0.941 -0.55,0.34 -1,1.0415 -1,1.5591 0,0.5175 0.45,0.9409 1,0.9409 0.55,0 1,-0.7015 1,-1.559 z m 87.029809,-44.38527 c -0.57231,-1.06937 -1.55767,-2.26389 -2.1897,-2.6545 -0.77001,-0.4759 -0.88183,-0.24684 -0.33892,0.6943 2.14477,3.718 4.40855,5.47289 2.52862,1.9602 z M 32.42107,971.81072 c 2.397761,-2.58723 3.041675,-4.44848 1.538985,-4.44848 -0.866313,0 -4.373387,3.61097 -5.584565,5.75 -1.272316,2.24701 1.618963,1.31684 4.04558,-1.30152 z m 93.36467,-7.44848 c 0,-0.55 -0.45,-1 -1,-1 -0.55,0 -1,0.45 -1,1 0,0.55 0.45,1 1,1 0.55,0 1,-0.45 1,-1 z m -3,-2.39301 c 0,-0.21616 -0.69837,-0.661 -1.55194,-0.98855 -0.88992,-0.34149 -1.29132,-0.17385 -0.94098,0.39301 0.58726,0.95021 2.49292,1.40545 2.49292,0.59554 z m -7.57003,-3.7203 c -1.00883,-1.63232 -2.42997,-0.90961 -2.42997,1.23576 0,1.76625 0.24988,1.91506 1.48899,0.88669 0.81894,-0.67966 1.24239,-1.63477 0.94098,-2.12245 z m -49.45517,-2.88669 c 0.996173,0 2.093449,-0.73547 2.438392,-1.63438 0.536484,-1.39805 0.03393,-1.5548 -3.475598,-1.08407 -2.256523,0.30266 -4.335665,0.78319 -4.620316,1.06784 -0.998964,0.99896 0.900896,2.78087 2.365661,2.21878 0.81435,-0.31249 2.295688,-0.56817 3.291861,-0.56817 z m 42.0252,0 c 0,-0.55 -0.70156,-1 -1.55902,-1 -0.85746,0 -1.2809,0.45 -0.94098,1 0.33992,0.55 1.04148,1 1.55902,1 0.51754,0 0.94098,-0.45 0.94098,-1 z m -8.45888,-1.06653 c 0.8895,-1.43925 0.571002,-1.64074 -3.919583,-2.47968 -3.04597,-0.56905 -3.781314,-0.43312 -3.425861,0.63324 0.248932,0.74679 1.54424,1.66286 2.878464,2.03571 3.539456,0.98909 3.744069,0.98042 4.46698,-0.18927 z"
       style="fill:#aeaeae" />
    <path
       inkscape:connector-curvature="0"
       id="path4241"
       d="m 76.535741,1028.63 c 2.3375,-0.2105 6.1625,-0.2105 8.5,0 2.3375,0.2106 0.425,0.3828 -4.25,0.3828 -4.675,0 -6.5875,-0.1722 -4.25,-0.3828 z m 2.5,-4.0811 c -1.7875,-0.1724 -3.24932,-0.8474 -3.248488,-1.5 0.0011,-0.8284 2.874902,-1.2035 9.518626,-1.2425 6.255907,-0.037 9.398152,0.3059 9.16995,1 -0.376036,1.1436 -10.177873,2.2499 -15.440088,1.7425 z m -13.75,-0.9153 c -1.65,-0.2466 -3.556769,-0.9089 -4.237265,-1.4717 -0.680496,-0.5629 -1.820188,-0.7997 -2.532649,-0.5263 -1.406016,0.5395 -6.363558,-2.9732 -5.464679,-3.8721 0.301803,-0.3018 2.045792,0.2254 3.875532,1.1716 1.912385,0.989 5.788022,1.7643 9.115767,1.8238 4.551076,0.081 5.72817,0.4216 5.504648,1.5919 -0.315168,1.65 -1.78684,1.9515 -6.261354,1.2828 z m 34.118056,-1.9866 c -0.339931,-0.34 -0.618056,-1.2732 -0.618056,-2.0739 0,-1.159 0.295867,-1.2102 1.451559,-0.2511 1.44619,1.2003 6.04446,0.3123 10.78487,-2.0825 2.12836,-1.0753 3.76484,-1.1306 3.75982,-0.1273 -0.009,1.7331 -14.04176,5.8712 -15.378193,4.5348 z m -58.868056,-7.0292 c -2.793552,-1.746 -3.621619,-4.5988 -1.682692,-5.7972 0.590343,-0.3648 1.318752,0.3019 1.629966,1.492 0.357823,1.3683 1.621715,2.3634 3.471755,2.7334 1.600003,0.32 2.741728,1.0846 2.537167,1.6991 -0.592993,1.7812 -2.984407,1.7301 -5.956196,-0.1273 z m 77.732979,0.7169 c -0.35767,-0.5787 1.29984,-2.8158 3.68335,-4.9713 4.69054,-4.2419 5.83367,-4.7556 5.83367,-2.6216 0,1.9556 -8.70752,8.9027 -9.51702,7.5929 z m -49.946304,-3.1179 c -11.913812,-1.5268 -20.536675,-4.9771 -20.536675,-8.2174 0,-3.6697 9.896738,-7.24884 24.179019,-8.74428 13.592989,-1.42327 16.90317,-0.8297 20.637463,3.70065 l 2.900359,3.51863 8.467568,-1.1268 c 10.71409,-1.4258 15.77894,-1.0353 17.21431,1.3273 1.74136,2.8662 -2.7497,6.0684 -7.37562,5.2589 -1.9377,-0.3391 -7.18519,-0.8947 -11.66108,-1.2347 -7.717902,-0.5862 -8.173227,-0.5071 -8.820867,1.5335 -1.538961,4.8488 -8.991862,6.0364 -25.004477,3.9842 z m -12.036675,-7.8546 c 0.339919,-0.55 -0.335081,-1 -1.5,-1 -1.164919,0 -1.839919,0.45 -1.5,1 0.339919,0.55 1.014919,1 1.5,1 0.485081,0 1.160081,-0.45 1.5,-1 z m 6.5,0.059 c 0,-0.5176 -0.45,-1.2191 -1,-1.5591 -0.55,-0.3399 -1,0.084 -1,0.941 0,0.8575 0.45,1.559 1,1.559 0.55,0 1,-0.4234 1,-0.9409 z M 39.76748,991.11224 c -0.01004,-0.1375 -0.122543,-4.5907 -0.25,-9.89601 -0.186418,-7.75954 -0.593145,-10.04517 -2.0797,-11.68699 -1.960383,-2.16514 -1.508692,-4.167 0.940222,-4.167 0.810824,0 3.694307,-1.125 6.407739,-2.5 5.366373,-2.71935 7,-3.06112 7,-1.46446 0,0.56954 -1.9125,1.89909 -4.25,2.95454 -6.278624,2.83499 -8.414403,4.74552 -6.946253,6.21367 0.734792,0.73479 1.196253,4.37525 1.196253,9.43723 0,4.53254 0.45,8.5191 1,8.85902 1.691037,1.04512 1.109085,2.5 -1,2.5 -1.1,0 -2.008217,-0.1125 -2.018261,-0.25 z m 31.966714,-1.59066 c -1.320406,-1.0692 -1.846882,-2.10408 -1.256144,-2.46918 0.559334,-0.34568 2.060825,0.48261 3.336645,1.84066 2.703039,2.87725 1.241742,3.31871 -2.080501,0.62852 z m 13.494843,-1.38185 c 2.006613,-2.86484 1.994262,-6.39561 -0.02508,-7.1705 -0.869987,-0.33384 -3.258978,-0.60699 -5.308874,-0.60699 -4.888583,0 -8.017426,-2.21669 -6.537899,-4.63191 1.491892,-2.4354 3.25207,-2.82352 3.075616,-0.67817 -0.120703,1.46752 0.911876,1.90366 5.761583,2.4336 4.568254,0.49919 6.308994,1.17641 7.673458,2.98532 1.680875,2.22839 1.85544,2.25766 3.670099,0.61542 2.079796,-1.88219 5.247801,-2.31941 5.247801,-0.72426 0,0.55 -0.851855,1 -1.893011,1 -2.573014,0 -3.272869,2.31816 -1.474846,4.8852 1.836417,2.62185 -0.06596,2.93716 -2.798884,0.4639 -1.709997,-1.54753 -1.978054,-1.48491 -4.280992,1 -3.016875,3.25526 -5.310338,3.57129 -3.108971,0.42839 z m -29.943296,-0.77749 c -0.729202,-1.17987 0.216667,-3 1.559017,-3 0.517541,0 0.940983,0.9 0.940983,2 0,2.10909 -1.454882,2.69104 -2.5,1 z m 5.176614,0.25 c -0.242781,-0.4125 -0.755093,-2.2125 -1.138472,-4 -0.609252,-2.84063 -0.437525,-3.25 1.363351,-3.25 2.206288,0 3.789362,3.75728 2.737739,6.49776 -0.611572,1.59373 -2.226075,2.00367 -2.962618,0.75224 z m 41.823385,-0.25 c -0.7292,-1.17987 0.21667,-3 1.55902,-3 0.51754,0 0.94098,0.9 0.94098,2 0,2.10909 -1.45488,2.69104 -2.5,1 z m 4.83487,-3.03992 c -1.02914,-3.85567 -0.97523,-4.05077 1.03986,-3.76329 1.69318,0.24157 2.12527,0.99786 2.12527,3.71988 0,4.8386 -1.87835,4.86437 -3.16513,0.0434 z m 10.80443,3.14718 c -0.74838,-0.47417 -2.23001,-0.63479 -3.2925,-0.35694 -1.80892,0.47304 -1.91321,-0.0123 -1.63931,-7.62921 0.36786,-10.22993 2.18849,-11.18941 2.58648,-1.36309 0.28975,7.15374 0.32926,7.24916 2.75,6.64159 2.02637,-0.50859 2.45603,-0.24758 2.45603,1.49198 0,2.27008 -0.71616,2.57442 -2.8607,1.21567 z m 5.5482,0.24691 c -0.37812,-0.37813 -0.6875,-1.71514 -0.6875,-2.97115 0,-1.256 -0.7875,-2.76317 -1.75,-3.34927 -1.42207,-0.86594 -1.09414,-1.01579 1.75,-0.79969 3.26518,0.2481 3.5,0.49517 3.5,3.68261 0,3.26251 -1.34437,4.90563 -2.8125,3.4375 z M 29.395985,977.54062 c -0.279284,-0.45189 0.314626,-1.5258 1.319801,-2.38645 1.005175,-0.86066 2.02118,-2.1456 2.25779,-2.85543 0.240487,-0.72147 0.962407,-0.96168 1.637059,-0.54472 0.909093,0.56185 0.779653,1.46908 -0.524624,3.67705 -1.691897,2.86415 -3.672946,3.75522 -4.690026,2.10955 z m 101.442775,-1.42838 c -0.49361,-1.2375 -2.03084,-3.43913 -3.41606,-4.89252 -1.38522,-1.45339 -2.26966,-2.89145 -1.96542,-3.19569 0.70933,-0.70933 5.58408,4.01487 7.83003,7.58821 1.57921,2.51256 1.58687,2.75 0.0887,2.75 -0.90187,0 -2.04363,-1.0125 -2.53724,-2.25 z m -13.971,-11.82958 c -2.25753,-1.87947 -2.3073,-2.12372 -0.75,-3.68102 1.55731,-1.5573 1.66798,-1.55258 1.66798,0.0711 0,0.95647 1.125,2.16677 2.5,2.68954 1.375,0.52277 2.5,1.41164 2.5,1.97525 0,1.69033 -3.33452,1.09598 -5.91798,-1.05483 z m 10.91798,0.0796 c 0,-0.55 0.45,-1 1,-1 0.55,0 1,0.45 1,1 0,0.55 -0.45,1 -1,1 -0.55,0 -1,-0.45 -1,-1 z m -22.31393,-4.01657 c -3.14701,-0.94464 -5.686069,-2.77808 -5.686069,-4.10587 0,-1.21067 3.738969,-1.10893 4.499999,0.12244 0.33992,0.55 1.94148,1 3.55902,1 2.27431,0 2.94098,0.45336 2.94098,2 0,2.14361 -0.89628,2.30949 -5.31393,0.98343 z m -47.152556,-0.78325 c -1.55238,-1.55238 -0.07826,-2.74598 3.50745,-2.84 2.527537,-0.0663 3.90399,0.30496 3.675235,0.99123 -0.39779,1.19337 -6.31503,2.71642 -7.182685,1.84877 z m 32.716487,-1.90591 c -1.2375,-0.23836 -2.25,-1.05052 -2.25,-1.8048 0,-1.84291 1.723837,-2.81796 2.240692,-1.2674 0.226331,0.679 1.462795,1.2443 2.747698,1.25624 1.284903,0.0119 2.525657,0.58419 2.757232,1.27169 0.420568,1.24858 -1.071626,1.39637 -5.495622,0.54427 z m -22.25,-1.67283 c 0,-1.61349 14.236805,-1.41103 14.777196,0.21015 0.296642,0.88993 -1.624418,1.17534 -7.186159,1.06767 -4.892951,-0.0947 -7.591037,-0.54891 -7.591037,-1.27782 z m -23,-0.0145 c 0,-0.21616 0.698372,-0.661 1.551938,-0.98855 0.889925,-0.34149 1.291322,-0.17385 0.940983,0.39301 -0.587258,0.95021 -2.492921,1.40545 -2.492921,0.59554 z m 6,-2.60699 c 0.825,-0.53316 1.95,-0.96937 2.5,-0.96937 0.55,0 0.325,0.43621 -0.5,0.96937 -0.825,0.53316 -1.95,0.96937 -2.5,0.96937 -0.55,0 -0.325,-0.43621 0.5,-0.96937 z m 24.286513,-4.74008 c 3.182582,-0.19905 8.132582,-0.1972 11,0.004 2.867418,0.20131 0.263487,0.36417 -5.786513,0.36191 -6.05,-0.002 -8.396069,-0.16696 -5.213487,-0.36601 z"
       style="fill:#979797" />
    <path
       inkscape:connector-curvature="0"
       id="path4239"
       d="m 68.322416,1011.2168 c -9.500482,-1.2175 -13.788081,-2.4779 -16.985443,-4.9929 -2.301636,-1.8105 -2.502354,-2.3391 -1.332392,-3.5091 2.729408,-2.72938 12.495636,-5.44956 23.559489,-6.56198 10.05531,-1.01102 11.66587,-0.94918 14.852124,0.57024 1.965587,0.93732 3.797183,2.55846 4.070213,3.60254 0.732815,2.8023 1.918546,2.9522 13.948503,1.7636 11.46843,-1.133 14.35083,-0.7903 14.35083,1.7065 0,2.8974 -3.65901,3.7735 -11.00215,2.6342 -10.01464,-1.5539 -16.997849,-1.406 -16.997849,0.3598 0,0.785 -1.185686,2.36 -2.634859,3.5 -2.928813,2.3038 -9.056042,2.564 -21.828466,0.9271 z m 17.828227,-3.5663 c 2.069415,-1.0535 2.561938,-1.7614 1.773793,-2.5496 -0.788144,-0.7881 -0.786072,-1.4586 0.0075,-2.4148 0.856519,-1.032 0.307525,-1.6542 -2.491675,-2.82376 -4.146839,-1.73266 -7.055773,-1.95842 -6.139904,-0.47651 0.415502,0.67227 -0.765424,0.80007 -3.440983,0.37219 -2.374898,-0.37976 -4.073633,-0.25331 -4.073633,0.30318 0,0.5251 -1.35,0.7565 -3,0.5143 -1.65,-0.2421 -3,-0.04 -3,0.4501 0,0.4897 -2.5875,0.8128 -5.75,0.718 -7.006837,-0.2101 -9.25,0.3154 -9.25,2.167 0,1.5935 4.301392,3.0014 5.986969,1.9597 0.605353,-0.3741 1.727164,-0.1603 2.492914,0.4752 1.054327,0.8751 1.92884,0.8684 3.602834,-0.028 1.813185,-0.9704 2.369276,-0.8995 3.093473,0.3946 0.680144,1.2153 1.450273,1.362 3.353361,0.6384 1.580568,-0.6009 2.470449,-0.588 2.470449,0.036 0,0.5364 1.125,0.9752 2.5,0.9752 2.460597,0 5.847771,-2.5433 6.669232,-5.0077 0.271239,-0.8137 1.209381,-1.0069 2.657554,-0.5472 2.17978,0.6918 2.154484,0.7672 -0.967139,2.8827 -4.081946,2.7662 -5.090743,5.1893 -1.72796,4.1505 1.302572,-0.4024 3.657519,-1.3879 5.233215,-2.19 z m 38.714047,-22.87159 c 0.048,-1.16495 0.28494,-1.4019 0.60416,-0.60417 0.28887,0.72187 0.25335,1.58438 -0.0789,1.91667 -0.3323,0.33229 -0.56864,-0.25834 -0.52522,-1.3125 z m -16,-1 c 0.048,-1.16495 0.28494,-1.4019 0.60416,-0.60417 0.28888,0.72187 0.25335,1.58438 -0.079,1.91667 -0.33229,0.33229 -0.56864,-0.25834 -0.52522,-1.3125 z m -21.734864,-1.96684 c -1.291094,-2.73633 -0.277945,-3.27999 1.691089,-0.90745 0.766491,0.92357 0.915919,1.90646 0.372444,2.44983 -0.543419,0.54332 -1.37145,-0.0756 -2.063533,-1.54238 z"
       style="fill:#676767" />
  </g>
</svg>
