<?xml version="1.0" encoding="UTF-8" standalone="no"?>
<!-- Created with Inkscape (http://www.inkscape.org/) -->

<svg
   xmlns:dc="http://purl.org/dc/elements/1.1/"
   xmlns:cc="http://creativecommons.org/ns#"
   xmlns:rdf="http://www.w3.org/1999/02/22-rdf-syntax-ns#"
   xmlns:svg="http://www.w3.org/2000/svg"
   xmlns="http://www.w3.org/2000/svg"
   xmlns:sodipodi="http://sodipodi.sourceforge.net/DTD/sodipodi-0.dtd"
   xmlns:inkscape="http://www.inkscape.org/namespaces/inkscape"
   width="59.555943mm"
   height="85.780853mm"
   viewBox="0 0 211.02499 303.9479"
   id="svg4280"
   version="1.1"
   inkscape:version="0.91 r13725"
   sodipodi:docname="professor_joes.svg">
  <defs
     id="defs4282" />
  <sodipodi:namedview
     id="base"
     pagecolor="#ffffff"
     bordercolor="#666666"
     borderopacity="1.0"
     inkscape:pageopacity="0.0"
     inkscape:pageshadow="2"
     inkscape:zoom="2.5883741"
     inkscape:cx="95.202211"
     inkscape:cy="150.42457"
     inkscape:document-units="px"
     inkscape:current-layer="layer1"
     showgrid="false"
     fit-margin-top="0"
     fit-margin-left="0"
     fit-margin-right="0"
     fit-margin-bottom="0"
     inkscape:window-width="1920"
     inkscape:window-height="1019"
     inkscape:window-x="1920"
     inkscape:window-y="29"
     inkscape:window-maximized="1" />
  <metadata
     id="metadata4285">
    <rdf:RDF>
      <cc:Work
         rdf:about="">
        <dc:format>image/svg+xml</dc:format>
        <dc:type
           rdf:resource="http://purl.org/dc/dcmitype/StillImage" />
        <dc:title></dc:title>
      </cc:Work>
    </rdf:RDF>
  </metadata>
  <g
     inkscape:label="Layer 1"
     inkscape:groupmode="layer"
     id="layer1"
     transform="translate(-53.531966,-743.14266)">
    <path
       inkscape:connector-curvature="0"
       id="path4933"
       d="m 121.42826,1044.9676 c -1.78996,-1.408 -3.94873,-4.8772 -4.79725,-7.7093 -0.84852,-2.8321 -2.07164,-5.1493 -2.71805,-5.1493 -0.6464,0 -0.85787,-0.8271 -0.46993,-1.8381 0.38795,-1.011 0.24272,-2.5774 -0.32272,-3.481 -0.56545,-0.9036 -1.06998,-2.2125 -1.12119,-2.9087 -0.0512,-0.6962 -0.54973,-3.9153 -1.10781,-7.1535 -0.55808,-3.2382 -0.61228,-7.1555 -0.12045,-8.7051 0.84184,-2.6524 1.37374,-2.7684 9.07843,-1.979 4.50131,0.4611 12.48114,2.203 17.73295,3.8708 9.53244,3.0271 15.58231,2.777 15.58231,-0.6442 0,-0.7975 1.05091,-1.0489 2.48384,-0.5941 1.3661,0.4336 3.61001,0.1856 4.98647,-0.551 1.65954,-0.8882 2.76689,-0.9118 3.28707,-0.07 1.57986,2.5562 4.67712,1.0754 17.12161,-8.18613 12.20671,-9.08453 21.8104,-13.5135 24.17502,-11.14888 0.60449,0.60448 1.43443,5.63012 1.84433,11.16809 0.4099,5.53802 1.06119,10.92342 1.44732,11.96772 1.18154,3.1956 1.25037,6.3292 0.139,6.3292 -0.57985,0 -1.05428,2.0119 -1.05428,4.471 0,5.4671 -3.07156,13.2019 -5.31515,13.3846 -4.36287,0.3553 -10.10206,-0.6489 -19.84644,-3.4727 l -10.64947,-3.0861 -2.94317,2.765 c -2.67629,2.5142 -3.83611,2.6963 -12.79067,2.0086 l -9.8475,-0.7564 -6.41095,6.3085 c -7.69389,7.571 -13.29677,9.1454 -18.36332,5.1601 z m 19.5514,-8.4485 c 5.51641,-5.0872 6.08592,-6.1075 5.37974,-9.6384 -0.43438,-2.1719 -0.78978,-5.6186 -0.78978,-7.6593 0,-3.1538 -0.81513,-4.071 -5.43352,-6.1139 -2.98844,-1.322 -7.83022,-2.7868 -10.75949,-3.2552 -7.73691,-1.2372 -7.18804,2.2832 1.00313,6.4339 3.48102,1.764 6.32912,3.6424 6.32912,4.1743 0,0.5319 -2.41467,1.804 -5.36593,2.8268 -3.264,1.1312 -5.53959,2.7686 -5.80927,4.1801 -0.40278,2.108 0.20426,2.2395 6.63174,1.4364 4.01879,-0.5021 7.0751,-0.3902 7.0751,0.2591 0,0.6287 -1.6857,3.1152 -3.74602,5.5256 -7.62666,8.9226 -3.64585,10.2512 5.48518,1.8306 z m 50.79249,-8.2249 c 0,-1.0778 -2.29781,-2.6757 -5.37975,-3.7411 -6.26425,-2.1654 -6.72258,-3.2319 -1.89873,-4.4179 4.95085,-1.2172 9.40409,-4.3565 8.42566,-5.9397 -0.50003,-0.809 -2.78986,-1.0335 -5.73654,-0.5623 -2.98056,0.4766 -4.90431,0.2818 -4.90431,-0.4966 0,-0.7044 0.46221,-1.2807 1.02714,-1.2807 1.48121,0 6.56779,-4.9399 6.56779,-6.3785 0,-0.669 -0.73067,-1.2165 -1.62369,-1.2165 -2.57219,0 -18.74386,8.9518 -19.4376,10.7597 -0.34469,0.8982 -0.008,3.9331 0.74952,6.7442 1.32984,4.9386 1.62081,5.1612 8.62883,6.6017 3.98891,0.82 7.82219,1.6742 8.51839,1.8984 2.56968,0.8274 5.06329,-0.1431 5.06329,-1.9707 z m -92.911797,-15.9109 c 0.06939,-2.0306 0.610168,-5.116 1.201707,-6.8566 0.72533,-2.1341 0.83752,-1.1036 0.34455,3.1646 -0.822389,7.1204 -1.738156,9.307 -1.546257,3.692 z m 122.905407,-8.7553 c 0.0258,-2.0886 0.30949,-2.7898 0.63043,-1.5582 0.32093,1.2316 0.29983,2.9405 -0.047,3.7975 -0.34674,0.857 -0.60932,-0.1507 -0.58353,-2.2393 z m -119.21902,-6.22675 c -0.008,-0.63991 1.69376,-4.19141 3.78237,-7.89221 2.08861,-3.70081 3.79747,-7.24948 3.79747,-7.88594 0,-0.63645 -2.42089,-2.41855 -5.37975,-3.96023 -12.858947,-6.69994 -18.314464,-11.27281 -21.058462,-17.65141 -3.013234,-7.00445 -3.25444,-10.64546 -1.354829,-20.45118 l 1.320883,-6.81834 -4.496479,-3.94117 c -3.612575,-3.16641 -4.756063,-5.34538 -5.817009,-11.08455 -0.726292,-3.92888 -2.417674,-9.56042 -3.758629,-12.51455 -4.362864,-9.61138 -2.204241,-16.39874 3.985918,-12.53292 3.212497,2.00624 3.544549,1.89978 4.859134,-1.55784 0.752425,-1.97903 0.498892,-6.7936 -0.733948,-13.93765 -1.692682,-9.80872 -1.680372,-11.70693 0.121532,-18.74044 2.991989,-11.67888 10.599289,-20.20685 12.832941,-14.38604 0.382256,0.99614 -0.820664,6.26513 -2.673155,11.70886 -4.064403,11.94364 -5.758069,29.16657 -3.037568,30.88907 1.450922,0.91865 1.398688,1.12527 -0.288494,1.14114 -2.899146,0.0273 -4.934928,2.88527 -5.25838,7.38211 -0.2455,3.41311 -0.499518,3.6406 -2.274767,2.03718 -2.720631,-2.45729 -6.229443,-2.27681 -6.229443,0.32041 0,2.5582 4.648477,18.35657 7.129104,24.22906 2.303375,5.45287 5.996354,5.07908 6.553579,-0.66335 0.241356,-2.48727 0.969675,-3.81419 1.898734,-3.45931 1.086074,0.41486 1.396645,5.08193 1.111541,16.70361 -0.217606,8.87034 -0.03719,18.0442 0.40093,20.38637 1.403223,7.50154 18.160147,23.00577 22.899127,21.18725 1.07475,-0.41242 6.61408,1.50319 12.30964,4.2569 12.58347,6.08391 25.97641,9.41798 33.67065,8.38206 7.26383,-0.97797 17.39209,-5.65859 23.11233,-10.68102 2.49684,-2.19227 5.05555,-3.98594 5.68602,-3.98594 1.89491,0 12.64782,-11.71447 14.9452,-16.28167 1.17757,-2.34099 2.44026,-7.18276 2.80599,-10.7595 0.60324,-5.89955 -1.21772,-26.36198 -2.97206,-33.39745 -0.64096,-2.57044 -0.35232,-2.77232 3.00411,-2.10104 3.03067,0.60614 4.10272,0.14817 5.83232,-2.49153 1.16552,-1.77878 2.11911,-5.21427 2.11911,-7.63438 0,-2.42011 0.47186,-4.69184 1.04857,-5.04827 0.57671,-0.35643 0.80033,2.60047 0.49694,6.57088 -0.408,5.3392 -1.23057,7.75633 -3.15907,9.28281 -2.42983,1.92334 -2.61454,3.44629 -2.71212,22.36157 -0.0978,18.97645 -0.29009,20.54847 -2.9528,24.15067 -1.56645,2.11914 -2.8481,4.44502 -2.8481,5.16862 0,0.72359 2.31576,3.70186 5.14613,6.61835 2.83036,2.91651 5.7452,6.47728 6.47743,7.91285 0.73221,1.43556 -1.6291,-0.6652 -5.24738,-4.66837 -6.84336,-7.5713 -10.25227,-8.9419 -12.19541,-4.90325 -1.31085,2.72449 -14.41831,13.6214 -20.40276,16.96186 -15.22717,8.49965 -31.20497,7.97653 -53.26417,-1.74385 -8.18892,-3.60845 -9.34791,-3.05525 -15.04219,7.17981 -2.2966,4.12799 -4.18243,6.98188 -4.19073,6.34196 z m 114.25712,-9.62432 c -1.4641,-3.46545 -2.39418,-6.30081 -2.06683,-6.30081 0.85569,0 5.8258,11.50467 5.22826,12.10221 -0.27467,0.27468 -1.69732,-2.33595 -3.16143,-5.8014 z m -87.27367,-17.60941 c -6.97093,-2.50956 -15.94892,-8.18709 -19.91625,-12.5947 -1.32626,-1.47344 -3.17753,-2.67898 -4.11393,-2.67898 -1.91216,0 -2.23649,-3.52634 -0.56675,-6.16207 0.89303,-1.40967 1.55217,-1.27655 3.54452,0.7158 3.28423,3.28423 21.34796,7.12971 33.29437,7.08785 6.73697,-0.0237 11.69902,-0.86861 17.08861,-2.91005 10.63574,-4.02856 17.96583,-8.50122 18.73163,-11.42963 0.52557,-2.0098 1.74635,-2.49178 6.31133,-2.49178 7.26799,0 8.90713,1.96511 5.8072,6.96203 -2.18845,3.52768 -2.35629,3.5923 -2.36249,0.90964 -0.0114,-4.71511 -2.97247,-4.50192 -11.53618,0.83042 -4.4499,2.77081 -11.79327,6.28507 -16.31858,7.80946 -7.1568,2.41081 -9.87562,2.66811 -20.88608,1.97659 -6.96202,-0.43725 -14.79733,-1.29893 -17.4118,-1.91485 -5.10692,-1.20308 -7.20724,0.0742 -4.8307,2.93779 2.95583,3.56156 17.06664,8.71228 25.5262,9.31756 14.30332,1.0234 30.536,-4.26905 40.43314,-13.1827 3.60812,-3.24957 4.93866,-3.97046 3.97195,-2.15201 -7.90252,14.86517 -37.79217,23.80036 -56.76619,16.96963 z m -0.74472,-29.74116 c -2.61736,-0.93398 -5.64949,-2.43733 -6.73808,-3.34078 -3.27429,-2.71741 -6.85752,-10.91355 -6.85752,-15.68562 0,-3.39298 -0.53779,-4.50029 -2.21519,-4.56105 -1.69722,-0.0615 -1.54923,-0.34791 0.63291,-1.22502 1.56646,-0.62965 2.8481,-1.77347 2.8481,-2.54182 0,-0.76837 0.83023,-2.22727 1.84495,-3.24199 1.03623,-1.03622 1.48721,-2.79991 1.02883,-4.02351 -0.69691,-1.86029 -0.52059,-1.93843 1.20691,-0.53481 1.35999,1.105 2.2919,1.20872 2.84335,0.31646 0.45117,-0.73001 1.78353,-1.30834 2.9608,-1.28518 1.69538,0.0334 1.48243,0.58894 -1.02408,2.6718 -11.02879,9.16472 -9.75841,24.32455 2.55688,30.51197 8.94679,4.49503 18.65235,2.12195 26.27338,-6.42401 l 4.14671,-4.64998 -1.38293,3.79747 c -3.7624,10.33145 -15.67524,14.65862 -28.12502,10.21607 z M 95.253163,918.57823 c 1.218355,-0.31838 3.212025,-0.31838 4.43038,0 1.218357,0.31839 0.221519,0.5789 -2.21519,0.5789 -2.436709,0 -3.433544,-0.26051 -2.21519,-0.5789 z m 92.802897,-12.15671 c 0.47535,-1.24838 1.18315,-1.95091 1.57289,-1.56118 0.38973,0.38974 8.1e-4,1.41113 -0.86428,2.26979 -1.25015,1.24083 -1.39555,1.09544 -0.70861,-0.70861 z m -61.71113,-6.82276 c 0.91376,-0.36566 2.00554,-0.32069 2.42617,0.0999 0.42062,0.42063 -0.32701,0.71979 -1.66139,0.66483 -1.47462,-0.0608 -1.77456,-0.36068 -0.76478,-0.76476 z m 12.65823,0 c 0.91376,-0.36566 2.00553,-0.32069 2.42617,0.0999 0.42062,0.42063 -0.32702,0.71979 -1.6614,0.66483 -1.47462,-0.0608 -1.77455,-0.36068 -0.76477,-0.76476 z m -7.65929,-5.09386 c 1.57457,-0.30277 3.85305,-0.29128 5.06329,0.0256 1.21024,0.31682 -0.0781,0.56456 -2.86286,0.55051 -2.78481,-0.014 -3.775,-0.27328 -2.20043,-0.57605 z m 67.82711,-6.12135 c -1.17757,-3.06869 0.46555,-3.62267 2.03681,-0.68674 0.97973,1.83062 0.99899,2.64007 0.0628,2.64007 -0.74255,0 -1.68739,-0.879 -2.09965,-1.95333 z m 15.56002,-3.74288 c 1.42844,-9.57735 1.04038,-13.53281 -1.51067,-15.39817 -3.14881,-2.30247 -5.53774,-2.12033 -10.30355,0.78557 -2.85435,1.74041 -4.28868,3.76421 -4.87219,6.87454 -0.45482,2.42441 -2.05218,5.44209 -3.54969,6.70595 l -2.72275,2.29794 2.4184,-2.85586 c 2.81428,-3.32336 1.82164,-5.28997 -1.36497,-2.70427 -1.88506,1.52957 -2.0147,1.51158 -0.98032,-0.13608 1.85359,-2.95259 1.71924,-11.28792 -0.31506,-19.54809 -4.3719,-17.75181 -9.07841,-26.94094 -15.94213,-31.12596 -5.55764,-3.38865 -19.43282,-3.36585 -30.22214,0.0497 -10.84477,3.43308 -27.61618,6.32059 -36.71164,6.32059 -4.10838,0 -9.514722,0.85443 -12.014093,1.89873 -7.808143,3.26245 -8.536067,2.32756 -3.71696,-4.77379 l 3.049819,-4.49416 -2.733364,-2.43551 C 91.736342,824.76223 82.091261,817.20348 71.80618,809.30454 61.521098,801.4056 53.299951,794.33371 53.536965,793.58922 c 0.237013,-0.74448 10.64575,-5.44407 23.130528,-10.44353 64.232417,-25.7215 102.577217,-40.50669 103.712247,-39.98992 1.24564,0.56713 17.60874,19.23498 51.26583,58.48662 9.39873,10.96102 20.64873,24.02355 25,29.02785 4.35126,5.0043 7.91139,9.68507 7.91139,10.40171 0,0.71663 -3.27532,2.74409 -7.27848,4.50546 -26.19717,11.52659 -34.14833,15.32852 -35.02548,16.74777 -0.48589,0.78618 -2.24024,1.42942 -3.89857,1.42942 -4.31817,0 -4.93613,1.9501 -1.91351,6.0384 2.40327,3.25061 2.50586,4.16323 1.17696,10.47015 -1.9745,9.37106 -4.11596,12.61823 -2.88688,4.37752 z m -6.79298,-19.62025 c 1.06866,0 11.8242,-4.45565 23.90123,-9.90144 12.07701,-5.44579 23.83583,-10.65239 26.13071,-11.57023 2.29487,-0.91784 4.00373,-2.3998 3.79747,-3.29324 -0.32283,-1.3983 -12.80413,-16.00939 -71.15651,-83.29848 -5.51209,-6.35627 -10.92348,-11.52475 -12.02532,-11.48549 -3.25221,0.11585 -122.998602,47.71436 -122.610876,48.73712 0.194914,0.51415 8.613883,7.33011 18.708819,15.14657 10.094937,7.81647 19.926842,15.67637 21.848677,17.46646 3.191295,2.97252 3.85757,3.12332 7.68481,1.73937 2.30481,-0.83342 5.24451,-1.51532 6.53266,-1.51532 1.28816,0 3.41733,-0.97307 4.73149,-2.16237 6.32785,-5.72662 30.87624,-9.66008 42.31382,-6.78006 3.34804,0.84304 9.40855,3.75063 13.46782,6.46131 4.05927,2.71067 9.48004,5.30016 12.04618,5.75442 2.62316,0.46436 6.46664,2.53102 8.7796,4.72083 3.91687,3.70832 4.11393,4.34176 4.11393,13.22347 0,5.13072 0.56969,10.39308 1.266,11.69413 0.80743,1.5087 0.83671,3.49469 0.0809,5.48283 -1.66613,4.38226 -0.34648,5.01397 4.37654,2.09499 2.23796,-1.38318 4.94343,-2.51487 6.01207,-2.51487 z m -105.06583,19.37596 c 1.2316,-0.32093 2.94047,-0.29983 3.79747,0.0468 0.857,0.34674 -0.15067,0.60933 -2.23928,0.58353 -2.08861,-0.0258 -2.78979,-0.30949 -1.55819,-0.63043 z M 92.370319,873.94609 c 3.001012,-5.60744 12.686311,-8.40466 17.756261,-5.1282 1.42617,0.92166 0.79608,1.23349 -2.53164,1.25292 -2.45458,0.0143 -6.68844,1.41665 -9.493676,3.14443 -6.159343,3.79365 -7.458789,3.95937 -5.730945,0.73085 z m 88.325881,1.62841 c 0.87025,-0.35116 2.2943,-0.35116 3.16456,0 0.87025,0.35115 0.15822,0.63847 -1.58228,0.63847 -1.74051,0 -2.45253,-0.28732 -1.58228,-0.63847 z m -28.95654,-7.19785 c 2.70031,-3.25368 10.63557,-4.93175 14.90912,-3.15284 3.52107,1.46567 3.44345,1.52008 -3.35764,2.35381 -3.82912,0.4694 -8.38161,1.30746 -10.11666,1.86236 -2.82125,0.90229 -2.97289,0.78992 -1.43482,-1.06333 z"
       style="fill:#363636"
       sodipodi:nodetypes="csssscsscsssccssssssssccccsccssscscsscssssscscsssssccccsscsscsccccssssscsssssssssscsssssssssssssssssssssssssssssssscsscsssssscsssscsssssssssssscsssssscssscssssssscssccccccccccccccccssccssssscsssssssssccssssssssssssscsscssssssssssssssccccccsccsscsssssssssss" />
    <path
       inkscape:connector-curvature="0"
       id="path4931"
       d="m 100.81297,1037.4637 c -1.908875,-3.0887 -2.080764,-19.5173 -0.29927,-28.6033 1.9778,-10.08729 8.5217,-24.12211 12.38277,-26.55761 3.17777,-2.00448 13.04832,2.44372 19.14479,8.62767 6.41878,6.51088 22.7341,15.10184 26.76093,14.09114 3.33176,-0.8362 17.79538,-14.88192 20.28768,-19.7015 1.6386,-3.16871 12.09094,-12.70474 13.92553,-12.70474 2.12948,0 -10.93247,16.22836 -19.95145,24.788 -13.45375,12.76854 -13.98223,12.96754 -23.19851,8.73664 -4.1032,-1.8836 -8.88443,-3.9633 -10.62494,-4.6215 -1.7405,-0.6582 -7.63168,-4.11928 -13.09151,-7.6913 -10.90154,-7.13216 -12.20215,-7.13562 -16.35737,-0.0435 -4.51236,7.7016 -9.54719,34.7303 -7.15204,38.3945 0.97454,1.4909 1.90116,1.0578 5.00587,-2.3396 3.7288,-4.0803 6.2786,-4.4263 6.2786,-0.8519 0,0.9853 -1.60794,2.623 -3.57321,3.6393 -1.96526,1.0162 -4.31349,2.7397 -5.21828,3.8299 -1.79381,2.1614 -3.37814,2.5311 -4.31959,1.0078 z m 116.90855,-18.0141 c -1.04431,-0.6742 -3.14676,-1.2346 -4.67213,-1.2452 -2.99172,-0.021 -4.7752,-1.8437 -3.62495,-3.7049 0.41765,-0.6757 2.27684,-0.5635 4.4874,0.2709 2.83418,1.0698 4.14284,1.0561 5.25381,-0.055 1.97206,-1.9721 -1.47434,-16.15651 -6.20299,-25.52997 -3.90676,-7.74427 -13.08161,-17.8361 -16.21542,-17.8361 -1.3779,0 -1.8217,-0.67674 -1.31305,-2.00226 0.42259,-1.10124 0.76834,-2.24048 0.76834,-2.53165 0,-0.29115 1.08645,-0.52938 2.41434,-0.52938 3.54579,0 13.90192,12.1172 17.9691,21.02474 5.46274,11.96393 8.0505,31.80562 4.3001,32.97112 -0.6962,0.2164 -2.12025,-0.1583 -3.16455,-0.8325 z M 84.974181,915.95988 c -2.083468,-3.893 -5.528748,-17.26071 -5.416126,-21.01461 0.05972,-1.9907 0.678417,-4.30606 1.374875,-5.14524 1.437613,-1.73222 17.876658,-4.66295 27.82631,-4.96085 7.37941,-0.22094 10.2281,1.99552 10.2281,7.9581 l 0,3.24236 13.92358,-0.004 13.92358,-0.004 4.7e-4,-4.76544 c 3.9e-4,-4.00622 0.64738,-5.15885 4.06094,-7.23476 4.6363,-2.81847 23.81033,-7.61901 30.43549,-7.61901 3.18366,0 4.98117,0.80395 6.36796,2.8481 1.71416,2.52668 2.24547,2.65963 4.70804,1.17811 4.19615,-2.52447 4.67571,-0.65349 0.85475,3.33474 -2.98481,3.11546 -3.38874,4.54726 -3.38874,12.01211 0,11.09568 -1.59782,12.71515 -14.42791,14.62339 -18.78319,2.79365 -23.56888,1.81025 -26.60993,-5.46801 -1.56838,-3.75369 -2.529,-4.402 -7.66326,-5.17193 -12.86582,-1.92935 -23.65072,1.37775 -21.63377,6.63383 0.33388,0.87007 -0.11264,2.31047 -0.99227,3.20087 -0.87962,0.89041 -1.94615,2.53591 -2.37005,3.65668 -1.04334,2.75854 -10.3332,4.92426 -21.122596,4.92426 -7.184911,0 -9.116853,-0.4265 -10.079443,-2.2251 z m 28.444349,-4.15245 c 3.23643,-1.23049 3.29421,-1.45997 2.84704,-11.30679 -0.25706,-5.66055 -1.13577,-10.73017 -2.01168,-11.60607 -1.22978,-1.22978 -4.10357,-1.10372 -13.73249,0.60239 -15.278976,2.70723 -16.979072,3.58842 -16.970038,8.79584 0.01051,6.08901 2.34311,13.31773 4.789608,14.8433 2.488251,1.55161 19.93282,0.62736 25.07756,-1.32867 z m 69.77725,-6.38881 c 2.16632,-0.82363 2.88017,-2.09673 2.88017,-5.1366 0,-7.51461 -2.78976,-20.25023 -4.58691,-20.93987 -1.87578,-0.71979 -23.54274,4.18936 -27.53587,6.2389 -2.07621,1.06565 -2.2973,2.31842 -1.7526,9.93119 0.89821,12.55375 1.49663,12.99709 16.06886,11.90456 6.62539,-0.49672 13.34225,-1.3959 14.92635,-1.99818 z m 13.91467,-36.11476 c -0.41047,-0.41045 -0.21296,-2.14906 0.4389,-3.86356 0.75589,-1.98814 0.72661,-3.97413 -0.0809,-5.48283 -0.69625,-1.30105 -1.26594,-6.56341 -1.26594,-11.69413 0,-8.88171 -0.19706,-9.51515 -4.11393,-13.22347 -2.31296,-2.18981 -6.15644,-4.25647 -8.7796,-4.72083 -2.56614,-0.45426 -7.98691,-3.04375 -12.04618,-5.75442 -4.05927,-2.71068 -10.11978,-5.61827 -13.46782,-6.46131 -11.43758,-2.88002 -35.98597,1.05344 -42.31382,6.78006 -1.31416,1.1893 -3.44333,2.16237 -4.73149,2.16237 -1.28815,0 -4.22785,0.6819 -6.53266,1.51532 -3.82724,1.38395 -4.493515,1.23315 -7.68481,-1.73937 C 94.610385,825.0316 84.77848,817.1717 74.683543,809.35523 64.588607,801.53877 56.169638,794.72281 55.974724,794.20866 55.586998,793.1859 175.33339,745.58739 178.5856,745.47154 c 1.10184,-0.0393 6.51323,5.12922 12.02532,11.48549 58.35238,67.28909 70.83368,81.90018 71.15651,83.29848 0.20626,0.89344 -1.5026,2.3754 -3.79747,3.29324 -2.29488,0.91784 -14.0537,6.12444 -26.13071,11.57023 -12.07703,5.44579 -22.83257,9.90144 -23.90123,9.90144 -1.06864,0 -3.77411,1.13169 -6.01214,2.51487 -2.23803,1.38318 -4.40497,2.17904 -4.81543,1.76857 z"
       style="fill:#303030" />
  </g>
</svg>
