<?xml version="1.0" encoding="UTF-8" standalone="no"?>
<!-- Created with Inkscape (http://www.inkscape.org/) -->

<svg
   xmlns:dc="http://purl.org/dc/elements/1.1/"
   xmlns:cc="http://creativecommons.org/ns#"
   xmlns:rdf="http://www.w3.org/1999/02/22-rdf-syntax-ns#"
   xmlns:svg="http://www.w3.org/2000/svg"
   xmlns="http://www.w3.org/2000/svg"
   xmlns:sodipodi="http://sodipodi.sourceforge.net/DTD/sodipodi-0.dtd"
   xmlns:inkscape="http://www.inkscape.org/namespaces/inkscape"
   width="168.19183"
   height="117.96328"
   id="svg2"
   version="1.1"
   inkscape:version="0.48.5 r10040"
   sodipodi:docname="restauration.svg">
  <sodipodi:namedview
     id="base"
     pagecolor="#ffffff"
     bordercolor="#666666"
     borderopacity="1.0"
     inkscape:pageopacity="0.0"
     inkscape:pageshadow="2"
     inkscape:zoom="6.8595041"
     inkscape:cx="63.86145"
     inkscape:cy="50.819522"
     inkscape:document-units="px"
     inkscape:current-layer="layer1"
     showgrid="false"
     fit-margin-top="0"
     fit-margin-left="0"
     fit-margin-right="0"
     fit-margin-bottom="0"
     inkscape:window-width="1920"
     inkscape:window-height="1017"
     inkscape:window-x="1912"
     inkscape:window-y="-8"
     inkscape:window-maximized="1" />
  <defs
     id="defs4" />
  <metadata
     id="metadata7">
    <rdf:RDF>
      <cc:Work
         rdf:about="">
        <dc:format>image/svg+xml</dc:format>
        <dc:type
           rdf:resource="http://purl.org/dc/dcmitype/StillImage" />
        <dc:title />
      </cc:Work>
    </rdf:RDF>
  </metadata>
  <g
     transform="translate(-676.13855,-710.93272)"
     id="layer1"
     inkscape:groupmode="layer"
     inkscape:label="Layer 1">
    <path
       style="fill:#4c4c4c"
       d="m 676.13855,821.45379 0,-7.58333 5.06574,0 c 8.02855,0 10.62176,2.32501 7.73999,6.93948 -0.91081,1.45842 -0.91976,2.51484 -0.0377,4.45072 1.80064,3.95199 -0.24816,3.98015 -3.2499,0.0447 -3.17801,-4.16659 -5.78284,-4.16865 -6.51041,-0.005 -0.27924,1.59772 -1.07021,3.09223 -1.75771,3.32094 -0.92667,0.30826 -1.25,-1.54573 -1.25,-7.16751 z m 10.5,-3.58333 c 0,-1.75963 -5.23462,-2.66538 -6.73469,-1.16531 -1.68141,1.68141 0.26022,3.29377 3.57854,2.97167 2.00264,-0.19439 3.15615,-0.85458 3.15615,-1.80636 z m 7.90553,9.6144 c -0.29244,-0.76207 -0.39082,-3.34957 -0.21862,-5.75 l 0.31309,-4.3644 4.75,-0.30479 c 2.85713,-0.18333 4.75,0.11554 4.75,0.75 0,0.58013 -1.32344,1.05479 -2.94098,1.05479 -3.55467,0 -5.09636,1.91597 -2.15964,2.68394 1.15534,0.30213 2.10062,0.89435 2.10062,1.31606 0,0.42171 -0.94528,1.01393 -2.10062,1.31606 -2.93672,0.76797 -1.39503,2.68394 2.15964,2.68394 1.61754,0 2.94098,0.45 2.94098,1 0,1.59046 -8.9746,1.22977 -9.59447,-0.3856 z m 16.09447,0.40678 c -1.67652,-0.73818 -1.46087,-0.89198 1.33333,-0.95089 4.12614,-0.087 3.82148,-2.34119 -0.41583,-3.07672 -2.06131,-0.35781 -3.01091,-1.16201 -3.23578,-2.74033 -0.41964,-2.94522 3.30145,-4.78037 6.83481,-3.37077 2.40019,0.95753 2.37169,0.99288 -0.84986,1.05414 -4.07247,0.0774 -3.84591,2.32425 0.30889,3.06339 3.20606,0.57036 5.52517,3.41086 4.00196,4.90171 -1.52647,1.49406 -5.7733,2.09001 -7.97752,1.11947 z m 32.49086,-0.53219 c -1.49637,-1.80302 -4.33437,-1.91592 -6.95895,-0.27684 -1.06752,0.66667 -2.17099,0.9821 -2.45215,0.70094 -0.76502,-0.76502 4.34248,-10.41309 5.51248,-10.41309 1.46865,0 7.15021,10.23213 6.05679,10.90789 -0.50733,0.31355 -1.47851,-0.1 -2.15817,-0.9189 z m 8.75982,0.85695 c -2.00577,-0.5645 -3.05487,-3.80896 -2.57876,-7.97511 0.5045,-4.41459 2.26874,-3.40384 2.82808,1.62023 0.38073,3.41974 0.96132,4.57876 2.4339,4.85874 2.4281,0.46164 4.5661,-2.36693 4.5661,-6.04093 0,-1.54488 0.45,-2.80887 1,-2.80887 1.1772,0 1.32419,6.94138 0.18498,8.73494 -0.89278,1.40557 -5.82012,2.34672 -8.4343,1.611 z m 20.22037,-1.87676 c -2.81056,-2.9917 -3.64272,-3.07902 -4.47105,-0.46918 -1.2049,3.79631 -2.5,1.98318 -2.5,-3.5 l 0,-5.5 3.91821,0 c 2.15502,0 4.63002,0.27314 5.5,0.60699 1.74619,0.67007 2.16326,4.91561 0.57909,5.89468 -0.67,0.41408 -0.6691,1.24305 0.003,2.49833 1.55844,2.91198 -0.44284,3.22197 -3.02896,0.46918 z m 1.02895,-5.96918 c 0,-0.93333 -0.94444,-1.5 -2.5,-1.5 -1.55556,0 -2.5,0.56667 -2.5,1.5 0,0.93333 0.94444,1.5 2.5,1.5 1.55556,0 2.5,-0.56667 2.5,-1.5 z m 16.99086,6.98899 c -1.49637,-1.80302 -4.33437,-1.91592 -6.95895,-0.27684 -1.06752,0.66667 -2.17099,0.9821 -2.45215,0.70094 -0.76502,-0.76502 4.34248,-10.41309 5.51248,-10.41309 1.46865,0 7.15021,10.23213 6.05679,10.90789 -0.50733,0.31355 -1.4785,-0.1 -2.15817,-0.9189 z m 9.64862,0.81716 c -0.35171,-0.35172 -0.63948,-2.37861 -0.63948,-4.5042 0,-2.51282 -0.52471,-4.06607 -1.5,-4.44032 -2.96659,-1.13839 -1.4127,-2.36163 3,-2.36163 4.4127,0 5.96659,1.22324 3,2.36163 -0.98499,0.37797 -1.5,1.93947 -1.5,4.54797 0,3.82509 -1.02426,5.73281 -2.36052,4.39655 z m 18.36052,-0.56953 c -3.08276,-1.58112 -3.93587,-6.71503 -1.45762,-8.77179 2.09624,-1.73973 7.78953,-1.76419 9.86417,-0.0424 1.89967,1.57659 2.10689,6.40655 0.33786,7.87472 -2.21033,1.83441 -6.17005,2.25982 -8.74441,0.93946 z m 5.41821,-1.34361 c 0.91863,-0.35251 1.58179,-1.77501 1.58179,-3.39301 0,-4.18073 -5.05929,-5.62624 -7,-2 -2.04067,3.81302 1.18048,7.01918 5.41821,5.39301 z m 15.71846,-0.41284 c -3.80426,-3.63555 -5.13667,-3.7601 -5.13667,-0.48017 0,1.55556 -0.56667,2.5 -1.5,2.5 -1.13094,0 -1.5,-1.21566 -1.5,-4.94098 0,-2.71754 0.48888,-5.24313 1.08641,-5.61242 0.59752,-0.36929 2.58364,0.77974 4.41359,2.5534 3.44009,3.33426 5.5,3.31216 5.5,-0.059 0,-1.06754 0.45,-1.94098 1,-1.94098 1.22619,0 1.34456,9.66902 0.12757,10.42116 -0.47984,0.29655 -2.27574,-0.80189 -3.9909,-2.44099 z m -114.13667,-2.01155 c 0,-2.66097 -0.50991,-4.22706 -1.5,-4.60699 -2.96659,-1.13839 -1.4127,-2.36163 3,-2.36163 4.4127,0 5.96659,1.22324 3,2.36163 -0.99009,0.37993 -1.5,1.94602 -1.5,4.60699 0,2.91678 -0.41472,4.03138 -1.5,4.03138 -1.08528,0 -1.5,-1.1146 -1.5,-4.03138 z m 84,-0.96862 c 0,-3.68889 0.35753,-5.04749 1.25,-4.75 0.74359,0.24786 1.25,2.17222 1.25,4.75 0,2.57778 -0.50641,4.50214 -1.25,4.75 -0.89247,0.29749 -1.25,-1.06111 -1.25,-4.75 z m -132,-30.99722 0,-14.99722 13.55939,0.42423 c 11.37676,0.35594 13.6517,0.1837 14.13279,-1.07 1.13515,-2.95815 -1.55832,-3.73671 -13.57387,-3.92358 -6.54666,-0.10182 -12.40146,-0.49317 -13.01067,-0.86968 -0.77024,-0.47604 -1.10764,-9.7954 -1.10764,-30.59442 l 0,-29.90985 83.5,0.0606 83.5,0.0606 0.0842,2.65829 c 0.34844,11.00398 -0.2237,91.57504 -0.65523,92.27328 -0.31016,0.50185 -36.45643,0.88502 -83.48796,0.88502 l -82.94098,0 0,-14.99722 z m 145.98992,2.10483 c 5.52326,-1.5373 -0.94086,-2.61366 -16.98992,-2.82905 -35.86081,-0.48128 -35.30843,-0.39357 -34.81341,-5.52792 l 0.31341,-3.25064 25.41756,-0.5 c 19.08209,-0.37537 25.5212,-0.81157 25.83334,-1.75 0.28855,-0.86751 -0.91019,-1.26371 -3.91757,-1.2948 -2.38333,-0.0246 -14.00833,-0.13714 -25.83333,-0.25 l -21.5,-0.2052 -0.32818,-2.87182 c -0.1805,-1.57951 0.12792,-3.32792 0.68538,-3.88538 0.60711,-0.60711 10.9643,-1.17689 25.82817,-1.42088 26.28299,-0.43145 29.13964,-0.7128 25.86971,-2.54794 -1.28608,-0.72178 -10.29736,-1.0273 -26.60197,-0.90192 -21.04125,0.16179 -24.84275,-0.0341 -25.92337,-1.33623 -1.03319,-1.24491 -0.96415,-1.98699 0.37502,-4.03082 1.33904,-2.04363 2.51198,-2.53082 6.36829,-2.64512 2.59982,-0.0771 14.14047,-0.41455 25.64589,-0.75 13.97772,-0.40752 21.04132,-0.97929 21.28776,-1.72316 0.63691,-1.92251 -7.01992,-2.2483 -30.90984,-1.31518 -14.45161,0.56447 -23.56951,1.3248 -24.42765,2.03699 -0.88757,0.73662 -1.36921,3.3015 -1.36921,7.2914 0,3.81876 -0.56238,6.95796 -1.48162,8.27036 -1.30473,1.86276 -1.30574,2.26129 -0.008,3.33796 1.06804,0.88639 1.40676,2.96761 1.23162,7.56758 -0.36322,9.5401 0.0891,9.80278 18.04035,10.47671 21.75193,0.81663 34.40457,0.83535 37.208,0.0551 z M 750.24408,776.7085 c 5.72694,-0.0423 8.95229,-1.11355 7.55622,-2.50962 -0.86411,-0.86412 -1.29146,-0.89325 -27.88896,-1.90113 -17.43045,-0.6605 -18.77466,-0.58598 -19.41248,1.07614 -0.45147,1.17651 -0.0328,2.27809 1.22721,3.22871 1.56649,1.18189 4.71661,1.32574 17.41248,0.79513 8.525,-0.35629 18.02249,-0.66645 21.10553,-0.68923 z m 7.5985,-25.3701 c 1.76222,-0.29772 5.50784,-2.09167 8.32361,-3.98654 2.81577,-1.89488 6.77396,-3.90845 8.79597,-4.47462 3.03392,-0.8495 33.55967,-1.91996 54.84177,-1.92316 2.84096,-4.2e-4 5.46633,-0.48772 5.83416,-1.08287 0.36782,-0.59516 1.49495,-0.81989 2.50473,-0.49939 5.88273,1.8671 7.64194,1.002 4.45109,-2.18886 -1.02663,-1.02663 -2.52276,-1.34902 -4.46123,-0.96133 -1.60412,0.32083 -3.18559,0.14806 -3.51437,-0.38393 -0.32879,-0.53198 -5.85874,-0.9784 -12.28878,-0.99203 -6.43004,-0.0136 -19.43793,-0.4347 -28.90643,-0.93571 l -17.21545,-0.91092 -7.20159,-4.20596 c -7.72415,-4.51115 -14.74385,-6.10006 -17.35944,-3.92932 -1.03835,0.86176 -1.50807,0.90198 -1.50807,0.12914 0,-0.61734 -0.88656,-1.12244 -1.97014,-1.12244 -1.25049,0 -2.80293,1.45831 -4.25,3.9923 -1.78772,3.1305 -2.87349,3.99396 -5.02986,4 -1.5125,0.004 -2.75,0.47182 -2.75,1.03908 0,0.94311 0.62348,1.27225 4.92754,2.6013 1.18853,0.367 1.15063,0.71772 -0.22639,2.09474 -1.66532,1.66532 -3.15264,1.79125 -30.11604,2.54989 -5.23451,0.14727 -8.05535,0.64226 -8.32965,1.46164 -0.31993,0.95569 3.31877,1.20398 15.91489,1.08598 17.26274,-0.16171 22.82965,0.48853 22.82965,2.66663 0,1.52882 -5.45286,2.66574 -12.04736,2.51187 -15.78491,-0.3683 -31.94281,0.17165 -32.50811,1.08633 -1.20549,1.95052 0.59008,2.28836 13.72825,2.58302 7.22027,0.16194 13.24762,0.41431 13.39411,0.56083 0.47389,0.47397 30.82976,-0.20689 34.13714,-0.76567 z m -30.28582,-17.07493 c 3.02586,-1.16113 1.554,-2.39301 -2.85919,-2.39301 -4.23286,0 -6.24798,0.97771 -4.86517,2.36052 0.81059,0.81058 5.64371,0.83091 7.72436,0.0325 z m -17.16821,-1.05529 c -0.6875,-0.27741 -1.8125,-0.27741 -2.5,0 -0.6875,0.27741 -0.125,0.50438 1.25,0.50438 1.375,0 1.9375,-0.22697 1.25,-0.50438 z m 23.75,-0.33772 c 0,-0.55 -0.42344,-1 -0.94098,-1 -0.51754,0 -1.2191,0.45 -1.55902,1 -0.33992,0.55 0.0835,1 0.94098,1 0.85746,0 1.55902,-0.45 1.55902,-1 z m -2.98643,-7.24055 c 1.58107,-0.98739 2.39179,-0.98739 3.97286,0 3.64554,2.27668 8.89019,0.71717 6.29978,-1.87324 -1.10644,-1.10644 -4.25309,-1.23563 -13.78621,-0.56601 -3.85,0.27043 -8.0125,0.53402 -9.25,0.58575 -1.2375,0.0517 -2.25,0.51275 -2.25,1.0245 0,2.02034 12.04129,2.68522 15.01357,0.829 z"
       id="path3006"
       inkscape:connector-curvature="0" />
  </g>
</svg>
