<?xml version="1.0" encoding="UTF-8" standalone="no"?>
<!-- Created with Inkscape (http://www.inkscape.org/) -->

<svg
   xmlns:dc="http://purl.org/dc/elements/1.1/"
   xmlns:cc="http://creativecommons.org/ns#"
   xmlns:rdf="http://www.w3.org/1999/02/22-rdf-syntax-ns#"
   xmlns:svg="http://www.w3.org/2000/svg"
   xmlns="http://www.w3.org/2000/svg"
   xmlns:sodipodi="http://sodipodi.sourceforge.net/DTD/sodipodi-0.dtd"
   xmlns:inkscape="http://www.inkscape.org/namespaces/inkscape"
   width="1.5in"
   height="1.5in"
   viewBox="0 0 135 135"
   id="svg2"
   version="1.1"
   inkscape:version="0.91 r13725"
   sodipodi:docname="official_seal.svg">
  <defs
     id="defs4" />
  <sodipodi:namedview
     id="base"
     pagecolor="#ffffff"
     bordercolor="#666666"
     borderopacity="1.0"
     inkscape:pageopacity="0.0"
     inkscape:pageshadow="2"
     inkscape:zoom="6.3925926"
     inkscape:cx="67.5"
     inkscape:cy="67.5"
     inkscape:document-units="px"
     inkscape:current-layer="layer1"
     showgrid="false"
     units="in"
     inkscape:window-width="1920"
     inkscape:window-height="1048"
     inkscape:window-x="0"
     inkscape:window-y="0"
     inkscape:window-maximized="1" />
  <metadata
     id="metadata7">
    <rdf:RDF>
      <cc:Work
         rdf:about="">
        <dc:format>image/svg+xml</dc:format>
        <dc:type
           rdf:resource="http://purl.org/dc/dcmitype/StillImage" />
        <dc:title></dc:title>
      </cc:Work>
    </rdf:RDF>
  </metadata>
  <g
     inkscape:label="Layer 1"
     inkscape:groupmode="layer"
     id="layer1"
     transform="translate(0,-917.36215)">
    <path
       inkscape:connector-curvature="0"
       id="path3405"
       d="m 51.3,1051.0132 c -8.797234,-1.7743 -15.315091,-4.5259 -22.169982,-9.3594 -14.16584,-9.9886 -25.1106851,-25.447 -27.4652301,-38.7916 -1.7454809,-9.89272 -1.91310637,-24.32576 -0.3762939,-32.40002 3.7916776,-19.92111 18.305593,-38.13004 37.710766,-47.31134 16.204392,-7.66689 41.75273,-7.66237 57.704678,0.0102 13.552702,6.51859 26.901312,19.98575 32.880452,33.17247 7.72965,17.04736 6.9824,45.85929 -1.52615,58.84499 -2.47526,3.7778 -2.26573,1.5624 0.71027,-7.5097 2.46955,-7.5283 2.96733,-10.54932 3.31892,-20.14238 0.31566,-8.61288 0.0629,-12.66277 -1.06727,-17.1 -5.5737,-21.88346 -22.85763,-40.41871 -44.17016,-47.36798 -6.313073,-2.05847 -8.696688,-2.34777 -19.35,-2.34849 -11.195019,-7.5e-4 -12.715915,0.20629 -19.35,2.63418 -3.96,1.44924 -10.035,4.30283 -13.5,6.34131 -11.266146,6.62795 -23.136128,21.00742 -27.7169476,33.57673 -2.1741483,5.96565 -4.0034194,18.51345 -3.6737619,25.2 1.3638793,27.66403 21.9560765,52.66993 48.5538565,58.96073 7.226259,1.7092 23.261465,2.0015 28.961853,0.528 2.10375,-0.5438 5.473097,-1.4021 7.487438,-1.9073 5.506114,-1.3809 14.017852,-5.9248 21.245472,-11.3415 3.55185,-2.662 6.70968,-4.8399 7.01741,-4.8399 0.30773,0 -0.73025,1.6049 -2.30662,3.5665 -6.18513,7.6966 -21.128289,15.6461 -33.722875,17.9401 -7.162203,1.3045 -21.851755,1.1256 -29.195825,-0.3556 z m 4.5,-5.005 C 34.811687,1042.3499 15.547867,1025.6696 8.9103097,1005.407 7.0190135,999.6334 6.75,997.13109 6.75,985.31218 l 0,-13.5 3.945463,-9.73963 c 2.170005,-5.3568 5.64197,-12.04417 7.715478,-14.86083 11.024744,-14.97606 29.140462,-24.39938 46.977047,-24.43624 9.322361,-0.0193 22.167172,2.83171 30.502665,6.77022 12.161247,5.74618 24.992537,20.33011 29.416607,33.43468 2.03144,6.01732 3.86694,18.4479 3.04161,20.59867 -1.05133,2.73975 -2.32478,0.21345 -4.61523,-9.15584 -3.22164,-13.17842 -9.12009,-24.34627 -16.0778,-30.44095 -11.227311,-9.83469 -26.389859,-15.82987 -39.9773,-15.80678 -12.674832,0.0215 -20.825922,2.56961 -32.873726,10.2765 -9.325216,5.96527 -17.829718,19.36994 -21.426484,33.77212 -4.5659573,18.28301 0.806395,38.5745 13.544076,51.1563 12.476819,12.3241 26.875614,17.865 43.789638,16.8511 12.338521,-0.7396 26.404355,-6.9212 34.592026,-15.2025 2.22526,-2.2507 5.36274,-5.4252 6.97217,-7.0545 3.23623,-3.2761 9.81997,-15.9818 10.70886,-20.66646 0.31263,-1.64772 0.96529,-3.76937 1.45035,-4.71477 0.77656,-1.51356 0.97684,-1.5493 1.67646,-0.29916 0.4895,0.87469 0.27111,3.90802 -0.56884,7.90099 -4.10541,19.5165 -21.25412,37.7129 -41.538613,44.0764 -7.096562,2.2263 -20.618487,3.0589 -28.204457,1.7367 z m 3.6,-9.9718 c 0,-0.5642 0.585333,-1.4754 1.30074,-2.025 2.083295,-1.6004 2.764033,-5.8274 1.044722,-6.4871 -0.795004,-0.3051 -1.445462,-1.1189 -1.445462,-1.8084 0,-1.4852 4.568079,-1.7256 5.97904,-0.3147 0.652055,0.6521 1.774779,0.4594 3.673633,-0.6304 2.471906,-1.4187 2.932739,-1.4379 4.797321,-0.1998 1.940185,1.2882 2.205488,1.2098 4.465751,-1.3199 3.080925,-3.4481 4.889887,-2.7915 7.208044,2.6166 2.055444,4.7951 2.23133,7.0219 0.651211,8.2446 -2.643299,2.0453 -4.401201,2.0055 -6.555034,-0.1483 l -2.180079,-2.1801 -1.153373,2.4141 c -0.661777,1.3852 -2.04452,2.5409 -3.244163,2.7115 -2.55332,0.3631 -5.52944,-2.1507 -5.578385,-4.7118 -0.03046,-1.5937 -0.259656,-1.4676 -1.480822,0.8145 -0.794635,1.485 -1.892169,2.9975 -2.438967,3.3612 -1.555293,1.0344 -5.044177,0.8013 -5.044177,-0.337 z m -6.839491,-1.1329 c -0.415802,-1.0836 -0.93789,-1.1956 -2.263827,-0.486 -2.838719,1.5192 -3.333294,-1.2543 -1.21354,-6.8053 0.496477,-1.3002 -0.208485,-0.9547 -2.538571,1.244 -3.262936,3.079 -6.044571,3.3478 -6.044571,0.5842 0,-0.8701 -0.829506,-1.3782 -2.25,-1.3782 -2.808875,0 -2.930616,-1.9163 -0.351818,-5.5379 2.519291,-3.538 1.429976,-4.4007 -1.731817,-1.3715 -2.73268,2.6181 -4.602306,3.0134 -6.286365,1.3294 -1.493482,-1.4935 -1.356505,-4.32 0.209351,-4.32 0.709143,0 1.546436,-0.81 1.860649,-1.8 0.314213,-0.99 1.151506,-1.8 1.860649,-1.8 0.709143,0 1.289351,-0.6075 1.289351,-1.35 0,-1.9599 -1.193679,-1.6614 -3.6,0.9 -2.697534,2.8714 -7.2,3.1351 -7.2,0.4217 0,-1.0055 -0.6075,-2.0613 -1.35,-2.3463 -2.516246,-0.9655 -1.366404,-2.9961 3.542038,-6.2552 5.003642,-3.3222 6.807962,-3.4062 6.807962,-0.3171 0,0.9608 0.6075,1.7469 1.35,1.7469 0.7425,0 1.35,0.3812 1.35,0.8471 0,1.3431 8.282308,9.4078 11.166781,10.8734 1.439229,0.7312 2.802715,2.0382 3.029967,2.9045 0.491921,1.8751 0.615467,1.8949 2.905312,0.4648 1.509162,-0.9425 2.08199,-0.8058 3.792848,0.9051 l 2.015213,2.0152 -1.780061,5.1086 c -1.817127,5.215 -3.602429,6.9429 -4.569552,4.4226 z M 117.9,1027.1622 c 0,-0.495 0.4289,-0.9 0.95312,-0.9 0.52421,0 0.70281,0.405 0.39688,0.9 -0.30593,0.495 -0.73483,0.9 -0.95312,0.9 -0.21828,0 -0.39688,-0.405 -0.39688,-0.9 z m -58.95,-7.52 c -9.231431,-1.9502 -16.942319,-7.1012 -21.951797,-14.6641 -2.643772,-3.9914 -3.772819,-9.31592 -1.9754,-9.31592 0.452542,0 2.011182,1.92375 3.463645,4.275 7.644073,12.37422 18.861406,17.92052 33.724204,16.67442 4.339729,-0.3638 6.089348,-0.208 6.089348,0.5423 0,2.7467 -11.267848,4.1957 -19.35,2.4883 z m -40.35,-12.88 c -0.33,-0.33 -0.6,-1.8665 -0.6,-3.4144 0,-2.7025 0.211781,-2.8613 5.329488,-3.99667 8.005139,-1.77593 10.221674,0.51 3.350449,3.45537 -2.156036,0.9242 -4.168325,2.3273 -4.471755,3.118 -0.562384,1.4656 -2.524731,1.9211 -3.608182,0.8377 z m 78.176622,-34.98578 c -3.217086,-5.48955 -7.188401,-9.89844 -11.641225,-12.92391 -4.419545,-3.00285 -13.852525,-5.49033 -20.820361,-5.49033 -6.399482,0 -6.326043,-1.94768 0.109827,-2.9127 4.979289,-0.74661 15.736513,1.0674 20.288384,3.42126 7.072578,3.65738 16.086753,14.56602 16.086753,19.46764 0,3.61867 -1.278108,3.12248 -4.023378,-1.56196 z m 6.607238,-1.08924 c -0.53765,-1.36125 -1.33896,-3.17825 -1.7807,-4.03779 -0.44174,-0.85953 -0.80316,-1.93278 -0.80316,-2.385 0,-0.45221 -1.457091,-2.38146 -3.237975,-4.28721 -1.780884,-1.90575 -3.85038,-4.14872 -4.598874,-4.98437 -0.748503,-0.83566 -2.733912,-2.17091 -4.412028,-2.96723 -3.695672,-1.75371 -3.775359,-2.95332 -0.576123,-8.67296 2.68533,-4.80087 4.994361,-5.47554 5.446872,-1.59151 0.222444,1.90926 0.654102,2.26047 2.374146,1.93167 2.279556,-0.43577 5.903982,1.09963 5.903982,2.50107 0,0.47758 -1.16842,0.86833 -2.596491,0.86833 -1.807038,0 -3.065445,0.71572 -4.138875,2.35398 -1.391976,2.12441 -1.406583,2.48979 -0.149814,3.74656 1.256769,1.25676 1.754505,1.06559 5.10381,-1.9603 2.98664,-2.69826 3.96212,-3.14464 4.9963,-2.28636 1.79608,1.49062 1.66622,1.91172 -1.63993,5.31798 l -2.925,3.01356 2.7,-0.74664 c 8.01488,-2.21638 10.75905,0.10545 5.70606,4.82788 -3.59805,3.36267 -2.99283,4.34168 1.39153,2.25093 2.5698,-1.22546 3.50518,-1.32482 4.3662,-0.46381 1.5771,1.57712 -0.11709,3.85155 -3.79018,5.08827 -1.67322,0.56337 -3.32952,1.88681 -3.73577,2.98502 -0.99143,2.68009 -2.42607,2.48023 -3.60398,-0.50207 z m -24.823726,-25.65 c 0.272608,-1.60875 1.141035,-4.44375 1.929837,-6.3 1.560657,-3.67262 4.114257,-4.43654 7.22551,-2.16153 1.797113,1.31408 1.211854,3.28653 -0.975168,3.28653 -0.78727,0 -1.245555,0.65886 -1.095518,1.575 0.304167,1.85728 -4.097772,6.525 -6.153462,6.525 -1.111451,0 -1.317288,-0.64656 -0.931199,-2.925 z m -16.8591,-0.87526 c -1.917688,-2.73788 -1.759015,-7.26456 0.344394,-9.82503 1.65185,-2.0108 1.881052,-2.05072 4.275,-0.74463 1.495702,0.81602 2.65268,2.28738 2.83078,3.6 0.513832,3.78696 1.673883,3.85043 2.269735,0.12417 0.615745,-3.85066 2.146415,-4.97282 5.600574,-4.10588 2.415986,0.60637 2.926266,2.82117 0.834886,3.62371 -0.907783,0.34835 -1.168745,1.21225 -0.804536,2.66337 0.375797,1.4973 0.101282,2.31577 -0.906405,2.70245 -0.795004,0.30508 -1.445462,1.13156 -1.445462,1.83664 0,1.7036 -2.430472,2.56955 -3.866646,1.37763 -0.723547,-0.60049 -1.628592,-0.64254 -2.463538,-0.11447 -2.278354,1.44098 -5.213201,0.94018 -6.668782,-1.13796 z m 3.713769,-6.26849 c -0.287304,-0.71796 -0.500565,-0.5047 -0.543751,0.54375 -0.03908,0.94875 0.173635,1.48031 0.472698,1.18125 0.299062,-0.29906 0.331036,-1.07531 0.07106,-1.725 z"
       style="fill:#e5a09f" />
    <path
       inkscape:connector-curvature="0"
       id="path3403"
       d="m 57.15,1051.7501 c -3.812385,-0.8542 -10.448798,-3.1891 -10.088401,-3.5495 0.208014,-0.208 2.968001,0.2322 6.133304,0.9784 3.22013,0.759 10.512209,1.408 16.555097,1.4734 8.227133,0.089 9.942377,0.2942 7.2,0.8614 -3.761867,0.7781 -16.692863,0.9324 -19.8,0.2363 z m 28.141605,-3.1395 c 0.522992,-0.523 1.482137,-0.7738 2.131434,-0.5574 0.674051,0.2247 0.266088,0.6326 -0.950896,0.9509 -1.49701,0.3915 -1.848399,0.2743 -1.180538,-0.3935 z m -48.556646,-3.7709 c -8.919117,-4.372 -20.367968,-14.9078 -26.158615,-24.0726 -3.2079571,-5.0771 -6.7178896,-13.4155 -8.862857,-21.05492 -1.83428147,-6.53293 -1.5970963,-24.99981 0.3814613,-29.7 l 1.5154297,-3.6 -0.680189,5.4 C 2.5560851,974.78218 2.25,981.47387 2.25,986.68259 c 0,14.35881 4.4319306,26.77531 13.966848,39.12961 5.510203,7.1395 9.726811,10.736 18.883152,16.106 8.560997,5.0209 9.560191,6.8064 1.634959,2.9215 z m 20.978746,0.2313 c -7.090253,-1.0781 -18.195771,-5.2879 -24.055771,-9.1187 -5.747479,-3.7574 -14.503298,-12.9125 -18.229855,-19.0613 -1.625521,-2.6821 -4.024727,-7.847 -5.331569,-11.4777 -2.1460717,-5.96213 -2.3794833,-7.86435 -2.4112921,-19.65112 L 7.65,972.71218 11.80524,962.58337 c 4.968974,-12.11237 7.231121,-15.53377 15.308722,-23.15377 7.361377,-6.94435 17.763444,-12.28348 27.973096,-14.35792 8.701312,-1.76797 12.137687,-1.76521 22.537542,0.0181 12.481357,2.14021 22.134631,6.62244 29.76499,13.82053 10.10978,9.53706 15.63956,18.66081 18.13305,29.91822 2.02824,9.15699 1.31486,12.07499 -0.84073,3.43892 -0.92593,-3.70962 -3.64205,-10.65701 -6.03583,-15.43866 -3.50963,-7.0106 -5.3801,-9.58428 -9.66064,-13.29258 C 101.49563,937.04766 94.661118,933.16413 85.163531,930 c -7.038744,-2.34496 -9.555047,-2.73782 -17.535846,-2.73782 -13.479164,0 -19.679799,1.8936 -33.886103,10.34839 -8.000953,4.76172 -17.547856,19.37207 -21.157322,32.37867 -2.8399681,10.23373 -2.255827,24.93201 1.377977,34.67296 1.384929,3.7125 3.062488,7.3894 3.727908,8.1708 0.665421,0.7815 1.209855,1.9384 1.209855,2.571 0,0.6325 2.912318,4.1535 6.471817,7.8244 12.174215,12.5554 25.861217,18.3367 43.39715,18.3307 8.023177,0 9.856594,-0.3191 15.738733,-2.7161 10.75622,-4.383 15.459449,-7.2268 22.1423,-13.3881 6.70282,-6.1797 11.89764,-12.9369 13.90939,-18.0927 1.46383,-3.7516 2.74091,-5.4086 2.7399,-3.555 -9e-4,2.3749 -5.3888,12.744 -9.38043,18.054 -13.01252,17.3105 -35.077806,26.4223 -56.205155,23.2098 z M 63.9,1030.8153 c 0,-2.0092 0.405,-3.6531 0.9,-3.6531 0.495,0 0.9,1.3936 0.9,3.0969 0,1.7032 -0.405,3.3472 -0.9,3.6531 -0.543538,0.3359 -0.9,-0.8907 -0.9,-3.0969 z m 10.8,1.522 c 0,-1.1721 -0.582459,-2.9172 -1.294354,-3.8781 -1.279017,-1.7263 -1.310669,-1.7257 -2.671376,0.053 -1.077601,1.4086 -1.383248,1.4967 -1.405647,0.405 -0.0706,-3.4412 4.63653,-4.8097 6.239711,-1.8142 1.186033,2.2162 1.204023,6.0847 0.03166,6.8092 -0.503213,0.311 -0.9,-0.3833 -0.9,-1.5749 z m 5.96446,-10e-5 c -2.305806,-3.6564 -2.49483,-5.7146 -0.725479,-7.8997 2.31909,-2.8639 4.159415,-1.8509 5.895966,3.2456 1.080958,3.1725 1.195433,4.5695 0.4482,5.4699 -1.523492,1.8357 -4.190792,1.4484 -5.618687,-0.8158 z M 84.6,1030.253 c 0,-1.9124 -1.663551,-4.8908 -2.731666,-4.8908 -0.9744,0 -1.153371,2.71 -0.322044,4.8764 0.706271,1.8405 3.05371,1.8516 3.05371,0.014 z m -42.3,-3.0908 c 0,-2.9536 -0.964665,-3.441 -2.691776,-1.3599 -0.611696,0.737 -1.481741,1.1117 -1.93343,0.8325 -0.451689,-0.2792 0.2017,-1.7233 1.451976,-3.2091 1.250276,-1.4859 2.27323,-3.0755 2.27323,-3.5326 0,-1.6799 3.771971,-0.8177 4.239226,0.9691 0.25889,0.99 1.030975,1.8 1.715742,1.8 1.757244,0 1.56724,0.7576 -1.05077,4.19 -2.840711,3.7244 -4.004198,3.8145 -4.004198,0.31 z m 12.009963,-0.4564 c -1.048767,-2.2612 -0.223683,-3.7528 1.490037,-2.6936 1.039129,0.6422 1.235375,4.9535 0.225,4.943 -0.37125,0 -1.143017,-1.0161 -1.715037,-2.2494 z m -23.333206,-5.0621 c -0.34621,-0.5602 0.03488,-1.3903 0.846885,-1.8448 0.811997,-0.4544 1.476358,-1.3663 1.476358,-2.0265 0,-0.6601 0.81,-1.4121 1.8,-1.671 0.99,-0.2589 1.8,-1.1161 1.8,-1.905 0,-1.8472 1.692389,-1.8619 2.398901,-0.021 0.346961,0.9042 -0.701927,2.6879 -2.910899,4.95 -3.688695,3.7776 -4.421922,4.1188 -5.411245,2.518 z m 16.013433,-8.4708 C 42.765159,1010.3276 36.9,1003.7652 36.9,1001.8832 c 0,-0.3899 2.73375,2.026 6.075,5.3686 3.34125,3.3425 7.0875,6.7385 8.325,7.5467 1.2375,0.8081 1.839594,1.4905 1.337987,1.5165 -0.501608,0.026 -3.043116,-1.388 -5.647797,-3.1421 z m -21.388656,1.3109 c -0.332582,-0.5382 -0.153985,-1.4292 0.396885,-1.98 1.506953,-1.507 1.21713,-2.285 -0.970055,-2.604 -1.726906,-0.2519 -1.505874,-0.5948 1.780704,-2.7626 4.673002,-3.0823 5.790104,-3.1319 5.060512,-0.225 -0.449542,1.7911 -0.223599,2.2549 1.107853,2.2743 1.315475,0.019 0.954829,0.6917 -1.689217,3.15 -3.553263,3.3037 -4.703527,3.738 -5.686682,2.1473 z m -6.093302,-9.5134 c -1.501797,-1.5018 -0.297904,-2.8612 3.467577,-3.9154 4.106136,-1.14969 6.863599,-0.705 2.967016,0.4784 -1.151054,0.3496 -2.932871,1.4028 -3.959593,2.3405 -1.026723,0.9376 -2.140473,1.431 -2.475,1.0965 z M 133.41615,985.31218 c 0.006,-9.55653 0.21966,-12.31696 0.72979,-9.45 0.94133,5.2903 0.94413,14.81302 0.005,19.35 -0.51861,2.50723 -0.74186,-0.49787 -0.73548,-9.9 z m -38.722686,-18.9391 c -1.626102,-2.2104 -5.003719,-5.6371 -7.505822,-7.6149 -5.205564,-4.11476 -4.659086,-4.90091 0.705459,-1.01485 4.191128,3.03603 10.206899,9.83212 10.206899,11.53085 0,1.67438 -0.108567,1.58191 -3.406536,-2.9011 z m 9.706536,2.7274 c 0,-1.45447 7.68037,-5.65793 8.62038,-4.71792 0.94388,0.94389 -0.52611,2.47962 -2.3735,2.47962 -0.96078,0 -2.55688,0.81 -3.54688,1.8 -2.15624,2.15624 -2.7,2.24451 -2.7,0.4383 z m -1.8,-5.595 c 0,-1.15483 -0.74554,-2.15863 -1.86782,-2.51483 -1.027309,-0.32605 -1.616188,-0.84446 -1.308631,-1.15202 0.643331,-0.64333 8.688961,-3.77462 9.701451,-3.77572 1.68566,-0.002 0.36742,2.63431 -2.925,5.84927 -3.17878,3.104 -3.6,3.29042 -3.6,1.5933 z m -98.1,-0.0661 c 0,-1.55899 5.654681,-12.63445 8.878874,-17.39049 2.624886,-3.872 8.221126,-9.76526 8.221126,-8.65746 0,0.3113 -2.000714,2.85233 -4.446032,5.64674 -2.445318,2.7944 -6.292818,8.78031 -8.5500004,13.30203 C 6.3467854,960.86192 4.5,964.05655 4.5,963.43938 Z m 92.371167,-6.28115 c -0.636885,-1.03049 6.501193,-7.82369 7.339753,-6.98513 0.30297,0.30296 -1.09938,2.20107 -3.11632,4.21801 -2.016948,2.01695 -3.917487,3.26215 -4.223433,2.76712 z M 90.9,951.20698 c 0,-1.72701 2.91231,-5.9448 4.104774,-5.9448 1.01826,0 1.146069,0.39703 0.510255,1.58507 C 94.51746,948.71122 90.9,952.12856 90.9,951.20698 Z m -3.805579,-1.95038 c -0.278069,-0.27807 0.558153,-2.40432 1.858271,-4.725 1.493051,-2.66506 2.46848,-3.68457 2.647859,-2.76753 0.156213,0.79854 -0.585018,2.92479 -1.647167,4.725 -2.070401,3.50907 -2.094294,3.5322 -2.858963,2.76753 z m -7.639463,-4.21942 c 2.870557,-7.21587 3.71269,-8.775 4.739649,-8.775 1.851135,0 2.495898,1.74502 0.874635,2.36715 -0.794666,0.30494 -1.326586,1.27092 -1.182044,2.14662 0.144541,0.8757 -0.508718,2.44584 -1.451687,3.48921 -1.882271,2.08267 -3.688009,2.55039 -2.980553,0.77202 z m -16.272403,-0.90503 c -1.693609,-2.04068 -2.106555,-5.56023 -0.853248,-7.27226 1.095763,-1.49682 1.218429,-1.33982 1.303706,1.66858 0.123145,4.34437 1.603674,5.89066 3.384992,3.53534 1.173738,-1.55196 1.328012,-1.5757 1.353372,-0.2083 0.01574,0.84884 -0.754751,1.96259 -1.71221,2.475 -2.199702,1.17725 -2.341677,1.16915 -3.476612,-0.19836 z m 9.085531,-3.2505 c 0.673334,-5.68525 1.092548,-6.42739 3.610029,-6.39085 1.855837,0.0269 1.876772,0.10076 0.355723,1.25432 -1.166661,0.88479 -1.45242,1.87809 -1.027432,3.57138 0.369155,1.47083 0.216675,2.34568 -0.408839,2.34568 -0.548661,0 -0.997567,0.5836 -0.997567,1.29688 0,0.71329 -0.468922,1.5867 -1.042051,1.94091 -0.763418,0.47182 -0.894402,-0.60263 -0.489863,-4.01832 z M 32.812987,928.22207 c 0.793992,-1.28471 5.928035,-3.91887 6.507865,-3.33904 0.249468,0.24947 -1.248007,1.32166 -3.327722,2.38265 -2.079714,1.061 -3.510779,1.49137 -3.180143,0.95639 z M 58.05,918.21055 c 4.627502,-0.95717 15.172498,-0.95717 19.8,0 2.512781,0.51975 -0.477072,0.74463 -9.9,0.74463 -9.422928,0 -12.412781,-0.22488 -9.9,-0.74463 z"
       style="fill:#d95757" />
  </g>
</svg>
