<?xml version="1.0" encoding="UTF-8" standalone="no"?>
<!-- Created with Inkscape (http://www.inkscape.org/) -->

<svg
   xmlns:dc="http://purl.org/dc/elements/1.1/"
   xmlns:cc="http://creativecommons.org/ns#"
   xmlns:rdf="http://www.w3.org/1999/02/22-rdf-syntax-ns#"
   xmlns:svg="http://www.w3.org/2000/svg"
   xmlns="http://www.w3.org/2000/svg"
   xmlns:sodipodi="http://sodipodi.sourceforge.net/DTD/sodipodi-0.dtd"
   xmlns:inkscape="http://www.inkscape.org/namespaces/inkscape"
   id="svg4248"
   version="1.1"
   inkscape:version="0.91 r13725"
   xml:space="preserve"
   width="18.38962cm"
   height="12.426689cm"
   viewBox="0 0 651.60071 440.31582"
   sodipodi:docname="sledding_ice_skating.svg"><sodipodi:namedview
     pagecolor="#ffffff"
     bordercolor="#666666"
     borderopacity="1"
     objecttolerance="10"
     gridtolerance="10"
     guidetolerance="10"
     inkscape:pageopacity="0"
     inkscape:pageshadow="2"
     inkscape:window-width="1920"
     inkscape:window-height="1019"
     id="namedview4250"
     showgrid="false"
     inkscape:zoom="1.8305046"
     inkscape:cx="325.80035"
     inkscape:cy="34.770054"
     inkscape:window-x="1920"
     inkscape:window-y="29"
     inkscape:window-maximized="1"
     inkscape:current-layer="g4256"
     units="cm"
     fit-margin-top="0"
     fit-margin-left="0"
     fit-margin-right="0"
     fit-margin-bottom="0"
     inkscape:document-units="cm" /><metadata
     id="metadata4254"><rdf:RDF><cc:Work
         rdf:about=""><dc:format>image/svg+xml</dc:format><dc:type
           rdf:resource="http://purl.org/dc/dcmitype/StillImage" /><dc:title /></cc:Work></rdf:RDF></metadata><defs
     id="defs4252" /><g
     transform="matrix(1.25,0,0,-1.25,0,743.43331)"
     inkscape:label="Winter_Handbook"
     inkscape:groupmode="layer"
     id="g4256"><path
       style="fill:#c5e8ee;fill-rule:evenodd;stroke:none;stroke-width:0.80000007px;stroke-linecap:butt;stroke-linejoin:miter;stroke-opacity:1"
       d="m 173.66104,424.71084 -5.42085,-4.74324 -16.39807,-38.217 21.95444,3.38804 z"
       id="path4631"
       inkscape:connector-curvature="0" /><path
       inkscape:connector-curvature="0"
       id="path4629"
       d="m 130.03095,371.85281 -5.42085,-4.74324 -16.39807,-38.217 21.95444,3.38804 z"
       style="fill:#c5e8ee;fill-rule:evenodd;stroke:none;stroke-width:0.80000007px;stroke-linecap:butt;stroke-linejoin:miter;stroke-opacity:1" /><path
       style="color:#000000;font-style:normal;font-variant:normal;font-weight:normal;font-stretch:normal;font-size:medium;line-height:normal;font-family:sans-serif;text-indent:0;text-align:start;text-decoration:none;text-decoration-line:none;text-decoration-style:solid;text-decoration-color:#000000;letter-spacing:normal;word-spacing:normal;text-transform:none;direction:ltr;block-progression:tb;writing-mode:lr-tb;baseline-shift:baseline;text-anchor:start;white-space:normal;clip-rule:nonzero;display:inline;overflow:visible;visibility:visible;opacity:1;isolation:auto;mix-blend-mode:normal;color-interpolation:sRGB;color-interpolation-filters:linearRGB;solid-color:#000000;solid-opacity:1;fill:#c5e8ee;fill-opacity:1;fill-rule:evenodd;stroke:none;stroke-width:2.4000001;stroke-linecap:butt;stroke-linejoin:miter;stroke-miterlimit:4;stroke-dasharray:none;stroke-dashoffset:0;stroke-opacity:1;color-rendering:auto;image-rendering:auto;shape-rendering:auto;text-rendering:auto;enable-background:accumulate"
       d="m 178.32748,423.14102 -2.12109,1.12109 c 8.57366,16.22872 12.98454,21.60415 15.18359,28.05469 2.19905,6.45055 2.37695,14.41879 2.37695,36.08008 0,43.82959 26.95313,106.06445 26.95313,106.06445 l 2.20312,-0.95117 c 0,0 -26.75586,-62.27523 -26.75586,-105.11328 0,-21.67255 -0.12739,-29.87667 -2.50586,-36.85352 -2.37847,-6.97684 -6.81825,-12.28328 -15.33398,-28.40234 z"
       id="path4619"
       inkscape:connector-curvature="0" /><path
       style="color:#000000;font-style:normal;font-variant:normal;font-weight:normal;font-stretch:normal;font-size:medium;line-height:normal;font-family:sans-serif;text-indent:0;text-align:start;text-decoration:none;text-decoration-line:none;text-decoration-style:solid;text-decoration-color:#000000;letter-spacing:normal;word-spacing:normal;text-transform:none;direction:ltr;block-progression:tb;writing-mode:lr-tb;baseline-shift:baseline;text-anchor:start;white-space:normal;clip-rule:nonzero;display:inline;overflow:visible;visibility:visible;opacity:1;isolation:auto;mix-blend-mode:normal;color-interpolation:sRGB;color-interpolation-filters:linearRGB;solid-color:#000000;solid-opacity:1;fill:#c5e8ee;fill-opacity:1;fill-rule:evenodd;stroke:none;stroke-width:2.4000001;stroke-linecap:butt;stroke-linejoin:miter;stroke-miterlimit:4;stroke-dasharray:none;stroke-dashoffset:0;stroke-opacity:1;color-rendering:auto;image-rendering:auto;shape-rendering:auto;text-rendering:auto;enable-background:accumulate"
       d="m 185.04232,418.25821 -2.12304,1.12109 c 8.57366,16.22872 12.98454,21.60415 15.18359,28.05469 2.19905,6.45054 2.37695,14.41879 2.37695,36.08008 0,21.9317 7.21335,49.60018 14.40235,71.85547 7.18899,22.25529 14.38086,39.08789 14.38086,39.08789 l 2.20703,-0.94336 c 0,0 -7.1508,-16.73618 -14.30469,-38.88282 -7.15389,-22.14663 -14.28516,-49.71506 -14.28516,-71.11718 0,-21.67256 -0.12739,-29.87668 -2.50586,-36.85352 -2.37847,-6.97684 -6.81629,-12.28328 -15.33203,-28.40234 z"
       id="path4621"
       inkscape:connector-curvature="0" /><path
       style="color:#000000;font-style:normal;font-variant:normal;font-weight:normal;font-stretch:normal;font-size:medium;line-height:normal;font-family:sans-serif;text-indent:0;text-align:start;text-decoration:none;text-decoration-line:none;text-decoration-style:solid;text-decoration-color:#000000;letter-spacing:normal;word-spacing:normal;text-transform:none;direction:ltr;block-progression:tb;writing-mode:lr-tb;baseline-shift:baseline;text-anchor:start;white-space:normal;clip-rule:nonzero;display:inline;overflow:visible;visibility:visible;opacity:1;isolation:auto;mix-blend-mode:normal;color-interpolation:sRGB;color-interpolation-filters:linearRGB;solid-color:#000000;solid-opacity:1;fill:#c5e8ee;fill-opacity:1;fill-rule:evenodd;stroke:none;stroke-width:2.4000001;stroke-linecap:butt;stroke-linejoin:miter;stroke-miterlimit:4;stroke-dasharray:none;stroke-dashoffset:0;stroke-opacity:1;color-rendering:auto;image-rendering:auto;shape-rendering:auto;text-rendering:auto;enable-background:accumulate"
       d="m 134.48568,370.91446 -2.32422,0.5957 c 3.03299,11.82864 3.76615,19.20963 2.3418,28.35547 -1.42435,9.14584 -5.07011,20.11406 -10.87109,38.73828 -12.35149,39.65473 -9.80751,64.60908 -3.69727,99.4375 6.09598,34.74702 7.91992,56.04688 7.91992,56.04688 l 2.39063,-0.20508 c 0,0 -1.83651,-21.42462 -7.94727,-56.25586 -6.09646,-34.74986 -8.61446,-59.01548 3.625,-98.31055 5.79539,-18.60625 9.47643,-29.61068 10.95117,-39.08008 1.47475,-9.46939 0.68171,-17.34781 -2.38867,-29.32226 z"
       id="path4623"
       inkscape:connector-curvature="0" /><path
       style="color:#000000;font-style:normal;font-variant:normal;font-weight:normal;font-stretch:normal;font-size:medium;line-height:normal;font-family:sans-serif;text-indent:0;text-align:start;text-decoration:none;text-decoration-line:none;text-decoration-style:solid;text-decoration-color:#000000;letter-spacing:normal;word-spacing:normal;text-transform:none;direction:ltr;block-progression:tb;writing-mode:lr-tb;baseline-shift:baseline;text-anchor:start;white-space:normal;clip-rule:nonzero;display:inline;overflow:visible;visibility:visible;opacity:1;isolation:auto;mix-blend-mode:normal;color-interpolation:sRGB;color-interpolation-filters:linearRGB;solid-color:#000000;solid-opacity:1;fill:#c5e8ee;fill-opacity:1;fill-rule:evenodd;stroke:none;stroke-width:2.4000001;stroke-linecap:butt;stroke-linejoin:miter;stroke-miterlimit:4;stroke-dasharray:none;stroke-dashoffset:0;stroke-opacity:1;color-rendering:auto;image-rendering:auto;shape-rendering:auto;text-rendering:auto;enable-background:accumulate"
       d="m 141.8099,366.03165 -2.32617,0.5957 c 3.03286,11.82816 4.07431,20.46992 2.87109,30.99805 -1.20321,10.52812 -4.68709,22.9825 -10.78515,42.1914 -12.5551,39.54852 -10.41823,58.52796 -4.31055,93.3418 6.0978,34.75737 9.14453,60.35742 9.14453,60.35742 l 2.38281,-0.2832 c 0,0 -3.05512,-25.66739 -9.16406,-60.48828 -6.09902,-34.76444 -8.23109,-52.935 4.23438,-92.20118 6.10864,-19.24223 9.64273,-31.8109 10.88085,-42.64453 1.23813,-10.83362 0.14277,-19.89226 -2.92773,-31.86718 z"
       id="path4625"
       inkscape:connector-curvature="0" /><path
       inkscape:connector-curvature="0"
       id="path4420"
       d="m 63.15341,574.44441 6.31534,-4.3418 L -4.8828134e-5,530.23699 Z"
       style="fill:#c5e8ee;fill-opacity:1;fill-rule:evenodd;stroke:none;stroke-width:0.80000007px;stroke-linecap:butt;stroke-linejoin:miter;stroke-opacity:1" /><path
       style="fill:#036f7c;fill-opacity:1;fill-rule:evenodd;stroke:none;stroke-width:0.80000007px;stroke-linecap:butt;stroke-linejoin:miter;stroke-opacity:1"
       d="m 62.19613,570.97368 6.36525,22.41676 5.81175,-22.41676 c -4.6125,-2.21399 -7.011,-2.21399 -12.177,0 z"
       id="path4418"
       inkscape:connector-curvature="0"
       sodipodi:nodetypes="cccc" /><path
       style="fill:#c5e8ee;fill-opacity:1;fill-rule:evenodd;stroke:none;stroke-width:0.80000007px;stroke-linecap:butt;stroke-linejoin:miter;stroke-opacity:1"
       d="m 155.30727,313.67133 8.73221,-6.00339 -96.054297,-55.12207 z"
       id="path4181"
       inkscape:connector-curvature="0" /><path
       sodipodi:nodetypes="cccc"
       inkscape:connector-curvature="0"
       id="path4183"
       d="m 153.98365,308.87236 8.80121,30.99559 8.03589,-30.99559 c -6.37769,-3.06127 -9.69408,-3.06127 -16.8371,0 z"
       style="fill:#036f7c;fill-opacity:1;fill-rule:evenodd;stroke:none;stroke-width:0.80000007px;stroke-linecap:butt;stroke-linejoin:miter;stroke-opacity:1" /><path
       style="fill:#c5e8ee;fill-opacity:1;fill-rule:evenodd;stroke:none;stroke-width:0.80000007px;stroke-linecap:butt;stroke-linejoin:miter;stroke-opacity:1"
       d="m 239.67809,331.6821 9.43631,-6.48747 -103.79948,-59.56675 z"
       id="path4187"
       inkscape:connector-curvature="0" /><path
       sodipodi:nodetypes="cccc"
       inkscape:connector-curvature="0"
       id="path4189"
       d="m 238.24773,326.49617 9.51089,33.49486 8.68385,-33.49486 c -6.89195,-3.30812 -10.47576,-3.30812 -18.19474,0 z"
       style="fill:#036f7c;fill-opacity:1;fill-rule:evenodd;stroke:none;stroke-width:0.80000007px;stroke-linecap:butt;stroke-linejoin:miter;stroke-opacity:1" /><path
       style="fill:#c5e8ee;fill-opacity:1;fill-rule:evenodd;stroke:none;stroke-width:0.80000007px;stroke-linecap:butt;stroke-linejoin:miter;stroke-opacity:1"
       d="m 262.54873,398.77084 4.11588,-2.82967 -45.27478,-25.98155 z"
       id="path4193"
       inkscape:connector-curvature="0" /><path
       sodipodi:nodetypes="cccc"
       inkscape:connector-curvature="0"
       id="path4195"
       d="m 261.92484,396.50887 4.14841,14.60964 3.78768,-14.60964 c -3.00609,-1.44292 -4.56926,-1.44292 -7.93609,0 z"
       style="fill:#036f7c;fill-opacity:1;fill-rule:evenodd;stroke:none;stroke-width:0.80000007px;stroke-linecap:butt;stroke-linejoin:miter;stroke-opacity:1" /><path
       style="fill:#c5e8ee;fill-opacity:1;fill-rule:evenodd;stroke:none;stroke-width:0.80000007px;stroke-linecap:butt;stroke-linejoin:miter;stroke-opacity:1"
       d="m 158.42754,524.76834 7.67931,-5.27954 -84.472548,-48.47572 z"
       id="path4199"
       inkscape:connector-curvature="0" /><path
       sodipodi:nodetypes="cccc"
       inkscape:connector-curvature="0"
       id="path4201"
       d="m 157.2635,520.548 7.74001,27.25829 7.06696,-27.25829 c -5.6087,-2.69216 -8.52522,-2.69216 -14.80697,0 z"
       style="fill:#036f7c;fill-opacity:1;fill-rule:evenodd;stroke:none;stroke-width:0.80000007px;stroke-linecap:butt;stroke-linejoin:miter;stroke-opacity:1" /><path
       style="fill:#c5e8ee;fill-opacity:1;fill-rule:evenodd;stroke:none;stroke-width:0.80000007px;stroke-linecap:butt;stroke-linejoin:miter;stroke-opacity:1"
       d="m 140.79647,451.18666 8.4239,-5.79144 -92.663008,-53.17593 z"
       id="path4205"
       inkscape:connector-curvature="0" /><path
       sodipodi:nodetypes="cccc"
       inkscape:connector-curvature="0"
       id="path4207"
       d="m 139.51957,446.55712 8.49048,29.90126 7.75218,-29.90126 c -6.15252,-2.95319 -9.35183,-2.95319 -16.24266,0 z"
       style="fill:#036f7c;fill-opacity:1;fill-rule:evenodd;stroke:none;stroke-width:0.80000007px;stroke-linecap:butt;stroke-linejoin:miter;stroke-opacity:1" /><path
       style="fill:#c5e8ee;fill-opacity:1;fill-rule:evenodd;stroke:none;stroke-width:0.80000007px;stroke-linecap:butt;stroke-linejoin:miter;stroke-opacity:1"
       d="m 271.7379,491.88536 4.23909,-2.91437 -46.63001,-26.75927 z"
       id="path4211"
       inkscape:connector-curvature="0" /><path
       sodipodi:nodetypes="cccc"
       inkscape:connector-curvature="0"
       id="path4213"
       d="m 271.09534,489.55568 4.27259,15.04695 3.90106,-15.04695 c -3.09608,-1.48611 -4.70604,-1.48611 -8.17365,0 z"
       style="fill:#036f7c;fill-opacity:1;fill-rule:evenodd;stroke:none;stroke-width:0.80000007px;stroke-linecap:butt;stroke-linejoin:miter;stroke-opacity:1" /><path
       style="fill:#c5e8ee;fill-opacity:1;fill-rule:evenodd;stroke:none;stroke-width:0.80000007px;stroke-linecap:butt;stroke-linejoin:miter;stroke-opacity:1"
       d="m 222.18884,393.4876 3.84482,-2.64331 -42.29296,-24.27039 z"
       id="path4217"
       inkscape:connector-curvature="0" /><path
       sodipodi:nodetypes="cccc"
       inkscape:connector-curvature="0"
       id="path4219"
       d="m 221.60605,391.3746 3.87519,13.64744 3.53823,-13.64744 c -2.80812,-1.34789 -4.26834,-1.34789 -7.41342,0 z"
       style="fill:#036f7c;fill-opacity:1;fill-rule:evenodd;stroke:none;stroke-width:0.80000007px;stroke-linecap:butt;stroke-linejoin:miter;stroke-opacity:1" /><path
       style="fill:#c5e8ee;fill-opacity:1;fill-rule:evenodd;stroke:none;stroke-width:0.80000007px;stroke-linecap:butt;stroke-linejoin:miter;stroke-opacity:1"
       d="m 245.20081,524.18275 8.11834,-5.58137 -89.30188,-51.24711 z"
       id="path4223"
       inkscape:connector-curvature="0" /><path
       sodipodi:nodetypes="cccc"
       inkscape:connector-curvature="0"
       id="path4225"
       d="m 243.97023,519.72114 8.1825,28.81666 7.47099,-28.81666 c -5.92935,-2.84608 -9.01262,-2.84608 -15.65349,0 z"
       style="fill:#036f7c;fill-opacity:1;fill-rule:evenodd;stroke:none;stroke-width:0.80000007px;stroke-linecap:butt;stroke-linejoin:miter;stroke-opacity:1" /><path
       style="fill:#c5e8ee;fill-opacity:1;fill-rule:evenodd;stroke:none;stroke-width:0.80000007px;stroke-linecap:butt;stroke-linejoin:miter;stroke-opacity:1"
       d="m 286.70628,469.28745 8.61324,-5.92161 -94.74569,-54.3711 z"
       id="path4229"
       inkscape:connector-curvature="0" /><path
       sodipodi:nodetypes="cccc"
       inkscape:connector-curvature="0"
       id="path4231"
       d="m 285.40068,464.55386 8.68131,30.57331 7.92641,-30.57331 c -6.2908,-3.01957 -9.56202,-3.01957 -16.60772,0 z"
       style="fill:#036f7c;fill-opacity:1;fill-rule:evenodd;stroke:none;stroke-width:0.80000007px;stroke-linecap:butt;stroke-linejoin:miter;stroke-opacity:1" /><path
       id="path4604"
       d="m 300.9767,594.74665 -75.84844,-53.09375 92.51877,53.09375 -16.67033,0 z"
       style="fill:#c5e8ee;fill-opacity:1;fill-rule:evenodd;stroke:none;stroke-width:0.80000007px;stroke-linecap:butt;stroke-linejoin:miter;stroke-opacity:1"
       inkscape:connector-curvature="0" /><path
       style="fill:#c5e8ee;fill-opacity:1;fill-rule:evenodd;stroke:none;stroke-width:0.80000007px;stroke-linecap:butt;stroke-linejoin:miter;stroke-opacity:1"
       d="m 493.65333,304.64909 6.39286,-4.3951 -70.32151,-40.35496 z"
       id="path4241"
       inkscape:connector-curvature="0" /><path
       sodipodi:nodetypes="cccc"
       inkscape:connector-curvature="0"
       id="path4243"
       d="m 492.6843,301.13575 6.44338,22.69193 5.88309,-22.69193 c -4.66912,-2.24116 -7.09706,-2.24116 -12.32647,0 z"
       style="fill:#036f7c;fill-opacity:1;fill-rule:evenodd;stroke:none;stroke-width:0.80000007px;stroke-linecap:butt;stroke-linejoin:miter;stroke-opacity:1" /><path
       style="fill:#c5e8ee;fill-opacity:1;fill-rule:evenodd;stroke:none;stroke-width:0.80000007px;stroke-linecap:butt;stroke-linejoin:miter;stroke-opacity:1"
       d="m 473.3751,512.39659 6.95016,-4.77825 -76.45186,-43.87294 z"
       id="path4247"
       inkscape:connector-curvature="0" /><path
       sodipodi:nodetypes="cccc"
       inkscape:connector-curvature="0"
       id="path4249"
       d="m 472.32159,508.57698 7.00509,24.67011 6.39596,-24.67011 c -5.07616,-2.43655 -7.71575,-2.43655 -13.40105,0 z"
       style="fill:#036f7c;fill-opacity:1;fill-rule:evenodd;stroke:none;stroke-width:0.80000007px;stroke-linecap:butt;stroke-linejoin:miter;stroke-opacity:1" /><path
       style="fill:#c5e8ee;fill-opacity:1;fill-rule:evenodd;stroke:none;stroke-width:0.80000007px;stroke-linecap:butt;stroke-linejoin:miter;stroke-opacity:1"
       d="m 496.8638,556.62654 3.54348,-2.43615 -38.97835,-22.36826 z"
       id="path4253"
       inkscape:connector-curvature="0" /><path
       sodipodi:nodetypes="cccc"
       inkscape:connector-curvature="0"
       id="path4255"
       d="m 496.32667,554.67914 3.57149,12.57785 3.26092,-12.57785 c -2.58803,-1.24225 -3.93381,-1.24225 -6.83241,0 z"
       style="fill:#036f7c;fill-opacity:1;fill-rule:evenodd;stroke:none;stroke-width:0.80000007px;stroke-linecap:butt;stroke-linejoin:miter;stroke-opacity:1" /><path
       style="fill:#c5e8ee;fill-opacity:1;fill-rule:evenodd;stroke:none;stroke-width:0.80000007px;stroke-linecap:butt;stroke-linejoin:miter;stroke-opacity:1"
       d="m 505.25338,479.14859 6.35157,-4.36671 -69.86734,-40.09432 z"
       id="path4259"
       inkscape:connector-curvature="0" /><path
       sodipodi:nodetypes="cccc"
       inkscape:connector-curvature="0"
       id="path4261"
       d="m 504.29061,475.65795 6.40176,22.54536 5.84509,-22.54536 c -4.63896,-2.22669 -7.05122,-2.22669 -12.24685,0 z"
       style="fill:#036f7c;fill-opacity:1;fill-rule:evenodd;stroke:none;stroke-width:0.80000007px;stroke-linecap:butt;stroke-linejoin:miter;stroke-opacity:1" /><path
       style="fill:#c5e8ee;fill-opacity:1;fill-rule:evenodd;stroke:none;stroke-width:0.80000007px;stroke-linecap:butt;stroke-linejoin:miter;stroke-opacity:1"
       d="m 265.32382,295.39007 7.22382,-4.96638 -79.46214,-45.60044 z"
       id="path4265"
       inkscape:connector-curvature="0" /><path
       sodipodi:nodetypes="cccc"
       inkscape:connector-curvature="0"
       id="path4267"
       d="m 264.22883,291.42007 7.28091,25.64149 6.6478,-25.64149 c -5.27603,-2.53249 -8.01956,-2.53249 -13.92871,0 z"
       style="fill:#036f7c;fill-opacity:1;fill-rule:evenodd;stroke:none;stroke-width:0.80000007px;stroke-linecap:butt;stroke-linejoin:miter;stroke-opacity:1" /><path
       style="fill:#c5e8ee;fill-opacity:1;fill-rule:evenodd;stroke:none;stroke-width:0.80000007px;stroke-linecap:butt;stroke-linejoin:miter;stroke-opacity:1"
       d="m 502.93806,385.04719 7.64066,-5.25296 -84.04732,-48.2317 z"
       id="path4271"
       inkscape:connector-curvature="0" /><path
       sodipodi:nodetypes="cccc"
       inkscape:connector-curvature="0"
       id="path4273"
       d="m 501.77989,380.8481 7.70105,27.12108 7.03138,-27.12108 c -5.58046,-2.67861 -8.48231,-2.67861 -14.73243,0 z"
       style="fill:#036f7c;fill-opacity:1;fill-rule:evenodd;stroke:none;stroke-width:0.80000007px;stroke-linecap:butt;stroke-linejoin:miter;stroke-opacity:1" /><path
       style="fill:#c5e8ee;fill-opacity:1;fill-rule:evenodd;stroke:none;stroke-width:0.80000007px;stroke-linecap:butt;stroke-linejoin:miter;stroke-opacity:1"
       d="m 511.55252,287.93442 5.47572,-3.76456 -60.23296,-34.56551 z"
       id="path4277"
       inkscape:connector-curvature="0" /><path
       sodipodi:nodetypes="cccc"
       inkscape:connector-curvature="0"
       id="path4279"
       d="m 510.72251,284.92512 5.51899,19.43646 5.03908,-19.43646 c -3.99927,-1.91964 -6.07889,-1.91964 -10.55807,0 z"
       style="fill:#036f7c;fill-opacity:1;fill-rule:evenodd;stroke:none;stroke-width:0.80000007px;stroke-linecap:butt;stroke-linejoin:miter;stroke-opacity:1" /><path
       inkscape:connector-curvature="0"
       id="rect4614"
       d="m 173.53831,425.09052 13.64883,-5.31743 -13.51515,-34.69076 -13.64883,5.31743 z"
       style="opacity:1;fill:#ac939d;fill-opacity:1;stroke:none;stroke-width:4.00000048;stroke-linecap:butt;stroke-linejoin:round;stroke-miterlimit:4;stroke-dasharray:none;stroke-dashoffset:0;stroke-opacity:1" /><path
       style="opacity:1;fill:#ac939d;fill-opacity:1;stroke:none;stroke-width:4.00000048;stroke-linecap:butt;stroke-linejoin:round;stroke-miterlimit:4;stroke-dasharray:none;stroke-dashoffset:0;stroke-opacity:1"
       d="m 130.20448,371.99132 13.64883,-5.31743 -13.51515,-34.69076 -13.64883,5.31743 z"
       id="path4617"
       inkscape:connector-curvature="0" /><path
       style="opacity:1;fill:#d3f4fa;fill-opacity:1;stroke:none;stroke-width:3;stroke-linecap:butt;stroke-linejoin:round;stroke-miterlimit:4;stroke-dasharray:none;stroke-dashoffset:0;stroke-opacity:1"
       d="M 395.14648 183.52148 C 370.5331 183.52148 350.71875 203.33583 350.71875 227.94922 L 350.71875 392.97266 C 350.71875 417.58604 370.5331 437.40039 395.14648 437.40039 L 498.07227 437.40039 C 522.68565 437.40039 542.5 417.58604 542.5 392.97266 L 542.5 227.94922 C 542.5 203.33583 522.68565 183.52148 498.07227 183.52148 L 395.14648 183.52148 z M 404.74219 195.2832 L 405.5 195.9375 C 395.19493 207.8697 388.99103 230.20821 387.75977 249.56641 C 387.14413 259.24552 387.76775 268.18267 389.68164 274.67773 C 390.21272 276.48012 390.8666 278.03823 391.5918 279.42578 C 396.49642 275.77908 401.42633 272.97901 405.50195 271.52344 C 409.43275 270.11958 412.28507 270.27899 414.04297 271.48633 C 415.80087 272.69368 416.28933 274.91229 415.62891 277.15039 C 415.00009 279.28139 413.36072 281.49976 410.80078 283.21484 C 408.92239 287.34656 403.39275 291.43446 394.66406 291.17773 C 392.1827 291.10473 390.05268 289.93571 388.3418 287.96875 C 387.8289 287.37908 387.41886 286.58535 386.97461 285.85938 C 384.20795 287.97496 381.46312 290.33489 378.91602 292.9043 C 375.40261 297.33282 372.63781 302.1308 371.30078 306.98047 C 369.87549 312.15029 370.04468 317.35828 372.59375 322.32227 C 375.13369 327.26847 380.89091 332.78482 388.10156 338.19922 C 395.3122 343.61362 403.97076 348.94403 412.30469 353.64258 C 428.97255 363.03968 444.33984 369.90234 444.33984 369.90234 L 443.93164 370.81641 C 443.93164 370.81641 428.52802 363.93765 411.8125 354.51367 C 403.45473 349.80167 394.76775 344.45581 387.50195 339 C 380.23615 333.54419 374.38558 327.99923 371.70508 322.7793 C 369.0337 317.57716 368.85906 312.07178 370.33594 306.71484 C 371.03683 304.17254 372.11617 301.66208 373.46484 299.2168 C 370.45592 303.25789 368.10468 307.56977 366.9043 311.92383 C 365.47901 317.09365 365.64819 322.30359 368.19727 327.26758 C 370.7372 332.21378 376.49443 337.73014 383.70508 343.14453 C 390.91571 348.55893 399.57231 353.89129 407.90625 358.58984 C 424.5741 367.98696 439.94531 374.84961 439.94531 374.84961 L 439.53711 375.76172 C 439.53711 375.76172 424.13154 368.88491 407.41602 359.46094 C 399.05824 354.74894 390.37127 349.39917 383.10547 343.94336 C 375.83967 338.48755 369.98909 332.94455 367.30859 327.72461 C 364.63722 322.52247 364.46453 317.01514 365.94141 311.6582 C 367.41828 306.30127 370.53046 301.0799 374.44336 296.33594 C 375.61969 294.90977 376.87452 293.54177 378.17578 292.22461 C 378.39745 291.94596 378.61262 291.66415 378.83984 291.38867 C 381.00571 288.76279 383.4246 286.32052 385.94922 284.07422 C 385.3355 282.8188 384.78098 281.45173 384.32617 279.9082 C 382.35898 273.23194 381.74445 264.20551 382.36523 254.44531 C 383.60682 234.92493 389.76898 212.47719 400.3457 200.23047 L 400.80273 200.625 C 402.04025 198.6905 403.35073 196.89437 404.74219 195.2832 z M 399.21875 203.24023 C 390.04153 215.5967 384.51759 236.36145 383.36328 254.50977 C 382.74764 264.18888 383.37127 273.12994 385.28516 279.625 C 385.69671 281.02174 386.18221 282.26711 386.7168 283.4043 C 388.06648 282.23431 389.43994 281.11462 390.82031 280.06055 C 390.01413 278.55786 389.29231 276.89421 388.72266 274.96094 C 386.75547 268.28468 386.14093 259.26215 386.76172 249.50195 C 387.76847 233.67345 392.01098 215.91977 399.21875 203.24023 z M 465.59766 204.45312 C 488.60848 205.83931 500.2238 220.89721 504.24414 237.11719 C 506.2543 245.22717 506.39336 253.63338 505.16211 260.83008 C 503.93087 268.02679 501.35065 274.021 497.7793 277.30664 C 490.9949 283.5483 480.96007 297.14227 473.42773 311.11133 C 469.66157 318.09586 466.51402 325.17992 464.69141 331.48242 C 462.86879 337.78492 462.39515 343.29799 463.83789 347.10156 C 466.92587 355.24262 465.79195 365.7514 463.92773 374.24414 C 462.06347 382.73688 459.43751 389.22852 459.4375 389.22852 L 458.50977 388.85547 C 458.50977 388.85547 461.10617 382.43433 462.95117 374.0293 C 464.79618 365.62427 465.85913 355.25208 462.90234 347.45703 C 461.32271 343.29256 461.88012 337.60829 463.73242 331.20312 C 465.58473 324.79795 468.75518 317.66301 472.54492 310.63477 C 480.12441 296.57828 490.14795 282.9696 497.10156 276.57227 C 500.39922 273.53843 502.96853 267.7186 504.17578 260.66211 C 505.38303 253.60562 505.24924 245.32286 503.27539 237.35938 C 499.32767 221.43239 488.13847 206.81258 465.53906 205.45117 L 465.59766 204.45312 z M 460.10156 206.10156 C 483.11238 207.48775 494.72966 222.54564 498.75 238.76562 C 500.76017 246.87562 500.89921 255.28182 499.66797 262.47852 C 498.43672 269.67523 495.85651 275.67138 492.28516 278.95703 C 485.50074 285.19868 475.46398 298.7907 467.93164 312.75977 C 464.16547 319.74429 461.01792 326.82836 459.19531 333.13086 C 457.37269 339.43336 456.89906 344.94643 458.3418 348.75 C 461.42978 356.89105 460.29587 367.39789 458.43164 375.89062 C 456.56738 384.38337 453.94141 390.87891 453.94141 390.87891 L 453.01367 390.50391 C 453.01367 390.50391 455.61007 384.08471 457.45508 375.67969 C 459.30008 367.27465 460.36304 356.89856 457.40625 349.10352 C 455.82663 344.93904 456.38402 339.25672 458.23633 332.85156 C 460.08863 326.44639 463.263 319.31339 467.05273 312.28516 C 474.63222 298.22866 484.65186 284.61804 491.60547 278.2207 C 494.90313 275.18687 497.47438 269.36703 498.68164 262.31055 C 499.88889 255.25406 499.75316 246.96935 497.7793 239.00586 C 493.83158 223.07887 482.64238 208.46101 460.04297 207.09961 L 460.10156 206.10156 z M 410.55469 271.5332 C 409.28676 271.52109 407.72109 271.79492 405.83984 272.4668 C 401.88513 273.87918 397.00558 276.65871 392.14258 280.2793 C 392.24542 280.45065 392.3475 280.62271 392.44922 280.79688 C 395.53081 278.89219 398.49444 277.40322 401.10547 276.4707 C 405.03628 275.06684 407.88663 275.22626 409.64453 276.43359 C 411.25513 277.53977 411.78896 279.49425 411.36133 281.53516 C 413.09829 280.0904 414.21303 278.41556 414.66992 276.86719 C 415.24592 274.9152 414.84406 273.25171 413.47656 272.3125 C 412.79281 271.84289 411.82262 271.54532 410.55469 271.5332 z M 406.1582 276.47852 C 404.89027 276.4664 403.32265 276.74023 401.44141 277.41211 C 398.91516 278.31433 396.01161 279.77933 392.97656 281.66016 C 393.14153 281.91329 393.31043 282.15627 393.49219 282.36523 C 395.06554 284.17408 396.90223 285.16802 399.0918 285.23242 C 403.75844 285.36968 407.40604 284.20763 410.02148 282.52148 C 410.11952 282.28378 410.20466 282.04752 410.27344 281.81445 C 410.84944 279.86247 410.44565 278.19702 409.07812 277.25781 C 408.39438 276.78821 407.42614 276.49063 406.1582 276.47852 z M 391.37109 280.91406 C 389.96002 281.99307 388.55556 283.1395 387.17773 284.33984 C 387.18302 284.34998 387.18807 284.36097 387.19336 284.37109 C 388.67404 283.27018 390.15388 282.25687 391.61523 281.32422 C 391.53431 281.18662 391.4535 281.04873 391.37109 280.91406 z M 392.14062 282.19141 C 390.69065 283.11931 389.21946 284.12766 387.74609 285.22461 C 388.18361 285.95345 388.59882 286.74125 389.0957 287.3125 C 390.66905 289.12135 392.5038 290.11333 394.69336 290.17773 C 402.01567 290.3931 406.83987 287.41679 409.07422 284.2207 C 406.44764 285.53566 403.10078 286.3512 399.0625 286.23242 C 396.58115 286.15942 394.44917 284.9904 392.73828 283.02344 C 392.52361 282.77664 392.32932 282.48977 392.14062 282.19141 z "
       transform="matrix(0.8000001,0,0,-0.8000001,-2.4414065e-5,594.74665)"
       id="rect4716" /><path
       style="opacity:1;fill:#b7bec8;fill-opacity:1;stroke:none;stroke-width:3;stroke-linecap:butt;stroke-linejoin:round;stroke-miterlimit:4;stroke-dasharray:none;stroke-dashoffset:0;stroke-opacity:1"
       d="m 353.77947,297.33261 a 0.9993003,3.6589766 63.293768 0 0 -2.81955,2.5371 0.9993003,3.6589766 63.293768 0 0 3.71775,-0.75171 0.9993003,3.6589766 63.293768 0 0 2.81954,-2.5371 0.9993003,3.6589766 63.293768 0 0 -3.71774,0.75171 z"
       id="path4726"
       inkscape:connector-curvature="0" /><path
       style="opacity:1;fill:#e9afaf;fill-opacity:1;stroke:none;stroke-width:2.40000033;stroke-linecap:butt;stroke-linejoin:round;stroke-miterlimit:4;stroke-dasharray:none;stroke-dashoffset:0;stroke-opacity:1"
       d="m 348.73556,291.74517 a 5.598721,2.4311197 63.293764 0 0 0.34438,6.09404 5.598721,2.4311197 63.293764 0 0 4.68793,3.90888 5.598721,2.4311197 63.293764 0 0 -0.34438,-6.09405 5.598721,2.4311197 63.293764 0 0 -4.68793,-3.90887 z"
       id="path4722"
       inkscape:connector-curvature="0" /><path
       style="opacity:1;fill:#ffd5d5;fill-opacity:1;stroke:none;stroke-width:3;stroke-linecap:butt;stroke-linejoin:round;stroke-miterlimit:4;stroke-dasharray:none;stroke-dashoffset:0;stroke-opacity:1"
       d="m 350.15648,294.68075 a 2.459816,2.3521993 63.293732 0 0 -0.9958,3.25452 2.459816,2.3521993 63.293732 0 0 3.20676,1.1403 2.459816,2.3521993 63.293732 0 0 0.99579,-3.25453 2.459816,2.3521993 63.293732 0 0 -3.20675,-1.14029 z"
       id="path4724"
       inkscape:connector-curvature="0" /><path
       style="opacity:1;fill:#b7bec8;fill-opacity:1;stroke:none;stroke-width:3;stroke-linecap:butt;stroke-linejoin:round;stroke-miterlimit:4;stroke-dasharray:none;stroke-dashoffset:0;stroke-opacity:1"
       d="m 365.56947,282.33619 a 3.6439631,0.99520011 66.953287 0 0 2.34232,2.96353 3.6439631,0.99520011 66.953287 0 0 -0.51078,-3.74273 3.6439631,0.99520011 66.953287 0 0 -2.34231,-2.96352 3.6439631,0.99520011 66.953287 0 0 0.51077,3.74272 z"
       id="ellipse4735"
       inkscape:connector-curvature="0" /><path
       style="opacity:1;fill:#ccaaff;fill-opacity:1;stroke:none;stroke-width:2.40000033;stroke-linecap:butt;stroke-linejoin:round;stroke-miterlimit:4;stroke-dasharray:none;stroke-dashoffset:0;stroke-opacity:1"
       d="m 359.69576,286.99398 a 2.4211445,5.5757489 66.95329 0 0 6.07856,0.0451 2.4211445,5.5757489 66.95329 0 0 4.1829,-4.4107 2.4211445,5.5757489 66.95329 0 0 -6.07856,-0.0451 2.4211445,5.5757489 66.95329 0 0 -4.1829,4.41071 z"
       id="ellipse4737"
       inkscape:connector-curvature="0" /><path
       style="opacity:1;fill:#ffd5d5;fill-opacity:1;stroke:none;stroke-width:3;stroke-linecap:butt;stroke-linejoin:round;stroke-miterlimit:4;stroke-dasharray:none;stroke-dashoffset:0;stroke-opacity:1"
       d="m 362.70363,285.76835 a 2.3425477,2.449723 66.953317 0 0 3.17127,1.19656 2.3425477,2.449723 66.953317 0 0 1.33713,-3.1146 2.3425477,2.449723 66.953317 0 0 -3.17126,-1.19655 2.3425477,2.449723 66.953317 0 0 -1.33714,3.11459 z"
       id="ellipse4739"
       inkscape:connector-curvature="0" /></g></svg>