<?xml version="1.0" encoding="UTF-8" standalone="no"?>
<!-- Created with Inkscape (http://www.inkscape.org/) -->

<svg
   xmlns:dc="http://purl.org/dc/elements/1.1/"
   xmlns:cc="http://creativecommons.org/ns#"
   xmlns:rdf="http://www.w3.org/1999/02/22-rdf-syntax-ns#"
   xmlns:svg="http://www.w3.org/2000/svg"
   xmlns="http://www.w3.org/2000/svg"
   xmlns:sodipodi="http://sodipodi.sourceforge.net/DTD/sodipodi-0.dtd"
   xmlns:inkscape="http://www.inkscape.org/namespaces/inkscape"
   width="72.982666mm"
   height="20.965082mm"
   viewBox="0 0 258.6 74.285724"
   id="svg2"
   version="1.1"
   inkscape:version="0.91 r13725"
   sodipodi:docname="thai_essence.svg">
  <defs
     id="defs4" />
  <sodipodi:namedview
     id="base"
     pagecolor="#ffffff"
     bordercolor="#666666"
     borderopacity="1.0"
     inkscape:pageopacity="0.0"
     inkscape:pageshadow="2"
     inkscape:zoom="4.0928658"
     inkscape:cx="118.80001"
     inkscape:cy="30.59997"
     inkscape:document-units="px"
     inkscape:current-layer="layer1"
     showgrid="false"
     fit-margin-top="0"
     fit-margin-left="0"
     fit-margin-right="0"
     fit-margin-bottom="0"
     inkscape:window-width="1920"
     inkscape:window-height="1019"
     inkscape:window-x="1920"
     inkscape:window-y="29"
     inkscape:window-maximized="1" />
  <metadata
     id="metadata7">
    <rdf:RDF>
      <cc:Work
         rdf:about="">
        <dc:format>image/svg+xml</dc:format>
        <dc:type
           rdf:resource="http://purl.org/dc/dcmitype/StillImage" />
        <dc:title></dc:title>
      </cc:Work>
    </rdf:RDF>
  </metadata>
  <g
     inkscape:label="Layer 1"
     inkscape:groupmode="layer"
     id="layer1"
     transform="translate(-43.800001,-945.07648)">
    <path
       inkscape:connector-curvature="0"
       id="path4257"
       d="m 81.958665,1018.9209 c -0.624972,-0.625 -0.386676,-6.6705 0.279144,-7.082 0.350796,-0.2168 1.200246,0.1047 1.88766,0.7146 0.904932,0.8027 1.32225,0.9018 1.512192,0.3587 0.370296,-1.0586 1.763958,-0.9324 2.198148,0.1991 0.20031,0.522 0.364194,1.5799 0.364194,2.3509 0,3.2103 -1.748352,4.3794 -3.36477,2.25 -0.714432,-0.9411 -0.799044,-0.9478 -0.81615,-0.064 -0.01986,1.0249 -1.434486,1.8988 -2.060418,1.2729 z m 5.041338,-1.9233 c 0,-0.3105 -0.27,-0.7314 -0.6,-0.9354 -0.33,-0.2039 -0.6,0.05 -0.6,0.5646 0,0.5145 0.27,0.9354 0.6,0.9354 0.33,0 0.6,-0.254 0.6,-0.5646 z m -3,-2.7 c 0,-0.4755 -0.27,-1.0314 -0.6,-1.2354 -0.33,-0.2039 -0.6,0.1851 -0.6,0.8646 0,0.6795 0.27,1.2354 0.6,1.2354 0.33,0 0.6,-0.389 0.6,-0.8646 z m 15.204564,4.3146 c -0.618738,-0.8556 -0.586338,-5.3468 0.04596,-6.3699 0.231168,-0.374 1.469043,-0.6801 2.750823,-0.6801 2.2818,0 2.32776,0.043 2.19834,2.0663 -0.0727,1.1364 -0.32317,2.2572 -0.5566,2.4907 -0.23344,0.2334 0.0439,0.7834 0.61624,1.2223 0.91064,0.6982 0.92822,0.8732 0.14068,1.4001 -1.26734,0.848 -4.547695,0.7663 -5.195437,-0.1294 z m 103.163393,0.138 c -1.36933,-0.551 -2.23344,-2.6663 -1.86684,-4.5699 0.3089,-1.604 3.23249,-3.0795 4.508,-2.2752 1.77565,1.1197 1.74463,2.2646 -0.052,1.9212 -1.10767,-0.2118 -1.76466,0 -2.13644,0.6974 -0.82498,1.5415 0.14451,2.5705 1.98629,2.1083 1.21846,-0.3058 1.59309,-0.1779 1.59309,0.5441 0,0.5191 -0.52226,1.2234 -1.16056,1.565 -1.32723,0.7103 -1.13027,0.7097 -2.87149,0.01 z m 16.3749,-0.3308 c -1.22687,-1.2269 -1.31293,-6.2572 -0.10705,-6.2572 0.96739,0 1.5642,1.2778 1.5642,3.3491 0,0.798 0.24111,1.4509 0.5358,1.4509 0.69342,0 1.2642,-1.5121 1.2642,-3.349 0,-0.8898 0.34812,-1.451 0.9,-1.451 0.66451,0 0.9,0.6953 0.9,2.6572 0,2.8557 -1.11417,4.5428 -3,4.5428 -0.61286,0 -1.53858,-0.4243 -2.05715,-0.9428 z m 30.57818,0.1324 c -0.70974,-0.519 -0.97209,-1.1911 -0.72067,-1.8463 0.21744,-0.5666 0.12684,-1.5319 -0.20132,-2.1451 -0.43992,-0.822 -0.34929,-1.3622 0.345,-2.0565 1.68606,-1.6861 4.42069,-0.9508 4.37684,1.1768 -0.0134,0.6499 0.13744,1.7215 0.33519,2.3815 0.68641,2.291 -2.10678,3.9727 -4.13504,2.4896 z m 46.59438,0.3091 c -0.52819,-0.3449 -0.72427,-1.5721 -0.6,-3.7555 0.175,-3.0747 0.27411,-3.2534 1.90768,-3.4401 2.02527,-0.2314 3.52594,0.8632 2.25784,1.6469 -0.5644,0.3488 -0.60825,0.6241 -0.14499,0.9104 1.05582,0.6526 0.77578,1.4233 -0.68594,1.8878 l -1.35,0.4291 1.36692,0.6106 c 0.75181,0.3358 1.27099,0.9035 1.15373,1.2614 -0.27048,0.8256 -2.87062,1.1248 -3.90524,0.4494 z m -243.351225,-1.0477 c -0.468304,-1.2204 -0.468304,-4.0815 0,-5.3019 0.487457,-1.2703 5.035807,-1.3466 5.035807,-0.085 0,0.4755 -0.244653,1.0158 -0.543672,1.2006 -0.29902,0.1848 -0.412253,0.8386 -0.251629,1.4528 0.201199,0.7694 -0.09628,1.2183 -0.956328,1.4432 -0.686605,0.1796 -1.248371,0.7568 -1.248371,1.2827 0,1.2375 -1.561565,1.2429 -2.035807,0.01 z m 16.235809,0.549 c -0.57981,-0.5798 -0.4737,-5.1546 0.142104,-6.1268 0.98118,-1.5491 1.857894,-0.01 1.857894,3.2622 0,2.3205 -0.231354,3.2646 -0.799998,3.2646 -0.440004,0 -0.980004,-0.18 -1.2,-0.4 z m 59.400006,0 c -0.22001,-0.22 -0.40001,-1.2669 -0.40001,-2.3265 0,-1.0596 -0.40203,-2.2602 -0.89339,-2.668 -1.27283,-1.0563 -0.55552,-1.8055 1.7288,-1.8055 2.51621,0 2.93369,0.4558 1.84341,2.0124 -0.48335,0.69 -0.87882,2.1396 -0.87882,3.2211 0,1.8673 -0.51874,2.4478 -1.39999,1.5665 z m 14.36419,-0.549 c -0.61002,-1.5897 -0.40668,-4.9539 0.32682,-5.4072 0.38007,-0.2349 1.01733,0.019 1.41615,0.5646 0.92383,1.2634 1.46943,1.2503 2.4363,-0.058 1.18926,-1.6097 2.16657,-0.1666 1.94502,2.8719 -0.20212,2.7718 -1.54629,3.9515 -2.09811,1.8414 -0.41874,-1.6013 -1.75183,-1.6403 -2.16423,-0.063 -0.37583,1.4372 -1.35604,1.5693 -1.86195,0.251 z m 17.04898,-0.101 c 0.0185,-1.4724 2.21203,-6.15 2.88402,-6.15 0.83794,0 1.68461,1.2215 2.82444,4.0749 1.19478,2.991 0.87342,3.6464 -1.23466,2.5182 -1.16102,-0.6214 -1.67526,-0.6448 -2.2191,-0.1009 -1.04544,1.0454 -2.26978,0.8596 -2.2547,-0.3422 z m 17.38683,-2.25 c 0,-2.5333 0.20908,-3.3 0.9,-3.3 0.69091,0 0.9,0.7667 0.9,3.3 0,2.5334 -0.20909,3.3 -0.9,3.3 -0.69092,0 -0.9,-0.7666 -0.9,-3.3 z m 58.2,0.05 c 0,-2.6279 0.20075,-3.35 0.93135,-3.35 0.74513,0 0.8951,0.6205 0.75,3.1029 -0.25975,4.4441 -1.68135,4.6531 -1.68135,0.2471 z m 29.64119,2.4131 c -0.17664,-0.4603 -0.23566,-1.8778 -0.13117,-3.15 0.23119,-2.8149 1.8817,-3.2606 2.18683,-0.5906 0.38118,3.3355 -1.14525,6.1131 -2.05566,3.7406 z m 13.39234,0.4704 c -0.23844,-0.2384 -0.43353,-1.7385 -0.43353,-3.3335 0,-2.2876 0.20775,-2.9 0.98385,-2.9 0.54112,0 1.33184,0.4725 1.75715,1.05 0.73647,1 0.79267,1 1.18034,0 0.22387,-0.5775 0.78316,-1.05 1.24285,-1.05 0.6131,0 0.83581,0.8793 0.83581,3.3 0,2.6584 -0.19131,3.3 -0.98386,3.3 -0.54111,0 -1.33442,-0.4725 -1.7629,-1.05 -0.74035,-0.9978 -0.81896,-0.9962 -1.58261,0.034 -0.44196,0.5959 -0.99866,0.8884 -1.2371,0.65 z m 4.36647,-1.7689 c 0,-0.5145 -0.27441,-0.7658 -0.60979,-0.5585 -0.33538,0.2073 -0.45445,0.6282 -0.26459,0.9354 0.51434,0.8322 0.87438,0.677 0.87438,-0.3769 z m -2.4,-2.3292 c 0,-0.1455 -0.27,-0.4314 -0.6,-0.6354 -0.33,-0.2039 -0.6,-0.085 -0.6,0.2646 0,0.3495 0.27,0.6354 0.6,0.6354 0.33,0 0.6,-0.119 0.6,-0.2646 z M 52.617728,1003.98 c -0.211806,-0.2118 -0.241508,-0.6175 -0.066,-0.9015 0.176597,-0.2857 56.058502,-0.5163 125.133692,-0.5163 99.585,0 124.76406,0.1516 124.5646,0.75 -0.19871,0.5962 -25.79098,0.7811 -124.74858,0.9014 -68.47423,0.083 -124.6719,-0.022 -124.883707,-0.2336 z m 0.663075,-9.36777 c -0.06556,-0.0825 -0.268059,-5.82 -0.45,-12.75 l -0.330801,-12.6 -4.350001,-0.17629 c -2.3925,-0.097 -4.35,-0.42176 -4.35,-0.72179 0,-1.19171 4.98428,-1.79538 14.850001,-1.79857 8.658246,-0.003 10.35,0.13931 10.35,0.86946 0,0.96563 -2.054652,1.44436 -7.2,1.6776 l -3.3,0.14959 -0.09177,12.27172 c -0.08471,11.32764 -0.17703,12.30528 -1.2,12.70783 -1.079488,0.4248 -3.68867,0.67091 -3.927428,0.37045 z m 3.777231,-12.86087 c -0.0929,-7.52363 0.08758,-11.9401 0.521028,-12.75 0.620529,-1.15947 0.503392,-1.23913 -1.822143,-1.23913 -2.019767,0 -2.417085,0.17778 -2.121111,0.94907 0.200307,0.52199 0.364194,6.34493 0.364194,12.93986 l 0,11.99077 1.600082,-0.18985 1.600083,-0.18985 -0.142133,-11.51087 z m 14.032632,12.26087 c -0.149418,-0.4125 -0.373008,-6.555 -0.49686,-13.65 -0.123852,-7.095 -0.330624,-13.54302 -0.459498,-14.32894 -0.197268,-1.20308 0.139116,-1.55992 2.128164,-2.25753 1.578882,-0.55376 2.561976,-0.62909 2.963958,-0.2271 0.337842,0.33784 0.582378,3.63213 0.557886,7.5156 -0.024,3.80276 0.19536,7.0618 0.48744,7.24232 0.292074,0.18051 1.748298,-0.54596 3.236052,-1.61438 3.497347,-2.51161 7.883257,-2.80253 10.024705,-0.66495 1.247184,1.24492 1.385406,2.01012 1.571112,8.69773 0.116556,4.19714 0.470136,7.49743 0.826872,7.7179 1.044456,0.64551 -0.05544,1.65089 -2.258118,2.06412 -3.482772,0.65337 -3.872376,-0.13835 -3.872376,-7.86917 0,-3.7276 -0.163884,-7.20454 -0.364194,-7.72653 -0.527532,-1.37472 -4.869145,-1.22911 -7.285807,0.24435 -1.911522,1.16548 -1.95213,1.28087 -2.05782,5.84776 -0.05928,2.56235 -0.04248,5.57749 0.03738,6.70031 0.08356,1.17476 -0.189084,2.25347 -0.64218,2.54081 -1.204344,0.76374 -4.091172,0.61122 -4.396722,-0.2323 z m 3.909336,-14.81459 c 0,-7.90052 -0.223146,-14.5025 -0.495876,-14.67106 -0.27273,-0.16855 -1.043448,-0.16327 -1.712706,0.0117 -1.175952,0.30752 -1.218792,0.78371 -1.275198,14.17516 -0.0321,7.62131 0.07955,14.0801 0.248112,14.35285 0.16857,0.27274 0.965556,0.4959 1.77108,0.4959 l 1.464588,0 0,-14.36459 z m 15.018655,13.61459 c -0.01026,-0.2475 -0.01865,-3.69 -0.01865,-7.65 0,-6.4 -0.133332,-7.33333 -1.2,-8.4 -1.272732,-1.27273 -5.039196,-1.6692 -5.7,-0.6 -0.203952,0.33 0.169806,0.6 0.830568,0.6 2.398398,0 3.069432,2.13663 3.069432,9.77336 l 0,7.10634 1.518654,-0.18985 c 0.83526,-0.10442 1.51026,-0.39235 1.5,-0.63985 z m 7.914852,1.01598 c -2.713236,-1.90043 -1.005114,-7.26686 2.795291,-8.782 0.86416,-0.34453 2.9212,-0.9367 4.5712,-1.31594 2.92303,-0.67184 3.00497,-0.75022 3.19374,-3.05486 0.35234,-4.30179 -3.13396,-5.24923 -6.67195,-1.81318 -2.393351,2.32439 -3.274313,2.58246 -3.834275,1.12322 -0.805236,-2.09841 7.768775,-6.04287 11.750315,-5.40572 3.70413,0.59276 4.26217,1.90571 4.26217,10.02786 0,6.68188 0.0787,7.15456 1.3007,7.80853 l 1.30069,0.69611 -1.45069,0.80374 c -2.19666,1.21703 -4.55083,1.03446 -5.57841,-0.43262 -0.9034,-1.28977 -1.0948,-1.27081 -3.97229,0.39357 -1.98073,1.14568 -5.997693,1.12016 -7.666491,-0.0487 z m 4.803451,-1.00409 c -1.55388,-0.74888 -2.24146,-2.76696 -1.69057,-4.96189 0.20706,-0.825 0.21858,-1.5 0.0256,-1.5 -1.110489,0 -2.626383,1.40593 -3.156963,2.92795 -0.935442,2.6834 0.45186,4.28337 3.668993,4.23144 2.26438,-0.0365 2.37967,-0.1063 1.15294,-0.6975 z m 10.16956,-7.51156 c -0.20833,-8.88299 -0.52458,-9.75033 -3.55521,-9.75033 -1.34689,0 -1.37166,0.0681 -0.48533,1.3335 0.71034,1.01416 0.93402,2.94222 0.93402,8.05093 0,7.65409 0.22475,8.61544 2.0142,8.6159 1.26146,3.2e-4 1.28214,-0.15587 1.09232,-8.25 z m -5.84558,5.86452 c 1.37621,-0.52323 1.53906,-0.91106 1.53906,-3.66505 0,-3.05494 -0.0134,-3.07671 -1.65,-2.68777 -3.56125,0.84633 -5.67788,3.57571 -4.71628,6.08161 0.38009,0.99048 2.6064,1.11557 4.82722,0.27121 z M 100.8,978.56223 c 0,-0.33 -0.11906,-0.6 -0.26458,-0.6 -0.14553,0 -0.43146,0.27 -0.635417,0.6 -0.203952,0.33 -0.08489,0.6 0.264587,0.6 0.34948,0 0.63541,-0.27 0.63541,-0.6 z m 21.65808,15.10853 c -0.37138,-0.69394 -0.65808,-4.3313 -0.65808,-8.34909 0,-4.73734 -0.2409,-7.36035 -0.72,-7.83944 -0.94041,-0.94041 -0.16783,-1.64989 2.61387,-2.40038 1.52602,-0.41171 2.3936,-0.39215 2.85,0.0642 0.41106,0.41107 0.65613,3.73006 0.65613,8.88614 0,6.03733 0.19982,8.30326 0.75,8.505 1.25042,0.45849 -0.31477,1.62982 -2.6937,2.01586 -1.7519,0.2843 -2.25951,0.12424 -2.79822,-0.88233 z m 3.59571,-9.10094 c -0.0762,-4.78083 -0.21708,-8.77088 -0.31299,-8.86679 -0.0959,-0.0959 -0.81931,0.0703 -1.60758,0.36943 -1.43048,0.54277 -1.43287,0.56004 -1.25115,9.05355 l 0.18207,8.50974 1.56412,-0.18676 1.56413,-0.18676 -0.1386,-8.69241 z m 26.19621,9.85922 c -0.2475,-0.25675 -0.45,-5.70456 -0.45,-12.10625 0,-7.27014 -0.24609,-12.09929 -0.65558,-12.86442 -0.47236,-0.88262 -0.47316,-1.4074 -0.003,-1.8777 0.75409,-0.75409 14.18782,-1.36704 16.61415,-0.75807 3.04289,0.76372 0.42185,1.8126 -5.3284,2.13231 l -5.52717,0.30732 -0.17368,4.56362 -0.17369,4.56362 3.17369,0.38117 c 1.74553,0.20964 4.65869,0.39209 6.47369,0.40546 3.03268,0.0223 3.20565,0.0956 2.13532,0.90521 -0.7824,0.59177 -2.65332,0.88394 -5.7,0.89011 -2.49443,0.005 -4.88446,0.23068 -5.31119,0.50139 -0.55846,0.35429 -0.72658,1.90683 -0.6,5.54081 l 0.17586,5.04861 6.90001,0.30258 c 6.42927,0.28194 6.77719,0.35848 5.1,1.12188 -1.99703,0.90898 -15.92242,1.69712 -16.65001,0.94235 z m 3.75541,-2.35258 c -0.70426,-1.85235 -0.31761,-10.44203 0.50716,-11.2668 0.41219,-0.41219 0.35287,-1.01949 -0.18345,-1.87828 -0.58268,-0.93302 -0.68847,-2.58749 -0.39942,-6.24683 l 0.39318,-4.97768 -1.81144,0.17768 -1.81144,0.17768 -0.16312,11.98307 c -0.0897,6.59069 -0.0307,12.32819 0.13117,12.75 0.16186,0.42182 1.10609,0.76693 2.09827,0.76693 1.67172,0 1.76257,-0.10893 1.23909,-1.48577 z m 19.38834,1.72522 c -0.57972,-1.51072 0.91396,-1.97737 5.18357,-1.61942 3.22017,0.26996 4.10263,0.14758 4.77469,-0.6622 1.37068,-1.65156 -0.0302,-3.46951 -4.60656,-5.9781 -4.82993,-2.64758 -6.1134,-4.35595 -5.04095,-6.70973 0.99888,-2.19231 5.42939,-3.99358 10.06193,-4.09081 3.90448,-0.0819 5.34842,0.54056 4.48697,1.93442 -0.55066,0.89099 -2.01274,0.97963 -6.07699,0.36842 -2.1006,-0.31591 -2.90109,-0.19573 -3.49957,0.52539 -1.36166,1.6407 -0.17119,3.32863 3.71805,5.27175 4.71355,2.35496 6.40512,3.91862 6.40512,5.92083 0,3.2846 -5.34672,6 -11.8142,6 -2.40213,0 -3.31738,-0.24475 -3.59206,-0.96055 z m 2.92626,-0.95945 c -0.56,-0.56 -0.88001,-0.56 -1.44,0 -0.56,0.56 -0.40001,0.72 0.72,0.72 1.12,0 1.27999,-0.16 0.72,-0.72 z m 10.18275,-1.47299 c 2.19754,-1.98875 0.98752,-5.46073 -2.24523,-6.44235 -0.68336,-0.2075 -2.50586,-1.17849 -4.05,-2.15775 -2.504,-1.58799 -2.80752,-2.01686 -2.80752,-3.96688 0,-2.13165 -0.0338,-2.16406 -1.35,-1.29445 -3.05331,2.01731 -1.72868,4.89221 3.45,7.48767 4.21618,2.11308 5.1,3.04191 5.1,5.35974 0,2.26269 0.32915,2.43811 1.90275,1.01402 z m 0.19725,-15.20701 c -0.20396,-0.33 -0.91082,-0.6 -1.57082,-0.6 -0.66,0 -1.03314,0.27 -0.82918,0.6 0.20395,0.33 0.91081,0.6 1.57081,0.6 0.66,0 1.03314,-0.27 0.82919,-0.6 z m 5.1,18.05261 c -0.79412,-0.53754 -0.78537,-0.72388 0.0744,-1.58388 0.82436,-0.82458 1.55328,-0.88704 4.73394,-0.40563 3.28346,0.49696 3.89525,0.43332 4.83109,-0.50251 1.68902,-1.68902 0.79059,-3.42621 -2.66704,-5.15693 -7.26675,-3.6374 -8.78438,-6.37229 -5.20663,-9.38277 3.05671,-2.57204 12.33841,-3.40843 13.08162,-1.1788 0.40596,1.21789 -1.95446,1.99759 -3.94583,1.3034 -2.41566,-0.8421 -4.92745,-0.48993 -5.73795,0.80451 -0.99015,1.58135 0.0273,2.70418 4.75327,5.24566 4.89523,2.63249 6.19061,4.47265 4.96589,7.05434 -0.43051,0.9075 -1.83952,2.16589 -3.13115,2.79643 -2.66314,1.30007 -10.34568,1.95786 -11.75159,1.00618 z m 3.12,-1.37261 c -0.56,-0.56 -0.88001,-0.56 -1.44,0 -0.56,0.56 -0.40001,0.72 0.72,0.72 1.12,0 1.27999,-0.16 0.72,-0.72 z m 10.08,-1.68 c 2.45022,-2.45022 1.44009,-4.36185 -3.66272,-6.93158 -4.48606,-2.25915 -6.2753,-4.25821 -5.63026,-6.29054 0.36339,-1.14493 0.2746,-1.21027 -0.83649,-0.61563 -1.7672,0.94578 -2.64078,2.79853 -1.93837,4.111 0.31591,0.59028 2.50644,2.13232 4.86784,3.42675 4.58027,2.51073 5.67735,3.78093 5.24029,6.06724 -0.33409,1.74771 0.36207,1.83039 1.95971,0.23276 z m 0,-15 c 0,-0.33 -0.7425,-0.59587 -1.65,-0.59081 -1.28577,0.007 -1.45133,0.13758 -0.75,0.59081 1.17391,0.75865 2.4,0.75865 2.4,0 z m 9.67289,17.57405 c -3.62752,-1.78704 -5.41803,-6.12133 -4.27789,-10.35549 2.0296,-7.53735 13.74755,-11.59475 17.97283,-6.22318 1.55559,1.97761 1.61424,4.75792 0.11728,5.55907 -0.6132,0.32817 -3.9882,0.78244 -7.5,1.00948 -6.98489,0.45159 -7.04471,0.49598 -5.53523,4.10867 1.16454,2.78715 3.52712,4.1657 7.82143,4.56376 l 3.62869,0.33636 -2.23073,1.01364 c -2.82733,1.28473 -7.37488,1.27913 -9.99638,-0.0123 z m 3.77389,-1.30862 c -2.87494,-1.75312 -4.44678,-4.12529 -4.44678,-6.71093 0,-1.25603 0.24465,-2.43488 0.54367,-2.61969 0.29902,-0.1848 0.40974,-0.84813 0.24606,-1.47407 -0.16369,-0.62593 0.0388,-1.76653 0.44983,-2.53467 0.73034,-1.36465 0.71555,-1.37543 -0.6464,-0.47112 -3.11888,2.07085 -4.58331,7.9841 -2.78145,11.23119 1.13385,2.04329 3.99821,3.70572 6.38829,3.70766 l 2.1,0.002 -1.85322,-1.13008 z m 9.89265,-11.09245 c 1.53536,-1.84999 -1.91202,-5.77298 -5.07309,-5.77298 -0.72437,0 -0.4888,0.47123 0.8702,1.74073 1.16003,1.08362 1.86346,2.32933 1.86346,3.3 0,1.70534 1.21596,2.08595 2.33943,0.73225 z m -3.83612,-0.37835 c 1.22165,-1.97666 -2.4673,-4.68514 -5.38408,-3.95307 -1.67494,0.42038 -3.63596,2.96056 -3.03554,3.93205 0.4968,0.80385 7.92435,0.82239 8.41962,0.021 z m 10.5178,12.64481 c -0.34161,-0.6383 -0.62111,-4.4993 -0.62111,-8.58 0,-4.83895 -0.24267,-7.6621 -0.69771,-8.11714 -0.53027,-0.53027 -0.30492,-0.84704 0.93906,-1.32 0.90023,-0.34227 2.26355,-0.6223 3.02961,-0.6223 1.82063,0 2.15295,1.74959 2.10833,11.1 -0.0284,5.95143 -0.20555,7.33006 -1.0215,7.95 -1.43834,1.0928 -3.02543,0.91843 -3.73668,-0.41056 z m 3.57889,-8.70403 c 0,-5.00728 -0.24802,-8.81788 -0.5876,-9.02775 -0.32318,-0.19973 -1.06568,-0.10785 -1.65,0.20419 -0.95338,0.50912 -1.04377,1.43554 -0.88078,9.02774 l 0.18163,8.46041 1.46837,0 1.46838,0 0,-8.66459 z m 11.85,9.51637 c -0.2475,-0.24848 -0.45,-3.64678 -0.45,-7.55178 0,-6.3 -0.13521,-7.23521 -1.2,-8.3 -1.40701,-1.40701 -1.90289,-1.4345 -5.1,-0.2827 -3.08649,1.11195 -3.09231,1.11068 -1.74441,-0.37873 3.33093,-3.68064 10.53332,-4.33577 12.25707,-1.1149 0.32304,0.60359 0.58734,4.18713 0.58734,7.96342 0,5.45497 0.19018,7.02381 0.92543,7.63401 0.50898,0.42243 0.71148,0.98166 0.45,1.24276 -0.69702,0.69597 -5.1998,1.31564 -5.72543,0.78792 z m 3.26266,-8.80153 c -0.16826,-7.14075 -0.31249,-8.05716 -1.41647,-9.00025 -1.33462,-1.14011 -4.3991,-1.41612 -4.99619,-0.45 -0.20395,0.33 0.0308,0.6 0.52173,0.6 2.26664,0 2.77827,1.64687 2.77827,8.94286 0,3.88143 0.18,7.23714 0.4,7.45714 0.22,0.22 0.9625,0.40011 1.65,0.40025 1.21321,2.4e-4 1.24448,-0.23374 1.06266,-7.95 z m 11.41825,8.1519 c -4.0799,-2.0109 -5.56601,-6.11039 -4.07473,-11.24022 1.13636,-3.90896 3.29341,-5.94411 7.68117,-7.24714 3.11928,-0.92632 8.57539,-1.2176 10.31357,-0.5506 1.52141,0.58382 1.10028,1.9268 -0.93409,2.97882 -1.47406,0.76226 -2.1971,0.83078 -3.32823,0.31541 -4.95652,-2.25835 -9.1886,1.28799 -9.1886,7.69972 0,2.70464 1.57454,4.95436 4.24027,6.05854 1.53082,0.63409 2.43469,0.63719 4.8558,0.0167 3.27414,-0.83914 4.34983,-0.48902 2.56013,0.83328 -2.85262,2.10761 -8.98738,2.68213 -12.12529,1.13551 z m 3.6136,-1.39891 c -4.16844,-2.54153 -5.49218,-7.69843 -3.15358,-12.28545 0.655,-1.28476 1.10122,-2.42563 0.99159,-2.53526 -0.50871,-0.50872 -3.61603,2.62978 -4.35523,4.39894 -2.4634,5.89575 0.63548,11.53276 6.37271,11.59226 l 2.1,0.0218 -1.95549,-1.19227 z m 9.45549,-16.27322 c 0,-0.29151 -1.1475,-0.52045 -2.55,-0.50876 -2.4484,0.0204 -2.49258,0.0531 -1.10872,0.81996 1.47907,0.81965 3.65872,0.63425 3.65872,-0.3112 z m 7.17713,17.31998 c -5.9235,-2.98705 -6.74715,-10.53628 -1.66706,-15.27972 2.331,-2.17653 6.70865,-3.42091 11.37647,-3.23386 2.1312,0.0854 5.31346,3.12203 5.31346,5.07028 0,2.56205 -1.97205,3.39212 -8.08351,3.40249 -2.97907,0.005 -5.78959,0.24548 -6.24559,0.53429 -1.43466,0.90864 -0.3016,4.52966 2.06857,6.61069 1.74372,1.531 2.61041,1.84583 5.08141,1.84583 3.39065,0 3.87307,0.77098 1.08959,1.7413 -2.93271,1.02235 -6.00681,0.78447 -8.93334,-0.6913 z m 3.46794,-1.18453 c -1.37919,-0.79939 -2.71906,-2.26573 -3.45,-3.77566 -1.43351,-2.96121 -1.49597,-4.09315 -0.28152,-5.10105 0.51753,-0.42952 0.76321,-1.23181 0.56676,-1.85081 -0.19074,-0.60094 -0.0523,-1.64282 0.30756,-2.31529 0.87299,-1.6312 -0.075,-1.55615 -1.6083,0.12734 -1.88293,2.06728 -2.65264,3.8942 -2.68691,6.37744 -0.0628,4.55314 2.97818,7.81365 7.30734,7.83475 l 2.1,0.0103 -2.25493,-1.30696 z m 10.13847,-10.96681 c 0.93503,-2.43666 -1.87965,-5.69866 -4.9172,-5.69866 -0.72437,0 -0.4888,0.47123 0.8702,1.74073 1.16003,1.08362 1.86346,2.32933 1.86346,3.3 0,1.71827 1.59251,2.19812 2.18354,0.65793 z m -3.68022,-0.30403 c 1.00996,-1.63415 -1.64101,-4.19463 -4.34288,-4.19463 -1.18104,0 -3.76044,2.30514 -3.76044,3.36059 0,0.41328 0.4725,0.8749 1.05,1.02581 2.03707,0.53235 6.68387,0.406 7.05332,-0.19177 z M 118.8,970.32603 c -1.91203,-0.96858 -2.11661,-1.32487 -2.28559,-3.98049 -0.20952,-3.29251 0.7947,-5.18902 5.63103,-10.63446 2.78085,-3.1311 2.78247,-3.13553 2.54016,-6.94097 -0.28225,-4.43267 0.28369,-4.95264 1.24318,-1.14219 1.1201,4.44832 0.82284,7.51181 -1.12925,11.63818 -2.48476,5.25233 -2.24353,7.89613 0.72047,7.89613 1.54019,0 1.33494,1.49495 -0.3575,2.60388 -2.35149,1.54075 -4.11919,1.69631 -6.3625,0.55992 z m 7.05,-4.41676 c -1.83887,-1.06246 -1.31118,-4.13172 1.31015,-7.62039 2.73184,-3.63574 3.55123,-3.22752 2.04335,1.01802 -0.9151,2.57653 -0.94505,3.16972 -0.22769,4.51012 0.4543,0.84887 0.7131,1.64527 0.5751,1.76977 -0.74662,0.6736 -2.78567,0.85128 -3.70091,0.32248 z"
       style="fill:#808080" />
  </g>
</svg>
