<?xml version="1.0" encoding="UTF-8" standalone="no"?>
<!-- Created with Inkscape (http://www.inkscape.org/) -->

<svg
   xmlns:dc="http://purl.org/dc/elements/1.1/"
   xmlns:cc="http://creativecommons.org/ns#"
   xmlns:rdf="http://www.w3.org/1999/02/22-rdf-syntax-ns#"
   xmlns:svg="http://www.w3.org/2000/svg"
   xmlns="http://www.w3.org/2000/svg"
   xmlns:sodipodi="http://sodipodi.sourceforge.net/DTD/sodipodi-0.dtd"
   xmlns:inkscape="http://www.inkscape.org/namespaces/inkscape"
   width="25.911617mm"
   height="19.574009mm"
   viewBox="0 0 91.812817 69.356725"
   id="svg2"
   version="1.1"
   inkscape:version="0.91 r13725"
   sodipodi:docname="west_point_steakhouse.svg">
  <defs
     id="defs4" />
  <sodipodi:namedview
     id="base"
     pagecolor="#ffffff"
     bordercolor="#666666"
     borderopacity="1.0"
     inkscape:pageopacity="0.0"
     inkscape:pageshadow="2"
     inkscape:zoom="8.3500003"
     inkscape:cx="53.418908"
     inkscape:cy="47.688622"
     inkscape:document-units="px"
     inkscape:current-layer="layer1"
     showgrid="false"
     fit-margin-top="0"
     fit-margin-left="0"
     fit-margin-right="0"
     fit-margin-bottom="0"
     inkscape:window-width="1920"
     inkscape:window-height="1048"
     inkscape:window-x="0"
     inkscape:window-y="0"
     inkscape:window-maximized="1" />
  <metadata
     id="metadata7">
    <rdf:RDF>
      <cc:Work
         rdf:about="">
        <dc:format>image/svg+xml</dc:format>
        <dc:type
           rdf:resource="http://purl.org/dc/dcmitype/StillImage" />
        <dc:title></dc:title>
      </cc:Work>
    </rdf:RDF>
  </metadata>
  <g
     inkscape:label="Layer 1"
     inkscape:groupmode="layer"
     id="layer1"
     transform="translate(-4.5810916,-980.69407)">
    <path
       style="fill:#000000"
       d="m 12.244699,1047.915 c -0.729264,-1.3626 -0.917854,-4.5301 -0.52098,-8.75 0.776816,-8.2598 0.776807,-8.293 -0.0041,-15.8802 -0.7261,-7.0544 -1.9092186,-8.7553 -2.9125638,-4.1871 -0.4668787,2.1257 -1.1810429,2.9677 -2.3313719,2.7485 -2.4549315,-0.4676 -2.5215373,-3.8347 -0.2148496,-10.8612 1.1310924,-3.4455 2.0590412,-8.5527 2.0621085,-11.34938 0.00307,-2.79666 0.4869485,-6.81844 1.0752915,-8.93729 1.1713463,-4.21846 1.1102713,-4.20814 10.4191313,-1.76036 5.451227,1.4334 33.937835,3.46171 38.956717,2.7738 4.722655,-0.64731 17.357324,-6.91823 19.543283,-9.69985 1.081515,-1.37622 1.918485,-1.64133 3,-0.95025 0.825,0.52717 3.350098,0.96538 5.611328,0.9738 3.752112,0.014 4.072769,0.21702 3.670009,2.32392 -0.305245,1.59679 0.508352,3.32525 2.638672,5.60576 4.868162,5.21138 4.38325,6.2929 -3.406392,7.59738 -5.663776,0.94847 -11.057899,6.97607 -12.512265,13.98177 -0.600849,2.8942 -1.971955,6.9874 -3.046903,9.0958 -1.074947,2.1085 -1.954449,4.8341 -1.954449,6.057 0,1.2229 -0.443588,3.3902 -0.985751,4.8162 -1.239095,3.2591 -1.608397,12.3106 -0.623725,15.2875 0.604589,1.8278 0.371644,2.25 -1.241349,2.25 -5.974386,0 -8.002194,-4.1164 -8.374585,-17 l -0.27459,-9.5 -11.62879,0 c -9.771303,0 -11.947803,-0.2864 -13.625972,-1.7928 -1.09845,-0.986 -3.593945,-2.0518 -5.545546,-2.3685 -3.416761,-0.5545 -3.591235,-0.4324 -4.704295,3.2927 -1.216566,4.0715 -0.911779,20.1797 0.456355,24.1186 0.67873,1.9541 0.442012,2.25 -1.799937,2.25 -1.557992,0 -3.005812,-0.793 -3.651815,-2 -1.65532,-3.093 -3.258156,-2.4519 -2.5,1 0.597392,2.7199 0.421365,3 -1.885361,3 -1.574731,0 -2.979845,-0.8139 -3.687305,-2.1358 z"
       id="path4237"
       inkscape:connector-curvature="0" />
  </g>
</svg>
